<?xml version="1.0" encoding="UTF-8"?>
<svg id="Layer_2" data-name="Layer 2" xmlns="http://www.w3.org/2000/svg" viewBox="0 0 1524.13 594.14">
  <defs>
    <style>
      .cls-1 {
        fill: #db0032;
      }

      .cls-1, .cls-2, .cls-3, .cls-4, .cls-5, .cls-6, .cls-7, .cls-8 {
        stroke-width: 0px;
      }

      .cls-2 {
        fill: #bdbbbb;
      }

      .cls-3 {
        fill: #fff;
      }

      .cls-4 {
        fill: #f6dfa4;
      }

      .cls-5 {
        fill: #7b6756;
      }

      .cls-6 {
        fill: #101820;
      }

      .cls-7 {
        fill: #c68255;
      }

      .cls-8 {
        fill: #d9c79e;
      }
    </style>
  </defs>
  <g>
    <rect class="cls-1" x="163.26" y="163.31" width="930.07" height="267.5"/>
    <path class="cls-3" d="M533.99,282.7l4.49-32.43c3.01-21.75-20.38-36.43-42.32-37.12-21.77-.69-41,12.29-44.47,33.8l-15.21,94.37c-3.54,21.95,18.72,39.08,40.96,39.67,20.07.53,41.46-12.19,43.88-26.96l6.44-39.27h-34.91l-5.66,24.23c-.81,3.46-4.27,5.05-7.8,4.69-3.43-.35-7.15-2.45-6.63-5.86l12.48-82.06c.67-4.43,4.95-7.38,9.36-6.64,3.3.55,6.81,2.34,6.44,5.67l-3.12,27.94h36.08Z"/>
    <polygon class="cls-3" points="842.6 215.68 874.21 215.68 863.52 281.83 882.2 281.83 894.25 216.08 926.28 216.08 899.91 378.44 867.92 378.44 876.5 315.14 858.22 315.14 847.3 378.44 815.29 378.44 842.6 215.68 842.6 215.68"/>
    <path class="cls-3" d="M440.13,263.27l3.32-24.81c1.58-11.83-14.85-24.1-29.84-24.23-15.21-.13-27.88,9.42-30.42,24.42l-11.31,66.82c-2.61,15.42,16.07,27.27,29.84,26.77,16.19-.59,28.12-7.74,30.23-20.91l4.1-25.6h-24.77l-3.71,17.11c-.57,2.63-3.63,3.59-6.24,2.93-2.41-.61-4.51-2.43-4.1-4.88l9.75-57.05c.46-2.69,2.94-4.32,5.66-4.1,2.55.2,5.19,1.84,4.88,4.38l-2.34,19.15h24.96Z"/>
    <polygon class="cls-3" points="363.15 378.17 417.95 378.17 424.14 344.06 369.17 344.06 363.15 378.17 363.15 378.17"/>
    <polygon class="cls-3" points="750.49 215.29 832 215.29 826.54 250.27 802.45 250.27 780.02 378.44 748.02 378.44 768.5 250.07 744.44 250.07 750.49 215.29 750.49 215.29"/>
    <polygon class="cls-3" points="246.65 215.1 290.73 215.1 300.87 283.88 328.18 215.1 376.15 215.1 349.04 378.44 315.11 378.44 328.56 295.21 295.8 378.44 275.52 378.44 267.72 295.99 253.87 378.44 219.35 378.44 246.65 215.1 246.65 215.1"/>
    <polygon class="cls-3" points="932.98 216.27 966.92 216.27 975.89 273.71 1000.46 216.27 1035.96 216.27 983.23 321.98 973.67 378.44 941.57 378.44 951.12 322.56 932.98 216.27 932.98 216.27"/>
    <path class="cls-3" d="M575.54,215.88h-1.37l-51.48,162.56h33.92l10.14-31.65h23.99v31.65h32.89v-162.56h-48.1ZM590.74,314.36h-15.41l15.41-55.3v55.3Z"/>
    <path class="cls-3" d="M737.94,250.27c-1.14-12.01-4.49-20.71-13.65-27.75-4.65-3.57-8.85-5.42-13.32-6.39-4.49-.97-9.24-1.04-14.96-1.04h-38.81l-25.2,163.35h31.73l10.14-54.32,10.25-2.34,10.14,56.66h33.58s-12.29-72.3-12.29-72.3c-.1-.61,13.62-12.5,17.33-23.84,3.93-12.02,6.24-19.73,5.07-32.04ZM693.61,278.21c-4.37,4.1-16.16,10.59-15.56,7.03l6.31-38.4c15.99-1.12,17.3,11.82,17.3,11.82.26,10.77-2.55,14.39-8.05,19.55Z"/>
  </g>
  <g>
    <rect class="cls-6" x="1093.33" y="163.31" width="267.5" height="267.5"/>
    <path class="cls-2" d="M1120.78,377.44c-.06-1.18-18.47-33.05-18.53-33.08l5.76-2.79,5.23,3.49c3.14-2.44,28.94-15.43,29.64-15.89,7.69.88,30.7,7.06,32.49,8.05,1.62.9,1.65,3.18,3.35,4.02l-16.08-1.01v3.02c4.68.76,18.57,3.82,20.77,5.36,2.43,1.71,2.83,4.87,4.69,7.04,0,0-24.4-5.36-27.97-5.36-.34,0-35.87,18.52-34.16,18.52.17,0,0,3.84.35,5.94l-5.55,2.7Z"/>
    <path class="cls-8" d="M1169.42,396.74l-17.44,3.84c0-2.1-13.86-27.58-15.78-28.84.85-.8,14.64-11.47,14.91-6.43,0,0,13.78,19.73,18.32,31.43Z"/>
    <path class="cls-7" d="M1133.83,413.94c0-.59,0-.92,0-.92,7.68-2.27,13.43-5.24,27.74-8.56,4.06,0,15.18,1.05,16.15-4.49.76-4.29-6.7-5.42-6.03-9.72.34-2.2,6.54-5.09,17.79-4.3,10.59,2.1,20.79,16.69,27.24,27.99h-82.89Z"/>
    <path class="cls-1" d="M1230.38,413.94c-3.82-5.61-9.01-13.1-14.52-21.62,1.34-2.99.66-7.07,2.01-9.56.2-.37,20.17-15.84,22.78-18.1,0,0-5.5,22.86-6.55,28.44,0,0,1.2,4.73,9.57,20.83"/>
    <path class="cls-1" d="M1343.88,413.94v-75.09c-1.93,1.66-23.73,35.75-24.77,38.19-9.59-4.02-58.58-22.44-58.58-22.44-2.46,4.92-10.82,34.02-11.39,34.53v4.36c.63.46,6.65,11.71,11.22,20.45h83.52Z"/>
    <path class="cls-1" d="M1311.77,359.63c-1.81-1.64-28.35-28.08-29.81-28.83,3.83-5.45,45.87-43.34,60.29-56.66h1.63s.05,35.87.05,35.87c-2.31,3.64-32.1,48.77-32.15,49.62Z"/>
    <path class="cls-4" d="M1317.77,248.01c-9.82-.64-8.1-12.68-8.1-19.43,0,0,.14-26.11-14.54-48.46h-104.47c-4.04,9.38-13.77,34.72-12.99,60.25l-15.14-.06s-1.71-28.28,23.35-60.19h-22.41c-18.16,25.22-17.93,56.5-17.93,56.5-1.34.67-21.24,16.62-21.24,16.8h193.46c-.14.25,0-5.41,0-5.41ZM1215.77,240.4h-9.13c3.71-46.79,11.03-44.98,11.03-44.98-3.17,18.11-1.91,44.98-1.91,44.98Z"/>
    <path class="cls-5" d="M1312.23,277.68c0,1.83-21.61,22.33-26.57,26.1l-1.1-13.81c2.49-3.86,4.67-8.14,4.67-8.14l.17-19.74h22.14c0,3.61.68,14.94.68,15.59Z"/>
    <path class="cls-7" d="M1263.91,324.37c-1.95,3.28-41.46,31.74-48.56,31.42-4.13-.19-25.6-35.99-28.61-36.66-3.88-.87-13.47,1.97-15.87,1.92-2.77-.06-7.57-1.14-4.67-14.78,0,0,2.61-26.18,5.01-26.08,4.41-.95,17.01,10.64,18.03,9.96,3.87-2.58,17.17-8.46,20.39-12.09-1.49-4.79-33.68-8.02-33.68-8.02,0,0-3.95,4.58-5.27,5.45-5.71,0-16.22-7.97-13.36-13.63,0,0,57.63-.14,59.52.16,8.52,1.36,20.61,13.98,20.61,13.98l4.26-.51s.16-13.2.34-13.47c0,0,23.54-1.22,25.72.85l.09,20.92c-1.79,5.17-2.96,6.42-9.16,9.16-.98.43,6.69,22.6,5.23,31.42Z"/>
  </g>
  <path class="cls-2" d="M1355.11,417.67c1.05,1.05,1.61,2.45,1.61,3.96s-.56,2.91-1.63,3.94c-1.11,1.08-2.52,1.67-3.99,1.67s-2.88-.59-3.96-1.67c-1.06-1.06-1.64-2.45-1.64-3.94s.59-2.91,1.69-4c1.03-1.05,2.39-1.61,3.91-1.61s2.92.58,4,1.66ZM1354.64,418.14c-.95-.95-2.17-1.45-3.53-1.45s-2.53.49-3.44,1.41c-.97.97-1.49,2.22-1.49,3.53s.52,2.52,1.45,3.47c.94.95,2.17,1.45,3.46,1.45s2.56-.5,3.53-1.45c.92-.91,1.44-2.11,1.44-3.44s-.5-2.6-1.42-3.52ZM1353.94,420.1c0,.89-.56,1.55-1.5,1.7l1.44,2.94h-1.2l-1.34-2.78h-1.36v2.78h-1.08v-6.41h2.38c1.78,0,2.67.56,2.67,1.77ZM1349.97,419.03v2.22h1.13c1.19,0,1.74-.27,1.74-1.08s-.56-1.14-1.77-1.14h-1.09Z"/>
</svg>