<?xml version="1.0" encoding="utf-8"?>
<!-- Generator: Adobe Illustrator 27.3.1, SVG Export Plug-In . SVG Version: 6.00 Build 0)  -->
<svg version="1.1" id="Layer_1" xmlns="http://www.w3.org/2000/svg" xmlns:xlink="http://www.w3.org/1999/xlink" x="0px" y="0px"
	 viewBox="0 0 721.34 229.51" style="enable-background:new 0 0 721.34 229.51;" xml:space="preserve">
<style type="text/css">
	.st0{fill:#971B2F;}
	.st1{fill:#0057B7;}
</style>
<g>
	<path class="st0" d="M70.42,17.01H20.6v47.15C26.88,39.98,45.33,22.62,70.42,17.01z"/>
	<path class="st1" d="M88.73,116.75c18.04,0,30.13-13.65,30.13-33.64c0-19.7-12.09-33.15-30.13-33.15
		c-18.53,0-31.01,13.46-31.01,33.15C57.73,103.1,70.21,116.75,88.73,116.75z"/>
	<path class="st0" d="M649.95,17.01h-46.41l-41.58,108.16l-13.63-25.19c14.14-7.22,23.79-21.06,23.79-39.1
		c0-25.94-20.96-43.88-46.61-43.88h-66.79v27.01c-6.86-16.52-23.71-27.01-43.32-27.01H218.89L194.71,52.4l-24.18-35.39h-64.07
		c30.95,6.99,51.79,32.23,51.79,66.11c0,34.05-20.84,59.31-51.8,66.3h61.73l26.52-39.2l26.52,39.2h166.1v-44.36h12.97l23.3,44.46
		l73.83-0.1v-44.36h12.97l23.3,44.46l60.48-0.1l8.58-22.13h47.87l8.58,22.13h41.54L649.95,17.01z M254.31,133.59l-37.27-51.84
		l37.27-52.1V133.59z M348.62,118.31h-55.5V97.64h46.65v-31.1h-46.65V48.21h55.5V118.31z M408.87,74.83h-21.55V48.5h21.55
		c8.58,0,13.55,5.46,13.55,12.38C422.43,68.2,417.16,74.83,408.87,74.83z M458.72,137.85l-20.5-37.87
		c9.23-4.71,16.53-12.27,20.5-21.96V137.85z M518.98,74.83h-21.55V48.5h21.55c8.58,0,13.55,5.46,13.55,12.38
		C532.53,68.2,527.27,74.83,518.98,74.83z M611.53,97.94l15.21-44.27l15.11,44.27H611.53z"/>
	<path class="st0" d="M20.6,101.97v47.44h49.89C45.36,143.79,26.89,126.3,20.6,101.97z"/>
</g>
</svg>
