<?xml version="1.0" encoding="UTF-8"?>
<svg version="1.1" xmlns="http://www.w3.org/2000/svg" width="1024" height="370">
<path d="M0 0 C60.72 0 121.44 0 184 0 C184 60.72 184 121.44 184 184 C123.28 184 62.56 184 0 184 C0 123.28 0 62.56 0 0 Z M57 57 C57 80.1 57 103.2 57 127 C79.77 127 102.54 127 126 127 C126 103.9 126 80.8 126 57 C103.23 57 80.46 57 57 57 Z " fill="#000000" transform="translate(0,5)"/>
<path d="M0 0 C18.19125 -0.061875 36.3825 -0.12375 55.125 -0.1875 C60.84473145 -0.21481201 66.56446289 -0.24212402 72.45751953 -0.27026367 C79.50366211 -0.28381348 79.50366211 -0.28381348 82.81417847 -0.28633118 C85.10024778 -0.29090353 87.38631038 -0.30138247 89.67233276 -0.31672668 C110.78017662 -0.45118361 129.64246291 0.13465559 145.80859375 15.57421875 C156.12371288 26.99255918 158.65855959 40.07595066 158.13183594 54.95751953 C157.34099216 67.20973994 149.9426526 74.46732353 141.171875 82.21484375 C139 84 139 84 137 85 C137.845625 85.42410156 138.69125 85.84820312 139.5625 86.28515625 C151.58918482 92.50349897 161.22237074 99.46510666 165.8125 112.75 C170.22553467 127.19265893 168.62039405 142.22714265 161.9375 155.6875 C154.09771195 169.32477838 141.97822559 177.75359584 127 182 C119.64744598 183.8272321 112.6813003 184.27834726 105.12451172 184.22705078 C103.96358065 184.22729185 102.80264957 184.22753292 101.60653877 184.2277813 C97.88084135 184.22629883 94.15534872 184.21111507 90.4296875 184.1953125 C88.11661882 184.19236876 85.8035488 184.19033036 83.49047852 184.18920898 C74.95196525 184.17876 66.41348057 184.15083746 57.875 184.125 C38.77625 184.08375 19.6775 184.0425 0 184 C0 123.28 0 62.56 0 0 Z M57 43 C57 52.57 57 62.14 57 72 C61.98141263 72.09224838 66.95981736 72.17175286 71.94140625 72.21972656 C73.63291511 72.2397406 75.32435567 72.26696073 77.015625 72.30175781 C79.45850554 72.35073065 81.90046511 72.37307033 84.34375 72.390625 C85.46299866 72.42159271 85.46299866 72.42159271 86.6048584 72.45318604 C92.16963236 72.45552064 96.32589615 71.03818495 101 68 C104.0026733 64.80360584 104.91829753 62.08255767 105.25 57.6875 C104.93179401 52.99396171 103.4166322 50.0876685 100.8125 46.25 C95.6518751 42.69094834 88.82812319 42.71582409 82.78125 42.8046875 C81.66623108 42.80893234 81.66623108 42.80893234 80.52868652 42.81326294 C78.18561783 42.82433843 75.84295053 42.84941772 73.5 42.875 C71.89844307 42.88504619 70.29688007 42.89416915 68.6953125 42.90234375 C64.79660099 42.92252342 60.89874264 42.96169358 57 43 Z M57 110 C57 120.56 57 131.12 57 142 C62.71131497 142.06905755 68.42116779 142.12873506 74.13256836 142.16479492 C76.07337364 142.17983491 78.0141452 142.20027214 79.95483398 142.22631836 C82.75252632 142.26291295 85.54976733 142.27977448 88.34765625 142.29296875 C89.2083522 142.30845261 90.06904816 142.32393646 90.95582581 142.33988953 C97.15114669 142.34160083 102.13626381 141.51004766 106.9609375 137.28125 C107.42757812 136.6934375 107.89421875 136.105625 108.375 135.5 C108.85710937 134.9121875 109.33921875 134.324375 109.8359375 133.71875 C112.47287045 129.82529196 112.57497565 125.53314135 112 121 C110.63736522 116.69511561 108.47515175 113.94225086 104.48046875 111.82128906 C99.59171809 109.51277385 95.14091825 109.48704861 89.8125 109.609375 C88.39783447 109.61786469 88.39783447 109.61786469 86.95458984 109.62652588 C83.96919022 109.64875415 80.98503126 109.6989244 78 109.75 C75.96486119 109.77008254 73.92970341 109.78833022 71.89453125 109.8046875 C66.92883558 109.84515772 61.96579141 109.92347239 57 110 Z " fill="#000000" transform="translate(366,5)"/>
<path d="M0 0 C0.73138184 -0.00570007 1.46276367 -0.01140015 2.21630859 -0.01727295 C3.75926291 -0.0266682 5.30223679 -0.03323498 6.84521484 -0.03710938 C9.15369849 -0.04673407 11.46125885 -0.07777512 13.76953125 -0.109375 C36.14717766 -0.26969632 57.28877169 5.2929341 73.93359375 20.921875 C84.89600705 32.01728118 89.1875 44.80580706 89.1875 60.203125 C70.3775 60.203125 51.5675 60.203125 32.1875 60.203125 C30.8675 56.903125 29.5475 53.603125 28.1875 50.203125 C24.37129374 45.04002241 19.28594245 42.77855597 13.1875 41.203125 C5.93788073 40.35356024 -1.2616538 40.75458228 -7.8125 44.203125 C-11.05075901 47.04647437 -11.72786109 48.41316185 -12.1875 52.703125 C-11.83155642 56.02526509 -11.4650714 58.31112506 -9.8125 61.203125 C2.35093439 68.33204324 17.37035497 71.31157838 30.875 74.765625 C75.83582304 86.28599541 75.83582304 86.28599541 88 106.078125 C95.12557376 119.17421377 96.71388654 133.80822566 92.5 148.265625 C91.7725228 150.26113537 91.00403336 152.24237055 90.1875 154.203125 C89.836875 155.08226562 89.48625 155.96140625 89.125 156.8671875 C86.05470304 163.75403415 81.47438625 168.8983171 76.1875 174.203125 C75.57132813 174.8425 74.95515625 175.481875 74.3203125 176.140625 C57.32683803 192.47769917 30.23083815 195.5994037 7.76171875 195.35546875 C-13.78375385 194.43713713 -36.23714905 190.0079271 -52.8125 175.203125 C-53.78703125 174.36587891 -53.78703125 174.36587891 -54.78125 173.51171875 C-65.79620522 163.36525038 -70.93162799 150.60748506 -73.8125 136.203125 C-73.8125 132.573125 -73.8125 128.943125 -73.8125 125.203125 C-54.3425 125.203125 -34.8725 125.203125 -14.8125 125.203125 C-13.8225 129.493125 -12.8325 133.783125 -11.8125 138.203125 C-6.73438586 145.61717164 -1.39093933 148.83697659 7.25 150.953125 C17.15396602 151.79601572 26.27997788 150.72683075 34.1875 144.203125 C36.77786348 140.78855496 36.61858741 137.37030329 36.1875 133.203125 C33.21170022 127.13249344 28.7435679 124.43193667 22.5461731 122.29040527 C19.38741776 121.34417481 16.21663351 120.46049838 13.03515625 119.59375 C10.62424962 118.91441495 8.21344563 118.23471555 5.80273438 117.5546875 C2.0396016 116.50482888 -1.72481546 115.46005999 -5.49145508 114.42285156 C-51.10732986 101.81304785 -51.10732986 101.81304785 -63.8125 83.203125 C-70.8066616 70.8001451 -72.49451962 58.07016824 -69.05859375 44.1484375 C-63.8255789 28.69024302 -54.07215339 17.30881481 -39.80859375 9.57421875 C-27.29476927 3.44781879 -13.96171701 0.08695166 0 0 Z " fill="#000000" transform="translate(779.8125,-0.203125)"/>
<path d="M0 0 C19.8 0 39.6 0 60 0 C63.07140716 7.37137718 66.06787589 14.67673446 68.79296875 22.16796875 C69.13620682 23.10461868 69.47944489 24.04126862 69.83308411 25.00630188 C70.95365682 28.06581669 72.07055861 31.12665785 73.1875 34.1875 C73.98474456 36.36598845 74.78227623 38.54437185 75.58007812 40.72265625 C77.23466978 45.240969 78.88803459 49.75972781 80.54052734 54.27880859 C83.98063757 63.68360289 87.43582414 73.08285107 90.89083862 82.48217773 C92.74830982 87.53601215 94.60452063 92.59030948 96.4609375 97.64453125 C99.18334309 105.05592232 101.90658764 112.46700447 104.63067627 119.8777771 C106.24193049 124.26122147 107.8529082 128.64476744 109.46386719 133.02832031 C110.22056621 135.08712715 110.97739571 137.14588604 111.734375 139.20458984 C113.47291863 143.93283011 115.2097699 148.66167286 116.94238281 153.39208984 C118.38610552 157.33319681 119.84065042 161.27014828 121.29980469 165.20556641 C122.0411367 167.21642672 122.78235145 169.22733027 123.5234375 171.23828125 C124.04739609 172.64269722 124.04739609 172.64269722 124.5819397 174.07548523 C124.89956268 174.94043106 125.21718567 175.80537689 125.54443359 176.6965332 C125.8262851 177.45730667 126.1081366 178.21808014 126.39852905 179.00190735 C127 181 127 181 127 184 C106.87 184 86.74 184 66 184 C62.59389775 175.48474436 59.7355429 166.75373727 57 158 C38.52 157.67 20.04 157.34 1 157 C0.34 160.3 -0.32 163.6 -1 167 C-2.65 172.61 -4.3 178.22 -6 184 C-26.13 184 -46.26 184 -67 184 C-65.59930353 177.69686588 -64.08369406 172.03013601 -61.82421875 166.0625 C-61.50713455 165.21006714 -61.19005035 164.35763428 -60.86335754 163.47937012 C-59.81002708 160.65090921 -58.74864013 157.82553921 -57.6875 155 C-56.93160556 152.97356309 -56.17641471 150.94686361 -55.421875 148.91992188 C-54.21914081 145.68927723 -53.01593653 142.45881507 -51.81063843 139.22912598 C-47.44836751 127.53853281 -43.13888901 115.82863846 -38.83108521 104.1178894 C-36.61318442 98.08963538 -34.39252877 92.06239658 -32.171875 86.03515625 C-31.73758682 84.85635391 -31.30329865 83.67755157 -30.85585022 82.46302795 C-12.04728626 31.41511286 -12.04728626 31.41511286 -4.5 11.25 C-3.96584473 9.82095337 -3.96584473 9.82095337 -3.42089844 8.36303711 C-3.10668945 7.52651611 -2.79248047 6.68999512 -2.46875 5.828125 C-2.07333008 4.7747998 -2.07333008 4.7747998 -1.66992188 3.70019531 C-1 2 -1 2 0 0 Z M27 58 C25.17040106 65.11821773 23.34467041 72.23741568 21.52388 79.35789204 C20.67830471 82.66413531 19.8313977 85.9700255 18.98144531 89.27514648 C18.00449661 93.07434659 17.03334325 96.87501616 16.0625 100.67578125 C15.75626709 101.86335526 15.45003418 103.05092926 15.13452148 104.27449036 C14.85423096 105.37540512 14.57394043 106.47631989 14.28515625 107.6105957 C14.03644775 108.58100296 13.78773926 109.55141022 13.53149414 110.55122375 C12.89394686 113.07099138 12.89394686 113.07099138 13 116 C23.56 116 34.12 116 45 116 C42.68125335 107.66237906 40.3508672 99.32856739 38 91 C37.80716431 90.31587036 37.61432861 89.63174072 37.41564941 88.92687988 C36.2136992 84.66524167 35.00367801 80.40601675 33.78390503 76.14944458 C33.38651311 74.75888803 32.99142899 73.36766988 32.59866333 71.97579956 C32.04469069 70.0146397 31.48152607 68.05608338 30.91796875 66.09765625 C30.59594482 64.96851807 30.2739209 63.83937988 29.94213867 62.67602539 C29.17780017 59.8896953 29.17780017 59.8896953 27 58 Z " fill="#000000" transform="translate(591,5)"/>
<path d="M0 0 C46.53 0 93.06 0 141 0 C141 16.17 141 32.34 141 49 C113.28 49 85.56 49 57 49 C57 59.56 57 70.12 57 81 C81.75 81 106.5 81 132 81 C132 96.51 132 112.02 132 128 C107.25 128 82.5 128 57 128 C57 146.48 57 164.96 57 184 C38.19 184 19.38 184 0 184 C0 123.28 0 62.56 0 0 Z " fill="#000000" transform="translate(883,5)"/>
<path d="M0 0 C23.76 0 47.52 0 72 0 C72 23.76 72 47.52 72 72 C48.24 72 24.48 72 0 72 C0 48.24 0 24.48 0 0 Z " fill="#000000" transform="translate(239,61)"/>
<path d="M0 0 C3.63 0 7.26 0 11 0 C21.90689268 44.40867569 21.90689268 44.40867569 26 63 C28.41690177 56.0090637 30.42491703 48.9647729 32.3203125 41.81640625 C32.62444061 40.67968979 32.92856873 39.54297333 33.24191284 38.37181091 C34.20554835 34.76939739 35.16562716 31.16605088 36.125 27.5625 C37.09173154 23.93401508 38.05928214 20.30575895 39.0295105 16.6782074 C39.63148334 14.42735372 40.23141831 12.17595387 40.82913208 9.92396545 C41.23492996 8.40614723 41.23492996 8.40614723 41.64892578 6.85766602 C41.88636505 5.96547867 42.12380432 5.07329132 42.36843872 4.15406799 C43 2 43 2 44 0 C47.96 0 51.92 0 56 0 C62.03911824 20.56357983 67.4794566 41.29280424 73 62 C74.73558472 58.8492916 75.65457094 55.82096289 76.49633789 52.3293457 C76.77324966 51.19169266 77.05016144 50.05403961 77.33546448 48.88191223 C77.62823776 47.65888901 77.92101105 46.43586578 78.22265625 45.17578125 C78.68937008 43.25550831 79.15608762 41.33523625 79.62303066 39.41501904 C80.27455525 36.73090844 80.92180127 34.04577409 81.56890869 31.3605957 C82.70456012 26.64835144 83.84251821 21.93667555 84.98716736 17.22660828 C85.59611146 14.71900367 86.20162517 12.21056322 86.80348206 9.70124817 C87.07724167 8.57305161 87.35100128 7.44485504 87.63305664 6.2824707 C87.87351212 5.28415726 88.11396759 4.28584381 88.36170959 3.25727844 C89 1 89 1 90 0 C91.85287502 -0.07226502 93.70833878 -0.0838122 95.5625 -0.0625 C96.57441406 -0.05347656 97.58632812 -0.04445313 98.62890625 -0.03515625 C99.41136719 -0.02355469 100.19382812 -0.01195312 101 0 C94.2176034 26.72642916 87.20313752 53.38393162 80 80 C76.04 80 72.08 80 68 80 C65.28240728 73.18964715 63.32991543 66.26363495 61.42578125 59.1875 C61.09708542 57.97803711 60.76838959 56.76857422 60.42973328 55.52246094 C59.56392846 52.33396783 58.70143112 49.14460522 57.84057617 45.95477295 C56.9583747 42.68913883 56.07176624 39.42470182 55.18554688 36.16015625 C53.45300193 29.77452386 51.72481764 23.38772367 50 17 C47.53326879 24.16243641 45.43753113 31.38932287 43.42578125 38.69140625 C43.09708542 39.87725815 42.76838959 41.06311005 42.42973328 42.28489685 C41.38845973 46.04349411 40.35043128 49.80297856 39.3125 53.5625 C38.60399428 56.12317963 37.89474831 58.68365351 37.18554688 61.24414062 C35.45457117 67.49541581 33.72650369 73.74748831 32 80 C28.04 80 24.08 80 20 80 C17.17246526 71.99261169 15.07081675 63.8300095 12.98828125 55.60546875 C12.61157927 54.12571851 12.23472005 52.6460083 11.85771179 51.16633606 C11.07303975 48.08322249 10.29091377 44.99947678 9.51049805 41.9152832 C8.51066022 37.96519807 7.5034008 34.01704765 6.49413776 30.06936169 C5.71614597 27.02217907 4.94257068 23.97388837 4.17027855 20.92525673 C3.80056557 19.46844249 3.42936383 18.01200522 3.0566349 16.5559597 C2.53749808 14.52565578 2.0244541 12.4939055 1.51293945 10.46166992 C1.21998489 9.30745041 0.92703033 8.1532309 0.62519836 6.96403503 C0 4 0 4 0 0 Z " fill="#000000" transform="translate(0,267)"/>
<path d="M0 0 C2.73452282 1.98252905 4.56311324 4.05616115 6.5 6.8125 C6.93570313 6.40257812 7.37140625 5.99265625 7.8203125 5.5703125 C14.36859181 -0.35432116 19.71480504 -1.67486119 28.5234375 -1.5 C34.48334632 -0.87428779 38.13560212 1.16822563 41.9375 5.75 C44.95205058 11.65851915 44.63343153 17.43349293 44.59765625 23.92578125 C44.5962413 24.89533249 44.59482635 25.86488373 44.59336853 26.86381531 C44.58778513 29.95090867 44.57523564 33.03792867 44.5625 36.125 C44.55748286 38.22200416 44.55292032 40.31900946 44.54882812 42.41601562 C44.53782112 47.54820521 44.52056788 52.68034018 44.5 57.8125 C41.2 57.8125 37.9 57.8125 34.5 57.8125 C34.470271 56.04990845 34.470271 56.04990845 34.43994141 54.25170898 C34.36356404 49.86998968 34.27489723 45.48858859 34.18261719 41.10717773 C34.14445975 39.21498929 34.10958433 37.32273158 34.078125 35.43041992 C34.03218577 32.70206028 33.97424035 29.97417207 33.9140625 27.24609375 C33.90251129 26.40727158 33.89096008 25.5684494 33.87905884 24.70420837 C33.75577668 19.7387116 33.28348945 15.47288762 31.5 10.8125 C27.02935896 7.83207264 22.74133821 8.20600229 17.5 8.8125 C14.05161597 10.44594507 12.20062665 11.52680302 10.37353516 14.87963867 C9.16094866 18.95085207 9.1434551 22.82258556 9.0859375 27.05078125 C9.06657135 27.93154831 9.0472052 28.81231537 9.0272522 29.71977234 C8.96767149 32.52141766 8.92115735 35.32310456 8.875 38.125 C8.83680041 40.02931438 8.79774753 41.93361185 8.7578125 43.83789062 C8.66198767 48.49595572 8.5778774 53.15410168 8.5 57.8125 C5.2 57.8125 1.9 57.8125 -1.5 57.8125 C-1.51458252 56.57161621 -1.52916504 55.33073242 -1.54418945 54.05224609 C-1.60230723 49.43379379 -1.67953947 44.81582216 -1.76245117 40.19775391 C-1.79563713 38.20173971 -1.82368868 36.20563311 -1.84643555 34.20947266 C-1.88009793 31.3345616 -1.93241977 28.46049257 -1.98828125 25.5859375 C-1.99467117 24.69820648 -2.0010611 23.81047546 -2.00764465 22.89584351 C-2.12713766 17.82242148 -2.65339735 14.19343239 -5.5 9.8125 C-9.19739105 7.96380448 -13.4560866 8.48029858 -17.5 8.8125 C-21.31843257 10.14065046 -22.74820738 11.91946989 -24.59472656 15.36914062 C-26.79790099 19.92310241 -27.10159733 23.90584332 -27.109375 28.90625 C-27.12591125 29.73838013 -27.14244751 30.57051025 -27.15948486 31.42785645 C-27.20763046 34.05614852 -27.2292603 36.68386354 -27.25 39.3125 C-27.2781878 41.10679935 -27.30811912 42.9010722 -27.33984375 44.6953125 C-27.41337973 49.06766074 -27.46315766 53.4396949 -27.5 57.8125 C-30.8 57.8125 -34.1 57.8125 -37.5 57.8125 C-37.5 38.6725 -37.5 19.5325 -37.5 -0.1875 C-34.2 -0.1875 -30.9 -0.1875 -27.5 -0.1875 C-27.17 1.4625 -26.84 3.1125 -26.5 4.8125 C-25.95730469 4.46316406 -25.41460938 4.11382812 -24.85546875 3.75390625 C-23.78232422 3.07134766 -23.78232422 3.07134766 -22.6875 2.375 C-21.97980469 1.92253906 -21.27210938 1.47007812 -20.54296875 1.00390625 C-14.50222175 -2.51890032 -6.46211289 -2.19250259 0 0 Z " fill="#000000" transform="translate(758.5,289.1875)"/>
<path d="M0 0 C1.05441284 0.00845947 1.05441284 0.00845947 2.13012695 0.01708984 C8.12157427 0.15750896 12.90518771 0.60964933 17.609375 4.63671875 C22.70427821 10.08941011 22.22306802 16.71944528 22.37890625 23.7734375 C22.39968735 24.56400543 22.42046844 25.35457336 22.44187927 26.1690979 C22.50685582 28.67515017 22.56601643 31.18130024 22.625 33.6875 C22.66823468 35.39454105 22.71185049 37.10157249 22.75585938 38.80859375 C22.8624834 42.97646426 22.96389441 47.14443239 23.0625 51.3125 C24.3825 51.6425 25.7025 51.9725 27.0625 52.3125 C27.0625 54.9525 27.0625 57.5925 27.0625 60.3125 C21.40397415 61.58278131 18.12814129 61.19296269 13.0625 58.3125 C11.625 56.125 11.625 56.125 11.0625 54.3125 C10.175625 55.09625 9.28875 55.88 8.375 56.6875 C1.87975898 61.30253967 -6.65871764 61.96222563 -14.375 60.75 C-19.53950696 59.44837629 -23.17075972 57.11491561 -26.0703125 52.515625 C-27.85219439 47.98868182 -27.44239847 43.08027546 -26.9375 38.3125 C-24.62338098 33.1288734 -21.16492076 30.34336207 -15.9375 28.3125 C-10.69236599 26.84030181 -5.38790355 25.72199257 -0.015625 24.82421875 C3.77806059 24.17884324 6.49562384 23.68162866 9.75 21.5625 C11.31968417 19.30575173 11.31968417 19.30575173 11.0625 16.25 C9.8920717 12.81186686 9.17131506 12.08748289 6.0625 10.3125 C2.95791354 9.87507625 2.95791354 9.87507625 -0.375 10 C-1.48746094 10.00386719 -2.59992188 10.00773437 -3.74609375 10.01171875 C-6.9481834 10.31350688 -9.1366964 10.73828947 -11.9375 12.3125 C-13.16448662 14.22563095 -13.16448662 14.22563095 -13.75 16.4375 C-14.141875 17.71625 -14.53375 18.995 -14.9375 20.3125 C-18.2375 20.3125 -21.5375 20.3125 -24.9375 20.3125 C-24.44736373 13.20552414 -22.86838999 9.16417674 -17.625 4.0625 C-12.19223763 0.5248873 -6.35600636 -0.05329027 0 0 Z M0.75 32.125 C-0.53293945 32.3734668 -0.53293945 32.3734668 -1.84179688 32.62695312 C-7.3886057 33.76553123 -11.58606806 35.11783019 -15.8125 39.0625 C-17.5507296 42.53895921 -17.04950546 44.64942318 -15.9375 48.3125 C-12.7120216 51.45734144 -9.97559504 52.57581151 -5.5625 52.8125 C0.63326548 52.50950304 5.25346068 50.21431057 9.5 45.75 C11.84575811 42.09061735 12.18021078 39.37623043 12.125 35.125 C12.11597656 34.22394531 12.10695313 33.32289063 12.09765625 32.39453125 C12.08605469 31.70746094 12.07445312 31.02039063 12.0625 30.3125 C8.23884647 30.3125 4.4843305 31.36147518 0.75 32.125 Z " fill="#000000" transform="translate(374.9375,287.6875)"/>
<path d="M0 0 C6.27808609 4.29553259 9.48727552 10.26445567 11.9296875 17.3203125 C12.4246875 23.7553125 12.4246875 23.7553125 12.9296875 30.3203125 C-1.2603125 30.3203125 -15.4503125 30.3203125 -30.0703125 30.3203125 C-28.86213788 39.30559126 -28.86213788 39.30559126 -24.0703125 45.3203125 C-17.52127059 48.9726628 -12.3715593 49.25566576 -5.3203125 47.2578125 C-1.14862639 44.77084578 -0.11583792 42.65682638 1.9296875 38.3203125 C5.2296875 38.3203125 8.5296875 38.3203125 11.9296875 38.3203125 C9.75298745 45.88148108 7.40474578 51.58943283 0.2421875 55.6328125 C-7.95405772 59.30116945 -16.58054235 58.78811299 -25.0703125 56.3203125 C-31.43319286 53.07884515 -36.29061273 47.86456433 -38.8828125 41.1953125 C-39.29970925 39.91028958 -39.69844287 38.61908106 -40.0703125 37.3203125 C-40.2971875 36.5365625 -40.5240625 35.7528125 -40.7578125 34.9453125 C-41.87264585 25.58071238 -40.82803672 17.52934713 -36.3828125 9.1328125 C-27.15704178 -2.08771945 -13.76593439 -7.21072754 0 0 Z M-26.0703125 10.3203125 C-28.86158286 14.36227077 -30.0703125 17.37390088 -30.0703125 22.3203125 C-19.5103125 22.3203125 -8.9503125 22.3203125 1.9296875 22.3203125 C1.32377223 15.87839905 1.32377223 15.87839905 -1.8828125 11.5078125 C-2.38425781 10.94449219 -2.88570312 10.38117188 -3.40234375 9.80078125 C-7.49684486 6.16655193 -11.22205957 5.87477708 -16.53515625 6.015625 C-20.44118167 6.48507027 -23.21241153 7.5912824 -26.0703125 10.3203125 Z " fill="#000000" transform="translate(698.0703125,290.6796875)"/>
<path d="M0 0 C5.76333639 3.61883913 8.89163678 9.06283747 11.25 15.3125 C12.23268633 20.1440411 12.55361689 25.08978576 13 30 C-1.52 30 -16.04 30 -31 30 C-28.3219823 40.65213087 -28.3219823 40.65213087 -20.75 46.8125 C-15.34838081 48.52301274 -11.30846083 48.76948694 -5.8125 46.9375 C-3.0456424 45.03144254 -2.36382028 44.09029518 -0.75 41.3125 C0.43359375 39.453125 0.43359375 39.453125 2 38 C5.40698769 37.39104688 8.57685683 37.58124656 12 38 C8.63873892 49.68802148 8.63873892 49.68802148 2.8359375 53.375 C-5.60493289 57.97435972 -12.90273296 58.83272034 -22.2890625 56.84765625 C-29.34907154 54.64013181 -34.5316487 50.53849272 -38.0703125 44.046875 C-42.27113715 34.79800057 -42.55263909 23.67485823 -39.375 14.0625 C-36.24029297 6.60935041 -32.20330157 2.07053128 -24.83203125 -1.2734375 C-16.59141053 -4.5415728 -7.87534583 -3.86859093 0 0 Z M-28.375 12.875 C-30.37120745 16.3204004 -30.37120745 16.3204004 -31 22 C-20.11 22 -9.22 22 2 22 C0.87609258 15.2565555 -0.61288167 12.15977373 -5.625 7.625 C-14.23718565 3.47839209 -22.36081812 5.59467456 -28.375 12.875 Z " fill="#000000" transform="translate(140,291)"/>
<path d="M0 0 C6.43636654 4.87683625 9.46869698 10.8956566 11.75 18.5 C12.13152104 22.31521042 12 26.16576098 12 30 C-2.19 30 -16.38 30 -31 30 C-28.976894 39.96986371 -28.976894 39.96986371 -23 46 C-17.24003702 48.62954832 -12.23552965 48.74517655 -6.25 46.75 C-1.93698198 44.42760568 -0.52644104 42.57932313 1 38 C4.3 38 7.6 38 11 38 C10.39312224 44.37221647 7.82194644 48.56708444 3.0625 52.75 C-3.21325256 57.36075699 -9.90968433 58.47721709 -17.625 57.75390625 C-25.62389734 56.37604741 -31.57872539 53.41383085 -36.71484375 46.9765625 C-41.77618647 39.19224817 -42.70361746 29.36758069 -41.3125 20.375 C-39.34640427 11.25128781 -35.74067976 5.3786341 -28 0 C-19.90034406 -4.75854787 -8.07336382 -4.89981692 0 0 Z M-28.3125 12.875 C-30.384392 16.30817661 -30.384392 16.30817661 -31 22 C-20.11 22 -9.22 22 2 22 C0.84027451 15.04164708 -0.52333576 11.88226482 -6.125 7.625 C-14.61991344 3.27706581 -22.51210257 5.66369508 -28.3125 12.875 Z " fill="#000000" transform="translate(483,291)"/>
<path d="M0 0 C5.9614293 4.62714636 9.49397303 10.23091459 11.75 17.375 C12.14906648 21.56519807 12 25.79084167 12 30 C-2.19 30 -16.38 30 -31 30 C-28.54627747 39.37349676 -28.54627747 39.37349676 -23 46 C-18.50158834 48.19922348 -13.93085634 48.63973186 -9 48 C-4.82094145 46.42299677 -2.29227383 44.86067171 0 41 C0.33 40.01 0.66 39.02 1 38 C4.3 38 7.6 38 11 38 C10.580312 43.59583995 8.72796454 47.85402571 5 52 C-2.68902199 57.44806794 -10.40503875 58.67419905 -19.5625 57.375 C-28.17397487 55.53483847 -33.00327955 51.80501745 -37.7734375 44.4765625 C-42.04539161 35.85102458 -42.43708413 25.30357356 -40.3125 15.984375 C-37.18171314 7.47907071 -32.11106988 1.90532994 -24 -2 C-16.45504787 -4.38764308 -6.850097 -4.17219731 0 0 Z M-28.3125 12.875 C-30.384392 16.30817661 -30.384392 16.30817661 -31 22 C-20.11 22 -9.22 22 2 22 C-0.18403092 12.93082296 -0.18403092 12.93082296 -6.625 7.1875 C-15.48289557 4.07083304 -22.31965427 5.42443504 -28.3125 12.875 Z " fill="#000000" transform="translate(327,291)"/>
<path d="M0 0 C3.3 0 6.6 0 10 0 C10.33 8.91 10.66 17.82 11 27 C13.64 25.35 16.28 23.7 19 22 C25.37253042 19.87582319 33.38812551 19.81740707 39.5625 22.625 C43.63453289 25.04760185 46.17439637 28.34248766 47.59056091 32.90093994 C48.03535052 35.18123055 48.12005068 37.26195883 48.11352539 39.58496094 C48.11344986 40.48559265 48.11337433 41.38622437 48.11329651 42.31414795 C48.10813522 43.27782288 48.10297394 44.2414978 48.09765625 45.234375 C48.0962413 46.22753723 48.09482635 47.22069946 48.09336853 48.24395752 C48.08777588 51.41266912 48.0752247 54.58130979 48.0625 57.75 C48.05748405 59.89973856 48.05292131 62.04947823 48.04882812 64.19921875 C48.03780885 69.46617312 48.02054923 74.73307454 48 80 C44.7 80 41.4 80 38 80 C37.970271 78.07752441 37.970271 78.07752441 37.93994141 76.11621094 C37.86385497 71.35998933 37.77514202 66.60407243 37.68261719 61.84814453 C37.64434005 59.78993751 37.60948496 57.73166388 37.578125 55.67333984 C37.53244722 52.71427612 37.47445698 49.75567043 37.4140625 46.796875 C37.40251129 45.87694763 37.39096008 44.95702026 37.37905884 44.00921631 C37.35918915 43.1486261 37.33931946 42.28803589 37.31884766 41.40136719 C37.30552399 40.64635925 37.29220032 39.89135132 37.2784729 39.11346436 C36.95998549 36.69631067 36.26143979 35.07789326 35 33 C30.70632166 30.09762086 25.97855419 30.51947499 21 31 C17.7046522 31.97639935 15.849648 32.7555939 13.89007568 35.62561035 C11.12318031 40.88415758 10.39979866 45.19584105 10.390625 51.09375 C10.37408875 51.92588013 10.35755249 52.75801025 10.34051514 53.61535645 C10.29236954 56.24364852 10.2707397 58.87136354 10.25 61.5 C10.2218122 63.29429935 10.19188088 65.0885722 10.16015625 66.8828125 C10.08662027 71.25516074 10.03684234 75.6271949 10 80 C6.7 80 3.4 80 0 80 C0 53.6 0 27.2 0 0 Z " fill="#000000" transform="translate(598,267)"/>
<path d="M0 0 C4.00631939 3.2084507 6.20193463 6.30765043 6.875 11.4375 C6.91625 12.613125 6.9575 13.78875 7 15 C3.7 15 0.4 15 -3 15 C-3.4125 14.05125 -3.825 13.1025 -4.25 12.125 C-6.11598295 8.7928876 -6.56496555 8.24371937 -10 7 C-12.91242956 6.684052 -12.91242956 6.684052 -16 6.75 C-17.03125 6.74484375 -18.0625 6.7396875 -19.125 6.734375 C-21.98863493 6.99894997 -23.65881137 7.3480398 -26 9 C-26.81584568 12.05908413 -26.81584568 12.05908413 -27 15 C-21.42606622 19.26613379 -15.93374189 20.49026071 -9.1640625 21.97851562 C-2.53088814 23.55708356 3.26834768 26.00399423 7.9375 31.125 C10.20344432 35.12372528 10.30129282 38.48060765 10 43 C8.49077768 48.37660451 6.16442547 51.65702077 1.625 54.76953125 C-7.42999768 59.01406141 -18.55405152 58.84692419 -28 56 C-32.38167656 53.73091749 -35.38863917 51.19682991 -38 47 C-38.87988925 44.03037377 -39.49432124 41.05403358 -40 38 C-36.55308553 37.51810128 -33.42446477 37.29294564 -30 38 C-28.26144556 39.89896968 -27.28938742 41.79759278 -26.125 44.0859375 C-25.0603043 46.27290387 -25.0603043 46.27290387 -22.25 47.5 C-14.95557056 48.62221991 -9.6089573 48.44216526 -3 45 C-1.58422523 43.81575674 -1.58422523 43.81575674 -1.9375 40.4375 C-1.958125 39.303125 -1.97875 38.16875 -2 37 C-8.09504479 33.13026015 -13.88748782 31.56836861 -20.88476562 30.02148438 C-26.50543066 28.67632925 -31.57113689 26.83754168 -36 23 C-38.84991121 18.24744096 -38.61834899 13.39294249 -38 8 C-35.51499772 2.53299499 -32.2273263 0.52031804 -27 -2 C-18.89648813 -4.65429565 -7.47277336 -4.31828297 0 0 Z " fill="#000000" transform="translate(878,291)"/>
<path d="M0 0 C3.63 0 7.26 0 11 0 C14.9705904 9.25988054 18.43101367 18.61992179 21.75 28.125 C22.48960949 30.23541665 23.23021309 32.34547584 23.972229 34.45504761 C24.63551642 36.34188418 25.29587092 38.22975103 25.95605469 40.11767578 C26.89841917 42.89341731 26.89841917 42.89341731 28 45 C28.2785508 44.19860092 28.2785508 44.19860092 28.56272888 43.38101196 C30.49145151 37.83287015 32.42205319 32.28538483 34.35375977 26.73828125 C35.07494803 24.66650996 35.79565295 22.59457035 36.51586914 20.52246094 C37.54968018 17.54838652 38.58521375 14.57491682 39.62109375 11.6015625 C39.94403915 10.67131256 40.26698456 9.74106262 40.59971619 8.78262329 C41.05006981 7.49151138 41.05006981 7.49151138 41.50952148 6.17431641 C41.77377426 5.41486725 42.03802704 4.65541809 42.31028748 3.87295532 C43 2 43 2 44 0 C47.3 0 50.6 0 54 0 C52.63210523 7.01107841 50.50464505 13.39499247 47.89453125 20.03515625 C47.29109138 21.59054359 47.29109138 21.59054359 46.67546082 23.17735291 C45.82537642 25.36447081 44.97215373 27.55037125 44.1159668 29.73510742 C42.8269518 33.02560852 41.54839534 36.32002005 40.27148438 39.61523438 C26.07019566 76.14402237 26.07019566 76.14402237 20.140625 80.3046875 C17.27404803 81.23580192 14.75657252 81.19036027 11.75 81.125 C10.67234375 81.10695313 9.5946875 81.08890625 8.484375 81.0703125 C7.66453125 81.04710937 6.8446875 81.02390625 6 81 C6 77.7 6 74.4 6 71 C6.886875 71.20625 7.77375 71.4125 8.6875 71.625 C12.37643187 72.04261493 13.77096183 71.73910402 17 70 C18.79031105 67.7667506 18.79031105 67.7667506 20 65 C20.45375 64.113125 20.9075 63.22625 21.375 62.3125 C22.88775825 54.2948813 17.56843243 45.12950946 14.55078125 37.8125 C14.13330124 36.78817871 13.71582123 35.76385742 13.28569031 34.70849609 C11.96563304 31.47053755 10.63965829 28.23505384 9.3125 25 C7.975046 21.73621839 6.63897203 18.47190472 5.30717468 15.20581055 C4.4814898 13.18114325 3.65249566 11.15782176 2.81990051 9.13598633 C2.26383369 7.77316528 2.26383369 7.77316528 1.6965332 6.3828125 C1.36804886 5.58246582 1.03956451 4.78211914 0.7011261 3.95751953 C0 2 0 2 0 0 Z " fill="#000000" transform="translate(970,289)"/>
<path d="M0 0 C5.52748347 4.44501796 6.9447414 9.14081908 8 16 C4.37 16 0.74 16 -3 16 C-3.91145833 13.98177083 -4.82291667 11.96354167 -5.734375 9.9453125 C-7.28293827 7.5651134 -8.32901314 6.9267659 -11 6 C-17.07008271 5.29396319 -22.97261761 5.19880843 -28 9 C-33.55064566 16.41279775 -33.57724556 24.0633835 -33 33 C-31.83883581 39.17975516 -29.05302371 42.5260462 -24 46 C-19.0050196 47.66499347 -14.67591412 47.55867744 -9.8125 45.5625 C-4.91280546 42.94615826 -3.79087445 39.07414426 -2 34 C1.3 34 4.6 34 8 34 C7.563829 40.8333457 5.3541972 46.79332536 0.3125 51.61328125 C-6.70499821 56.56938936 -15.38981714 57.6434071 -23.75 56.4375 C-30.97822456 54.79188115 -36.88764581 51.46311898 -40.96875 45.1484375 C-46.39150668 33.85102776 -46.04337289 22.59608829 -42 11 C-38.823514 4.4293249 -34.67772536 0.02795644 -28 -3 C-19.0705897 -5.95739016 -7.97186836 -4.95310938 0 0 Z " fill="#000000" transform="translate(579,292)"/>
<path d="M0 0 C4.94938217 3.11156012 8.58918959 7.65343897 10.125 13.3359375 C10.125 14.6559375 10.125 15.9759375 10.125 17.3359375 C6.67724102 17.81795429 3.55051489 18.0410358 0.125 17.3359375 C-1.69143294 15.43713648 -2.65690581 13.6654515 -3.7421875 11.28125 C-5.17268593 8.8247389 -6.20564639 8.26358521 -8.875 7.3359375 C-14.1695399 6.64812718 -18.56530695 6.68109098 -23.375 9.0859375 C-28.49334908 13.69245167 -30.50233658 18.08885956 -31.1015625 24.91796875 C-31.30696094 31.59341798 -31.04878326 38.71123421 -26.4453125 43.96875 C-21.76719235 48.04174018 -17.94344643 48.7405006 -11.875 48.3359375 C-7.33739558 46.82340269 -4.19996235 45.61876288 -1.875 41.3359375 C-1.15148573 39.35579318 -0.47234611 37.35772435 0.125 35.3359375 C3.425 35.3359375 6.725 35.3359375 10.125 35.3359375 C9.86803868 42.40237367 7.77012444 46.98348729 3.125 52.3359375 C-3.17868921 57.25281509 -10.86494011 58.53822794 -18.77734375 58.21875 C-25.47608215 57.29802579 -30.93956019 55.02361427 -35.875 50.3359375 C-42.89868483 40.64056394 -42.8398199 29.89372812 -41.875 18.3359375 C-40.22719924 11.13001087 -36.90651229 5.64252294 -31 1.1484375 C-21.58925586 -4.3097941 -9.86872553 -4.57727072 0 0 Z " fill="#000000" transform="translate(233.875,290.6640625)"/>
<path d="M0 0 C3.3 0 6.6 0 10 0 C10 5.61 10 11.22 10 17 C13.96 17 17.92 17 22 17 C22 19.97 22 22.94 22 26 C18.04 26 14.08 26 10 26 C10.11808403 31.23290697 10.24232036 36.46561751 10.37231445 41.69824219 C10.4156833 43.47912603 10.45735694 45.26005198 10.49731445 47.04101562 C10.5549699 49.59778548 10.6186777 52.15434298 10.68359375 54.7109375 C10.70030624 55.50994476 10.71701874 56.30895203 10.73423767 57.13217163 C10.75392991 61.19806368 10.75392991 61.19806368 12 65 C14.34907875 65.68931344 14.34907875 65.68931344 17.0625 66.125 C17.98160156 66.29257812 18.90070313 66.46015625 19.84765625 66.6328125 C20.91306641 66.81457031 20.91306641 66.81457031 22 67 C22 69.64 22 72.28 22 75 C19.60347472 75.08139142 17.20974564 75.14067009 14.8125 75.1875 C14.13896484 75.21263672 13.46542969 75.23777344 12.77148438 75.26367188 C8.30900801 75.32897641 5.27463204 75.14292837 2 72 C-0.01958865 66.14441246 -0.27830128 60.16053822 -0.1953125 54.02734375 C-0.1924826 53.21882462 -0.18965271 52.41030548 -0.18673706 51.57728577 C-0.17566777 49.03053082 -0.15058958 46.4841461 -0.125 43.9375 C-0.11495302 42.19596867 -0.1058302 40.45443175 -0.09765625 38.71289062 C-0.07577213 34.47512083 -0.04133646 30.23762287 0 26 C-2.97 26 -5.94 26 -9 26 C-9 23.03 -9 20.06 -9 17 C-6.03 17 -3.06 17 0 17 C0 11.39 0 5.78 0 0 Z " fill="#000000" transform="translate(414,272)"/>
<path d="M0 0 C3.3 0 6.6 0 10 0 C10 5.61 10 11.22 10 17 C13.96 17 17.92 17 22 17 C22 19.97 22 22.94 22 26 C18.04 26 14.08 26 10 26 C10.495 45.305 10.495 45.305 11 65 C14.3 65.66 17.6 66.32 21 67 C21 69.64 21 72.28 21 75 C18.60293877 75.10854617 16.21084162 75.18753157 13.8125 75.25 C13.13896484 75.28351563 12.46542969 75.31703125 11.77148438 75.3515625 C8.15222309 75.42218223 6.16889649 75.10553212 3.07421875 73.171875 C0.20482841 70.16739095 -0.12550997 67.7948185 -0.11352539 63.80395508 C-0.11344986 62.96331009 -0.11337433 62.1226651 -0.11329651 61.25654602 C-0.10813522 60.35333115 -0.10297394 59.45011627 -0.09765625 58.51953125 C-0.0962413 57.59154221 -0.09482635 56.66355316 -0.09336853 55.70744324 C-0.08776937 52.74242942 -0.07521704 49.77749101 -0.0625 46.8125 C-0.05748489 44.80273547 -0.052922 42.79296975 -0.04882812 40.78320312 C-0.03780021 35.85543968 -0.02053617 30.92773263 0 26 C-2.97 26 -5.94 26 -9 26 C-9 23.03 -9 20.06 -9 17 C-6.03 17 -3.06 17 0 17 C0 11.39 0 5.78 0 0 Z " fill="#000000" transform="translate(902,272)"/>
<path d="M0 0 C0 3.3 0 6.6 0 10 C-0.72445313 10.15855469 -1.44890625 10.31710937 -2.1953125 10.48046875 C-8.38671745 11.97466115 -12.71943357 13.18436277 -17 18 C-21.06699968 25.8484231 -20.56004075 34.37128417 -20.6875 43 C-20.7207203 44.55341343 -20.75521422 46.10680017 -20.79101562 47.66015625 C-20.87538248 51.43995593 -20.94244329 55.2197009 -21 59 C-24.3 59 -27.6 59 -31 59 C-31 39.86 -31 20.72 -31 1 C-28.03 1 -25.06 1 -22 1 C-21.67 3.97 -21.34 6.94 -21 10 C-20.46375 9.2575 -19.9275 8.515 -19.375 7.75 C-13.55465281 1.01065063 -8.5181378 -0.16381034 0 0 Z " fill="#000000" transform="translate(286,288)"/>
<path d="M0 0 C2.97 0 5.94 0 9 0 C9.33 3.3 9.66 6.6 10 10 C10.680625 9.0925 11.36125 8.185 12.0625 7.25 C15.48872718 3.19994994 19.03343464 0.29334458 24.44921875 -0.2421875 C26.63429353 -0.24904802 28.81904018 -0.13421291 31 0 C31 3.3 31 6.6 31 10 C30.19175781 10.15855469 29.38351562 10.31710937 28.55078125 10.48046875 C20.08032633 12.2029746 20.08032633 12.2029746 14 18 C10.08579944 25.79933527 10.4425996 33.97145666 10.3125 42.5 C10.27927717 44.00523718 10.24478303 45.51044687 10.20898438 47.015625 C10.12464864 50.67688192 10.05757327 54.33821306 10 58 C6.7 58 3.4 58 0 58 C0 38.86 0 19.72 0 0 Z " fill="#000000" transform="translate(936,289)"/>
<path d="M0 0 C3.3 0 6.6 0 10 0 C10 19.14 10 38.28 10 58 C6.7 58 3.4 58 0 58 C0 38.86 0 19.72 0 0 Z " fill="#000000" transform="translate(817,289)"/>
<path d="M0 0 C3.3 0 6.6 0 10 0 C10 3.96 10 7.92 10 12 C6.7 12 3.4 12 0 12 C0 8.04 0 4.08 0 0 Z " fill="#000000" transform="translate(817,267)"/>
</svg>
