<?xml version="1.0" encoding="UTF-8"?>
<svg version="1.1" xmlns="http://www.w3.org/2000/svg" width="900" height="500">
<path d="M0 0 C297 0 594 0 900 0 C900 165 900 330 900 500 C603 500 306 500 0 500 C0 335 0 170 0 0 Z " fill="#FEFEFE" transform="translate(0,0)"/>
<path d="M0 0 C3.13879381 1.3875818 5.22254795 2.99523408 7.609375 5.44921875 C8.28226563 6.13306641 8.95515625 6.81691406 9.6484375 7.52148438 C10.34195313 8.23626953 11.03546875 8.95105469 11.75 9.6875 C16.35483705 14.41052203 21.0114738 18.93769047 26.01367188 23.23852539 C29.4574685 26.2924822 32.65422766 29.58929273 35.875 32.875 C37.18257274 34.2080119 38.49236015 35.53885616 39.8046875 36.8671875 C40.37171387 37.44581543 40.93874023 38.02444336 41.52294922 38.62060547 C42.97110166 40.10372935 42.97110166 40.10372935 45 41 C45 41.66 45 42.32 45 43 C45.85803223 43.36798706 45.85803223 43.36798706 46.73339844 43.7434082 C49.38736797 45.21475473 51.14499183 46.93552401 53.265625 49.10546875 C54.07386719 49.92466797 54.88210938 50.74386719 55.71484375 51.58789062 C56.96974609 52.87469727 56.96974609 52.87469727 58.25 54.1875 C63.34313339 59.38857264 68.43991516 64.45495652 73.96777344 69.19262695 C78.85415952 73.53836412 83.34864624 78.31411407 87.93359375 82.97265625 C92.18481125 87.2652146 96.50050645 91.37206985 101.08398438 95.30664062 C105.03650558 98.79984744 108.66650193 102.62790197 112.35546875 106.39453125 C115.45603559 109.53409893 118.59178821 112.55893774 121.9375 115.4375 C127.12071209 119.90682643 131.85209251 124.80386104 136.64453125 129.68359375 C140.63538702 133.7182249 144.71652009 137.53971738 149.01757812 141.24023438 C153.21240607 144.96391909 157.07416927 149.03655539 161 153.0390625 C164.21950866 156.29629978 167.46324901 159.45170806 170.9375 162.4375 C176.35165903 167.10086745 181.28263712 172.23626574 186.2890625 177.328125 C191.01929547 182.10712326 195.86956178 186.65240794 201 191 C196.60514612 196.25739529 191.98296044 201.16979934 187.125 206 C186.45597656 206.67289063 185.78695313 207.34578125 185.09765625 208.0390625 C181.8304951 211.29992855 178.52230156 214.45693883 175.0234375 217.46875 C170.62529746 221.26347684 166.56836949 225.35752542 162.5 229.5 C157.81672776 234.26857774 153.08033648 238.84975966 148.01367188 243.20898438 C144.34510446 246.47191 140.93887401 249.99848712 137.5 253.5 C132.8066805 258.27880802 128.06008022 262.87155094 122.98242188 267.24023438 C119.49728173 270.33394006 116.26192574 273.67436478 113 277 C109.11498237 280.96089688 105.2324413 284.85394587 101.0234375 288.47265625 C95.87601315 292.90397193 91.20071063 297.78465829 86.47265625 302.65429688 C85.45365234 303.68973633 85.45365234 303.68973633 84.4140625 304.74609375 C83.8051416 305.37185303 83.1962207 305.9976123 82.56884766 306.64233398 C81 308 81 308 79 308 C79 308.66 79 309.32 79 310 C77.77734375 311.19921875 77.77734375 311.19921875 75.9375 312.6875 C70.87631753 316.97281493 66.27093812 321.67327362 61.63256836 326.4050293 C58.55744767 329.52151387 55.44784923 332.52258406 52.125 335.375 C47.33530235 339.50501088 42.93399464 343.9948337 38.5 348.5 C33.47700603 353.60361988 28.43155294 358.55532117 22.99609375 363.21777344 C18.42862831 367.29586758 14.245897 371.79926712 10.00390625 376.2109375 C9.28589844 376.943125 8.56789063 377.6753125 7.828125 378.4296875 C7.1877832 379.09210449 6.54744141 379.75452148 5.88769531 380.43701172 C3.84585159 382.12763297 2.63913192 382.79880908 0 383 C-2.19367414 381.36477174 -4.00688249 379.78471772 -5.9375 377.875 C-6.50235107 377.33528564 -7.06720215 376.79557129 -7.64916992 376.23950195 C-12.28592309 371.7823436 -16.83924446 367.23089975 -21.33374023 362.63037109 C-24.08705701 359.82815232 -26.90969905 357.17797538 -29.88671875 354.61328125 C-34.85369356 350.31843073 -39.40492591 345.64575914 -44 340.9609375 C-47.23997537 337.68299366 -50.50697069 334.50864439 -54 331.5 C-58.93462131 327.24967188 -63.44253389 322.60741662 -68 317.9609375 C-71.87539047 314.04013229 -75.85496085 310.34324905 -80.03125 306.74609375 C-83.99672457 303.22909547 -87.64859394 299.39038303 -91.35546875 295.60546875 C-94.46624598 292.45556225 -97.61359379 289.4211404 -100.96875 286.53125 C-105.91227222 282.26860087 -110.4321549 277.61799832 -115 272.9609375 C-118.23997537 269.68299366 -121.50697069 266.50864439 -125 263.5 C-129.93462131 259.24967188 -134.44253389 254.60741662 -139 249.9609375 C-142.87539047 246.04013229 -146.85496085 242.34324905 -151.03125 238.74609375 C-154.33755474 235.81371633 -157.40718953 232.65416615 -160.5 229.5 C-164.84231819 225.11084141 -169.19070501 220.84800844 -173.9140625 216.8671875 C-177.49538732 213.66143232 -180.82505558 210.19853179 -184.19897461 206.77709961 C-187.81208244 203.13113089 -191.51381375 199.69227455 -195.51171875 196.46484375 C-197.20593408 194.79730897 -198.05409487 193.16672851 -199 191 C-197.85337891 189.96166016 -197.85337891 189.96166016 -196.68359375 188.90234375 C-189.72635263 182.56107971 -182.96770414 176.06577284 -176.37866211 169.34155273 C-173.37461539 166.29449061 -170.32609433 163.37369368 -167.08203125 160.58203125 C-162.66397648 156.76990552 -158.58689895 152.66134155 -154.5 148.5 C-149.8066805 143.72119198 -145.06008022 139.12844906 -139.98242188 134.75976562 C-136.49728173 131.66605994 -133.26192574 128.32563522 -130 125 C-126.12745648 121.05182087 -122.25872002 117.16875641 -118.0625 113.5625 C-113.4704649 109.60725102 -109.24694989 105.31942344 -105 101 C-100.13347611 96.05042963 -95.22953931 91.26669814 -89.96484375 86.7421875 C-86.48425517 83.65601949 -83.25601331 80.31960733 -80 77 C-76.12745648 73.05182087 -72.25872002 69.16875641 -68.0625 65.5625 C-63.4704649 61.60725102 -59.24694989 57.31942344 -55 53 C-50.12341468 48.0401965 -45.20929508 43.24490656 -39.93359375 38.7109375 C-36.63648091 35.7934922 -33.58102081 32.64212665 -30.5 29.5 C-22.69847328 21.61450382 -22.69847328 21.61450382 -19 18.5 C-16.29421633 16.17476124 -13.71116722 13.77532478 -11.1875 11.25390625 C-10.50042969 10.568125 -9.81335938 9.88234375 -9.10546875 9.17578125 C-6.06419203 6.12321965 -3.0276463 3.06608322 0 0 Z " fill="#026748" transform="translate(447,10)"/>
<path d="M0 0 C3.13879381 1.3875818 5.22254795 2.99523408 7.609375 5.44921875 C8.28226563 6.13306641 8.95515625 6.81691406 9.6484375 7.52148438 C10.34195313 8.23626953 11.03546875 8.95105469 11.75 9.6875 C16.35483705 14.41052203 21.0114738 18.93769047 26.01367188 23.23852539 C29.4574685 26.2924822 32.65422766 29.58929273 35.875 32.875 C37.18257274 34.2080119 38.49236015 35.53885616 39.8046875 36.8671875 C40.37171387 37.44581543 40.93874023 38.02444336 41.52294922 38.62060547 C42.97110166 40.10372935 42.97110166 40.10372935 45 41 C45 41.66 45 42.32 45 43 C45.85803223 43.36798706 45.85803223 43.36798706 46.73339844 43.7434082 C49.38736797 45.21475473 51.14499183 46.93552401 53.265625 49.10546875 C54.07386719 49.92466797 54.88210938 50.74386719 55.71484375 51.58789062 C56.96974609 52.87469727 56.96974609 52.87469727 58.25 54.1875 C63.34313339 59.38857264 68.43991516 64.45495652 73.96777344 69.19262695 C78.85415952 73.53836412 83.34864624 78.31411407 87.93359375 82.97265625 C92.18481125 87.2652146 96.50050645 91.37206985 101.08398438 95.30664062 C105.03650558 98.79984744 108.66650193 102.62790197 112.35546875 106.39453125 C115.45603559 109.53409893 118.59178821 112.55893774 121.9375 115.4375 C127.12071209 119.90682643 131.85209251 124.80386104 136.64453125 129.68359375 C140.63538702 133.7182249 144.71652009 137.53971738 149.01757812 141.24023438 C153.21240607 144.96391909 157.07416927 149.03655539 161 153.0390625 C164.21950866 156.29629978 167.46324901 159.45170806 170.9375 162.4375 C176.35165903 167.10086745 181.28263712 172.23626574 186.2890625 177.328125 C191.01929547 182.10712326 195.86956178 186.65240794 201 191 C196.60514612 196.25739529 191.98296044 201.16979934 187.125 206 C186.45597656 206.67289063 185.78695313 207.34578125 185.09765625 208.0390625 C181.8304951 211.29992855 178.52230156 214.45693883 175.0234375 217.46875 C170.62529746 221.26347684 166.56836949 225.35752542 162.5 229.5 C157.81672776 234.26857774 153.08033648 238.84975966 148.01367188 243.20898438 C144.34510446 246.47191 140.93887401 249.99848712 137.5 253.5 C132.8066805 258.27880802 128.06008022 262.87155094 122.98242188 267.24023438 C119.49728173 270.33394006 116.26192574 273.67436478 113 277 C109.11498237 280.96089688 105.2324413 284.85394587 101.0234375 288.47265625 C95.87601315 292.90397193 91.20071063 297.78465829 86.47265625 302.65429688 C85.45365234 303.68973633 85.45365234 303.68973633 84.4140625 304.74609375 C83.8051416 305.37185303 83.1962207 305.9976123 82.56884766 306.64233398 C81 308 81 308 79 308 C79 308.66 79 309.32 79 310 C77.77734375 311.19921875 77.77734375 311.19921875 75.9375 312.6875 C70.87631753 316.97281493 66.27093812 321.67327362 61.63256836 326.4050293 C58.55744767 329.52151387 55.44784923 332.52258406 52.125 335.375 C47.33530235 339.50501088 42.93399464 343.9948337 38.5 348.5 C33.47700603 353.60361988 28.43155294 358.55532117 22.99609375 363.21777344 C18.42862831 367.29586758 14.245897 371.79926712 10.00390625 376.2109375 C9.28589844 376.943125 8.56789063 377.6753125 7.828125 378.4296875 C7.1877832 379.09210449 6.54744141 379.75452148 5.88769531 380.43701172 C3.84585159 382.12763297 2.63913192 382.79880908 0 383 C-2.19367414 381.36477174 -4.00688249 379.78471772 -5.9375 377.875 C-6.50235107 377.33528564 -7.06720215 376.79557129 -7.64916992 376.23950195 C-12.28592309 371.7823436 -16.83924446 367.23089975 -21.33374023 362.63037109 C-24.08705701 359.82815232 -26.90969905 357.17797538 -29.88671875 354.61328125 C-34.85369356 350.31843073 -39.40492591 345.64575914 -44 340.9609375 C-47.23997537 337.68299366 -50.50697069 334.50864439 -54 331.5 C-58.93462131 327.24967188 -63.44253389 322.60741662 -68 317.9609375 C-71.87539047 314.04013229 -75.85496085 310.34324905 -80.03125 306.74609375 C-83.99672457 303.22909547 -87.64859394 299.39038303 -91.35546875 295.60546875 C-94.46624598 292.45556225 -97.61359379 289.4211404 -100.96875 286.53125 C-105.91227222 282.26860087 -110.4321549 277.61799832 -115 272.9609375 C-118.23997537 269.68299366 -121.50697069 266.50864439 -125 263.5 C-129.93462131 259.24967188 -134.44253389 254.60741662 -139 249.9609375 C-142.87539047 246.04013229 -146.85496085 242.34324905 -151.03125 238.74609375 C-154.33755474 235.81371633 -157.40718953 232.65416615 -160.5 229.5 C-164.84231819 225.11084141 -169.19070501 220.84800844 -173.9140625 216.8671875 C-177.49538732 213.66143232 -180.82505558 210.19853179 -184.19897461 206.77709961 C-187.81208244 203.13113089 -191.51381375 199.69227455 -195.51171875 196.46484375 C-197.20593408 194.79730897 -198.05409487 193.16672851 -199 191 C-197.85337891 189.96166016 -197.85337891 189.96166016 -196.68359375 188.90234375 C-189.72635263 182.56107971 -182.96770414 176.06577284 -176.37866211 169.34155273 C-173.37461539 166.29449061 -170.32609433 163.37369368 -167.08203125 160.58203125 C-162.66397648 156.76990552 -158.58689895 152.66134155 -154.5 148.5 C-149.8066805 143.72119198 -145.06008022 139.12844906 -139.98242188 134.75976562 C-136.49728173 131.66605994 -133.26192574 128.32563522 -130 125 C-126.12745648 121.05182087 -122.25872002 117.16875641 -118.0625 113.5625 C-113.4704649 109.60725102 -109.24694989 105.31942344 -105 101 C-100.13347611 96.05042963 -95.22953931 91.26669814 -89.96484375 86.7421875 C-86.48425517 83.65601949 -83.25601331 80.31960733 -80 77 C-76.12745648 73.05182087 -72.25872002 69.16875641 -68.0625 65.5625 C-63.4704649 61.60725102 -59.24694989 57.31942344 -55 53 C-50.12341468 48.0401965 -45.20929508 43.24490656 -39.93359375 38.7109375 C-36.63648091 35.7934922 -33.58102081 32.64212665 -30.5 29.5 C-22.69847328 21.61450382 -22.69847328 21.61450382 -19 18.5 C-16.29421633 16.17476124 -13.71116722 13.77532478 -11.1875 11.25390625 C-10.50042969 10.568125 -9.81335938 9.88234375 -9.10546875 9.17578125 C-6.06419203 6.12321965 -3.0276463 3.06608322 0 0 Z M-3.30859375 26.89453125 C-3.96794922 27.51521484 -4.62730469 28.13589844 -5.30664062 28.77539062 C-6.00982422 29.44763672 -6.71300781 30.11988281 -7.4375 30.8125 C-8.51741211 31.8344043 -8.51741211 31.8344043 -9.61914062 32.87695312 C-14.63234157 37.63971762 -19.54914964 42.48465357 -24.375 47.4375 C-26.45246877 49.46550523 -28.55147484 51.35996355 -30.75 53.25 C-35.3963852 57.27744834 -39.69099897 61.61746653 -44 66 C-48.87658532 70.9598035 -53.79070492 75.75509344 -59.06640625 80.2890625 C-62.36334205 83.20635114 -65.42097038 86.3561487 -68.5 89.5 C-72.19537948 93.27317694 -75.89902764 96.96241929 -79.90625 100.40625 C-84.50730122 104.37359678 -88.74270203 108.67005189 -93 113 C-97.87658532 117.9598035 -102.79070492 122.75509344 -108.06640625 127.2890625 C-111.36334205 130.20635114 -114.42097038 133.3561487 -117.5 136.5 C-121.17485228 140.25221759 -124.85486889 143.92356479 -128.84375 147.34375 C-133.82206336 151.63639848 -138.38943382 156.31957676 -143 161 C-148.22112164 166.30022954 -153.44847167 171.481128 -159.09765625 176.32470703 C-162.3784303 179.21391025 -165.43153137 182.32623084 -168.5 185.4375 C-169.13164062 186.07365234 -169.76328125 186.70980469 -170.4140625 187.36523438 C-171.94505774 188.90782806 -173.47287667 190.45357314 -175 192 C-173.63676257 194.0399719 -173.63676257 194.0399719 -172 196 C-171.34 196 -170.68 196 -170 196 C-169.67 196.99 -169.34 197.98 -169 199 C-167.61088239 200.4081132 -167.61088239 200.4081132 -165.8125 201.8125 C-161.64675724 205.33274028 -157.82777485 209.12241478 -154 213 C-148.6555832 218.41520327 -148.6555832 218.41520327 -143 223.5 C-138.4891427 227.31089669 -134.40107294 231.54732029 -130.2734375 235.76367188 C-127.32928524 238.75151589 -124.3397536 241.6109518 -121.15625 244.34375 C-115.48505481 249.23911694 -110.31805348 254.63671291 -105.06640625 259.97265625 C-100.81518875 264.2652146 -96.49949355 268.37206985 -91.91601562 272.30664062 C-88.62346802 275.21656802 -85.57510702 278.36388851 -82.5 281.5 C-78.15768181 285.88915859 -73.80929499 290.15199156 -69.0859375 294.1328125 C-65.49526412 297.34693586 -62.15985673 300.82137722 -58.77246094 304.24707031 C-55.97128708 307.06770803 -53.16713205 309.81110705 -50.125 312.375 C-46.01841194 315.85249372 -42.28348253 319.67970421 -38.5 323.5 C-32.91455492 329.17500152 -32.91455492 329.17500152 -27 334.5 C-22.92899268 337.92821669 -19.2425269 341.72244945 -15.5 345.5 C-8.20699115 353.28928262 -8.20699115 353.28928262 0 360 C2.99549305 360.31642196 2.99549305 360.31642196 4.77758789 358.54711914 C5.41946045 357.88317139 6.06133301 357.21922363 6.72265625 356.53515625 C7.42583984 355.81779297 8.12902344 355.10042969 8.85351562 354.36132812 C9.58248047 353.60271484 10.31144531 352.84410156 11.0625 352.0625 C12.50958424 350.57214324 13.95870537 349.08376069 15.41015625 347.59765625 C16.05090088 346.93258057 16.69164551 346.26750488 17.35180664 345.58227539 C19 344 19 344 21 343 C21 342.34 21 341.68 21 341 C21.82419434 340.66585083 21.82419434 340.66585083 22.66503906 340.32495117 C25.70445373 338.60026449 27.94449385 336.28348674 30.359375 333.80078125 C30.8674469 333.28750778 31.3755188 332.77423431 31.89898682 332.2454071 C33.52083649 330.60580301 35.1358566 328.95968847 36.75 327.3125 C38.86632729 325.15931964 40.98589442 323.00940754 43.109375 320.86328125 C43.87888489 320.08538742 43.87888489 320.08538742 44.66394043 319.29177856 C48.0756925 315.86647688 51.5958354 312.63438944 55.27441406 309.50073242 C57.99045041 307.13861083 60.49085824 304.57807423 63 302 C66.13142464 298.78254721 69.30720497 295.70296753 72.71875 292.78125 C77.91218885 288.28882666 82.68170628 283.38742275 87.5 278.5 C92.86425431 273.05878365 98.2210717 267.72289158 104.02539062 262.75195312 C107.85938195 259.3502813 111.40798222 255.65331501 115 252 C119.85646346 247.06066174 124.75021776 242.28848859 130.00390625 237.7734375 C133.66795488 234.51809879 137.06705043 230.99548052 140.5 227.5 C145.18655369 222.72808103 149.92544743 218.13995081 154.99560547 213.77734375 C158.58832175 210.59159777 161.93917535 207.16473468 165.3125 203.75 C166.01439453 203.04359375 166.71628906 202.3371875 167.43945312 201.609375 C168.73335821 200.30683565 170.02622315 199.00326148 171.31762695 197.69824219 C172.87375604 196.12743477 174.43517527 194.56213962 176 193 C174.65049709 189.95139919 173.18607491 187.98876081 170.7265625 185.75 C170.07236328 185.14736328 169.41816406 184.54472656 168.74414062 183.92382812 C168.04482422 183.28896484 167.34550781 182.65410156 166.625 182 C160.5428017 176.39869429 154.62167471 170.69512588 148.84375 164.78125 C146.67104119 162.65629304 144.48696959 160.6665332 142.1875 158.6875 C136.96884553 154.16860845 132.18952237 149.23851185 127.35546875 144.31640625 C124.01723115 140.94155178 120.66532461 137.65525373 117.0625 134.5625 C111.41721218 129.70544312 106.28661769 124.33134671 101.06640625 119.02734375 C96.82525671 114.74495126 92.51976798 110.64975845 87.94726562 106.72460938 C83.7609538 103.01697313 79.91385431 98.95123428 76 94.9609375 C72.78049134 91.70370022 69.53675099 88.54829194 66.0625 85.5625 C60.64834097 80.89913255 55.71736288 75.76373426 50.7109375 70.671875 C46.58475948 66.50315906 42.38132414 62.53334342 37.93359375 58.7109375 C34.63648246 55.79349357 31.5810041 52.64214152 28.5 49.5 C24.12362318 45.076311 19.7462404 40.76446607 14.9765625 36.76171875 C11.71781371 33.85718178 8.6986987 30.70420458 5.67871094 27.55371094 C4.48862573 26.33282554 3.24788079 25.1617476 2 24 C-0.73804596 24 -1.33853073 25.02941627 -3.30859375 26.89453125 Z " fill="#026748" transform="translate(447,10)"/>
<path d="M0 0 C3.02977429 1.35231187 5.08472613 2.85480543 7.390625 5.23046875 C8.01324219 5.8646875 8.63585937 6.49890625 9.27734375 7.15234375 C9.92832031 7.82394531 10.57929688 8.49554688 11.25 9.1875 C12.60749038 10.56826164 13.96684085 11.94719721 15.328125 13.32421875 C15.9355957 13.94385498 16.54306641 14.56349121 17.16894531 15.2019043 C19.60386631 17.59299671 22.17195354 19.80269772 24.78125 22 C28.80909056 25.63072952 32.57538415 29.53721327 36.37109375 33.40820312 C39.45485066 36.53433725 42.57519884 39.54352484 45.90625 42.40625 C51.32913298 47.08223736 56.27219085 52.2256412 61.2890625 57.328125 C65.40517887 61.48667556 69.59838878 65.44482818 74.03515625 69.2578125 C78.22571334 72.97349533 82.08015412 77.04265713 86 81.0390625 C89.2092754 84.2859466 92.44136871 87.43191023 95.90625 90.40625 C101.56015173 95.27611458 106.70289859 100.6580013 111.93359375 105.97265625 C116.16467757 110.24488513 120.45995783 114.32841345 125.02148438 118.24414062 C129.44134778 122.16660578 133.50581006 126.46948602 137.64453125 130.68359375 C141.64544254 134.72839072 145.73682041 138.56154656 150.04882812 142.27148438 C153.35048412 145.19637482 156.41356467 148.3514325 159.5 151.5 C164.06081373 156.12086917 168.61540367 160.62538997 173.6796875 164.703125 C175 166 175 166 176 169 C175.37738281 169.62132812 174.75476563 170.24265625 174.11328125 170.8828125 C171.54117632 173.45401272 168.97953551 176.03549156 166.41796875 178.6171875 C164.67454827 180.3698604 162.93105665 182.12246256 161.1875 183.875 C160.32318359 184.74769531 159.45886719 185.62039062 158.56835938 186.51953125 C154.15992368 190.94460255 149.69412223 195.19969874 144.9543457 199.26611328 C141.30262472 202.50590372 137.91921875 206.01850039 134.5 209.5 C130.45051536 213.62324574 126.41641052 217.700117 122.03125 221.46875 C117.44821339 225.41187392 113.23659911 229.69110398 109 234 C104.14353654 238.93933826 99.24978224 243.71151141 93.99609375 248.2265625 C90.33204512 251.48190121 86.93294957 255.00451948 83.5 258.5 C78.8066805 263.27880802 74.06008022 267.87155094 68.98242188 272.24023438 C65.49728173 275.33394006 62.26192574 278.67436478 59 282 C55.15616425 285.91891066 51.32106596 289.77675808 47.1484375 293.34765625 C41.0427121 298.60395433 35.52032994 304.47382536 29.89453125 310.23242188 C29.03472656 311.10318359 28.17492187 311.97394531 27.2890625 312.87109375 C26.51256348 313.66443115 25.73606445 314.45776855 24.93603516 315.27514648 C23 317 23 317 21 317 C21 317.66 21 318.32 21 319 C19.63671875 320.33984375 19.63671875 320.33984375 17.6875 321.9375 C12.13853658 326.63967367 7.09624567 331.81944144 2 337 C-6.73488443 329.59433712 -15.16383823 321.97059037 -23.1640625 313.7734375 C-25.32178361 311.66326947 -27.48882364 309.69013216 -29.7734375 307.7265625 C-35.23362343 302.99731826 -40.22784209 297.81946436 -45.2890625 292.671875 C-49.43537121 288.48282084 -53.65924992 284.4896867 -58.12890625 280.6484375 C-61.05812465 278.06778998 -63.77302486 275.29092148 -66.5 272.5 C-69.86715321 269.09057725 -73.20787838 265.71563089 -76.875 262.625 C-81.65602263 258.57638935 -85.98787141 254.0619646 -90.37060547 249.59228516 C-93.47493775 246.44530419 -96.61864293 243.41679144 -99.96875 240.53125 C-104.91227222 236.26860087 -109.4321549 231.61799832 -114 226.9609375 C-117.22974198 223.69334698 -120.48511625 220.52847667 -123.96875 217.53125 C-129.14314977 213.07439395 -133.86250569 208.1855361 -138.64453125 203.31640625 C-142.64840007 199.26861931 -146.74248856 195.4315398 -151.05810547 191.71923828 C-154.29128905 188.85676923 -157.29362797 185.77264803 -160.3125 182.6875 C-161.5145471 181.45990461 -162.71888527 180.23454735 -163.92578125 179.01171875 C-164.44567627 178.48022217 -164.96557129 177.94872559 -165.5012207 177.40112305 C-167.15445886 175.77930377 -167.15445886 175.77930377 -170 174 C-170 173.34 -170 172.68 -170 172 C-171.32 171.34 -172.64 170.68 -174 170 C-174 167 -174 167 -172.3828125 165.02636719 C-171.63773437 164.29063477 -170.89265625 163.55490234 -170.125 162.796875 C-168.89330078 161.57291016 -168.89330078 161.57291016 -167.63671875 160.32421875 C-166.76660156 159.47472656 -165.89648438 158.62523437 -165 157.75 C-164.16082031 156.91597656 -163.32164062 156.08195313 -162.45703125 155.22265625 C-158.72873515 151.54060259 -154.97709054 147.92856084 -151 144.515625 C-146.07255296 140.27337014 -141.56035122 135.62944745 -137 131 C-131.77787251 125.69874936 -126.54850876 120.52032026 -120.8984375 115.67578125 C-117.61061136 112.77356435 -114.56721837 109.63179138 -111.5 106.5 C-107.80462052 102.72682306 -104.10097236 99.03758071 -100.09375 95.59375 C-95.49269878 91.62640322 -91.25729797 87.32994811 -87 83 C-82.12341468 78.0401965 -77.20929508 73.24490656 -71.93359375 68.7109375 C-68.63665795 65.79364886 -65.57902962 62.6438513 -62.5 59.5 C-58.80462052 55.72682306 -55.10097236 52.03758071 -51.09375 48.59375 C-46.49269878 44.62640322 -42.25729797 40.32994811 -38 36 C-33.1147755 31.03140989 -28.1919847 26.22607023 -22.90673828 21.68408203 C-19.77055168 18.9141185 -16.86167588 15.92790863 -13.9375 12.9375 C-9.4720156 8.37155476 -4.89969461 4.10076351 0 0 Z M-1.8828125 13.72265625 C-2.62273437 14.49480469 -3.36265625 15.26695313 -4.125 16.0625 C-6.89979132 18.95085039 -9.73886344 21.66784912 -12.7734375 24.27734375 C-17.23515274 28.1420395 -21.36581631 32.29051242 -25.5 36.5 C-30.18327224 41.26857774 -34.91966352 45.84975966 -39.98632812 50.20898438 C-43.65489554 53.47191 -47.06112599 56.99848712 -50.5 60.5 C-55.18327224 65.26857774 -59.91966352 69.84975966 -64.98632812 74.20898438 C-68.65489554 77.47191 -72.06112599 80.99848712 -75.5 84.5 C-80.18327224 89.26857774 -84.91966352 93.84975966 -89.98632812 98.20898438 C-93.65489554 101.47191 -97.06112599 104.99848712 -100.5 108.5 C-105.20336798 113.28903952 -109.96017723 117.89334324 -115.04882812 122.27148438 C-118.35035108 125.19625696 -121.41507142 128.35012556 -124.5 131.5 C-128.20179288 135.27972536 -131.91281447 138.97458037 -135.92578125 142.42578125 C-140.40903728 146.29110731 -144.54104341 150.46693337 -148.6875 154.6875 C-157.42994585 163.58372678 -157.42994585 163.58372678 -162 167 C-159.344452 172.91697345 -154.36651629 176.86664883 -149.5 181 C-145.28465604 184.62256122 -141.40811088 188.55361184 -137.5 192.5 C-131.91456087 198.17500865 -131.91456087 198.17500865 -126 203.5 C-121.20485648 207.5380156 -116.8954922 212.08125059 -112.48828125 216.53125 C-109.40792204 219.63005448 -106.34483396 222.68329772 -103 225.5 C-98.25339127 229.49714419 -93.96978373 233.98123309 -89.62890625 238.40820312 C-86.52474224 241.55502478 -83.38118135 244.58335991 -80.03125 247.46875 C-75.08772778 251.73139913 -70.5678451 256.38200168 -66 261.0390625 C-62.12460953 264.95986771 -58.14503915 268.65675095 -53.96875 272.25390625 C-50.00327543 275.77090453 -46.35140606 279.60961697 -42.64453125 283.39453125 C-39.53375402 286.54443775 -36.38640621 289.5788596 -33.03125 292.46875 C-28.08772778 296.73139913 -23.5678451 301.38200168 -19 306.0390625 C-15.05876324 310.02648563 -11.02343376 313.81895782 -6.76171875 317.46313477 C-4.38720764 319.53457981 -2.19292116 321.73855006 0 324 C3.65141356 322.4744094 5.90118112 320.27519091 8.625 317.4375 C12.80555556 313.09722222 12.80555556 313.09722222 15 312 C15 311.34 15 310.68 15 310 C15.56299805 309.76369873 16.12599609 309.52739746 16.70605469 309.28393555 C19.5325491 307.70192894 21.43604599 305.77135991 23.703125 303.45703125 C25.05083984 302.09288086 25.05083984 302.09288086 26.42578125 300.70117188 C27.36756931 299.73865469 28.30897355 298.77576181 29.25 297.8125 C34.71991724 292.23872357 40.16366335 286.74931104 46.1015625 281.67358398 C49.52276766 278.65759101 52.68380874 275.38052979 55.875 272.125 C57.18257274 270.7919881 58.49236015 269.46114384 59.8046875 268.1328125 C60.37171387 267.55418457 60.93874023 266.97555664 61.52294922 266.37939453 C63 265 63 265 65 264 C65 263.34 65 262.68 65 262 C65.85126465 261.63878052 65.85126465 261.63878052 66.71972656 261.27026367 C69.46000636 259.74374592 71.29039291 257.91799033 73.484375 255.67578125 C74.33773437 254.81146484 75.19109375 253.94714844 76.0703125 253.05664062 C77.39675781 251.69829102 77.39675781 251.69829102 78.75 250.3125 C84.03742129 244.91917339 89.31326893 239.63440417 95.05273438 234.72241211 C98.66206797 231.52985337 102.00092968 228.06237371 105.375 224.625 C106.77632747 223.19824009 108.1798635 221.77364493 109.5859375 220.3515625 C110.1948584 219.73104004 110.8037793 219.11051758 111.43115234 218.47119141 C113 217 113 217 115 216 C115 215.34 115 214.68 115 214 C115.85803223 213.63201294 115.85803223 213.63201294 116.73339844 213.2565918 C119.38736797 211.78524527 121.14499183 210.06447599 123.265625 207.89453125 C124.07386719 207.07533203 124.88210938 206.25613281 125.71484375 205.41210938 C126.96974609 204.12530273 126.96974609 204.12530273 128.25 202.8125 C133.37622524 197.57763419 138.50607947 192.47261367 144.07080078 187.7043457 C147.47789595 184.69435692 150.631664 181.4329215 153.8125 178.1875 C155.10830637 176.8661605 156.40639155 175.54705092 157.70703125 174.23046875 C158.2688208 173.65707764 158.83061035 173.08368652 159.40942383 172.49291992 C161 171 161 171 164 169 C162.61308541 165.7778752 161.07563327 163.96645599 158.375 161.75 C153.2825944 157.43892017 148.66862524 152.72074683 144 147.9609375 C140.77025802 144.69334698 137.51488375 141.52847667 134.03125 138.53125 C128.85685023 134.07439395 124.13749431 129.1855361 119.35546875 124.31640625 C115.36461298 120.2817751 111.28347991 116.46028262 106.98242188 112.75976562 C102.78759393 109.03608091 98.92583073 104.96344461 95 100.9609375 C91.77025802 97.69334698 88.51488375 94.52847667 85.03125 91.53125 C79.85685023 87.07439395 75.13749431 82.1855361 70.35546875 77.31640625 C66.36345645 73.28060588 62.28079322 69.45973691 57.97753906 65.75927734 C53.81421715 62.05546281 49.99283227 57.99029186 46.1171875 53.99023438 C45.48296875 53.34505859 44.84875 52.69988281 44.1953125 52.03515625 C43.62828613 51.4512915 43.06125977 50.86742676 42.47705078 50.26586914 C41.07111258 48.78308677 41.07111258 48.78308677 39 49 C39 48.34 39 47.68 39 47 C37.49959264 45.48246257 37.49959264 45.48246257 35.53125 43.90625 C30.1625667 39.34097881 25.28994821 34.34076694 20.35546875 29.31640625 C16.2701615 25.18628759 12.102664 21.24231397 7.68310547 17.47045898 C6.26886192 16.23489343 4.93555708 14.90754542 3.625 13.5625 C1.23426467 11.26371603 0.53181598 11.51342148 -1.8828125 13.72265625 Z " fill="#F9FAFA" transform="translate(447,34)"/>
<path d="M0 0 C0 77.22 0 154.44 0 234 C-4.27854821 231.14763453 -7.21348381 229.02392095 -10.6796875 225.48046875 C-11.52660156 224.62259766 -12.37351562 223.76472656 -13.24609375 222.88085938 C-14.11363281 221.99205078 -14.98117187 221.10324219 -15.875 220.1875 C-21.73418613 214.20972464 -27.63943535 208.44125057 -34 203 C-35.83494571 201.35807787 -37.65101046 199.69451738 -39.4375 198 C-40.28183594 197.21625 -41.12617188 196.4325 -41.99609375 195.625 C-46.70065353 189.46230181 -45.18220367 179.68782823 -45.22460938 172.29711914 C-45.23580026 170.91006721 -45.24731404 169.52301786 -45.25912476 168.13597107 C-45.29548095 163.60240358 -45.32086505 159.06880956 -45.34375 154.53515625 C-45.3496688 153.37541389 -45.3496688 153.37541389 -45.35570717 152.19224238 C-45.39209568 144.89354338 -45.42351179 137.59483428 -45.44481659 130.29607487 C-45.4724124 120.9830097 -45.52326797 111.67070399 -45.60529089 102.35795504 C-45.66112412 95.79554281 -45.69005763 89.23333658 -45.6992898 82.67069525 C-45.70553642 78.75664682 -45.72356165 74.84349245 -45.77067566 70.92970467 C-45.81445468 67.24801952 -45.82479764 63.56771411 -45.81004715 59.88581276 C-45.81053037 57.9000994 -45.8456791 55.91448797 -45.88204956 53.92910767 C-45.81570992 46.76222365 -45.05102504 42.60381473 -39.89337921 37.45902157 C-38.00649362 36.00500392 -36.16790146 34.97587896 -34 34 C-34 33.34 -34 32.68 -34 32 C-33.34 32 -32.68 32 -32 32 C-32 31.34 -32 30.68 -32 30 C-31.34 30 -30.68 30 -30 30 C-29.99853344 30.82183179 -29.99706688 31.64366358 -29.99555588 32.49039936 C-29.95853469 52.46996634 -29.89958249 72.44936306 -29.81609726 92.428792 C-29.77625582 102.09063312 -29.74388933 111.75239219 -29.72900391 121.41430664 C-29.71601377 129.83378552 -29.68911696 138.25308425 -29.64538693 146.67246169 C-29.62271248 151.13218182 -29.60709288 155.59167927 -29.60811615 160.05146217 C-29.60885925 164.24666377 -29.59105049 168.44137199 -29.55883217 172.636446 C-29.55029303 174.17838035 -29.54861031 175.72036979 -29.55419731 177.26231766 C-29.56079913 179.36380017 -29.54301271 181.46369519 -29.51898193 183.5650177 C-29.51529476 184.74214734 -29.51160759 185.91927698 -29.50780869 187.13207722 C-29.28696951 190.12355178 -29.28696951 190.12355178 -26.96756363 191.77718639 C-26.31826763 192.18071488 -25.66897163 192.58424337 -25 193 C-25 193.66 -25 194.32 -25 195 C-24.46375 195.20625 -23.9275 195.4125 -23.375 195.625 C-21.09795632 196.94328845 -19.67682631 198.22066791 -17.8515625 200.0859375 C-17.31611816 200.63040527 -16.78067383 201.17487305 -16.22900391 201.73583984 C-15.82343262 202.1530127 -15.41786133 202.57018555 -15 203 C-15.00682958 202.03277417 -15.01365915 201.06554834 -15.02069569 200.06901264 C-15.18414159 176.49758857 -15.27235818 152.92678871 -15.28240681 129.35478687 C-15.28899492 117.95523183 -15.31972389 106.55671032 -15.40795898 95.1574707 C-15.48483398 85.21785279 -15.51572654 75.27931761 -15.49218339 65.33941191 C-15.48130983 60.07929638 -15.49292972 54.82146677 -15.55968666 49.56171608 C-15.62190494 44.60218378 -15.62224952 39.64635158 -15.5768013 34.68667412 C-15.5707988 32.8747151 -15.58667515 31.06251861 -15.62704659 29.25099945 C-15.81353429 20.33489739 -15.60163297 13.82799603 -9.28877181 7.07277077 C-1.93733554 0 -1.93733554 0 0 0 Z " fill="#F9FAFA" transform="translate(440,85)"/>
<path d="M0 0 C3.61006461 1.80503231 5.31124517 3.08357042 8.046875 5.88671875 C8.81 6.66080078 9.573125 7.43488281 10.359375 8.23242188 C11.14828125 9.04259766 11.9371875 9.85277344 12.75 10.6875 C19.03442945 17.15040202 19.03442945 17.15040202 25.703125 23.20703125 C26.33581299 23.78839844 26.96850098 24.36976563 27.62036133 24.96875 C29.56037581 26.62473856 31.44671121 27.96934163 33.55737305 29.37890625 C39.09612346 33.45439998 43.16127935 37.50476993 44.80645752 44.36077881 C46.00744752 53.5291605 45.83838237 62.69009457 45.60247803 71.91522217 C45.54914045 74.94683207 45.58874356 77.97434159 45.62881565 81.0059309 C45.65711696 83.9573098 45.63107214 86.90633942 45.58878899 89.85747719 C45.57408414 91.25222484 45.57434272 92.64722577 45.59094429 94.04195213 C45.64220142 101.18123205 45.11418782 106.5067896 40.15675259 111.7746706 C37.86698984 113.97402765 35.46592991 116.00168425 33 118 C31.62376059 119.20282746 30.24941653 120.40783628 28.87890625 121.6171875 C28.2461377 122.15827148 27.61336914 122.69935547 26.96142578 123.25683594 C22.27894449 127.41826442 17.98933461 132.01602569 13.62304688 136.50390625 C12.86958984 137.26832031 12.11613281 138.03273438 11.33984375 138.8203125 C10.67331787 139.50367676 10.00679199 140.18704102 9.32006836 140.89111328 C6.42876682 143.51923731 3.17946614 145.72895276 0 148 C0 99.16 0 50.32 0 0 Z " fill="#FBFCFC" transform="translate(511,130)"/>
<path d="M0 0 C7.86126927 6.7382308 7.86126927 6.7382308 10.46484375 9.40234375 C11.03259521 9.97847412 11.60034668 10.55460449 12.18530273 11.14819336 C12.76352783 11.73866455 13.34175293 12.32913574 13.9375 12.9375 C19.27863565 18.35644623 19.27863565 18.35644623 24.9375 23.4375 C27.66355976 25.78640648 30.27094772 28.20681217 32.81640625 30.75 C33.84616577 31.77782593 33.84616577 31.77782593 34.89672852 32.82641602 C37.93726823 35.87824967 40.97308152 38.93465384 44 42 C42.50427507 45.17483377 41.10891525 47.02236535 38.375 49.25 C37.74335938 49.77078125 37.11171875 50.2915625 36.4609375 50.828125 C35.97882813 51.21484375 35.49671875 51.6015625 35 52 C27.81978026 48.40989013 22.67646212 41.67646212 17 36 C17 90.78 17 145.56 17 202 C20.96 198.04 24.92 194.08 29 190 C33.62613992 191.15653498 34.81352941 192.57454412 38 196 C38.763125 196.721875 39.52625 197.44375 40.3125 198.1875 C42 200 42 200 42 202 C40.77734375 203.19921875 40.77734375 203.19921875 38.9375 204.6875 C34.5517613 208.40091512 30.53524054 212.415932 26.5 216.5 C22.08010473 220.96425109 17.65642168 225.31765528 12.8515625 229.37109375 C9.04852319 232.71680555 5.54301835 236.38316877 2 240 C1.34 239.67 0.68 239.34 0 239 C0 160.13 0 81.26 0 0 Z " fill="#F5F7F6" transform="translate(455,82)"/>
<path d="M0 0 C4.29597139 1.64990206 7.00517646 4.81742807 10.125 8.0625 C13.69553366 12.0044894 13.69553366 12.0044894 18 15 C18 15.66 18 16.32 18 17 C18.8650415 17.37499634 18.8650415 17.37499634 19.74755859 17.75756836 C22.31087205 19.17147494 23.99597808 20.78512074 26.0390625 22.87890625 C26.78414062 23.63494141 27.52921875 24.39097656 28.296875 25.16992188 C29.06515625 25.95947266 29.8334375 26.74902344 30.625 27.5625 C32.15663169 29.12847891 33.69038195 30.69238939 35.2265625 32.25390625 C35.90283691 32.94814697 36.57911133 33.6423877 37.27587891 34.35766602 C38.91488551 36.07956495 38.91488551 36.07956495 41 37 C41 37.66 41 38.32 41 39 C41.66 39 42.32 39 43 39 C43 39.66 43 40.32 43 41 C43.57669434 41.24999756 44.15338867 41.49999512 44.74755859 41.75756836 C47.31087205 43.17147494 48.99597808 44.78512074 51.0390625 46.87890625 C51.78414062 47.63494141 52.52921875 48.39097656 53.296875 49.16992188 C54.06515625 49.95947266 54.8334375 50.74902344 55.625 51.5625 C57.15663169 53.12847891 58.69038195 54.69238939 60.2265625 56.25390625 C60.90283691 56.94814697 61.57911133 57.6423877 62.27587891 58.35766602 C63.91488551 60.07956495 63.91488551 60.07956495 66 61 C66 61.66 66 62.32 66 63 C66.5676709 63.24097412 67.1353418 63.48194824 67.72021484 63.73022461 C70.45643596 65.25422183 72.28631807 67.07778292 74.4765625 69.31640625 C75.72953125 70.58581055 75.72953125 70.58581055 77.0078125 71.88085938 C77.87148438 72.76580078 78.73515625 73.65074219 79.625 74.5625 C81.34414185 76.31597382 83.06539013 78.06738575 84.7890625 79.81640625 C85.92915771 80.98345093 85.92915771 80.98345093 87.09228516 82.17407227 C88.87557625 84.06086128 88.87557625 84.06086128 91 85 C91 85.66 91 86.32 91 87 C91.57669434 87.24999756 92.15338867 87.49999512 92.74755859 87.75756836 C95.31087205 89.17147494 96.99597808 90.78512074 99.0390625 92.87890625 C99.78414062 93.63494141 100.52921875 94.39097656 101.296875 95.16992188 C102.06515625 95.95947266 102.8334375 96.74902344 103.625 97.5625 C105.15663169 99.12847891 106.69038195 100.69238939 108.2265625 102.25390625 C108.90283691 102.94814697 109.57911133 103.6423877 110.27587891 104.35766602 C111.91488551 106.07956495 111.91488551 106.07956495 114 107 C114 107.66 114 108.32 114 109 C114.66 109 115.32 109 116 109 C116 109.66 116 110.32 116 111 C116.57669434 111.24999756 117.15338867 111.49999512 117.74755859 111.75756836 C120.31087205 113.17147494 121.99597808 114.78512074 124.0390625 116.87890625 C124.78414062 117.63494141 125.52921875 118.39097656 126.296875 119.16992188 C127.06515625 119.95947266 127.8334375 120.74902344 128.625 121.5625 C130.15663169 123.12847891 131.69038195 124.69238939 133.2265625 126.25390625 C133.90283691 126.94814697 134.57911133 127.6423877 135.27587891 128.35766602 C136.91488551 130.07956495 136.91488551 130.07956495 139 131 C139 131.66 139 132.32 139 133 C139.99 133.33 140.98 133.66 142 134 C142 134.66 142 135.32 142 136 C142.58120605 136.25450928 143.16241211 136.50901855 143.76123047 136.77124023 C146.23792581 138.13058676 147.85134445 139.63911097 149.8203125 141.66015625 C150.52027344 142.37107422 151.22023438 143.08199219 151.94140625 143.81445312 C152.66199219 144.55630859 153.38257813 145.29816406 154.125 146.0625 C155.56287561 147.53473193 157.00287708 149.00489156 158.4453125 150.47265625 C159.07969238 151.12500244 159.71407227 151.77734863 160.36767578 152.44946289 C161.93459167 154.08886 161.93459167 154.08886 164 155 C164 155.66 164 156.32 164 157 C164.53109375 157.20367187 165.0621875 157.40734375 165.609375 157.6171875 C169.02874104 159.59505609 171.51337921 162.30326899 174.25 165.125 C174.80429687 165.68832031 175.35859375 166.25164062 175.9296875 166.83203125 C177.29104485 168.21686028 178.64614859 169.60783204 180 171 C178.60249952 174.15835107 176.94801766 176.32272825 174.5 178.75 C173.8915625 179.36359375 173.283125 179.9771875 172.65625 180.609375 C171 182 171 182 169 182 C169 182.66 169 183.32 169 184 C167.70703125 185.26953125 167.70703125 185.26953125 165.8125 186.8125 C161.04409741 190.83610721 156.72201382 195.24599605 152.39379883 199.73168945 C150.96517864 201.19058334 149.48635008 202.5999677 148 204 C147.34 204 146.68 204 146 204 C146 204.66 146 205.32 146 206 C145.34 206 144.68 206 144 206 C144 206.66 144 207.32 144 208 C143.34 208 142.68 208 142 208 C142 208.66 142 209.32 142 210 C140.70703125 211.26953125 140.70703125 211.26953125 138.8125 212.8125 C134.04409741 216.83610721 129.72201382 221.24599605 125.39379883 225.73168945 C123.96517864 227.19058334 122.48635008 228.5999677 121 230 C120.34 230 119.68 230 119 230 C119 230.66 119 231.32 119 232 C118.34 232 117.68 232 117 232 C117 232.66 117 233.32 117 234 C115.70703125 235.26953125 115.70703125 235.26953125 113.8125 236.8125 C109.04409741 240.83610721 104.72201382 245.24599605 100.39379883 249.73168945 C98.96517864 251.19058334 97.48635008 252.5999677 96 254 C95.34 254 94.68 254 94 254 C94 254.66 94 255.32 94 256 C93.34 256 92.68 256 92 256 C92 256.66 92 257.32 92 258 C90.77734375 259.19921875 90.77734375 259.19921875 88.9375 260.6875 C83.66360687 265.13467475 78.90344989 270.07240197 74.10522461 275.02026367 C73.15981812 275.98283081 73.15981812 275.98283081 72.1953125 276.96484375 C71.62828613 277.5487085 71.06125977 278.13257324 70.47705078 278.73413086 C69 280 69 280 67 280 C67 280.66 67 281.32 67 282 C65.70703125 283.26953125 65.70703125 283.26953125 63.8125 284.8125 C59.04409741 288.83610721 54.72201382 293.24599605 50.39379883 297.73168945 C48.96517864 299.19058334 47.48635008 300.5999677 46 302 C45.34 302 44.68 302 44 302 C44 302.66 44 303.32 44 304 C43.34 304 42.68 304 42 304 C42 304.66 42 305.32 42 306 C41.34 306 40.68 306 40 306 C40 306.66 40 307.32 40 308 C38.7421875 309.234375 38.7421875 309.234375 36.875 310.75 C32.69093955 314.29379497 28.84825857 318.10157124 25 322 C20.75844115 326.28738937 16.49393667 330.4382911 11.88671875 334.3359375 C8.07517362 337.69767296 4.55494995 341.37098859 1 345 C0.01 344.67 -0.98 344.34 -2 344 C-2 343.34 -2 342.68 -2 342 C-2.58120605 341.74549072 -3.16241211 341.49098145 -3.76123047 341.22875977 C-6.23792581 339.86941324 -7.85134445 338.36088903 -9.8203125 336.33984375 C-10.52027344 335.62892578 -11.22023438 334.91800781 -11.94140625 334.18554688 C-12.66199219 333.44369141 -13.38257813 332.70183594 -14.125 331.9375 C-15.56287561 330.46526807 -17.00287708 328.99510844 -18.4453125 327.52734375 C-19.07969238 326.87499756 -19.71407227 326.22265137 -20.36767578 325.55053711 C-21.93459167 323.91114 -21.93459167 323.91114 -24 323 C-24 322.34 -24 321.68 -24 321 C-24.57669434 320.75000244 -25.15338867 320.50000488 -25.74755859 320.24243164 C-28.31087205 318.82852506 -29.99597808 317.21487926 -32.0390625 315.12109375 C-32.78414062 314.36505859 -33.52921875 313.60902344 -34.296875 312.83007812 C-35.06515625 312.04052734 -35.8334375 311.25097656 -36.625 310.4375 C-38.15663169 308.87152109 -39.69038195 307.30761061 -41.2265625 305.74609375 C-41.90283691 305.05185303 -42.57911133 304.3576123 -43.27587891 303.64233398 C-44.91488551 301.92043505 -44.91488551 301.92043505 -47 301 C-47 300.34 -47 299.68 -47 299 C-47.99 298.67 -48.98 298.34 -50 298 C-50 297.34 -50 296.68 -50 296 C-50.59006836 295.73662842 -51.18013672 295.47325684 -51.78808594 295.2019043 C-54.09572815 293.94798348 -55.56727394 292.64804739 -57.390625 290.76953125 C-58.32455078 289.81820312 -58.32455078 289.81820312 -59.27734375 288.84765625 C-59.92832031 288.17605469 -60.57929688 287.50445312 -61.25 286.8125 C-62.60749038 285.43173836 -63.96684085 284.05280279 -65.328125 282.67578125 C-66.23933105 281.7463269 -66.23933105 281.7463269 -67.16894531 280.7980957 C-69.0513216 278.94960219 -71.00062511 277.22082496 -73 275.5 C-75.68634819 273.18579789 -78.24664758 270.8079434 -80.7421875 268.2890625 C-81.42023438 267.60779297 -82.09828125 266.92652344 -82.796875 266.22460938 C-84.16676336 264.84055864 -85.53401816 263.4538956 -86.8984375 262.06445312 C-87.5275 261.42701172 -88.1565625 260.78957031 -88.8046875 260.1328125 C-89.37171387 259.55418457 -89.93874023 258.97555664 -90.52294922 258.37939453 C-91.97110166 256.89627065 -91.97110166 256.89627065 -94 256 C-94 255.34 -94 254.68 -94 254 C-94.57669434 253.75000244 -95.15338867 253.50000488 -95.74755859 253.24243164 C-98.31087205 251.82852506 -99.99597808 250.21487926 -102.0390625 248.12109375 C-102.78414063 247.36505859 -103.52921875 246.60902344 -104.296875 245.83007812 C-105.06515625 245.04052734 -105.8334375 244.25097656 -106.625 243.4375 C-108.15663169 241.87152109 -109.69038195 240.30761061 -111.2265625 238.74609375 C-111.90283691 238.05185303 -112.57911133 237.3576123 -113.27587891 236.64233398 C-114.91488551 234.92043505 -114.91488551 234.92043505 -117 234 C-117 233.34 -117 232.68 -117 232 C-117.66 232 -118.32 232 -119 232 C-119 231.34 -119 230.68 -119 230 C-119.66 230 -120.32 230 -121 230 C-121 229.34 -121 228.68 -121 228 C-121.54785156 227.78085937 -122.09570312 227.56171875 -122.66015625 227.3359375 C-125.74724592 225.57335876 -128.00271003 223.17031001 -130.4375 220.625 C-133.12803897 217.83370576 -135.78500002 215.16810698 -138.84765625 212.7734375 C-139.55792969 212.18820313 -140.26820313 211.60296875 -141 211 C-141 210.34 -141 209.68 -141 209 C-141.58120605 208.74549072 -142.16241211 208.49098145 -142.76123047 208.22875977 C-145.23792581 206.86941324 -146.85134445 205.36088903 -148.8203125 203.33984375 C-149.52027344 202.62892578 -150.22023438 201.91800781 -150.94140625 201.18554688 C-152.02228516 200.07276367 -152.02228516 200.07276367 -153.125 198.9375 C-154.56287561 197.46526807 -156.00287708 195.99510844 -157.4453125 194.52734375 C-158.39688232 193.54882446 -158.39688232 193.54882446 -159.36767578 192.55053711 C-160.93459167 190.91114 -160.93459167 190.91114 -163 190 C-163 189.34 -163 188.68 -163 188 C-163.66 188 -164.32 188 -165 188 C-165 187.34 -165 186.68 -165 186 C-165.54140625 185.78601563 -166.0828125 185.57203125 -166.640625 185.3515625 C-169.8392797 183.51922057 -172.20964484 181.00203394 -174.75 178.375 C-175.25660156 177.859375 -175.76320313 177.34375 -176.28515625 176.8125 C-177.52803902 175.54616661 -178.76465276 174.2736856 -180 173 C-178.15234375 172.3984375 -178.15234375 172.3984375 -176 172 C-171.48267405 175.01155063 -167.84941613 179.13469818 -164.03881836 182.97802734 C-161.75700772 185.27897427 -159.47228568 187.57700747 -157.1875 189.875 C-156.41857422 190.65230469 -155.64964844 191.42960938 -154.85742188 192.23046875 C-150.67510374 196.43043379 -146.41146139 200.4393155 -141.91772461 204.30273438 C-138.69238346 207.15729474 -135.69859107 210.23530374 -132.6875 213.3125 C-131.4854529 214.54009539 -130.28111473 215.76545265 -129.07421875 216.98828125 C-128.55432373 217.51977783 -128.03442871 218.05127441 -127.4987793 218.59887695 C-125.84554114 220.22069623 -125.84554114 220.22069623 -123 222 C-123 222.66 -123 223.32 -123 224 C-122.14873535 224.36121948 -122.14873535 224.36121948 -121.28027344 224.72973633 C-118.53999364 226.25625408 -116.70960709 228.08200967 -114.515625 230.32421875 C-113.23558594 231.62069336 -113.23558594 231.62069336 -111.9296875 232.94335938 C-111.04539062 233.84892578 -110.16109375 234.75449219 -109.25 235.6875 C-103.94396005 241.0998182 -98.64888526 246.40503723 -92.88964844 251.33520508 C-89.60233598 254.23135284 -86.56591005 257.37326793 -83.5 260.5 C-79.15768181 264.88915859 -74.80929499 269.15199156 -70.0859375 273.1328125 C-66.49526412 276.34693586 -63.15985673 279.82137722 -59.77246094 283.24707031 C-56.97128708 286.06770803 -54.16713205 288.81110705 -51.125 291.375 C-48.40759521 293.72074717 -45.81135205 296.13346872 -43.28515625 298.68359375 C-42.61274902 299.35922363 -41.9403418 300.03485352 -41.24755859 300.73095703 C-39.89230422 302.10034537 -38.53968606 303.47234862 -37.18994141 304.84716797 C-36.56394043 305.48154785 -35.93793945 306.11592773 -35.29296875 306.76953125 C-34.7311792 307.34292236 -34.16938965 307.91631348 -33.59057617 308.50708008 C-31.86435723 310.20957915 -31.86435723 310.20957915 -29 312 C-29 312.66 -29 313.32 -29 314 C-28.41444336 314.25885986 -27.82888672 314.51771973 -27.22558594 314.78442383 C-24.8311604 316.09221724 -23.28906671 317.49736101 -21.390625 319.44921875 C-20.38128906 320.47499023 -20.38128906 320.47499023 -19.3515625 321.52148438 C-18.65804687 322.23626953 -17.96453125 322.95105469 -17.25 323.6875 C-9.57080673 331.84720866 -9.57080673 331.84720866 -1 339 C1.99886389 339.3184804 1.99886389 339.3184804 3.77758789 337.53125 C4.41946045 336.8609375 5.06133301 336.190625 5.72265625 335.5 C6.42583984 334.778125 7.12902344 334.05625 7.85351562 333.3125 C8.58248047 332.549375 9.31144531 331.78625 10.0625 331 C11.50716668 329.49561535 12.95616846 327.99537771 14.41015625 326.5 C15.05090088 325.8296875 15.69164551 325.159375 16.35180664 324.46875 C18 323 18 323 20 323 C20 322.34 20 321.68 20 321 C21.3984375 319.625 21.3984375 319.625 23.375 318 C28.53720096 313.6103115 33.24734165 308.82466833 38 304 C43.24347748 298.67707589 48.49424304 293.47580454 54.16894531 288.61279297 C57.61799572 285.57486937 60.76700653 282.23632943 63.94921875 278.92382812 C65.2639718 277.58019807 66.62816888 276.28530024 68 275 C68.66 275 69.32 275 70 275 C70.25587891 274.40638672 70.51175781 273.81277344 70.77539062 273.20117188 C72.12164698 270.78134586 73.46038612 269.52945289 75.59375 267.78125 C80.1509406 263.92326734 84.31848532 259.7576807 88.5 255.5 C92.54948464 251.37675426 96.58358948 247.299883 100.96875 243.53125 C105.55178661 239.58812608 109.76340089 235.30889602 114 231 C118.85646346 226.06066174 123.75021776 221.28848859 129.00390625 216.7734375 C132.66795488 213.51809879 136.06705043 209.99548052 139.5 206.5 C143.56198317 202.36402806 147.60989003 198.27722783 152.0078125 194.49609375 C157.14641308 190.07730206 161.80967321 185.20464693 166.52734375 180.34570312 C167.20667969 179.65541016 167.88601563 178.96511719 168.5859375 178.25390625 C169.1948584 177.62814697 169.8037793 177.0023877 170.43115234 176.35766602 C172 175 172 175 174 175 C173.918195 171.08079666 172.53086484 169.26134642 169.82421875 166.65234375 C168.45471148 165.40367536 167.07518144 164.16593931 165.6875 162.9375 C164.22106393 161.60461435 162.75623562 160.26995783 161.29296875 158.93359375 C160.56513184 158.27214355 159.83729492 157.61069336 159.08740234 156.92919922 C155.20767948 153.34351851 151.53476737 149.55911483 147.84375 145.78125 C145.67104119 143.65629304 143.48696959 141.6665332 141.1875 139.6875 C135.96884553 135.16860845 131.18952237 130.23851185 126.35546875 125.31640625 C123.01723115 121.94155178 119.66532461 118.65525373 116.0625 115.5625 C110.41721218 110.70544312 105.28661769 105.33134671 100.06640625 100.02734375 C95.82525671 95.74495126 91.51976798 91.64975845 86.94726562 87.72460938 C82.7609538 84.01697313 78.91385431 79.95123428 75 75.9609375 C71.78049134 72.70370022 68.53675099 69.54829194 65.0625 66.5625 C59.64834097 61.89913255 54.71736288 56.76373426 49.7109375 51.671875 C45.58475948 47.50315906 41.38132414 43.53334342 36.93359375 39.7109375 C33.63648246 36.79349357 30.5810041 33.64214152 27.5 30.5 C23.12215169 26.0748236 18.73707265 21.76993133 13.9765625 17.75390625 C9.44269714 13.73077276 5.2519908 9.3164149 1 5 C0.01 4.01 0.01 4.01 -1 3 C-0.67 2.01 -0.34 1.02 0 0 Z " fill="#37846C" transform="translate(448,30)"/>
<path d="M0 0 C4.29378813 1.92287034 6.77153701 4.62478869 10 8 C8.33536962 12.28642324 5.20924163 15.08617217 2 18.25 C1.4534375 18.80429688 0.906875 19.35859375 0.34375 19.9296875 C-3.7466133 24 -3.7466133 24 -6 24 C-6 24.66 -6 25.32 -6 26 C-7.64453125 27.62109375 -7.64453125 27.62109375 -9.8125 29.4375 C-11.21343321 30.61897919 -12.6095077 31.8062504 -14 33 C-14.52658203 33.43038574 -15.05316406 33.86077148 -15.59570312 34.30419922 C-17.45785307 36.55289419 -17.42397132 37.99105343 -17.51171875 40.88671875 C-17.54716797 41.82451172 -17.58261719 42.76230469 -17.61914062 43.72851562 C-17.65297852 45.19321289 -17.65297852 45.19321289 -17.6875 46.6875 C-17.72166016 47.67556641 -17.75582031 48.66363281 -17.79101562 49.68164062 C-17.87350538 52.12098053 -17.94265068 54.55996063 -18 57 C-16.71996094 56.83757812 -15.43992187 56.67515625 -14.12109375 56.5078125 C-9.08918046 55.94991575 -4.12103066 55.85119515 0.9375 55.875 C1.78634766 55.87113281 2.63519531 55.86726563 3.50976562 55.86328125 C4.31994141 55.86457031 5.13011719 55.86585938 5.96484375 55.8671875 C6.6930835 55.86831543 7.42132324 55.86944336 8.17163086 55.87060547 C10 56 10 56 12 57 C12 61.62 12 66.24 12 71 C2.43 71 -7.14 71 -17 71 C-18.17224848 84.01659554 -18.17224848 84.01659554 -12.20703125 95.0234375 C-7.7368793 99.65508202 -2.92596807 103.86380155 2 108 C3.49142241 109.29326139 4.97990738 110.58992141 6.46484375 111.890625 C7.09898193 112.44266602 7.73312012 112.99470703 8.38647461 113.56347656 C9.62797437 114.66878517 10.8246216 115.8246216 12 117 C11.79014782 119.64736593 11.21245709 120.77786261 9.37109375 122.703125 C8.73300781 123.21359375 8.09492188 123.7240625 7.4375 124.25 C6.47650391 125.03117187 6.47650391 125.03117187 5.49609375 125.828125 C5.00238281 126.21484375 4.50867188 126.6015625 4 127 C-3.32826873 120.34338929 -10.49000453 113.57350973 -17.44921875 106.53125 C-21.00612718 102.94812357 -24.65467269 99.53191496 -28.51171875 96.26953125 C-31.97086994 93.31881173 -31.97086994 93.31881173 -32.24050903 90.36776733 C-32.23606781 89.25302032 -32.23162659 88.13827332 -32.22705078 86.98974609 C-32.22689972 85.72858978 -32.22674866 84.46743347 -32.22659302 83.1680603 C-32.21637898 81.78651778 -32.20594697 80.40497685 -32.1953125 79.0234375 C-32.19158288 77.61382243 -32.18873567 76.20420477 -32.18673706 74.79458618 C-32.17909655 71.08240618 -32.15944461 67.37038239 -32.1373291 63.65826416 C-32.11687959 59.87115594 -32.10773727 56.0840225 -32.09765625 52.296875 C-32.076199 44.86451207 -32.04205816 37.43227792 -32 30 C-31.34 30 -30.68 30 -30 30 C-30 29.34 -30 28.68 -30 28 C-28.70703125 26.73046875 -28.70703125 26.73046875 -26.8125 25.1875 C-22.04409741 21.16389279 -17.72201382 16.75400395 -13.39379883 12.26831055 C-11.96517864 10.80941666 -10.48635008 9.4000323 -9 8 C-8.34 8 -7.68 8 -7 8 C-7 7.34 -7 6.68 -7 6 C-5.46875 4.4921875 -5.46875 4.4921875 -3.5 2.875 C-2.8503125 2.33617187 -2.200625 1.79734375 -1.53125 1.2421875 C-1.0259375 0.83226562 -0.520625 0.42234375 0 0 Z " fill="#F8FAFA" transform="translate(369,140)"/>
<path d="M0 0 C6.93 0 13.86 0 21 0 C24.03239002 7.23108389 26.57065361 14.56072351 28.98095703 22.01708984 C29.95868486 25.80225839 29.95868486 25.80225839 32 29 C35.3 19.43 38.6 9.86 42 0 C48.93 0 55.86 0 63 0 C63 15.84 63 31.68 63 48 C58.71 48 54.42 48 50 48 C49.67 37.11 49.34 26.22 49 15 C45.42351376 25.11156116 45.42351376 25.11156116 41.84985352 35.22412109 C41.40130696 36.49059621 40.95266444 37.75703735 40.50390625 39.0234375 C40.27151245 39.68255127 40.03911865 40.34166504 39.79968262 41.02075195 C38.1140718 45.7718564 38.1140718 45.7718564 37 48 C33.04 48 29.08 48 25 48 C21.93091613 40.54848556 19.261629 33.03081727 16.75 25.375 C16.38648438 24.27542969 16.02296875 23.17585938 15.6484375 22.04296875 C14.76284378 19.36288248 13.88008793 16.68189823 13 14 C13.00523682 14.99443115 13.01047363 15.9888623 13.01586914 17.01342773 C13.03392041 20.69033921 13.04543246 24.36724675 13.05493164 28.04418945 C13.05997157 29.63794614 13.0668035 31.23169819 13.07543945 32.82543945 C13.08751999 35.11150253 13.09323155 37.39750467 13.09765625 39.68359375 C13.10281754 40.40026718 13.10797882 41.11694061 13.11329651 41.85533142 C13.11349263 43.57063672 13.06192007 45.28581266 13 47 C12.505 47.495 12.505 47.495 12 48 C8.04 48 4.08 48 0 48 C0 32.16 0 16.32 0 0 Z " fill="#7C7E7D" transform="translate(547,441)"/>
<path d="M0 0 C6.93 -0.0928125 6.93 -0.0928125 14 -0.1875 C16.16175781 -0.22846802 16.16175781 -0.22846802 18.3671875 -0.27026367 C27.83621044 -0.33155398 35.57687558 0.5666255 43 7 C48.17804215 14.07711302 49.31346813 21.41517231 48 30 C45.65521637 37.13005636 42.31720343 41.77265301 35.546875 45.265625 C23.93823013 49.35134917 12.17754745 48.2604823 0 48 C0 32.16 0 16.32 0 0 Z " fill="#086A4C" transform="translate(326,441)"/>
<path d="M0 0 C1.58206057 0.00667536 3.16410534 0.0186375 4.74609375 0.03515625 C5.55240234 0.03966797 6.35871094 0.04417969 7.18945312 0.04882812 C9.18753131 0.06065107 11.18557158 0.07858711 13.18359375 0.09765625 C15.75431214 6.44850858 18.31697959 12.80256521 20.87402344 19.15893555 C21.7452092 21.3217955 22.61824876 23.4839097 23.49316406 25.64526367 C24.74900342 28.74855378 25.99819438 31.85444753 27.24609375 34.9609375 C27.63982178 35.92977371 28.0335498 36.89860992 28.43920898 37.89680481 C28.97976929 39.24786568 28.97976929 39.24786568 29.53125 40.6262207 C29.85101807 41.41897903 30.17078613 42.21173737 30.50024414 43.02851868 C31.18359375 45.09765625 31.18359375 45.09765625 31.18359375 48.09765625 C26.56359375 48.09765625 21.94359375 48.09765625 17.18359375 48.09765625 C15.86359375 44.79765625 14.54359375 41.49765625 13.18359375 38.09765625 C7.24359375 38.09765625 1.30359375 38.09765625 -4.81640625 38.09765625 C-6.79640625 43.04765625 -6.79640625 43.04765625 -8.81640625 48.09765625 C-13.10640625 48.09765625 -17.39640625 48.09765625 -21.81640625 48.09765625 C-22.14640625 47.43765625 -22.47640625 46.77765625 -22.81640625 46.09765625 C-21.95276329 43.54040545 -21.02053601 41.0886061 -19.9921875 38.59765625 C-19.68951462 37.84734131 -19.38684174 37.09702637 -19.07499695 36.32397461 C-18.10019046 33.91220083 -17.11475151 31.50493605 -16.12890625 29.09765625 C-15.483012 27.50549697 -14.83782141 25.91305204 -14.19335938 24.3203125 C-12.95726187 21.26762424 -11.71625588 18.21700996 -10.47119141 15.16796875 C-8.78890472 11.04268222 -7.14865173 6.90144711 -5.53198242 2.75 C-4.15124952 -0.43826348 -3.92497814 0.10043445 0 0 Z " fill="#7D7F7E" transform="translate(708.81640625,440.90234375)"/>
<path d="M0 0 C4.62 0 9.24 0 14 0 C14 5.94 14 11.88 14 18 C19.28 18 24.56 18 30 18 C29.505 15.525 29.505 15.525 29 13 C28.91017558 10.91818698 28.86986763 8.83374364 28.875 6.75 C28.87242187 5.69296875 28.86984375 4.6359375 28.8671875 3.546875 C29 1 29 1 30 0 C34.29 0 38.58 0 43 0 C43 15.84 43 31.68 43 48 C38.71 48 34.42 48 30 48 C29.11718776 43.58593878 28.8825675 39.63800455 28.9375 35.1875 C28.958125 32.815625 28.97875 30.44375 29 28 C24.05 27.67 19.1 27.34 14 27 C14 33.93 14 40.86 14 48 C9.71 48 5.42 48 1 48 C0.29668753 44.48343764 -0.1237292 41.94419857 -0.11352539 38.48510742 C-0.11344986 37.62459274 -0.11337433 36.76407806 -0.11329651 35.87748718 C-0.10813522 34.9627211 -0.10297394 34.04795502 -0.09765625 33.10546875 C-0.0962413 32.15811356 -0.09482635 31.21075836 -0.09336853 30.23469543 C-0.08778611 27.21893105 -0.07523682 24.20324182 -0.0625 21.1875 C-0.05748273 19.13867295 -0.05292022 17.08984473 -0.04882812 15.04101562 C-0.03782243 10.02731494 -0.02056988 5.0136702 0 0 Z " fill="#7D7E7E" transform="translate(451,441)"/>
<path d="M0 0 C4.62 0 9.24 0 14 0 C14.01401855 1.51352051 14.01401855 1.51352051 14.02832031 3.05761719 C14.0682477 6.80773776 14.13401281 10.55704029 14.20751953 14.30664062 C14.23571347 15.92827837 14.25693594 17.55005313 14.27099609 19.171875 C14.29244872 21.50592105 14.33910575 23.83832261 14.390625 26.171875 C14.39185364 26.89493835 14.39308228 27.61800171 14.39434814 28.36297607 C14.49285788 31.76211528 14.7749373 33.69479125 16.81542969 36.46191406 C19.98187519 38.69130685 22.22589105 38.48034114 26 38 C28.080127 36.61324867 28.7706899 35.69189619 29.55053711 33.33886719 C30.16122943 30.16101147 30.2236154 27.06254889 30.31640625 23.828125 C30.33718735 23.1457074 30.35796844 22.46328979 30.37937927 21.76019287 C30.44452052 19.59022644 30.50359404 17.42014376 30.5625 15.25 C30.60571897 13.77472779 30.64933432 12.29946713 30.69335938 10.82421875 C30.80016518 7.21626834 30.90153153 3.60818867 31 0 C35.29 0 39.58 0 44 0 C44.09935536 4.99872122 44.17169622 9.99685955 44.21972656 14.99633789 C44.23976221 16.69468202 44.26699885 18.39295785 44.30175781 20.09106445 C44.35063415 22.5413504 44.37304872 24.9907194 44.390625 27.44140625 C44.41127014 28.19273331 44.43191528 28.94406036 44.45318604 29.71815491 C44.45550755 35.25230747 43.12762724 38.42320717 40 43 C38.1484375 44.5234375 38.1484375 44.5234375 36.375 45.375 C34.57847984 46.23999119 32.78341121 47.10829439 31 48 C28.08946397 48.17843487 25.22491842 48.2777456 22.3125 48.3125 C21.52166016 48.34150391 20.73082031 48.37050781 19.91601562 48.40039062 C14.08405671 48.46299629 10.79634602 47.3403124 6 44 C0.76471551 38.48172716 -0.30231774 33.51609366 -0.1953125 26.07421875 C-0.1924826 25.32662796 -0.18965271 24.57903717 -0.18673706 23.80879211 C-0.17559469 21.4348612 -0.15050162 19.06131575 -0.125 16.6875 C-0.11496249 15.0722711 -0.10583799 13.45703624 -0.09765625 11.84179688 C-0.07567489 7.89438406 -0.04118657 3.94725726 0 0 Z " fill="#06694B" transform="translate(162,441)"/>
<path d="M0 0 C11.55 0 23.1 0 35 0 C35 2.97 35 5.94 35 9 C27.74 9 20.48 9 13 9 C13.33 11.97 13.66 14.94 14 18 C15.35996094 17.98839844 16.71992187 17.97679687 18.12109375 17.96484375 C19.8932278 17.95546738 21.66536333 17.94636702 23.4375 17.9375 C24.78424805 17.92493164 24.78424805 17.92493164 26.15820312 17.91210938 C27.01220703 17.90888672 27.86621094 17.90566406 28.74609375 17.90234375 C29.93223267 17.89448853 29.93223267 17.89448853 31.14233398 17.88647461 C33 18 33 18 34 19 C34 21.97 34 24.94 34 28 C27.07 28 20.14 28 13 28 C13.33 31.3 13.66 34.6 14 38 C21.26 38.33 28.52 38.66 36 39 C36 41.97 36 44.94 36 48 C24.12 48 12.24 48 0 48 C0 32.16 0 16.32 0 0 Z " fill="#7C7D7D" transform="translate(503,441)"/>
<path d="M0 0 C11.55 0 23.1 0 35 0 C35 2.97 35 5.94 35 9 C27.74 9 20.48 9 13 9 C13.33 11.97 13.66 14.94 14 18 C20.6 18.33 27.2 18.66 34 19 C34 21.97 34 24.94 34 28 C27.07 28 20.14 28 13 28 C13 31.63 13 35.26 13 39 C20.59 39 28.18 39 36 39 C36 41.97 36 44.94 36 48 C24.12 48 12.24 48 0 48 C0 32.16 0 16.32 0 0 Z " fill="#05684A" transform="translate(119,441)"/>
<path d="M0 0 C1.11889363 0.95267571 2.23688298 1.90641353 3.35449219 2.8605957 C4.28850861 3.65709282 4.28850861 3.65709282 5.24139404 4.46968079 C7.33550981 6.29195688 9.30523148 8.20715645 11.25 10.1875 C11.89453125 10.84105469 12.5390625 11.49460938 13.203125 12.16796875 C13.79609375 12.77253906 14.3890625 13.37710938 15 14 C15.77969902 14.65449883 15.77969902 14.65449883 16.57514954 15.32221985 C18.42806593 17.50405326 18.45272169 18.83661427 18.59448242 21.67651367 C18.6458989 22.62568161 18.69731537 23.57484955 18.75028992 24.55278015 C18.89835778 28.93825686 19.02862314 33.32234437 19.10522461 37.7097168 C19.15954973 40.00604142 19.2477715 42.30184428 19.37182617 44.59545898 C20.44564527 64.60675166 20.44564527 64.60675166 14.38916016 72.18212891 C10.63285081 76.20626029 6.56490505 79.90755874 2 83 C1.67 83 1.34 83 1 83 C-0.20593962 66.35205117 -0.12013529 49.70716862 -0.06866455 33.02740479 C-0.05826914 29.29236427 -0.05383288 25.55731657 -0.04882812 21.82226562 C-0.03823663 14.54815803 -0.02126488 7.27408508 0 0 Z " fill="#05684A" transform="translate(524,162)"/>
<path d="M0 0 C-0.33 3.63 -0.66 7.26 -1 11 C-1.825 10.690625 -2.65 10.38125 -3.5 10.0625 C-10.31927261 7.99236367 -15.32265861 7.36789692 -22.015625 9.9296875 C-25.27720827 11.68888792 -26.48943306 13.66416468 -28 17 C-29.70454124 22.86457544 -28.9096946 26.70019912 -26 32 C-23.79220944 34.91026937 -21.50883727 36.02947054 -18 37 C-13.26540899 37.32153419 -8.62544702 37.17210613 -3.9375 36.4375 C-2.968125 36.293125 -1.99875 36.14875 -1 36 C0 37 0 37 0.09765625 39.06640625 C0.08605469 39.89011719 0.07445312 40.71382813 0.0625 41.5625 C0.05347656 42.38878906 0.04445313 43.21507812 0.03515625 44.06640625 C0.02355469 44.70449219 0.01195312 45.34257812 0 46 C-12.14418053 47.98085755 -24.30512529 49.58236194 -35 42 C-39.72678617 37.57850737 -42.70204269 33.27366083 -43.30078125 26.6953125 C-43.34045778 14.60719698 -43.34045778 14.60719698 -40 9 C-39.484375 8.13375 -38.96875 7.2675 -38.4375 6.375 C-28.29073959 -3.51158706 -12.90058034 -4.12818571 0 0 Z " fill="#7D7E7E" transform="translate(684,442)"/>
<path d="M0 0 C0 3.3 0 6.6 0 10 C-3 10 -3 10 -4.7890625 9.51953125 C-10.158418 8.25782757 -16.87815616 7.88629231 -22.11328125 9.75390625 C-25.13031017 11.6629444 -26.70848498 13.74263912 -28 17 C-28.61687561 21.66228091 -29.09410501 26.71589232 -27.01953125 31.046875 C-24.75870484 33.85725614 -22.31272097 35.67371135 -19 37 C-12.64677591 37.58205003 -6.28661986 36.94892375 0 36 C0 39.3 0 42.6 0 46 C-9.11363081 49.03787694 -22.2949779 48.52662962 -30.9375 44.5 C-36.25324536 41.29536494 -40.60363752 37.13672384 -42.625 31.1484375 C-43.86987353 24.01634954 -44.217478 16.13505997 -40.38671875 9.77734375 C-30.31638856 -3.12969916 -15.0967004 -4.87052931 0 0 Z " fill="#07694B" transform="translate(256,442)"/>
<path d="M0 0 C0 3.3 0 6.6 0 10 C-1.07378906 9.82082031 -2.14757812 9.64164062 -3.25390625 9.45703125 C-4.68994941 9.24115548 -6.1261567 9.02636962 -7.5625 8.8125 C-8.26697266 8.69197266 -8.97144531 8.57144531 -9.69726562 8.44726562 C-15.09376287 7.67633745 -18.18993903 8.41135642 -23 11 C-26.00508754 13.60968128 -27.86403832 15.37630376 -28.203125 19.42578125 C-28.46489086 26.76226471 -28.46489086 26.76226471 -25 33 C-19.52619284 37.78958126 -13.91584867 37.25008632 -7 37 C-4.63112189 36.76433117 -2.34574194 36.41702079 0 36 C0 39.3 0 42.6 0 46 C-12.36058471 48.37779134 -21.9788346 48.98069802 -33.3203125 42.8828125 C-38.45584837 39.27446223 -41.86597046 34.20172407 -43 28 C-43.7120679 20.58748993 -43.20343944 14.29328504 -39 8 C-29.58692929 -3.14819895 -13.28980938 -5.06278452 0 0 Z " fill="#7C7E7D" transform="translate(445,442)"/>
<path d="M0 0 C4.29597139 1.64990206 7.00517646 4.81742807 10.125 8.0625 C13.69553366 12.0044894 13.69553366 12.0044894 18 15 C18 15.66 18 16.32 18 17 C18.57669434 17.24999756 19.15338867 17.49999512 19.74755859 17.75756836 C22.31087205 19.17147494 23.99597808 20.78512074 26.0390625 22.87890625 C27.15667969 24.01295898 27.15667969 24.01295898 28.296875 25.16992188 C29.06515625 25.95947266 29.8334375 26.74902344 30.625 27.5625 C32.15663169 29.12847891 33.69038195 30.69238939 35.2265625 32.25390625 C35.90283691 32.94814697 36.57911133 33.6423877 37.27587891 34.35766602 C38.91488551 36.07956495 38.91488551 36.07956495 41 37 C41 37.66 41 38.32 41 39 C41.66 39 42.32 39 43 39 C43 39.66 43 40.32 43 41 C43.57669434 41.24999756 44.15338867 41.49999512 44.74755859 41.75756836 C47.31087205 43.17147494 48.99597808 44.78512074 51.0390625 46.87890625 C52.15667969 48.01295898 52.15667969 48.01295898 53.296875 49.16992188 C54.06515625 49.95947266 54.8334375 50.74902344 55.625 51.5625 C57.15663169 53.12847891 58.69038195 54.69238939 60.2265625 56.25390625 C60.90283691 56.94814697 61.57911133 57.6423877 62.27587891 58.35766602 C63.91488551 60.07956495 63.91488551 60.07956495 66 61 C66 61.66 66 62.32 66 63 C66.85150635 63.36146118 66.85150635 63.36146118 67.72021484 63.73022461 C70.45643596 65.25422183 72.28631807 67.07778292 74.4765625 69.31640625 C75.72953125 70.58581055 75.72953125 70.58581055 77.0078125 71.88085938 C77.87148438 72.76580078 78.73515625 73.65074219 79.625 74.5625 C81.34414185 76.31597382 83.06539013 78.06738575 84.7890625 79.81640625 C85.54912598 80.59443604 86.30918945 81.37246582 87.09228516 82.17407227 C88.87557625 84.06086128 88.87557625 84.06086128 91 85 C91 85.66 91 86.32 91 87 C91.57669434 87.24999756 92.15338867 87.49999512 92.74755859 87.75756836 C95.31087205 89.17147494 96.99597808 90.78512074 99.0390625 92.87890625 C99.78414062 93.63494141 100.52921875 94.39097656 101.296875 95.16992188 C102.06515625 95.95947266 102.8334375 96.74902344 103.625 97.5625 C105.15663169 99.12847891 106.69038195 100.69238939 108.2265625 102.25390625 C108.90283691 102.94814697 109.57911133 103.6423877 110.27587891 104.35766602 C111.91488551 106.07956495 111.91488551 106.07956495 114 107 C114 107.66 114 108.32 114 109 C114.66 109 115.32 109 116 109 C116 109.66 116 110.32 116 111 C116.57669434 111.24999756 117.15338867 111.49999512 117.74755859 111.75756836 C120.31087205 113.17147494 121.99597808 114.78512074 124.0390625 116.87890625 C124.78414062 117.63494141 125.52921875 118.39097656 126.296875 119.16992188 C127.06515625 119.95947266 127.8334375 120.74902344 128.625 121.5625 C130.15663169 123.12847891 131.69038195 124.69238939 133.2265625 126.25390625 C133.90283691 126.94814697 134.57911133 127.6423877 135.27587891 128.35766602 C136.91488551 130.07956495 136.91488551 130.07956495 139 131 C139 131.66 139 132.32 139 133 C139.99 133.33 140.98 133.66 142 134 C142 134.66 142 135.32 142 136 C142.58120605 136.25450928 143.16241211 136.50901855 143.76123047 136.77124023 C146.23792581 138.13058676 147.85134445 139.63911097 149.8203125 141.66015625 C150.87025391 142.7265332 150.87025391 142.7265332 151.94140625 143.81445312 C152.66199219 144.55630859 153.38257813 145.29816406 154.125 146.0625 C155.56287561 147.53473193 157.00287708 149.00489156 158.4453125 150.47265625 C159.07969238 151.12500244 159.71407227 151.77734863 160.36767578 152.44946289 C161.93459167 154.08886 161.93459167 154.08886 164 155 C164 155.66 164 156.32 164 157 C164.79664063 157.30744141 164.79664063 157.30744141 165.609375 157.62109375 C169.01824422 159.5873206 171.51195901 162.26223081 174.25 165.0625 C174.80429687 165.61744141 175.35859375 166.17238281 175.9296875 166.74414062 C180 170.85956743 180 170.85956743 180 172 C177.9375 172.4375 177.9375 172.4375 175 172 C173.10924761 170.45802718 171.51565586 168.75246526 169.85546875 166.96484375 C168.15019285 165.15904632 166.40404713 163.59014782 164.5 162 C159.6136829 157.80082124 155.13855 153.19093501 150.63085938 148.59375 C147.53622622 145.45663508 144.40368836 142.43717042 141.0625 139.5625 C135.87928791 135.09317357 131.14790749 130.19613896 126.35546875 125.31640625 C123.01723115 121.94155178 119.66532461 118.65525373 116.0625 115.5625 C110.41721218 110.70544312 105.28661769 105.33134671 100.06640625 100.02734375 C95.82525671 95.74495126 91.51976798 91.64975845 86.94726562 87.72460938 C82.7609538 84.01697313 78.91385431 79.95123428 75 75.9609375 C71.78049134 72.70370022 68.53675099 69.54829194 65.0625 66.5625 C59.64834097 61.89913255 54.71736288 56.76373426 49.7109375 51.671875 C45.58475948 47.50315906 41.38132414 43.53334342 36.93359375 39.7109375 C33.63648246 36.79349357 30.5810041 33.64214152 27.5 30.5 C23.12215169 26.0748236 18.73707265 21.76993133 13.9765625 17.75390625 C9.44269714 13.73077276 5.2519908 9.3164149 1 5 C0.34 4.34 -0.32 3.68 -1 3 C-0.67 2.01 -0.34 1.02 0 0 Z " fill="#338269" transform="translate(448,30)"/>
<path d="M0 0 C4.62 0 9.24 0 14 0 C14 12.54 14 25.08 14 38 C20.93 38 27.86 38 35 38 C35 40.97 35 43.94 35 47 C34 48 34 48 30.76538086 48.11352539 C29.33185875 48.11327438 27.89833058 48.10771608 26.46484375 48.09765625 C25.46378601 48.09614563 25.46378601 48.09614563 24.44250488 48.09460449 C21.9408192 48.08935808 19.43915794 48.07539691 16.9375 48.0625 C8.5534375 48.0315625 8.5534375 48.0315625 0 48 C0 32.16 0 16.32 0 0 Z " fill="#0E6D50" transform="translate(262,441)"/>
<path d="M0 0 C4.29 0 8.58 0 13 0 C13 12.54 13 25.08 13 38 C19.93 38 26.86 38 34 38 C34 41.3 34 44.6 34 48 C22.78 48 11.56 48 0 48 C0 32.16 0 16.32 0 0 Z " fill="#7C7D7D" transform="translate(746,441)"/>
<path d="M0 0 C0.99 0.33 1.98 0.66 3 1 C-0.69874822 6.66168039 -5.16560909 11.16288377 -10.18359375 15.64086914 C-14.98926171 19.938075 -19.50919157 24.46985127 -24.015625 29.078125 C-26.1916339 31.26008741 -28.46013435 33.28834125 -30.796875 35.296875 C-35.42961688 39.30635838 -39.7065037 43.63323584 -44 48 C-48.87658532 52.9598035 -53.79070492 57.75509344 -59.06640625 62.2890625 C-62.36334205 65.20635114 -65.42097038 68.3561487 -68.5 71.5 C-72.19537948 75.27317694 -75.89902764 78.96241929 -79.90625 82.40625 C-84.50730122 86.37359678 -88.74270203 90.67005189 -93 95 C-97.87658532 99.9598035 -102.79070492 104.75509344 -108.06640625 109.2890625 C-111.36334205 112.20635114 -114.42097038 115.3561487 -117.5 118.5 C-121.17485228 122.25221759 -124.85486889 125.92356479 -128.84375 129.34375 C-133.82206336 133.63639848 -138.38943382 138.31957676 -143 143 C-148.23482284 148.31413834 -153.47695946 153.50533909 -159.14208984 158.36035156 C-162.79317832 161.5825211 -166.12938064 165.12781728 -169.50585938 168.6328125 C-173.68262453 172.89420818 -173.68262453 172.89420818 -177 174 C-177.66 173.34 -178.32 172.68 -179 172 C-177.54782324 170.49403892 -176.08807139 168.99537896 -174.625 167.5 C-173.81289063 166.6646875 -173.00078125 165.829375 -172.1640625 164.96875 C-170 163 -170 163 -168 163 C-168 162.34 -168 161.68 -168 161 C-167.34 161 -166.68 161 -166 161 C-166 160.34 -166 159.68 -166 159 C-165.34 159 -164.68 159 -164 159 C-164 158.34 -164 157.68 -164 157 C-162.63671875 155.66015625 -162.63671875 155.66015625 -160.6875 154.0625 C-156.42465257 150.4631011 -152.5384439 146.5813202 -148.68237305 142.55688477 C-147.49090704 141.33509286 -146.24906136 140.16284669 -145 139 C-144.34 139 -143.68 139 -143 139 C-143 138.34 -143 137.68 -143 137 C-142.34 137 -141.68 137 -141 137 C-141 136.34 -141 135.68 -141 135 C-140.34 135 -139.68 135 -139 135 C-139 134.34 -139 133.68 -139 133 C-137.70703125 131.73046875 -137.70703125 131.73046875 -135.8125 130.1875 C-131.04409741 126.16389279 -126.72201382 121.75400395 -122.39379883 117.26831055 C-120.96517864 115.80941666 -119.48635008 114.4000323 -118 113 C-117.34 113 -116.68 113 -116 113 C-116 112.34 -116 111.68 -116 111 C-115.34 111 -114.68 111 -114 111 C-114 110.34 -114 109.68 -114 109 C-113.34 109 -112.68 109 -112 109 C-112 108.34 -112 107.68 -112 107 C-110.63671875 105.66015625 -110.63671875 105.66015625 -108.6875 104.0625 C-104.42465257 100.4631011 -100.5384439 96.5813202 -96.68237305 92.55688477 C-95.49090704 91.33509286 -94.24906136 90.16284669 -93 89 C-92.34 89 -91.68 89 -91 89 C-91 88.34 -91 87.68 -91 87 C-90.34 87 -89.68 87 -89 87 C-89 86.34 -89 85.68 -89 85 C-87.63671875 83.66015625 -87.63671875 83.66015625 -85.6875 82.0625 C-81.42465257 78.4631011 -77.5384439 74.5813202 -73.68237305 70.55688477 C-72.49090704 69.33509286 -71.24906136 68.16284669 -70 67 C-69.34 67 -68.68 67 -68 67 C-68 66.34 -68 65.68 -68 65 C-67.34 65 -66.68 65 -66 65 C-66 64.34 -66 63.68 -66 63 C-65.34 63 -64.68 63 -64 63 C-64 62.34 -64 61.68 -64 61 C-62.63671875 59.66015625 -62.63671875 59.66015625 -60.6875 58.0625 C-56.42465257 54.4631011 -52.5384439 50.5813202 -48.68237305 46.55688477 C-47.49090704 45.33509286 -46.24906136 44.16284669 -45 43 C-44.34 43 -43.68 43 -43 43 C-43 42.34 -43 41.68 -43 41 C-42.34 41 -41.68 41 -41 41 C-41 40.34 -41 39.68 -41 39 C-39.63671875 37.66015625 -39.63671875 37.66015625 -37.6875 36.0625 C-33.42465257 32.4631011 -29.5384439 28.5813202 -25.68237305 24.55688477 C-24.49090704 23.33509286 -23.24906136 22.16284669 -22 21 C-21.34 21 -20.68 21 -20 21 C-20 20.34 -20 19.68 -20 19 C-19.34 19 -18.68 19 -18 19 C-18 18.34 -18 17.68 -18 17 C-16.6015625 15.625 -16.6015625 15.625 -14.625 14 C-9.45856503 9.62056677 -4.74222476 4.82968383 0 0 Z " fill="#167256" transform="translate(447,29)"/>
<path d="M0 0 C1.65 0 3.3 0 5 0 C4.06409496 1.1055189 3.12620142 2.20935453 2.1875 3.3125 C1.40439453 4.23482422 1.40439453 4.23482422 0.60546875 5.17578125 C-2.3373102 8.51952278 -2.3373102 8.51952278 -4 10 C-4.66 10 -5.32 10 -6 10 C-6 10.66 -6 11.32 -6 12 C-7.29296875 13.26953125 -7.29296875 13.26953125 -9.1875 14.8125 C-13.95590259 18.83610721 -18.27798618 23.24599605 -22.60620117 27.73168945 C-24.03482136 29.19058334 -25.51364992 30.5999677 -27 32 C-27.66 32 -28.32 32 -29 32 C-29 32.66 -29 33.32 -29 34 C-29.66 34 -30.32 34 -31 34 C-31 34.66 -31 35.32 -31 36 C-31.66 36 -32.32 36 -33 36 C-33 36.66 -33 37.32 -33 38 C-34.29296875 39.26953125 -34.29296875 39.26953125 -36.1875 40.8125 C-40.95590259 44.83610721 -45.27798618 49.24599605 -49.60620117 53.73168945 C-51.03482136 55.19058334 -52.51364992 56.5999677 -54 58 C-54.66 58 -55.32 58 -56 58 C-56 58.66 -56 59.32 -56 60 C-56.66 60 -57.32 60 -58 60 C-58 60.66 -58 61.32 -58 62 C-59.29296875 63.26953125 -59.29296875 63.26953125 -61.1875 64.8125 C-65.95590259 68.83610721 -70.27798618 73.24599605 -74.60620117 77.73168945 C-76.03482136 79.19058334 -77.51364992 80.5999677 -79 82 C-79.66 82 -80.32 82 -81 82 C-81 82.66 -81 83.32 -81 84 C-81.66 84 -82.32 84 -83 84 C-83 84.66 -83 85.32 -83 86 C-84.22265625 87.19921875 -84.22265625 87.19921875 -86.0625 88.6875 C-91.33639313 93.13467475 -96.09655011 98.07240197 -100.89477539 103.02026367 C-101.52504639 103.6619751 -102.15531738 104.30368652 -102.8046875 104.96484375 C-103.37171387 105.5487085 -103.93874023 106.13257324 -104.52294922 106.73413086 C-106 108 -106 108 -108 108 C-108 108.66 -108 109.32 -108 110 C-109.29296875 111.26953125 -109.29296875 111.26953125 -111.1875 112.8125 C-115.95590259 116.83610721 -120.27798618 121.24599605 -124.60620117 125.73168945 C-126.03482136 127.19058334 -127.51364992 128.5999677 -129 130 C-129.66 130 -130.32 130 -131 130 C-131 130.66 -131 131.32 -131 132 C-131.66 132 -132.32 132 -133 132 C-133 132.66 -133 133.32 -133 134 C-133.66 134 -134.32 134 -135 134 C-135 134.66 -135 135.32 -135 136 C-136.2578125 137.234375 -136.2578125 137.234375 -138.125 138.75 C-142.30906045 142.29379497 -146.15174143 146.10157124 -150 150 C-154.24155885 154.28738937 -158.50606333 158.4382911 -163.11328125 162.3359375 C-166.92482638 165.69767296 -170.44505005 169.37098859 -174 173 C-174.7355957 171.27050781 -174.7355957 171.27050781 -175 169 C-173.49291992 166.89355469 -173.49291992 166.89355469 -171.23046875 164.671875 C-170.02100586 163.47304688 -170.02100586 163.47304688 -168.78710938 162.25 C-167.92923828 161.425 -167.07136719 160.6 -166.1875 159.75 C-165.34123047 158.90953125 -164.49496094 158.0690625 -163.62304688 157.203125 C-157.29404677 151 -157.29404677 151 -155 151 C-155 150.34 -155 149.68 -155 149 C-153.6015625 147.625 -153.6015625 147.625 -151.625 146 C-146.46279904 141.6103115 -141.75265835 136.82466833 -137 132 C-131.75652252 126.67707589 -126.50575696 121.47580454 -120.83105469 116.61279297 C-117.38200428 113.57486937 -114.23299347 110.23632943 -111.05078125 106.92382812 C-109.7360282 105.58019807 -108.37183112 104.28530024 -107 103 C-106.34 103 -105.68 103 -105 103 C-104.74412109 102.40638672 -104.48824219 101.81277344 -104.22460938 101.20117188 C-102.87835302 98.78134586 -101.53961388 97.52945289 -99.40625 95.78125 C-94.8490594 91.92326734 -90.68151468 87.7576807 -86.5 83.5 C-82.45051536 79.37675426 -78.41641052 75.299883 -74.03125 71.53125 C-69.44821339 67.58812608 -65.23659911 63.30889602 -61 59 C-56.14353654 54.06066174 -51.24978224 49.28848859 -45.99609375 44.7734375 C-42.33204512 41.51809879 -38.93294957 37.99548052 -35.5 34.5 C-31.43801683 30.36402806 -27.39010997 26.27722783 -22.9921875 22.49609375 C-17.85358692 18.07730206 -13.19032679 13.20464693 -8.47265625 8.34570312 C-7.79332031 7.65541016 -7.11398437 6.96511719 -6.4140625 6.25390625 C-5.50068115 5.31526733 -5.50068115 5.31526733 -4.56884766 4.35766602 C-3 3 -3 3 -1 3 C-0.67 2.01 -0.34 1.02 0 0 Z " fill="#8FABA2" transform="translate(623,202)"/>
<path d="M0 0 C4.62 0 9.24 0 14 0 C14.02464296 6.67520882 14.04283267 13.3503914 14.05493164 20.02563477 C14.05997325 22.29842591 14.06680637 24.5712138 14.07543945 26.84399414 C14.08751261 30.10303551 14.09322987 33.36203417 14.09765625 36.62109375 C14.10281754 37.64400009 14.10797882 38.66690643 14.11329651 39.72080994 C14.11337204 40.66170975 14.11344757 41.60260956 14.11352539 42.57202148 C14.115746 43.40475082 14.11796661 44.23748016 14.12025452 45.09544373 C14 47 14 47 13 48 C8.71 48 4.42 48 0 48 C0 32.16 0 16.32 0 0 Z " fill="#7F8281" transform="translate(619,441)"/>
<path d="M0 0 C4.29 0 8.58 0 13 0 C13 15.84 13 31.68 13 48 C8.71 48 4.42 48 0 48 C0 32.16 0 16.32 0 0 Z " fill="#036749" transform="translate(303,441)"/>
<path d="M0 0 C7.17999997 0 11.23955472 0.03091271 17 4 C20.19187109 9.02961505 20.46527762 13.23055756 20 19 C18.87521218 23.49915129 16.79312111 25.40957583 13 28 C10 29 10 29 0 29 C0 19.43 0 9.86 0 0 Z " fill="#FCFCFC" transform="translate(340,450)"/>
<path d="M0 0 C0.99 0.33 1.98 0.66 3 1 C2.01 1.495 2.01 1.495 1 2 C1 2.66 1 3.32 1 4 C0.34 4 -0.32 4 -1 4 C-1 4.66 -1 5.32 -1 6 C-2.93964375 7.79078737 -4.9911151 9.40510075 -7.0546875 11.05078125 C-9.97065228 13.97260138 -10.89423381 16.76905907 -11.24609566 20.86414051 C-11.24425207 21.92143706 -11.24240849 22.97873362 -11.24050903 24.06806946 C-11.24325836 25.28658096 -11.24600769 26.50509247 -11.24884033 27.76052856 C-11.24176306 29.10247902 -11.23449346 30.44442847 -11.22705078 31.78637695 C-11.22648636 33.20581555 -11.22680383 34.62525473 -11.22793579 36.04469299 C-11.22850911 39.89143299 -11.21675816 43.73804801 -11.20278788 47.584759 C-11.19027708 51.60729605 -11.18910974 55.62983602 -11.18673706 59.65238953 C-11.18052332 67.26668358 -11.16411393 74.88092014 -11.14403808 82.49518889 C-11.12167579 91.16502297 -11.11068482 99.83485981 -11.10064721 108.50471556 C-11.07974762 126.33650963 -11.04457369 144.16825019 -11 162 C-11.66 162.33 -12.32 162.66 -13 163 C-13.14018299 143.54615222 -13.24597726 124.09240698 -13.31087303 104.6381588 C-13.34180671 95.60511767 -13.38397765 86.57239043 -13.45263672 77.53955078 C-13.51245398 69.6661898 -13.55115271 61.79305614 -13.56453097 53.91947424 C-13.57235093 49.75061948 -13.5907184 45.58241502 -13.63438034 41.41376877 C-13.67515881 37.48855827 -13.68765893 33.56426482 -13.67864609 29.63886261 C-13.68029444 28.19970589 -13.69219962 26.76051798 -13.71523285 25.32154465 C-13.90131608 13.09470595 -13.90131608 13.09470595 -10.08242798 9.09683228 C-7 7 -7 7 -5 7 C-5 6.34 -5 5.68 -5 5 C-3.37446717 3.29319053 -1.70884005 1.62339805 0 0 Z " fill="#82938E" transform="translate(407,113)"/>
<path d="M0 0 C0.66 0.66 1.32 1.32 2 2 C1.07974942 2.71790301 0.15949884 3.43580603 -0.78863811 4.17546368 C-6.65413743 9.11102038 -11.54786818 13.59049611 -12.479159 21.49037421 C-12.69890966 25.67261021 -12.66040103 29.82362185 -12.56762695 34.0090332 C-12.57383435 35.89272674 -12.58576512 37.77640868 -12.60293579 39.66003418 C-12.63320347 44.73689077 -12.58413706 49.81015352 -12.52005029 54.88657784 C-12.46665227 60.20503274 -12.48727034 65.52320811 -12.49980164 70.84184265 C-12.51236605 80.89661054 -12.45904307 90.94988927 -12.38163012 101.00432318 C-12.29668398 112.45786186 -12.28582149 123.91110366 -12.28096449 135.36491263 C-12.2693315 158.91052632 -12.16536997 182.45499931 -12 206 C-12.33 206 -12.66 206 -13 206 C-13.18687612 180.82658603 -13.32795276 155.65327601 -13.41449738 130.47930813 C-13.45574963 118.79057568 -13.51199145 107.10227419 -13.60351562 95.41381836 C-13.68324965 85.22621358 -13.73486494 75.0389209 -13.75270796 64.85101277 C-13.76313841 59.45632198 -13.7876523 54.06252405 -13.84584045 48.66811943 C-13.90017669 43.58962531 -13.91688578 38.512391 -13.90486145 33.4336338 C-13.90706084 31.57077561 -13.92295562 29.70787495 -13.9536438 27.84526825 C-14.17439253 13.75485437 -14.17439253 13.75485437 -11.26341248 9.40507698 C-9.25668884 7.63216564 -7.30978266 6.33702185 -5 5 C-3.9684113 4.05417121 -2.96347655 3.07762575 -2 2.0625 C-1.34 1.381875 -0.68 0.70125 0 0 Z " fill="#909D98" transform="translate(438,83)"/>
<path d="M0 0 C0.33 0 0.66 0 1 0 C1.33 55.11 1.66 110.22 2 167 C5.96 163.04 9.92 159.08 14 155 C15.32 155.66 16.64 156.32 18 157 C17.29488281 157.37769531 16.58976562 157.75539063 15.86328125 158.14453125 C12.54950123 160.29193304 9.91467915 162.86565241 7.1875 165.6875 C6.43436523 166.45416992 6.43436523 166.45416992 5.66601562 167.23632812 C4.43936491 168.48634362 3.21902509 169.7425468 2 171 C0 169 0 169 -0.24609566 166.11456871 C-0.24425207 164.87014818 -0.24240849 163.62572765 -0.24050903 162.34359741 C-0.24221788 161.65176821 -0.24392673 160.95993901 -0.24568737 160.2471453 C-0.24899429 157.9177522 -0.23795905 155.58864411 -0.22705078 153.25927734 C-0.22648693 151.59397895 -0.22680272 149.92868006 -0.22793579 148.26338196 C-0.22851131 143.73260991 -0.2167249 139.20194304 -0.20278788 134.67119551 C-0.19031359 129.93995155 -0.18911263 125.20870537 -0.18673706 120.47744751 C-0.18051256 111.51370945 -0.16408865 102.55001998 -0.14403808 93.58630335 C-0.12170922 83.38331401 -0.11069324 73.18032239 -0.10064721 62.97731471 C-0.07972324 41.98484932 -0.04452847 20.99242772 0 0 Z " fill="#CFDDD9" transform="translate(470,117)"/>
<path d="M0 0 C0.99 0.33 1.98 0.66 3 1 C-0.49198926 4.59469482 -4.14531189 7.78775991 -8 11 C-9.06069702 12.10226929 -9.06069702 12.10226929 -10.14282227 13.22680664 C-12.428373 15.4451755 -14.61136985 17.23046439 -17.15209961 19.11499023 C-24.5431656 24.97184533 -30.07041072 30.36634617 -31.47705078 40.00830078 C-32.04285267 47.34102075 -31.9112891 54.64187688 -31.63085938 61.98101807 C-31.51570687 65.48730911 -31.4998602 68.99406683 -31.47460938 72.50195312 C-31.41128142 79.33812032 -31.24137039 86.16785431 -31 93 C-31.33 93 -31.66 93 -32 93 C-32 72.21 -32 51.42 -32 30 C-31.34 30 -30.68 30 -30 30 C-30 29.34 -30 28.68 -30 28 C-28.70703125 26.73046875 -28.70703125 26.73046875 -26.8125 25.1875 C-22.04409741 21.16389279 -17.72201382 16.75400395 -13.39379883 12.26831055 C-11.96517864 10.80941666 -10.48635008 9.4000323 -9 8 C-8.34 8 -7.68 8 -7 8 C-7 7.34 -7 6.68 -7 6 C-5.57421875 4.45703125 -5.57421875 4.45703125 -3.6875 2.8125 C-3.07261719 2.26207031 -2.45773437 1.71164063 -1.82421875 1.14453125 C-1.22222656 0.76683594 -0.62023437 0.38914063 0 0 Z " fill="#97A7A1" transform="translate(369,140)"/>
<path d="M0 0 C2.43356371 2.43356371 2.30516272 3.2108563 2.48095703 6.56298828 C2.53244904 7.51223175 2.58394104 8.46147522 2.63699341 9.43948364 C2.80670173 13.83719677 2.93743357 18.23425103 3.02978516 22.63427734 C3.0926089 24.93749247 3.18764872 27.24008341 3.31689453 29.54052734 C4.43067023 49.65537463 4.43067023 49.65537463 -1.64160156 57.18652344 C-5.42284563 61.21225576 -9.54026639 64.74752659 -14 68 C-14.33 67.01 -14.66 66.02 -15 65 C-14.2575 64.278125 -13.515 63.55625 -12.75 62.8125 C-10.02460563 60.12944371 -10.02460563 60.12944371 -8 57.4375 C-6 55 -6 55 -3.41918945 53.56933594 C0.47051227 49.4382207 -0.27331556 44.92491497 -0.29296875 39.453125 C-0.27784744 38.3267865 -0.26272614 37.200448 -0.24714661 36.03997803 C-0.20416499 32.44311669 -0.195421 28.8470929 -0.1875 25.25 C-0.16436401 22.81117549 -0.13900057 20.37237101 -0.11132812 17.93359375 C-0.0483723 11.95572132 -0.01352118 5.97817757 0 0 Z " fill="#829B92" transform="translate(540,177)"/>
<path d="M0 0 C0.66 0 1.32 0 2 0 C2.86524753 2.43407005 3.71742865 4.87143184 4.5625 7.3125 C4.80935547 8.00279297 5.05621094 8.69308594 5.31054688 9.40429688 C7.11328125 14.66015625 7.11328125 14.66015625 6 18 C2.37 18 -1.26 18 -5 18 C-3.72520789 11.8221613 -2.1079151 5.94432058 0 0 Z " fill="#F7F9F8" transform="translate(712,452)"/>
<path d="M0 0 C0.99 0.33 1.98 0.66 3 1 C-0.49198926 4.59469482 -4.14531189 7.78775991 -8 11 C-9.68816933 12.64488294 -11.35353315 14.31337542 -13 16 C-14.26950471 17.27216057 -15.54039009 18.54294453 -16.8125 19.8125 C-17.41707031 20.41707031 -18.02164062 21.02164063 -18.64453125 21.64453125 C-19.09183594 22.09183594 -19.53914063 22.53914063 -20 23 C-20.33 22.01 -20.66 21.02 -21 20 C-19.04761147 17.99387601 -17.08862178 15.99507567 -15.125 14 C-14.29162109 13.14148438 -14.29162109 13.14148438 -13.44140625 12.265625 C-11.99865596 10.80549218 -10.5025626 9.39850702 -9 8 C-8.34 8 -7.68 8 -7 8 C-7 7.34 -7 6.68 -7 6 C-5.57421875 4.45703125 -5.57421875 4.45703125 -3.6875 2.8125 C-3.07261719 2.26207031 -2.45773437 1.71164063 -1.82421875 1.14453125 C-1.22222656 0.76683594 -0.62023437 0.38914063 0 0 Z " fill="#8B9894" transform="translate(369,140)"/>
<path d="M0 0 C2.19067383 0.35083008 2.19067383 0.35083008 4 1 C-1 6 -6 11 -11 16 C-11.64916992 14.19067383 -11.64916992 14.19067383 -12 12 C-10.16979686 9.66057503 -8.42984657 7.73208552 -6.3125 5.6875 C-5.76916016 5.12482422 -5.22582031 4.56214844 -4.66601562 3.98242188 C-3.05078125 2.38671875 -3.05078125 2.38671875 0 0 Z " fill="#93ADA4" transform="translate(460,359)"/>
<path d="M0 0 C0.57621094 0.23976563 1.15242188 0.47953125 1.74609375 0.7265625 C1.41609375 1.3865625 1.08609375 2.0465625 0.74609375 2.7265625 C0.08609375 2.7265625 -0.57390625 2.7265625 -1.25390625 2.7265625 C-1.25390625 3.3865625 -1.25390625 4.0465625 -1.25390625 4.7265625 C-1.91390625 4.7265625 -2.57390625 4.7265625 -3.25390625 4.7265625 C-3.25390625 5.3865625 -3.25390625 6.0465625 -3.25390625 6.7265625 C-5.00390625 8.453125 -5.00390625 8.453125 -7.25390625 10.3515625 C-7.99640625 10.98320312 -8.73890625 11.61484375 -9.50390625 12.265625 C-10.08140625 12.74773437 -10.65890625 13.22984375 -11.25390625 13.7265625 C-11.91390625 13.3965625 -12.57390625 13.0665625 -13.25390625 12.7265625 C-11.01805378 8.25485755 -5.60459656 -0.67993372 0 0 Z " fill="#96AFA6" transform="translate(491.25390625,331.2734375)"/>
<path d="M0 0 C1.32 0.66 2.64 1.32 4 2 C2.94232422 2.56654297 2.94232422 2.56654297 1.86328125 3.14453125 C-1.45049877 5.29193304 -4.08532085 7.86565241 -6.8125 10.6875 C-7.31458984 11.19861328 -7.81667969 11.70972656 -8.33398438 12.23632812 C-9.56063509 13.48634362 -10.78097491 14.7425468 -12 16 C-12.33 15.01 -12.66 14.02 -13 13 C-8.71 8.71 -4.42 4.42 0 0 Z " fill="#95A49E" transform="translate(484,272)"/>
<path d="M0 0 C1.65 0 3.3 0 5 0 C-1.5633546 7.98541477 -1.5633546 7.98541477 -5 10 C-5.99 10 -6.98 10 -8 10 C-6.71480435 7.13302508 -5.42870746 5.02392288 -3 3 C-2.34 3 -1.68 3 -1 3 C-0.67 2.01 -0.34 1.02 0 0 Z " fill="#8AAA9F" transform="translate(623,202)"/>
<path d="M0 0 C0.99 0.33 1.98 0.66 3 1 C2.01 1.495 2.01 1.495 1 2 C1 2.66 1 3.32 1 4 C0.34 4 -0.32 4 -1 4 C-1 4.66 -1 5.32 -1 6 C-2.64453125 7.62109375 -2.64453125 7.62109375 -4.8125 9.4375 C-7.31102718 11.54463676 -9.7242056 13.65241398 -12 16 C-11.52354792 11.71193127 -10.34097516 9.73352513 -7 7 C-6.34 7 -5.68 7 -5 7 C-5 6.34 -5 5.68 -5 5 C-3.37446717 3.29319053 -1.70884005 1.62339805 0 0 Z " fill="#8C9D97" transform="translate(407,113)"/>
<path d="M0 0 C0.99 0.33 1.98 0.66 3 1 C-0.16952847 4.26008643 -3.39937989 7.22237877 -7 10 C-7.66 9.34 -8.32 8.68 -9 8 C-8.34 8 -7.68 8 -7 8 C-7 7.34 -7 6.68 -7 6 C-5.57421875 4.45703125 -5.57421875 4.45703125 -3.6875 2.8125 C-3.07261719 2.26207031 -2.45773437 1.71164063 -1.82421875 1.14453125 C-1.22222656 0.76683594 -0.62023437 0.38914063 0 0 Z " fill="#94A29D" transform="translate(369,140)"/>
<path d="M0 0 C0.66 0.66 1.32 1.32 2 2 C-0.64 4.64 -3.28 7.28 -6 10 C-6.66 9.34 -7.32 8.68 -8 8 C-5.36 5.36 -2.72 2.72 0 0 Z " fill="#94A39D" transform="translate(438,83)"/>
<path d="M0 0 C1.32 0.66 2.64 1.32 4 2 C2.88625 2.6496875 2.88625 2.6496875 1.75 3.3125 C-0.61833926 4.76579909 -2.80924065 6.29607606 -5 8 C-4.45773019 4.20411134 -2.79872437 2.52788007 0 0 Z " fill="#8A9A95" transform="translate(484,272)"/>
<path d="M0 0 C0.33 0.99 0.66 1.98 1 3 C-1.31 4.98 -3.62 6.96 -6 9 C-4.68775452 5.06326356 -3.08089673 2.77280706 0 0 Z " fill="#97A7A1" transform="translate(347,161)"/>
<path d="M0 0 C-1.36983503 3.16115776 -1.9890638 3.9927092 -5 6 C-5.66 5.34 -6.32 4.68 -7 4 C-3.375 0 -3.375 0 0 0 Z " fill="#267A60" transform="translate(446,34)"/>
<path d="M0 0 C0.99 0.33 1.98 0.66 3 1 C1.35 2.65 -0.3 4.3 -2 6 C-2 2 -2 2 0 0 Z " fill="#85AA9E" transform="translate(599,226)"/>
<path d="M0 0 C1.32 0.33 2.64 0.66 4 1 C2.35 2.65 0.7 4.3 -1 6 C-1.66 5.67 -2.32 5.34 -3 5 C-2.01 3.35 -1.02 1.7 0 0 Z " fill="#A2B4AD" transform="translate(533,289)"/>
<path d="M0 0 C0.99 0.33 1.98 0.66 3 1 C1.02 2.98 -0.96 4.96 -3 7 C-3.66 6.67 -4.32 6.34 -5 6 C-3.35 4.02 -1.7 2.04 0 0 Z " fill="#086A4C" transform="translate(312,160)"/>
<path d="M0 0 C-1.39332574 3.36720387 -2.9789286 4.9859524 -6 7 C-5.37162381 3.35541809 -4.14650034 0 0 0 Z " fill="#929F9A" transform="translate(354,156)"/>
</svg>
