<?xml version="1.0" encoding="UTF-8"?>
<svg version="1.1" xmlns="http://www.w3.org/2000/svg" width="420" height="420">
<path d="M0 0 C1.29604094 0.00184359 2.59208187 0.00368717 3.92739677 0.00558662 C4.64781084 0.00387777 5.3682249 0.00216892 6.1104697 0.00040829 C8.53659536 -0.00289916 10.9624475 0.00813751 13.3885479 0.01904488 C15.12281093 0.01960872 16.85707445 0.01929296 18.5913372 0.01815987 C23.31011806 0.0175843 28.02879794 0.02937144 32.74755526 0.04330778 C37.67498995 0.05578132 42.60242676 0.05698297 47.5298748 0.0593586 C56.86547959 0.06558332 66.20103772 0.08200752 75.53662193 0.10205758 C86.16281994 0.12438576 96.78902014 0.13540224 107.41523576 0.14544845 C129.27859895 0.16637291 151.1419201 0.20156812 173.00524712 0.24609566 C173.33524712 1.23609566 173.66524712 2.22609566 174.00524712 3.24609566 C173.34524712 3.24609566 172.68524712 3.24609566 172.00524712 3.24609566 C171.92403618 4.52613472 171.84282524 5.80617378 171.75915337 7.12500191 C170.9347485 15.29306193 168.86123726 23.21775254 166.94274712 31.18359566 C166.74172386 32.02445717 166.54070061 32.86531868 166.33358574 33.73166084 C162.73698783 48.73593732 158.74530034 63.55694774 154.00524712 78.24609566 C153.63319145 79.40335152 153.26113579 80.56060738 152.87780571 81.75293159 C132.69737478 143.84785722 99.40975035 208.98616073 46.00524712 249.24609566 C45.46786919 249.65988472 44.93049126 250.07367378 44.37682915 250.50000191 C36.97685756 256.18941688 29.34719478 261.46795 21.44274712 266.43359566 C20.69307671 266.9155439 19.9434063 267.39749214 19.1710186 267.89404488 C15.0350983 270.43414311 11.98846242 272.22651115 7.00524712 271.24609566 C4.62432924 269.91419605 2.64908902 268.6356304 0.50524712 266.99609566 C-0.10004829 266.54717964 -0.7053437 266.09826363 -1.3289814 265.63574409 C-17.02894923 253.82271077 -32.35442326 240.29820878 -44.99475288 225.24609566 C-45.47090034 224.68229195 -45.94704781 224.11848824 -46.43762398 223.53759956 C-57.00611399 210.96922099 -66.74083587 197.86738055 -75.24475288 183.80859566 C-75.62792671 183.1755854 -76.01110054 182.54257515 -76.4058857 181.89038277 C-78.99475288 177.50423032 -78.99475288 177.50423032 -78.99475288 175.24609566 C-80.14129341 175.1507856 -81.28783394 175.05547554 -82.46911812 174.9572773 C-89.87351147 174.12944294 -97.12818038 172.42745547 -104.40490913 170.86718941 C-105.98380318 170.53193624 -107.562779 170.19706799 -109.14183235 169.86256599 C-113.27058915 168.98687387 -117.3982237 168.10600204 -121.52563667 167.22400093 C-125.74839324 166.32260051 -129.97220366 165.4261667 -134.19592476 164.52929878 C-142.46323288 162.77305599 -150.72936061 161.0113329 -158.99475288 159.24609566 C-159.32475288 157.59609566 -159.65475288 155.94609566 -159.99475288 154.24609566 C-159.01998497 154.24278551 -158.04521706 154.23947536 -157.04091072 154.23606491 C-133.26811438 154.15489158 -109.49538134 154.06252206 -85.72267342 153.95856857 C-74.22614037 153.90855277 -62.72961407 153.86210901 -51.23303413 153.82422066 C-41.20681686 153.79116883 -31.18065363 153.75126578 -21.15449619 153.7033056 C-15.85101709 153.67817113 -10.54757324 153.65635208 -5.24405098 153.64275169 C-0.24048851 153.62981191 4.76295226 153.60763228 9.76644707 153.57871246 C11.59157803 153.56972892 13.41672854 153.56396837 15.24188042 153.56188202 C41.28337899 153.81824938 41.28337899 153.81824938 64.06774712 142.51172066 C70.94711769 135.01320673 73.83932454 124.57087846 77.17321587 115.19140816 C77.65787799 113.83982935 78.1430191 112.48842222 78.62861443 111.13717842 C79.89671682 107.60500961 81.15908124 104.07081906 82.419981 100.53607368 C84.44679728 94.85775443 86.48303578 89.18280433 88.51811981 83.50744438 C89.2270375 81.52813826 89.933871 79.5480981 90.64030266 77.56790352 C91.0677729 76.37261024 91.49524315 75.17731697 91.93566704 73.94580269 C92.31220924 72.8907151 92.68875145 71.83562752 93.07670403 70.74856758 C94.00524712 68.24609566 94.00524712 68.24609566 95.00524712 66.24609566 C87.66734215 66.33113997 80.32963688 66.42625921 72.99202251 66.53362274 C69.58346607 66.58319314 66.1749349 66.62952007 62.76623344 66.66797066 C58.83141724 66.71250743 54.89688948 66.77198612 50.96227837 66.83203316 C49.76069588 66.84358437 48.55911339 66.85513557 47.32111931 66.86703682 C33.09790222 67.11062036 19.94725788 68.33044203 9.00524712 78.24609566 C6.93603241 81.24479099 6.93603241 81.24479099 5.19274712 84.49609566 C3.61493462 87.34234566 3.61493462 87.34234566 2.00524712 90.24609566 C10.58524712 90.24609566 19.16524712 90.24609566 28.00524712 90.24609566 C26.87890303 98.13050426 26.87890303 98.13050426 25.80602837 101.15625191 C25.5692437 101.82962593 25.33245903 102.50299995 25.08849907 103.19677925 C24.83415092 103.89367867 24.57980278 104.59057808 24.31774712 105.30859566 C24.053731 106.04158882 23.78971489 106.77458199 23.51769829 107.52978706 C15.94583373 128.26670171 15.94583373 128.26670171 12.00524712 131.24609566 C9.32868767 131.60685921 9.32868767 131.60685921 6.06506157 131.58667183 C4.84402229 131.58644524 3.62298302 131.58621864 2.36494255 131.58598518 C0.38671753 131.5627594 0.38671753 131.5627594 -1.63147163 131.53906441 C-2.99481426 131.53346809 -4.35816293 131.52919816 -5.72151375 131.52620125 C-9.30718881 131.51475515 -12.89249843 131.48529052 -16.47802925 131.45208931 C-20.13785038 131.42138305 -23.79773065 131.40769476 -27.45764351 131.39258003 C-34.63684644 131.36042015 -41.81574843 131.30922719 -48.99475288 131.24609566 C-50.04014069 126.03454805 -49.49727155 122.69432881 -47.60022163 117.80468941 C-47.3377816 117.09391243 -47.07534157 116.38313545 -46.80494881 115.65081978 C-46.23889824 114.12237871 -45.66649436 112.59627839 -45.08838081 111.07235909 C-43.85300938 107.8156334 -42.64820364 104.5478621 -41.44137764 101.28047371 C-40.82742006 99.61915214 -40.21187427 97.95841666 -39.59475899 96.29826546 C-37.02713969 89.38231145 -34.61119291 82.42089185 -32.24475288 75.43359566 C-28.06030297 63.18053545 -23.71616112 50.986196 -19.32837105 38.80459785 C-18.57231898 36.70455835 -17.8178088 34.60396301 -17.06494331 32.50277901 C-5.57519544 0.45814511 -5.57519544 0.45814511 0 0 Z " fill="#FC6A21" transform="translate(188.99475288391113,136.75390434265137)"/>
<path d="M0 0 C0.87462891 0.14405273 1.74925781 0.28810547 2.65039062 0.43652344 C7.12366818 1.19119651 11.56759828 2.0295518 16 3 C16.74536404 32.16857937 14.52083686 62.29413798 9 91 C7.24342549 92.75657451 4.92879521 92.13185013 2.58754843 92.14593023 C1.80489326 92.1455441 1.02223809 92.14515797 0.21586609 92.14476013 C-0.60956623 92.14828698 -1.43499854 92.15181382 -2.28544396 92.15544754 C-5.0735209 92.16618981 -7.86156374 92.16982518 -10.6496582 92.17358398 C-12.64016364 92.17988541 -14.63066765 92.18665075 -16.62117004 92.19384766 C-20.92041543 92.20855198 -25.21965525 92.22026312 -29.51891518 92.22979546 C-36.32311696 92.24522076 -43.12727183 92.26917304 -49.93144226 92.29469299 C-69.28474968 92.36595722 -88.63808472 92.42555249 -107.99145508 92.47680664 C-118.67062995 92.50516446 -129.34975889 92.54058174 -140.02888554 92.58346039 C-146.78527583 92.61016267 -153.54161412 92.62811183 -160.29804671 92.63949764 C-164.51709991 92.64866392 -168.73609047 92.66604574 -172.95510674 92.68567657 C-174.90286391 92.69311194 -176.8506372 92.6972307 -178.79840851 92.69767189 C-202.62311824 92.42334619 -202.62311824 92.42334619 -222.92236328 103.59985352 C-232.1610678 114.27267421 -236.29926091 129.29941339 -240.875 142.375 C-241.9737479 145.47067268 -243.07684283 148.56477685 -244.17993164 151.65890503 C-244.94415852 153.80370181 -245.70700274 155.94899173 -246.46850586 158.09475708 C-250.42377991 169.23294434 -254.48866754 180.3301691 -258.5713501 191.42218018 C-259.72366093 194.55342717 -260.87352197 197.68556462 -262.02294922 200.81787109 C-263.40369098 204.58038564 -264.79459733 208.33887854 -266.19335938 212.09472656 C-267.32164519 215.13042251 -268.41009983 218.17325026 -269.44726562 221.24121094 C-269.86169922 222.4274707 -270.27613281 223.61373047 -270.703125 224.8359375 C-271.03473633 225.82899902 -271.36634766 226.82206055 -271.70800781 227.84521484 C-273 230 -273 230 -275.64355469 230.82275391 C-276.42118164 230.88124512 -277.19880859 230.93973633 -278 231 C-288.18895226 192.71262888 -294.22881818 154.50652264 -294.1875 114.8125 C-294.18789276 114.00159912 -294.18828552 113.19069824 -294.18869019 112.35522461 C-294.16574533 72.39797046 -294.16574533 72.39797046 -291 59 C-288.53713617 57.12998943 -286.41236175 55.81869958 -283.6875 54.4375 C-282.89770752 54.02040771 -282.10791504 53.60331543 -281.29418945 53.17358398 C-278.54622604 51.74633102 -275.77800307 50.36784456 -273 49 C-271.96746094 48.48985352 -270.93492187 47.97970703 -269.87109375 47.45410156 C-221.44716698 23.77601341 -169.28298794 8.01908661 -115.96929932 0.28710938 C-114.13126795 0.0191379 -112.29480815 -0.25955216 -110.45849609 -0.5390625 C-74.87506687 -5.76231817 -35.49410065 -5.95118642 0 0 Z " fill="#FC6A21" transform="translate(361,15)"/>
</svg>
