<?xml version="1.0" encoding="UTF-8"?>
<svg version="1.1" xmlns="http://www.w3.org/2000/svg" width="1280" height="470">
<path d="M0 0 C0.74798355 -0.00145523 1.4959671 -0.00291046 2.26661682 -0.00440979 C3.8389986 -0.00275958 5.41139802 0.00870268 6.98364258 0.02954102 C9.3693625 0.05847799 11.75285184 0.0501359 14.13867188 0.03710938 C15.67579189 0.04334908 17.21290497 0.05174183 18.75 0.0625 C19.45233261 0.05956436 20.15466522 0.05662872 20.87828064 0.05360413 C27.33799353 0.17453801 32.85119332 1.59590017 37.69140625 5.99609375 C43.61593343 14.06490572 45.42418731 25.47082577 47.9453125 34.96484375 C48.31312193 36.33536149 48.68137134 37.70576122 49.05003357 39.0760498 C50.01155235 42.6544434 50.96731727 46.23434788 51.92175293 49.81463623 C52.88779935 53.43462627 53.85909687 57.05320611 54.83007812 60.671875 C55.92577531 64.75635354 57.02098784 68.8409558 58.11219788 72.92663574 C60.03430269 80.12227587 61.97244375 87.31312632 63.94140625 94.49609375 C66.82791281 87.50493749 68.63858294 80.28410395 70.46986198 72.96162605 C71.04186695 70.67633282 71.62024253 68.3927353 72.20033264 66.10948181 C73.84724005 59.62286269 75.48353362 53.13358885 77.11401367 46.64282227 C78.1156691 42.65720723 79.12522674 38.67365897 80.13943672 34.69122124 C80.52159619 33.18387895 80.90073676 31.67576762 81.2766552 30.16685677 C86.8391618 7.84357509 86.8391618 7.84357509 94.94140625 2.49609375 C99.57750871 0.591144 103.80055965 0.20156991 108.75390625 0.23046875 C109.85182495 0.22759857 109.85182495 0.22759857 110.97192383 0.22467041 C112.51155951 0.22331611 114.05120691 0.22695954 115.59082031 0.23535156 C117.93450811 0.24606223 120.27742952 0.23543094 122.62109375 0.22265625 C124.12369959 0.22397798 125.62630496 0.22654065 127.12890625 0.23046875 C127.82282471 0.22642029 128.51674316 0.22237183 129.23168945 0.21820068 C135.10298292 0.27420809 139.31966534 1.05454627 143.75390625 4.99609375 C146.80679661 8.48511131 147.06764089 10.0994125 147.08184814 14.63825989 C147.08755829 15.72762344 147.09326843 16.816987 147.09915161 17.93936157 C147.1008284 19.74018692 147.1008284 19.74018692 147.10253906 21.57739258 C147.10750397 22.83761734 147.11246887 24.0978421 147.11758423 25.39625549 C147.13071618 28.85917172 147.13715487 32.32206856 147.14159489 35.78500581 C147.14452469 37.9482787 147.14862934 40.11154629 147.15309906 42.27481651 C147.16677686 49.04245823 147.1764418 55.81008782 147.18030095 62.5777424 C147.18478081 70.39118855 147.20232401 78.20445968 147.23130155 86.0178526 C147.25291857 92.05614131 147.26300526 98.09438078 147.26434207 104.13270777 C147.26539021 107.73957492 147.2712995 111.3462776 147.28916168 114.95310402 C147.30870456 118.97771443 147.30435335 123.00195874 147.29785156 127.02661133 C147.30706635 128.22108887 147.31628113 129.41556641 147.32577515 130.64624023 C147.31742142 132.29297478 147.31742142 132.29297478 147.30889893 133.97297668 C147.31036549 134.92443479 147.31183205 135.87589289 147.31334305 136.85618305 C146.73242396 140.97939573 144.66123552 143.63436795 142.0390625 146.7734375 C137.04140904 149.55271263 131.99672854 149.11294946 126.37890625 149.05859375 C125.24259766 149.08244141 124.10628906 149.10628906 122.93554688 149.13085938 C121.84306641 149.12892578 120.75058594 149.12699219 119.625 149.125 C118.63040771 149.1257251 117.63581543 149.1264502 116.61108398 149.12719727 C113.94140625 148.49609375 113.94140625 148.49609375 111.80867004 146.56011963 C109.19936568 142.27846638 109.36821276 138.76606235 109.39550781 133.84057617 C109.3800013 132.39107574 109.3800013 132.39107574 109.36418152 130.91229248 C109.33473548 127.72521276 109.33325393 124.53876761 109.33203125 121.3515625 C109.31705087 119.13909187 109.30032402 116.92663243 109.28192139 114.71418762 C109.23822004 108.89616382 109.21824245 103.07829089 109.20318604 97.26013184 C109.18362513 91.32111683 109.14165392 85.38226499 109.1015625 79.44335938 C109.02623007 67.79432112 108.97595683 56.14531934 108.94140625 44.49609375 C108.46280403 46.23590515 108.46280403 46.23590515 107.97453308 48.01086426 C104.96251293 58.95825078 101.94660068 69.90455856 98.92690563 80.84983063 C97.37469529 86.47650091 95.82384352 92.1035382 94.27612305 97.73144531 C92.78156425 103.16584563 91.28340224 108.59924089 89.78277016 114.03196716 C89.21177895 116.10156596 88.64207205 118.17151955 88.07369041 120.24183655 C87.27545705 123.14851116 86.47260612 126.05387406 85.66870117 128.95898438 C85.32020111 130.2342952 85.32020111 130.2342952 84.96466064 131.53536987 C81.00313364 145.78827549 81.00313364 145.78827549 76.94140625 148.49609375 C72.81065822 148.96268987 68.65816774 148.86643389 64.50390625 148.87109375 C63.35857422 148.89558594 62.21324219 148.92007813 61.03320312 148.9453125 C59.93169922 148.94917969 58.83019531 148.95304688 57.6953125 148.95703125 C56.68799072 148.96524902 55.68066895 148.9734668 54.64282227 148.98193359 C51.09052194 148.3430653 50.07206103 147.3972875 47.94140625 144.49609375 C46.9655932 141.95553923 46.18778325 139.57098306 45.48828125 136.95703125 C45.27079224 136.18713867 45.05330322 135.41724609 44.82922363 134.62402344 C44.10377276 132.04311449 43.39762537 129.45732541 42.69140625 126.87109375 C42.18306733 125.0473815 41.67359869 123.22398383 41.16308594 121.40087891 C39.72954156 116.26627584 38.31419728 111.12679795 36.90185547 105.98632812 C35.87841598 102.26718961 34.85019771 98.54938853 33.8203125 94.83203125 C33.63861385 94.17614706 33.45691521 93.52026287 33.26971054 92.8445034 C32.89861996 91.50499094 32.52752492 90.16547971 32.15642548 88.8259697 C28.06511485 74.05473454 23.99746684 59.27704791 19.94140625 44.49609375 C19.93998123 45.72527023 19.93855621 46.95444672 19.93708801 48.22087097 C19.92042317 59.80110139 19.877665 71.38098017 19.80931568 82.96102428 C19.77501561 88.91457857 19.74993095 94.86787542 19.74584961 100.8215332 C19.74157323 106.56650584 19.71316459 112.31089743 19.66797447 118.05568886 C19.65497846 120.24810719 19.65069919 122.44059498 19.65525246 124.6330471 C19.6601433 127.70286278 19.63413207 130.77097036 19.60083008 133.84057617 C19.60945572 134.74832291 19.61808136 135.65606964 19.62696838 136.59132385 C19.54563047 141.0599259 19.38724747 142.92127547 16.56642151 146.55813599 C12.04001678 149.89982368 7.50909076 149.25891369 2.06640625 149.18359375 C1.00292969 149.21130859 -0.06054688 149.23902344 -1.15625 149.26757812 C-7.48399622 149.24792674 -11.26369445 148.55838272 -15.85595703 144.07739258 C-18.21672765 140.9733099 -18.18719414 138.02322225 -18.19903564 134.27836609 C-18.20474579 133.19748718 -18.21045593 132.11660828 -18.21633911 131.00297546 C-18.21745697 129.81694229 -18.21857483 128.63090912 -18.21972656 127.40893555 C-18.22469147 126.15992462 -18.22965637 124.9109137 -18.23477173 123.62405396 C-18.24688225 120.19623648 -18.25433906 116.76848002 -18.25878239 113.34064841 C-18.26171466 111.19830103 -18.26581977 109.05595897 -18.27028656 106.91361427 C-18.28395958 100.20844443 -18.29362704 93.5032868 -18.29748845 86.79810399 C-18.30196809 79.06221782 -18.31951227 71.32650843 -18.34848905 63.59067601 C-18.37011821 57.60840198 -18.3801934 51.62617764 -18.38152957 45.64386493 C-18.38257677 42.07219159 -18.38846626 38.50068447 -18.40634918 34.92905235 C-18.42591827 30.94312229 -18.42153594 26.95741248 -18.41503906 22.97143555 C-18.42425385 21.79147507 -18.43346863 20.61151459 -18.44296265 19.39579773 C-18.39083633 9.1997762 -18.39083633 9.1997762 -15.05859375 4.49609375 C-10.08956566 0.83781304 -6.17289911 -0.09845324 0 0 Z " fill="#004996" transform="translate(237.05859375,5.50390625)"/>
<path d="M0 0 C0.66724091 -0.0049649 1.33448181 -0.00992981 2.02194214 -0.01504517 C4.23379555 -0.02966558 6.44557684 -0.03647455 8.6574707 -0.04199219 C9.79835616 -0.04623325 9.79835616 -0.04623325 10.96228981 -0.05056 C15.00074231 -0.06556541 19.03915909 -0.07478161 23.07763672 -0.07910156 C27.20701713 -0.08453602 31.33605934 -0.10845168 35.46533489 -0.13707352 C38.6734351 -0.15592572 41.88145828 -0.16091768 45.08960915 -0.16243744 C46.60870999 -0.16542257 48.12781089 -0.17330668 49.64685631 -0.18662262 C67.24269318 -0.32964017 85.02707983 1.15095097 98.26293945 13.86816406 C104.82101211 20.91869272 106.87175895 29.42890904 106.57543945 38.91113281 C105.72208745 49.59658395 101.49089147 56.59443715 93.52075195 63.72363281 C92.15466242 64.88007494 90.78280215 66.02991631 89.39575195 67.16113281 C89.95262695 67.42925781 90.50950195 67.69738281 91.08325195 67.97363281 C100.87980707 73.00429625 107.63482 79.70379526 111.07543945 90.24316406 C114.30489634 102.51952416 112.7359133 116.13701309 106.61450195 127.29003906 C98.78365837 139.31239187 87.96720395 144.0284242 74.39575195 147.16113281 C69.47395323 147.96892284 64.720899 148.3096132 59.7355957 148.36987305 C59.0045462 148.37965683 58.2734967 148.38944061 57.52029419 148.39952087 C55.12463138 148.42919904 52.72902275 148.45077407 50.33325195 148.46972656 C49.50993378 148.47629839 48.6866156 148.48287022 47.83834839 148.48964119 C43.48608109 148.52210228 39.13383704 148.54659355 34.78149414 148.56616211 C31.19063826 148.58401125 27.60056233 148.61890709 24.01000977 148.66870117 C19.65761559 148.72896572 15.30594699 148.75964341 10.95315552 148.76933479 C9.30094935 148.77787214 7.64876174 148.79664796 5.99679565 148.82607841 C-8.51579449 149.07086662 -8.51579449 149.07086662 -13.1081543 145.24731445 C-16.26924553 141.33892691 -16.72948076 139.87764272 -16.74468994 134.98100281 C-16.75040009 133.8832251 -16.75611023 132.78544739 -16.76199341 131.65440369 C-16.76311127 130.44450272 -16.76422913 129.23460175 -16.76538086 127.98803711 C-16.77034576 126.71805878 -16.77531067 125.44808044 -16.78042603 124.13961792 C-16.7935582 120.64984304 -16.79999671 117.1600874 -16.80443668 113.67029166 C-16.80736644 111.49026781 -16.81147109 109.31024924 -16.81594086 107.13022804 C-16.82961871 100.3102606 -16.83928363 93.49030519 -16.84314275 86.67032498 C-16.84762265 78.79631888 -16.86516604 70.92248644 -16.89414334 63.04853314 C-16.91575991 56.96353572 -16.92584703 50.87858715 -16.92718387 44.79355174 C-16.92823203 41.15873945 -16.93414198 37.52409035 -16.95200348 33.88931847 C-16.97154536 29.83357586 -16.96719532 25.77819656 -16.96069336 21.72241211 C-16.96990814 20.51858383 -16.97912292 19.31475555 -16.98861694 18.07444763 C-16.98304779 16.96821045 -16.97747864 15.86197327 -16.97174072 14.72221375 C-16.97320728 13.7633813 -16.97467384 12.80454885 -16.97618484 11.81666088 C-16.40685102 7.75177149 -14.66485829 5.08916678 -11.60424805 2.41113281 C-7.738602 -0.00489597 -4.45792321 0.02523132 0 0 Z M22.39575195 31.16113281 C22.39575195 40.07113281 22.39575195 48.98113281 22.39575195 58.16113281 C26.95001076 58.25344887 31.50096755 58.33292786 36.05541992 58.38085938 C37.60143083 58.40085785 39.14736722 58.42806612 40.69311523 58.46289062 C52.64411636 58.86711931 52.64411636 58.86711931 63.39575195 54.16113281 C66.85917203 50.48124898 66.96261229 46.46679724 66.81762695 41.60253906 C66.11646222 37.54487275 64.42361664 35.91373707 61.39575195 33.16113281 C57.65049598 30.59380257 53.71792548 30.90527854 49.34887695 30.96582031 C48.57767517 30.96865021 47.80647339 30.9714801 47.01190186 30.97439575 C44.55635863 30.98556268 42.10118435 31.01066052 39.64575195 31.03613281 C37.97778848 31.04616714 36.30981928 31.0552922 34.6418457 31.06347656 C30.55955904 31.08378645 26.47806696 31.12294068 22.39575195 31.16113281 Z M22.39575195 84.16113281 C22.39575195 95.05113281 22.39575195 105.94113281 22.39575195 117.16113281 C27.46950195 117.20238281 32.54325195 117.24363281 37.77075195 117.28613281 C39.35033691 117.30434082 40.92992187 117.32254883 42.55737305 117.34130859 C57.49289624 117.65798005 57.49289624 117.65798005 70.1184082 110.69628906 C73.16222122 107.03812846 72.72472236 102.46758633 72.67700195 97.95800781 C72.24692105 93.68109214 71.02178316 91.567876 68.39575195 88.16113281 C62.87362486 84.01953749 57.60911331 84.01964545 50.91137695 84.06347656 C50.09578308 84.06489151 49.28018921 84.06630646 48.43988037 84.06776428 C45.84179984 84.07334978 43.24380632 84.08589961 40.64575195 84.09863281 C38.88143028 84.10364969 37.11710726 84.10821227 35.3527832 84.11230469 C31.0337125 84.12246243 26.71482934 84.14204062 22.39575195 84.16113281 Z " fill="#004996" transform="translate(235.604248046875,188.8388671875)"/>
<path d="M0 0 C0.66928528 -0.00365067 1.33857056 -0.00730133 2.02813721 -0.01106262 C4.22873795 -0.01912926 6.42859239 -0.00557815 8.62915039 0.0090332 C10.17647806 0.00955283 11.7238064 0.00903117 13.27113342 0.00752258 C16.51500306 0.00761217 19.75862353 0.01800346 23.00244141 0.03613281 C27.11722163 0.0586483 31.23163284 0.05939364 35.34645748 0.05261517 C38.54595593 0.04923501 41.74537365 0.05598307 44.94485664 0.0657444 C46.45917904 0.06954042 47.97351053 0.07076845 49.48783684 0.06915855 C68.76192549 0.0657366 88.29433468 1.20546493 102.93383789 15.1809082 C111.05715338 23.68046146 113.40621768 33.88097111 113.25024414 45.3762207 C112.45297426 56.70040593 108.47112034 66.69313485 99.91430664 74.30981445 C97.34686365 76.40810621 94.69883869 78.39244059 92.03930664 80.37231445 C92.78374023 80.84797852 92.78374023 80.84797852 93.54321289 81.33325195 C103.74466143 88.34069858 108.31351554 97.50175841 111.03930664 109.37231445 C111.73826634 114.82507887 112.04507749 120.2585187 112.28930664 125.74731445 C112.365976 127.1705707 112.44409524 128.5937496 112.52368164 130.0168457 C112.72727399 133.80123254 112.91026537 137.58448099 113.03930664 141.37231445 C113.08667969 142.6351123 113.13405273 143.89791016 113.18286133 145.19897461 C113.03930664 148.37231445 113.03930664 148.37231445 111.03930664 150.37231445 C106.83717959 150.77226309 102.61968072 150.70128359 98.40063477 150.68798828 C96.3109024 150.68484692 94.22261192 150.70821439 92.13305664 150.73364258 C90.79451675 150.73591764 89.45597308 150.73661811 88.11743164 150.7355957 C86.29840332 150.74006714 86.29840332 150.74006714 84.44262695 150.74462891 C80.65778332 150.33057679 78.24440077 149.40879757 75.03930664 147.37231445 C74.07487114 144.47900794 73.88957383 142.5198792 73.82836914 139.50512695 C73.84186554 119.71927782 73.84186554 119.71927782 66.02758789 102.0559082 C58.02590425 95.28041577 49.46337954 95.71597888 39.53930664 95.62231445 C38.03406453 95.59411547 36.52885384 95.56418263 35.02368164 95.5324707 C31.36237047 95.45907153 27.70118876 95.4092132 24.03930664 95.37231445 C24.04818909 95.97730774 24.05707153 96.58230103 24.06622314 97.20562744 C24.15468257 103.49953773 24.21503506 109.79327159 24.2590332 116.08764648 C24.27915478 118.4370033 24.30645515 120.78630999 24.34106445 123.13549805 C24.38955704 126.5114376 24.41227021 129.88671531 24.42993164 133.26293945 C24.45057678 134.3141095 24.47122192 135.36527954 24.49249268 136.44830322 C24.49470236 143.62108023 24.49470236 143.62108023 22.42480469 147.03564453 C19.28607333 148.79437488 17.07513992 148.87413935 13.48071289 148.8684082 C12.20776367 148.86905273 10.93481445 148.86969727 9.62329102 148.87036133 C8.96288818 148.85996826 8.30248535 148.8495752 7.62207031 148.83886719 C5.6112178 148.80994979 3.60301147 148.81825496 1.59204102 148.83129883 C-9.92033154 148.75559785 -9.92033154 148.75559785 -13.96069336 145.37231445 C-16.77498746 139.51394651 -16.24863013 133.20204375 -16.23535156 126.8527832 C-16.24046249 125.59358063 -16.24557343 124.33437805 -16.25083923 123.03701782 C-16.26419032 119.59490154 -16.2648124 116.15289532 -16.26227593 112.71075821 C-16.26120384 109.83300365 -16.26609554 106.95527114 -16.27088135 104.07752132 C-16.28196251 97.28742246 -16.28242142 90.49737892 -16.27636719 83.70727539 C-16.27032418 76.71010856 -16.28264978 69.71314265 -16.30393726 62.71601009 C-16.32156549 56.69969625 -16.3275528 50.6834463 -16.32429951 44.66710758 C-16.32248887 41.07760715 -16.32510106 37.48825015 -16.33901405 33.89877319 C-16.35394859 29.89633166 -16.34461168 25.89429826 -16.33300781 21.8918457 C-16.34065155 20.70724762 -16.34829529 19.52264954 -16.35617065 18.30215454 C-16.28811879 7.69397806 -16.28811879 7.69397806 -12.96069336 3.37231445 C-8.63544124 0.46247732 -5.14640976 -0.00269325 0 0 Z M24.03930664 32.37231445 C24.03930664 42.93231445 24.03930664 53.49231445 24.03930664 64.37231445 C29.16310741 64.46454287 34.28398705 64.54405476 39.40795898 64.59204102 C41.14796753 64.61205967 42.88790963 64.63928331 44.62768555 64.67407227 C47.1400601 64.72302398 49.6515394 64.74538033 52.16430664 64.76293945 C53.31636597 64.79390717 53.31636597 64.79390717 54.49169922 64.82550049 C60.1204158 64.82779805 64.31348428 63.45863453 69.03930664 60.37231445 C73.08839595 56.06199358 73.40449683 51.63443718 73.30493164 45.94262695 C72.8856307 41.88527373 71.77495987 39.37211246 69.03930664 36.37231445 C61.1717831 30.48883909 50.73590253 31.93082793 41.47680664 32.12231445 C39.78346838 32.14240958 38.09010711 32.16065502 36.39672852 32.17700195 C32.27654791 32.21733657 28.15960541 32.29565773 24.03930664 32.37231445 Z " fill="#004996" transform="translate(976.960693359375,5.627685546875)"/>
<path d="M0 0 C1.05982086 -0.00788544 1.05982086 -0.00788544 2.14105225 -0.01593018 C4.47210993 -0.02910579 6.80248047 -0.02039071 9.13354492 -0.01025391 C10.76958852 -0.01227782 12.40563123 -0.0151919 14.04167175 -0.01895142 C17.4756222 -0.02337355 20.90933853 -0.01695656 24.34326172 -0.00292969 C28.6990736 0.0140135 33.05432474 0.00441597 37.41011524 -0.01364708 C40.79495777 -0.02461606 44.17967299 -0.02097688 47.56451988 -0.0132637 C49.16733558 -0.01128985 50.7701636 -0.01361953 52.37296486 -0.02070236 C70.41466889 -0.08284612 89.05240591 1.45534939 102.80151367 14.38818359 C111.44456415 23.56827799 113.78691659 32.92227519 113.80151367 45.38818359 C113.06950749 56.11540152 109.49569546 65.69400181 101.80151367 73.38818359 C98.88173443 75.52508779 95.88378144 77.49450274 92.80151367 79.38818359 C93.48213867 79.88318359 94.16276367 80.37818359 94.86401367 80.88818359 C106.09968572 90.45045767 111.22843725 102.31698383 112.42651367 116.88818359 C112.83109356 124.01167946 112.90436461 131.12907482 112.92651367 138.26318359 C112.93118652 139.34019531 112.93585938 140.41720703 112.94067383 141.52685547 C112.9385791 142.53039062 112.93648437 143.53392578 112.93432617 144.56787109 C112.93319824 145.47263184 112.93207031 146.37739258 112.9309082 147.30957031 C112.80151367 149.38818359 112.80151367 149.38818359 111.80151367 150.38818359 C107.59908607 150.6071367 103.39090589 150.57397309 99.18334961 150.57348633 C97.07409109 150.57566032 94.96536617 150.59377591 92.85620117 150.61279297 C91.50984879 150.61572941 90.16349393 150.61771253 88.81713867 150.61865234 C87.59285156 150.62276123 86.36856445 150.62687012 85.10717773 150.63110352 C81.84362743 150.39127836 79.67399403 149.9293033 76.80151367 148.38818359 C74.72709607 145.2765572 74.54201705 144.47396589 74.45776367 140.92333984 C74.42972656 140.04653564 74.40168945 139.16973145 74.37280273 138.26635742 C74.33751465 136.87259888 74.33751465 136.87259888 74.30151367 135.45068359 C73.82071082 116.1194623 73.82071082 116.1194623 64.30151367 99.88818359 C59.23753697 96.84979757 55.23028909 96.11556468 49.31323242 95.97412109 C48.61003372 95.95475494 47.90683502 95.93538879 47.18232727 95.91543579 C44.95134349 95.85598176 42.72030713 95.8093931 40.48901367 95.76318359 C38.97011181 95.72497223 37.45123089 95.68591867 35.93237305 95.64599609 C32.222279 95.55030943 28.51202716 95.46615287 24.80151367 95.38818359 C24.81039612 95.97842819 24.81927856 96.56867279 24.82843018 97.17680359 C24.91698375 103.32488309 24.97728115 109.47278118 25.02124023 115.62133789 C25.04134473 117.91535807 25.06863258 120.20932708 25.10327148 122.50317383 C25.15183927 125.80221185 25.17449444 129.10057181 25.19213867 132.39990234 C25.21278381 133.42403732 25.23342896 134.4481723 25.25469971 135.50334167 C25.2560508 139.79921203 25.17048603 142.66323761 23.20068359 146.53344727 C20.01105194 148.99926915 18.03598853 149.03345537 14.02416992 149.05224609 C12.70610352 149.05869141 11.38803711 149.06513672 10.0300293 149.07177734 C9.00389526 149.05606689 9.00389526 149.05606689 7.95703125 149.04003906 C5.87273569 149.01329551 3.79384376 149.03977067 1.7097168 149.07177734 C0.39036133 149.06533203 -0.92899414 149.05888672 -2.28833008 149.05224609 C-3.49352295 149.04660645 -4.69871582 149.0409668 -5.94042969 149.03515625 C-10.07696201 148.21373919 -11.55330098 146.59562617 -14.19848633 143.38818359 C-15.48025812 140.82464001 -15.330145 139.00345707 -15.33892822 136.13212585 C-15.34463837 135.01751984 -15.35034851 133.90291382 -15.35623169 132.75453186 C-15.35734955 131.52592941 -15.35846741 130.29732697 -15.35961914 129.03149414 C-15.36458405 127.74200867 -15.36954895 126.45252319 -15.37466431 125.1239624 C-15.38779693 121.58047022 -15.39423507 118.03699698 -15.39867496 114.49348426 C-15.40160464 112.27995851 -15.40570927 110.06643795 -15.41017914 107.85291481 C-15.42385708 100.92829591 -15.43352197 94.00368887 -15.43738103 87.0790574 C-15.44186102 79.08393135 -15.45940478 71.08897633 -15.48838162 63.09390229 C-15.50999729 56.91548744 -15.52008526 50.7371207 -15.52142215 44.55866843 C-15.52247038 40.86796582 -15.52838161 37.17742391 -15.54624176 33.48676109 C-15.56578169 29.36875406 -15.56143396 25.25110488 -15.55493164 21.13305664 C-15.56414642 19.91052689 -15.57336121 18.68799713 -15.58285522 17.42842102 C-15.5745015 15.74382278 -15.5745015 15.74382278 -15.565979 14.02519226 C-15.56744556 13.05161113 -15.56891212 12.07802999 -15.57042313 11.0749464 C-14.98772694 6.86571932 -13.25029788 4.22876925 -9.96089172 1.59994507 C-6.47620666 0.07134716 -3.80447349 0.00713308 0 0 Z M24.80151367 32.38818359 C24.80151367 42.94818359 24.80151367 53.50818359 24.80151367 64.38818359 C29.92531444 64.48041201 35.04619408 64.5599239 40.17016602 64.60791016 C41.91017457 64.62792881 43.65011666 64.65515245 45.38989258 64.68994141 C47.90226713 64.73889312 50.41374643 64.76124947 52.92651367 64.77880859 C54.078573 64.80977631 54.078573 64.80977631 55.25390625 64.84136963 C60.77697008 64.84362406 65.27753606 63.67299187 69.80151367 60.38818359 C73.28911065 55.84450652 74.47840521 51.18898312 74.18432617 45.49365234 C73.29192272 40.58543333 70.59043251 37.98389782 66.73901367 35.07568359 C61.95008863 32.32459899 58.01156602 32.25457074 52.63354492 32.29052734 C51.83873215 32.29194229 51.04391937 32.29335724 50.22502136 32.29481506 C47.68798042 32.30040982 45.15102792 32.31296132 42.61401367 32.32568359 C40.89331182 32.33069927 39.17260859 32.33526206 37.4519043 32.33935547 C33.23504598 32.34952638 29.01837877 32.36910276 24.80151367 32.38818359 Z " fill="#004996" transform="translate(1021.198486328125,188.61181640625)"/>
<path d="M0 0 C1.20943771 -0.00960754 2.41887543 -0.01921509 3.66496277 -0.02911377 C4.97733414 -0.03336365 6.28970551 -0.03761353 7.6418457 -0.04199219 C8.31417551 -0.04481956 8.98650532 -0.04764694 9.67920876 -0.05056 C13.25082415 -0.06556398 16.82239917 -0.07478042 20.39404297 -0.07910156 C23.31995311 -0.08345752 26.2455636 -0.09723347 29.17138672 -0.12011719 C55.76928803 -0.32413832 80.76903601 0.26648507 101.4777832 19.32128906 C110.06767944 28.44081281 115.17915643 39.07549978 118.13012695 51.16113281 C118.46850586 52.50498047 118.46850586 52.50498047 118.8137207 53.87597656 C123.44207486 76.12399622 120.71620827 101.52927594 108.3996582 120.87988281 C106.74256571 123.09439544 105.00614933 125.13013467 103.13012695 127.16113281 C102.5371582 127.84433594 101.94418945 128.52753906 101.33325195 129.23144531 C89.5654543 142.02041549 72.48584688 147.41192186 55.51104736 148.364151 C51.51049284 148.45631746 47.51434511 148.49289434 43.51293945 148.49707031 C42.04230629 148.50351544 40.57167434 148.510245 39.1010437 148.51724243 C36.04365053 148.52911783 32.98636963 148.53293259 29.92895508 148.53173828 C26.02177943 148.53153373 22.11532003 148.55901768 18.2083149 148.5932827 C15.1816173 148.61554732 12.15509369 148.61957624 9.1283226 148.61851883 C7.68747323 148.62086843 6.2466186 148.62965572 4.80585098 148.64518356 C2.79441026 148.66486456 0.78275478 148.65647759 -1.22875977 148.64697266 C-2.93985428 148.65124771 -2.93985428 148.65124771 -4.68551636 148.65560913 C-8.64685661 148.04048051 -10.78443526 146.68833634 -13.86987305 144.16113281 C-15.90227443 140.98858271 -16.12255982 138.46994236 -16.13056946 134.74049377 C-16.13765427 133.63996674 -16.14473907 132.5394397 -16.15203857 131.40556335 C-16.14956116 130.20285294 -16.14708374 129.00014252 -16.14453125 127.76098633 C-16.14964218 126.49071594 -16.15475311 125.22044556 -16.16001892 123.91168213 C-16.17340445 120.43026006 -16.17398811 116.94894658 -16.17145562 113.46750379 C-16.17038561 110.55993144 -16.17527004 107.65238103 -16.18006104 104.74481338 C-16.19115467 97.88479052 -16.19159445 91.02482241 -16.18554688 84.16479492 C-16.17950617 77.09039767 -16.19182076 70.01619926 -16.21311694 62.94183594 C-16.23073603 56.86528143 -16.23673383 50.78879019 -16.2334792 44.71221107 C-16.23166669 41.08414836 -16.23429918 37.4562275 -16.24819374 33.82818794 C-16.26310921 29.78221868 -16.25379934 25.73665388 -16.2421875 21.69067383 C-16.24983124 20.48998764 -16.25747498 19.28930145 -16.26535034 18.05223083 C-16.25833603 16.94888397 -16.25132172 15.84553711 -16.24409485 14.70875549 C-16.24434646 13.27440328 -16.24434646 13.27440328 -16.24460316 11.81107426 C-15.67046073 7.75096868 -13.92762908 5.08666934 -10.86987305 2.41113281 C-7.22406201 0.13250091 -4.20038707 0.02694836 0 0 Z M23.13012695 34.16113281 C23.13012695 60.56113281 23.13012695 86.96113281 23.13012695 114.16113281 C49.38381899 115.45976822 49.38381899 115.45976822 71.80981445 104.70410156 C79.34133714 97.0039627 81.01920853 85.44496091 81.38012695 75.09863281 C81.24143281 63.89522792 78.91500861 52.77619111 71.4152832 44.20019531 C58.37955585 31.5643369 40.02495555 34.16113281 23.13012695 34.16113281 Z " fill="#004996" transform="translate(724.869873046875,188.8388671875)"/>
<path d="M0 0 C0.97649506 -0.00700928 1.95299011 -0.01401855 2.95907593 -0.02124023 C6.17149694 -0.03877695 9.38302976 -0.02721336 12.59545898 -0.01367188 C14.83552723 -0.0163678 17.07559433 -0.02025106 19.31565857 -0.02526855 C24.00368422 -0.03115758 28.69140445 -0.02261873 33.37939453 -0.00390625 C39.38406175 0.01889577 45.38801429 0.005748 51.39265537 -0.01819611 C56.01581699 -0.03265871 60.6388095 -0.02804611 65.26197624 -0.01768494 C67.47593203 -0.01501963 69.68990325 -0.01828047 71.90384102 -0.02760315 C74.99880717 -0.03777746 78.09261964 -0.02225497 81.1875 0 C82.55528343 -0.01214539 82.55528343 -0.01214539 83.95069885 -0.02453613 C89.60170504 0.05063165 92.68217001 0.83512442 97.02905273 4.51757812 C99.76948342 8.54619901 99.39648498 12.74414883 99.40405273 17.45507812 C99.42854492 18.25365234 99.45303711 19.05222656 99.47827148 19.875 C99.4984937 23.94303649 99.35434247 26.0028707 97.13061523 29.52148438 C93.48828021 32.98102563 91.04925507 32.63960596 86.10083008 32.63110352 C85.03237602 32.63132256 85.03237602 32.63132256 83.94233704 32.63154602 C81.58319067 32.63084823 79.22412284 32.62306209 76.86499023 32.61523438 C75.23117109 32.61336972 73.59735139 32.61194604 71.96353149 32.61094666 C67.65957094 32.60712522 63.35564403 32.5972981 59.05169678 32.58624268 C54.66134089 32.57602054 50.27097958 32.57144731 45.88061523 32.56640625 C37.26341056 32.55567551 28.64623971 32.53808172 20.02905273 32.51757812 C20.02905273 40.76757812 20.02905273 49.01757812 20.02905273 57.51757812 C21.75986084 57.49139404 23.49066895 57.46520996 25.27392578 57.43823242 C31.00143037 57.35750942 36.72885306 57.30011116 42.45677471 57.25851727 C45.92870122 57.23245585 49.40001066 57.19712426 52.87158203 57.14038086 C56.86553772 57.07550979 60.85884831 57.0513695 64.85327148 57.02929688 C66.09614426 57.00349045 67.33901703 56.97768402 68.61955261 56.95109558 C77.19349943 56.94830619 77.19349943 56.94830619 81.31323242 59.75512695 C83.05747853 62.56334333 83.66098996 63.94509387 83.65795898 67.20507812 C83.65989258 68.06875 83.66182617 68.93242187 83.66381836 69.82226562 C83.6399707 70.71171875 83.61612305 71.60117187 83.59155273 72.51757812 C83.60250977 73.40703125 83.6134668 74.29648437 83.62475586 75.21289062 C83.56275687 80.75146684 83.04587927 83.40320111 79.02905273 87.51757812 C76.3081665 88.11885071 76.3081665 88.11885071 73.15893555 88.08520508 C71.97801331 88.08482742 70.79709106 88.08444977 69.5803833 88.08406067 C67.67552155 88.04535103 67.67552155 88.04535103 65.73217773 88.00585938 C64.42827087 87.99878464 63.12436401 87.9917099 61.78094482 87.98442078 C58.32155075 87.96536888 54.86321355 87.91628684 51.40423584 87.86090088 C47.87177078 87.8096675 44.33912912 87.78662389 40.80639648 87.76171875 C33.87968316 87.71081698 26.95586836 87.61295961 20.02905273 87.51757812 C20.02905273 96.75757813 20.02905273 105.99757813 20.02905273 115.51757812 C22.21425537 115.47681152 24.39945801 115.43604492 26.65087891 115.39404297 C33.87511659 115.26078871 41.09951477 115.13898658 48.32404613 115.02280235 C52.70378013 114.95201665 57.08337805 114.87738892 61.46289062 114.79394531 C65.69027091 114.71354227 69.91770985 114.64327791 74.14538002 114.58000565 C75.75734974 114.55410535 77.3692653 114.52456769 78.98110008 114.49131393 C81.24078175 114.44531914 83.50031105 114.41232459 85.76025391 114.38232422 C87.68885506 114.34901505 87.68885506 114.34901505 89.65641785 114.31503296 C93.90846675 114.57039175 96.80867052 115.26899345 99.81445312 118.34423828 C102.01819326 122.28749349 101.4998292 126.47588328 101.46655273 130.89257812 C101.4865332 131.82585937 101.50651367 132.75914062 101.52709961 133.72070312 C101.52292092 139.62100746 100.95373918 143.03013404 97.02905273 147.51757812 C94.7082916 148.67795869 93.35131371 148.65300068 90.76678467 148.67147827 C89.87239182 148.68007874 88.97799896 148.6886792 88.0565033 148.69754028 C87.07259109 148.70180023 86.08867889 148.70606018 85.07495117 148.71044922 C83.52352165 148.72271545 83.52352165 148.72271545 81.94075012 148.73522949 C78.50664861 148.76010911 75.0725885 148.77660624 71.63842773 148.79101562 C70.46726662 148.7963393 69.2961055 148.80166298 68.08945465 148.80714798 C61.89045363 148.83389088 55.69147283 148.85326205 49.49243164 148.86767578 C43.08519138 148.88432508 36.67846532 148.9291027 30.27141953 148.98004723 C25.34891154 149.01368316 20.42652613 149.02524929 15.50391388 149.03090286 C13.14199138 149.03762553 10.78007723 149.05287375 8.4182663 149.07679367 C5.11199405 149.10836781 1.80711549 149.10849298 -1.49926758 149.10107422 C-2.47508286 149.11747955 -3.45089813 149.13388489 -4.45628357 149.15078735 C-8.7113162 149.11170543 -11.99705617 148.99651883 -15.50042725 146.41860962 C-20.99014266 139.97225938 -20.26319782 132.40262061 -20.24560547 124.359375 C-20.2507164 123.15040054 -20.25582733 121.94142609 -20.26109314 120.69581604 C-20.27257517 117.39619577 -20.27506875 114.09682749 -20.27252984 110.79720497 C-20.27145633 108.03630457 -20.27635303 105.27542708 -20.28113526 102.51453161 C-20.29220897 95.99909071 -20.29267949 89.48370747 -20.28662109 82.96826172 C-20.28057832 76.25908543 -20.2929048 69.55011869 -20.31419116 62.84097815 C-20.33183156 57.06751343 -20.33780481 51.29411529 -20.33455342 45.52062464 C-20.33274477 42.07809905 -20.33533493 38.63572308 -20.34926796 35.19322205 C-20.36422725 31.35399201 -20.35485485 27.51502725 -20.34326172 23.67578125 C-20.35472733 21.97676414 -20.35472733 21.97676414 -20.36642456 20.24342346 C-20.3266383 14.28042483 -20.23211962 9.61167331 -16.97094727 4.51757812 C-11.48102682 0.2085935 -6.81768944 -0.06067312 0 0 Z " fill="#004A96" transform="translate(882.970947265625,188.482421875)"/>
<path d="M0 0 C6.43156451 5.61849801 12.66946505 14.51210279 13.6484375 23.2265625 C13.848055 29.45672986 13.848055 29.45672986 11.72265625 32.60546875 C6.01096865 36.3103472 -1.53129766 35.36175264 -8.08984375 35.41796875 C-9.21777344 35.44697266 -10.34570312 35.47597656 -11.5078125 35.50585938 C-19.76163048 35.56935028 -19.76163048 35.56935028 -23.7421875 33.33984375 C-25.46334971 31.25843828 -26.6233341 29.52695019 -27.65234375 27.04296875 C-29.72779725 22.5861184 -31.64950479 20.86967253 -36.2578125 19.0546875 C-43.12716022 17.09776898 -52.11005354 16.67993847 -58.83984375 19.41796875 C-62.9552328 21.94332112 -64.20531563 22.72116751 -65.52734375 27.48046875 C-65.92316072 31.10271782 -65.92316072 31.10271782 -63.95581055 33.67138672 C-57.06402441 40.76158462 -44.56554704 42.28692246 -35.27252197 44.50128174 C-17.23583782 48.8331979 3.3572605 53.82756774 14.41015625 70.10546875 C20.4177138 82.06580369 20.97433241 94.56835219 17.30859375 107.3984375 C13.37014856 119.2651441 5.59000574 127.71441048 -5.42578125 133.640625 C-26.15458999 143.23729571 -52.27582656 144.13882488 -73.93359375 137.00390625 C-87.63043219 131.64276999 -98.01515236 123.39431467 -104.58984375 110.10546875 C-107.1448281 103.92932236 -109.0760209 96.77571267 -107.58984375 90.10546875 C-106.234375 87.8359375 -106.234375 87.8359375 -103.58984375 86.10546875 C-99.99623356 85.58417225 -96.46256392 85.68571717 -92.83984375 85.79296875 C-91.875625 85.80263672 -90.91140625 85.81230469 -89.91796875 85.82226562 C-74.80580243 86.05839322 -74.80580243 86.05839322 -71.33984375 89.04296875 C-69.79212292 91.7514802 -68.73797433 94.25865044 -67.65234375 97.16796875 C-65.67935336 102.28256692 -63.75501314 104.52633195 -58.796875 107 C-49.92937884 110.64349279 -39.4138676 110.38561917 -30.40234375 107.41796875 C-26.33472852 105.68075808 -23.56042051 104.23429624 -21.58984375 100.10546875 C-20.85247318 94.94387474 -20.70488074 93.3888284 -23.70703125 89.03515625 C-26.50071966 85.89392294 -29.29354483 84.58490912 -33.27734375 83.16796875 C-33.95015381 82.92691406 -34.62296387 82.68585938 -35.31616211 82.4375 C-43.10035056 79.75170233 -51.10214325 77.79562141 -59.06298828 75.71337891 C-73.37448639 71.91944031 -87.40183264 67.45782399 -97.58984375 56.10546875 C-98.61078125 55.02265625 -98.61078125 55.02265625 -99.65234375 53.91796875 C-106.42727122 44.08339661 -106.77442528 33.70503626 -105.58984375 22.10546875 C-103.57200541 11.84911887 -97.41229868 3.43354442 -88.875 -2.48828125 C-62.45503083 -18.74672382 -25.09379939 -19.24459723 0 0 Z " fill="#004996" transform="translate(652.58984375,16.89453125)"/>
<path d="M0 0 C9.36048157 7.88518828 15.91107416 16.31476719 17.875 28.6875 C17.01346703 32.90901156 15.78708713 34.29569464 12.25 36.75 C6.16275429 38.07707361 -0.29647372 37.93255301 -6.5 37.9375 C-7.32371094 37.94974609 -8.14742187 37.96199219 -8.99609375 37.97460938 C-17.16585209 37.99434309 -17.16585209 37.99434309 -20.75 35.75 C-21.98046875 33.54296875 -21.98046875 33.54296875 -22.9375 30.9375 C-25.28641387 25.97389301 -27.53440552 23.67213501 -32.59375 21.5234375 C-40.03839631 19.69913061 -49.02723375 19.19242883 -56.1484375 22.171875 C-58.92743663 23.85763423 -60.29774421 24.84548842 -61.75 27.75 C-62.01274852 31.4941664 -61.93823797 34.18528609 -60.75 37.75 C-58.4977101 38.88957923 -58.4977101 38.88957923 -55.75 39.75 C-54.85410156 40.08257812 -53.95820312 40.41515625 -53.03515625 40.7578125 C-45.36508868 43.41676926 -37.65650389 45.56368935 -29.78369141 47.55249023 C-17.39264818 50.69411027 -5.68228066 53.91905657 5.25 60.75 C6.15363281 61.31332031 7.05726562 61.87664062 7.98828125 62.45703125 C15.36815476 67.61448786 19.99550513 75.06866454 22.25 83.75 C23.76184381 99.2569096 22.30265529 112.6993384 12.51171875 125.27734375 C-0.40890245 139.40299698 -19.80712207 143.03594639 -38.1015625 143.91015625 C-57.23079616 144.37328506 -75.96276599 140.46566728 -90.5 127.25 C-91.2425 126.425 -91.985 125.6 -92.75 124.75 C-93.575 123.88375 -94.4 123.0175 -95.25 122.125 C-100.87441856 115.25859627 -104.13764279 105.82381691 -105.1875 97.125 C-104.75 93.75 -104.75 93.75 -102.96484375 91.06640625 C-98.11850415 87.57445074 -93.69288628 88.1339728 -87.875 88.3125 C-86.81152344 88.31830078 -85.74804688 88.32410156 -84.65234375 88.33007812 C-79.07194409 88.41673029 -73.91653715 88.52775811 -68.75 90.75 C-67.33203125 92.703125 -67.33203125 92.703125 -66.5625 95 C-63.99182961 101.75750064 -61.2387511 106.18754841 -54.75 109.75 C-45.03028454 113.79988144 -33.33719309 112.66387283 -23.75 108.75 C-20.33417612 107.3159586 -20.33417612 107.3159586 -18.4375 104.125 C-17.63474 100.18417819 -17.12564973 96.51356156 -18.75 92.75 C-22.90984919 88.60277554 -26.94823331 86.58930418 -32.5625 84.875 C-33.3251416 84.63015869 -34.0877832 84.38531738 -34.87353516 84.13305664 C-41.73884017 81.96853511 -48.684193 80.09193 -55.625 78.1875 C-71.6178168 73.78103582 -88.70309074 68.76941797 -97.92578125 53.84765625 C-103.53034606 43.55563724 -104.23215249 32.26119542 -101.125 21.0625 C-99.20338508 15.38500137 -96.8699699 11.09137015 -92.75 6.75 C-92.19828125 6.15832031 -91.6465625 5.56664062 -91.078125 4.95703125 C-82.68115177 -3.17080823 -71.06955389 -7.95071562 -59.75 -10.25 C-58.88375 -10.43304688 -58.0175 -10.61609375 -57.125 -10.8046875 C-37.91595165 -13.33921471 -16.04340145 -11.84743492 0 0 Z " fill="#004996" transform="translate(1255.75,198.25)"/>
<path d="M0 0 C1.44989319 -0.00788544 1.44989319 -0.00788544 2.92907715 -0.01593018 C6.11434231 -0.02910052 9.29910502 -0.0204024 12.484375 -0.01025391 C14.70345149 -0.01227549 16.92252734 -0.01518763 19.14160156 -0.01895142 C23.78847591 -0.02337076 28.43517706 -0.0169561 33.08203125 -0.00292969 C39.03393338 0.01416179 44.98542965 0.00431854 50.93731689 -0.01364708 C55.51842295 -0.02449533 60.09943302 -0.02103375 64.68054199 -0.0132637 C66.8749598 -0.01126458 69.06938636 -0.01371083 71.26379395 -0.02070236 C74.33234697 -0.02833378 77.40024562 -0.01668847 80.46875 0 C81.82486389 -0.00910904 81.82486389 -0.00910904 83.20837402 -0.0184021 C88.2936322 0.03275009 91.83228108 0.55112779 96.234375 3.38818359 C99.19142753 7.5457877 98.64015956 12.41683882 98.671875 17.32568359 C98.70474609 18.21964844 98.73761719 19.11361328 98.77148438 20.03466797 C98.77857422 20.90285156 98.78566406 21.77103516 98.79296875 22.66552734 C98.81315063 23.84489868 98.81315063 23.84489868 98.83374023 25.0480957 C97.91741111 28.6256984 96.06420479 30.07478363 93.234375 32.38818359 C89.82377625 32.98945618 89.82377625 32.98945618 85.8737793 32.95581055 C85.15128494 32.95654068 84.42879059 32.95727081 83.68440247 32.95802307 C81.30835553 32.95455361 78.93429596 32.91572773 76.55859375 32.87646484 C74.90665254 32.86713432 73.25469745 32.86001933 71.60273743 32.85502625 C67.2639212 32.835975 62.92594765 32.78689125 58.58746338 32.73150635 C54.15673216 32.68027288 49.7258642 32.65750351 45.29492188 32.63232422 C36.60764393 32.57876961 27.92121151 32.49084994 19.234375 32.38818359 C19.234375 40.63818359 19.234375 48.88818359 19.234375 57.38818359 C21.00071289 57.36723633 22.76705078 57.34628906 24.58691406 57.32470703 C30.42621729 57.26017823 36.26550819 57.2142319 42.10506058 57.18093491 C45.64527572 57.16006947 49.18510474 57.13177233 52.72509766 57.08642578 C56.79593591 57.03460621 60.86636927 57.01522991 64.9375 56.99755859 C66.20740784 56.97691345 67.47731567 56.95626831 68.78570557 56.93499756 C70.55708893 56.93454437 70.55708893 56.93454437 72.36425781 56.93408203 C73.40350403 56.92519958 74.44275024 56.91631714 75.51348877 56.90716553 C78.95635105 57.51581977 80.1007927 58.67138169 82.234375 61.38818359 C83.44785254 65.02861622 83.4568722 68.40873545 83.484375 72.20068359 C83.505 72.9 83.525625 73.59931641 83.546875 74.31982422 C83.58266178 79.10183293 82.78627651 82.34354358 80.234375 86.38818359 C77.57529916 87.71772151 75.56872132 87.50804391 72.59130859 87.50170898 C71.41023529 87.50163345 70.22916199 87.50155792 69.01229858 87.5014801 C67.73206818 87.49631882 66.45183777 87.49115753 65.1328125 87.48583984 C63.82607574 87.4844249 62.51933899 87.48300995 61.17300415 87.48155212 C57.69761242 87.47773254 54.22226243 87.46790702 50.74688721 87.45684814 C47.20105565 87.44662202 43.65521716 87.44199717 40.109375 87.43701172 C33.15100479 87.42681481 26.19274923 87.40724183 19.234375 87.38818359 C19.234375 96.62818359 19.234375 105.86818359 19.234375 115.38818359 C22.70179199 115.3567627 22.70179199 115.3567627 26.23925781 115.32470703 C33.87469264 115.25844392 41.51014014 115.214251 49.14578629 115.18093491 C53.77556816 115.16005533 58.40505557 115.13173111 63.03466797 115.08642578 C67.50209194 115.04298096 71.96923259 115.01904927 76.4368515 115.00867462 C78.14173595 115.00128077 79.8466048 114.98684227 81.55136871 114.96526337 C83.93855864 114.93624665 86.3245763 114.93222673 88.71191406 114.93408203 C89.41753983 114.91970093 90.12316559 114.90531982 90.85017395 114.89050293 C94.23345846 114.9189753 95.95514422 115.17364653 98.67218018 117.26118469 C100.60755881 119.89629023 100.74953177 121.38545665 100.765625 124.63427734 C100.77335938 126.13764648 100.77335938 126.13764648 100.78125 127.67138672 C100.76578125 128.71230469 100.7503125 129.75322266 100.734375 130.82568359 C100.75757813 132.38125977 100.75757813 132.38125977 100.78125 133.96826172 C100.75899123 138.30037515 100.63569449 141.54178371 98.765625 145.48583984 C92.70060981 150.04396083 84.49608685 149.66844721 77.20410156 149.57104492 C76.2452153 149.56640228 75.28632904 149.56175964 74.29838562 149.55697632 C71.15707613 149.53872779 68.01616452 149.5051962 64.875 149.47021484 C62.68024087 149.45163768 60.48547752 149.43355353 58.29071045 149.41593933 C53.70461255 149.3765526 49.11867942 149.32921662 44.53271484 149.27661133 C38.65610339 149.21012713 32.77957408 149.1666007 26.90271378 149.12935352 C22.37646193 149.09762481 17.85042394 149.05224084 13.32433319 149.00287437 C11.15704173 148.98117409 8.989699 148.96408475 6.82233429 148.95170021 C3.79689828 148.93267398 0.77225376 148.89489525 -2.25292969 148.85229492 C-3.14653702 148.85058792 -4.04014435 148.84888092 -4.96083069 148.84712219 C-9.64988816 148.75962944 -13.0954533 148.62528445 -16.765625 145.38818359 C-20.8832852 139.84720629 -20.19476603 133.47057742 -20.16967773 126.86865234 C-20.17654099 125.60944977 -20.18340424 124.35024719 -20.19047546 123.05288696 C-20.20837255 119.61072613 -20.20724531 116.16882068 -20.20153308 112.72662735 C-20.19843672 109.84886316 -20.20453851 106.97114771 -20.21057183 104.09339046 C-20.2246036 97.30326701 -20.22306657 90.51326942 -20.21166992 83.72314453 C-20.20018496 76.72591157 -20.21427347 69.72906173 -20.2410664 62.73187923 C-20.26323811 56.715551 -20.26985764 50.6993429 -20.26398998 44.68297672 C-20.26062328 41.09343854 -20.26301628 37.50414603 -20.28024101 33.91464233 C-20.29861099 29.91208702 -20.28450817 25.91027543 -20.26733398 21.90771484 C-20.27700195 20.72311676 -20.28666992 19.53851868 -20.29663086 18.31802368 C-20.20331036 7.94210348 -20.20331036 7.94210348 -15.765625 3.38818359 C-10.71401724 -0.15365363 -5.94044894 -0.03990209 0 0 Z " fill="#004A96" transform="translate(839.765625,5.61181640625)"/>
<path d="M0 0 C1.03640625 -0.00322266 2.0728125 -0.00644531 3.140625 -0.00976562 C11.89545114 0.05244567 11.89545114 0.05244567 15.375 2.3125 C17.93222207 6.1483331 17.66022062 9.27810565 17.64624023 13.72436523 C17.65146698 14.58334915 17.65669373 15.44233307 17.66207886 16.3273468 C17.67232707 18.19505929 17.67810069 20.06280041 17.67996025 21.93054008 C17.68362409 24.89564663 17.70035558 27.86041872 17.72071838 30.82545471 C17.77609947 39.25686384 17.80667786 47.68832409 17.83129883 56.11987305 C17.84726908 61.27816946 17.877597 66.43623301 17.91606331 71.59440804 C17.92764174 73.55218067 17.93364303 75.50999518 17.93374443 77.46780205 C17.71365014 94.4222738 17.71365014 94.4222738 23 110.3125 C30.87873334 116.94722282 39.56353991 117.28636588 49.48144531 116.56640625 C53.3876131 116.04262924 56.11423323 114.44198034 59.375 112.3125 C60.035 112.3125 60.695 112.3125 61.375 112.3125 C62.7366404 109.79870233 63.87317946 107.21286683 64.9375 104.5625 C65.18628906 103.94890625 65.43507813 103.3353125 65.69140625 102.703125 C67.48197972 96.44123379 67.52406079 89.94476961 67.53271484 83.48144531 C67.53779556 82.63814163 67.54287628 81.79483795 67.54811096 80.92597961 C67.55874539 79.10962178 67.56739222 77.2932514 67.57423019 75.47687531 C67.58609757 72.60184548 67.60556527 69.72696062 67.62734985 66.85198975 C67.68873739 58.68311351 67.74313294 50.51425832 67.77636719 42.34521484 C67.79728529 37.33677756 67.83255022 32.32861557 67.87712479 27.32033539 C67.89129082 25.41457093 67.90000858 23.50875789 67.90317917 21.60294342 C67.90807619 18.94365945 67.93119754 16.28511145 67.95849609 13.62597656 C67.95398689 12.44612938 67.95398689 12.44612938 67.9493866 11.2424469 C67.99841067 8.03411823 68.16416841 5.69951567 69.71353149 2.85540771 C73.90742537 -1.03921393 80.33659523 0.08890792 85.6875 0.0625 C86.72068359 0.041875 87.75386719 0.02125 88.81835938 0 C94.41578208 -0.02872314 98.57778875 0.07241634 103.375 3.3125 C107.57495733 7.94693567 107.52763203 12.49297637 107.53613281 18.47729492 C107.54109772 19.31034653 107.54606262 20.14339813 107.55117798 21.00169373 C107.56581032 23.76546047 107.57260806 26.52916957 107.578125 29.29296875 C107.58388137 31.22333273 107.58963904 33.1536967 107.59539795 35.08406067 C107.60591495 39.14189927 107.61175113 43.19971805 107.61523438 47.25756836 C107.62068055 52.4159994 107.64462154 57.5741613 107.67320633 62.73250866 C107.6919994 66.72810072 107.69704737 70.72363059 107.69857025 74.71926308 C107.70156658 76.61794802 107.70949076 78.51663269 107.72275543 80.41527367 C107.85441315 100.73265429 106.23201142 121.08461325 91.34375 136.40234375 C75.84169413 151.05833671 56.29245509 152.10737092 35.9609375 151.6328125 C19.66858018 150.99254174 4.27517592 147.02673567 -7.625 135.3125 C-21.53185066 119.69445482 -21.94605838 99.26058095 -21.9609375 79.54296875 C-21.96737409 77.53282071 -21.97410307 75.5226736 -21.98110962 73.51252747 C-21.99302788 69.31928329 -21.99679554 65.12612122 -21.99560547 60.93286133 C-21.99540135 55.56506954 -22.02282384 50.19780163 -22.05714989 44.83013439 C-22.07938809 40.6873991 -22.08344413 36.5447912 -22.08238602 32.40200233 C-22.08474197 30.42248015 -22.09356516 28.44295445 -22.10905075 26.46349144 C-22.12867002 23.69948695 -22.12289125 20.9366308 -22.11083984 18.17260742 C-22.12207886 17.36054337 -22.13331787 16.54847931 -22.14489746 15.71180725 C-22.08675646 10.45810862 -21.09132144 7.48738629 -17.625 3.3125 C-12.2478878 -0.64125897 -6.39532464 -0.10017739 0 0 Z " fill="#004A96" transform="translate(384.625,188.6875)"/>
<path d="M0 0 C1.11568359 -0.020625 2.23136719 -0.04125 3.38085938 -0.0625 C14.50962885 -0.11527425 14.50962885 -0.11527425 19.6875 3.25 C22.64921325 7.91862302 24.80474184 12.69234206 26.734375 17.87109375 C27.01863846 18.6194751 27.30290192 19.36785645 27.59577942 20.13891602 C28.54883515 22.65295343 29.49321358 25.17015692 30.4375 27.6875 C31.12058901 29.49568408 31.80411531 31.30370301 32.48803711 33.11157227 C34.44662456 38.29550472 36.39618144 43.48279464 38.34368896 48.67089844 C39.78471461 52.50892105 41.22742438 56.34630781 42.67041016 60.18359375 C46.90160637 71.43679799 51.12766366 82.69193024 55.34863281 93.94897461 C55.59801416 94.61382464 55.84739552 95.27867468 56.10433388 95.96367168 C57.32039243 99.20727642 58.53336174 102.45197588 59.73971558 105.69920349 C61.77577413 111.17417737 63.82642887 116.63765862 65.99169922 122.06298828 C66.32991196 122.92714859 66.66812469 123.7913089 67.0165863 124.68165588 C67.61815338 126.21434754 68.2340834 127.74154115 68.86927795 129.26060486 C70.84360768 134.35172492 71.35403985 138.96230434 69.6875 144.25 C67.06877252 147.33624026 65.49811952 148.11342789 61.52124023 148.78344727 C54.49259996 148.84916279 54.49259996 148.84916279 52.13989258 148.82641602 C50.12609824 148.81250759 48.11692079 148.84669343 46.10351562 148.88476562 C44.83056641 148.88283203 43.55761719 148.88089844 42.24609375 148.87890625 C41.08392334 148.87963135 39.92175293 148.88035645 38.72436523 148.88110352 C35.6875 148.25 35.6875 148.25 31.6875 143.25 C29.3775 136.65 27.0675 130.05 24.6875 123.25 C8.1875 123.25 -8.3125 123.25 -25.3125 123.25 C-27.9525 130.51 -30.5925 137.77 -33.3125 145.25 C-37.50054574 149.43804574 -40.51303647 148.6976623 -46.23632812 148.7578125 C-47.51958984 148.75523437 -48.80285156 148.75265625 -50.125 148.75 C-51.39666016 148.77835938 -52.66832031 148.80671875 -53.97851562 148.8359375 C-64.43062647 148.8578382 -64.43062647 148.8578382 -68.19921875 146.28125 C-71.03194769 142.21803806 -70.95521023 139.00103178 -70.3125 134.25 C-68.96832565 129.422808 -67.19227154 124.77167295 -65.3984375 120.09765625 C-64.87408268 118.69879004 -64.35103382 117.29943372 -63.82919312 115.89962769 C-62.42426944 112.14256992 -61.00119544 108.39264447 -59.57377625 104.64408493 C-58.08881607 100.737503 -56.61796208 96.82561533 -55.14550781 92.91430664 C-53.33710807 88.11413522 -51.52622774 83.31493594 -49.70703125 78.5188446 C-45.97868794 68.6881493 -42.29941218 58.84093048 -38.66476822 48.97522926 C-37.17866674 44.94782539 -35.68194266 40.92436166 -34.18414879 36.90129375 C-33.00948185 33.7444971 -31.84059474 30.58582718 -30.6852417 27.42190552 C-29.40594172 23.92968752 -28.10432227 20.44660298 -26.796875 16.96484375 C-26.42911957 15.94413788 -26.06136414 14.92343201 -25.6824646 13.87179565 C-23.47189421 8.06729462 -21.60663463 4.62433622 -16.3125 1.25 C-11.31832015 -0.72333653 -5.28751517 0.02418532 0 0 Z M-0.3125 44.25 C-4.03009917 52.87084099 -6.865587 61.77643701 -9.74121094 70.70263672 C-10.5700442 73.27339958 -11.40576866 75.84185265 -12.2421875 78.41015625 C-12.7712406 80.04413902 -13.29990108 81.67824899 -13.828125 83.3125 C-14.07806213 84.08013672 -14.32799927 84.84777344 -14.58551025 85.63867188 C-15.86051503 89.36863603 -15.86051503 89.36863603 -16.3125 93.25 C-5.7525 93.25 4.8075 93.25 15.6875 93.25 C13.81859163 86.39733597 11.92478368 79.6206938 9.76953125 72.86328125 C9.50742355 72.03539597 9.24531586 71.20751068 8.9752655 70.35453796 C8.15222994 67.7565356 7.32617687 65.1595049 6.5 62.5625 C5.93534522 60.78196498 5.37089048 59.00136651 4.80664062 57.22070312 C3.43589879 52.89640048 2.06245331 48.57296532 0.6875 44.25 C0.3575 44.25 0.0275 44.25 -0.3125 44.25 Z " fill="#004996" transform="translate(468.3125,5.75)"/>
<path d="M0 0 C1.01390305 -0.00525696 2.02780609 -0.01051392 3.07243347 -0.01593018 C6.40977578 -0.02908814 9.74663757 -0.02040673 13.08398438 -0.01025391 C15.41133719 -0.01227584 17.73868939 -0.01518828 20.06604004 -0.01895142 C24.93813116 -0.02336909 29.81005702 -0.01696147 34.68212891 -0.00292969 C40.91975307 0.01416164 47.15698995 0.00431751 53.39459991 -0.01364708 C58.19878037 -0.02449983 63.00286937 -0.02103168 67.80705261 -0.0132637 C70.10670518 -0.01126583 72.40636612 -0.01370643 74.70600891 -0.02070236 C77.92271853 -0.02834117 81.13880537 -0.01667799 84.35546875 0 C85.30113205 -0.00607269 86.24679535 -0.01214539 87.22111511 -0.0184021 C92.79586923 0.03500659 96.77346211 0.6590231 101.67773438 3.38818359 C105.62813401 8.54867324 106.28997161 12.6324561 106.11523438 19.01318359 C106.12232422 19.75052734 106.12941406 20.48787109 106.13671875 21.24755859 C106.08378884 25.7913878 105.51011233 28.80272632 102.67773438 32.38818359 C98.79280275 34.97813801 95.57206201 34.64043902 91.07226562 34.58349609 C90.23306076 34.5806662 89.3938559 34.5778363 88.52922058 34.57492065 C85.84941334 34.56372744 83.16994057 34.5386246 80.49023438 34.51318359 C78.67318191 34.50315267 76.85612421 34.49402702 75.0390625 34.48583984 C70.58515763 34.46379094 66.13150271 34.4292671 61.67773438 34.38818359 C61.68772713 36.32257797 61.68772713 36.32257797 61.69792175 38.29605103 C61.75873869 50.44969146 61.80370992 62.60330102 61.83317089 74.7570591 C61.84882623 81.00542163 61.87006245 87.2536613 61.90405273 93.50195312 C61.93665035 99.53197818 61.95458838 105.56188506 61.9623661 111.59199142 C61.96790885 113.89248896 61.9787324 116.19298004 61.99492455 118.49342728 C62.01670372 121.71581242 62.01970103 124.93770934 62.01831055 128.16015625 C62.02909637 129.1110614 62.0398822 130.06196655 62.05099487 131.04168701 C62.02085949 137.49639877 61.06886995 141.86985995 56.47460938 146.70849609 C52.98026268 148.80705626 49.90685569 149.13879221 45.92773438 149.26318359 C44.86365356 149.30886475 44.86365356 149.30886475 43.77807617 149.35546875 C36.70109935 149.56744633 31.21434117 149.50202259 25.67773438 144.88818359 C23.09368195 141.65811806 22.55270583 140.16233535 22.55747986 136.12350464 C22.55610519 135.22885498 22.55473053 134.33420532 22.55331421 133.41244507 C22.55870712 131.93646347 22.55870712 131.93646347 22.56420898 130.43066406 C22.56406296 129.39649353 22.56391693 128.362323 22.56376648 127.29681396 C22.56446514 123.86631193 22.57225537 120.43586368 22.58007812 117.00537109 C22.58194247 114.63168365 22.5833663 112.25799583 22.58436584 109.88430786 C22.58818971 103.62728824 22.59801891 97.37029172 22.60906982 91.11328125 C22.61928674 84.73226229 22.62386407 78.35123962 22.62890625 71.97021484 C22.63964127 59.44286122 22.65652477 46.91552363 22.67773438 34.38818359 C21.55278564 34.40913086 20.42783691 34.43007813 19.26879883 34.45166016 C15.08500964 34.52419882 10.90127576 34.5700335 6.71704102 34.60791016 C4.90802658 34.62799412 3.09907681 34.655267 1.2902832 34.68994141 C-1.31380184 34.73860252 -3.91702677 34.7611841 -6.52148438 34.77880859 C-7.72958015 34.80977631 -7.72958015 34.80977631 -8.96208191 34.84136963 C-12.95193292 34.84295486 -14.85589931 34.68468845 -18.30981445 32.48876953 C-22.20261773 28.42548197 -21.57459187 24.5056824 -21.63476562 19.13818359 C-21.66376953 18.29126953 -21.69277344 17.44435547 -21.72265625 16.57177734 C-21.77852668 11.04490203 -21.26721207 7.59442698 -17.32226562 3.38818359 C-11.49313211 0.21399847 -6.55796537 -0.04211278 0 0 Z " fill="#004A95" transform="translate(699.322265625,5.61181640625)"/>
<path d="M0 0 C0.83402344 -0.02900391 1.66804687 -0.05800781 2.52734375 -0.08789062 C8.457336 -0.14840075 12.03365368 0.60765435 16.75 4.3125 C19.96164414 10.09833922 20.16564665 15.03396267 20.09057617 21.56225586 C20.09123329 23.07071579 20.09123329 23.07071579 20.09190369 24.60964966 C20.08982268 27.9157489 20.06652369 31.22133368 20.04296875 34.52734375 C20.03737036 36.82662173 20.03310141 39.12590331 20.03010559 41.42518616 C20.01867603 47.46357176 19.98922486 53.50173933 19.95599365 59.54003906 C19.92525218 65.70700125 19.91159153 71.87399882 19.89648438 78.04101562 C19.86435354 90.13160597 19.81317985 102.22203482 19.75 114.3125 C20.40066437 114.30805878 21.05132874 114.30361755 21.72171021 114.29904175 C28.50260214 114.25474539 35.28345287 114.2246073 42.06445312 114.20263672 C44.59409251 114.19258818 47.12372031 114.17894712 49.65332031 114.16162109 C53.29234683 114.1373228 56.93121957 114.12600525 60.5703125 114.1171875 C61.69865509 114.10686493 62.82699768 114.09654236 63.98953247 114.08590698 C76.01945877 114.08419363 76.01945877 114.08419363 80.59765625 117.8203125 C82.45547061 121.83822966 82.22218558 125.81711704 82.1875 130.1875 C82.20748047 131.07308594 82.22746094 131.95867187 82.24804688 132.87109375 C82.24386186 138.48737913 81.63733205 141.95376916 77.75 146.3125 C73.94570511 149.01081609 69.66386948 148.60802455 65.18945312 148.60302734 C64.32722641 148.60974457 63.46499969 148.61646179 62.5766449 148.62338257 C59.72812125 148.64237199 56.87983299 148.6462869 54.03125 148.6484375 C52.05114647 148.65486355 50.0710439 148.66159176 48.09094238 148.66860962 C43.94162798 148.68058387 39.79239687 148.68429017 35.64306641 148.68310547 C30.32307599 148.68290199 25.00361805 148.71023318 19.68375397 148.74464989 C15.59512878 148.76686987 11.50663289 148.77094456 7.41795349 148.76988602 C5.45631572 148.77224826 3.49467471 148.78110668 1.53309631 148.79655075 C-1.20813526 148.81611658 -3.94820338 148.81041054 -6.68945312 148.79833984 C-7.50100357 148.80957886 -8.31255402 148.82081787 -9.1486969 148.83239746 C-12.67807892 148.79284525 -14.82002714 148.62210487 -17.72253418 146.53213501 C-20.28234788 142.812345 -20.37638576 139.41539063 -20.39044189 134.97451782 C-20.39615204 133.89226425 -20.40186218 132.81001068 -20.40774536 131.69496155 C-20.40886322 130.51252365 -20.40998108 129.33008575 -20.41113281 128.11181641 C-20.41609772 126.86265945 -20.42106262 125.6135025 -20.42617798 124.32649231 C-20.43827574 120.90286615 -20.44574169 117.47930098 -20.45018864 114.05566072 C-20.45312305 111.91548558 -20.45722852 109.77531575 -20.46169281 107.63514328 C-20.47535993 100.93531623 -20.48503086 94.23550137 -20.4888947 87.53566134 C-20.49337602 79.80827525 -20.51093049 72.08106599 -20.5398953 64.35373366 C-20.56152364 58.37568572 -20.57159957 52.39768749 -20.57293582 46.41960084 C-20.57398287 42.85129578 -20.57986946 39.28315713 -20.59775543 35.71489334 C-20.61732321 31.73386191 -20.61294252 27.75305102 -20.60644531 23.77197266 C-20.6156601 22.59358322 -20.62487488 21.41519379 -20.6343689 20.20109558 C-20.58285438 10.1381111 -20.58285438 10.1381111 -17.25 5.3125 C-11.71302973 0.1908025 -7.1727818 0.08163257 0 0 Z " fill="#004A96" transform="translate(611.25,188.6875)"/>
<path d="M0 0 C4.74671269 4.03242809 9.09078303 8.43453426 13.4609375 12.8671875 C14.74038441 14.14834793 16.02072423 15.4286172 17.3019104 16.70803833 C19.97399414 19.38176921 22.63739427 22.06376127 25.29443359 24.75244141 C28.69362115 28.19138435 32.11027311 31.61231275 35.53313255 35.02767754 C38.17442559 37.66589631 40.80805003 40.31166092 43.43925858 42.95993423 C44.69639328 44.2240777 45.95546514 45.48629792 47.21653366 46.74651718 C48.97793868 48.50972729 50.72920033 50.2824304 52.47802734 52.05810547 C52.99544495 52.57259247 53.51286255 53.08707947 54.04595947 53.61715698 C58.84043228 58.52520086 61.42841866 63.02659998 61.4375 69.9375 C61.45683594 70.91589844 61.47617188 71.89429688 61.49609375 72.90234375 C60.41188913 79.67221983 56.02702021 84.41632479 51.31689453 89.07128906 C50.76024109 89.63319946 50.20358765 90.19510986 49.63006592 90.77404785 C47.80507301 92.61214443 45.96944578 94.4391651 44.1328125 96.265625 C42.85209049 97.54837022 41.5718139 98.8315603 40.29196167 100.11517334 C37.61534128 102.79620381 34.93340287 105.47176567 32.24755859 108.14355469 C28.81207876 111.56192637 25.39026729 114.99361436 21.97232246 118.42950821 C19.33371665 121.07897255 16.68798493 123.72122799 14.04006577 126.36138153 C12.77563377 127.62381815 11.51341027 128.8884709 10.25348282 130.15540314 C8.4901278 131.9264084 6.71738502 133.68746115 4.94189453 135.44628906 C4.42740753 135.96684875 3.91292053 136.48740845 3.38284302 137.02374268 C-1.55860052 141.87996093 -6.02577648 144.42948612 -13 144.375 C-18.70426583 144.19894241 -22.49652097 143.50347903 -26.65234375 139.34765625 C-30.74821732 134.7891899 -32.16818144 131.52501127 -32.375 125.3125 C-32.42398438 124.31863281 -32.47296875 123.32476562 -32.5234375 122.30078125 C-31.13531718 113.54733593 -23.80930715 107.40606275 -17.76171875 101.46875 C-16.44056816 100.15396667 -16.44056816 100.15396667 -15.09272766 98.81262207 C-12.29799136 96.03458117 -9.4929697 93.26719688 -6.6875 90.5 C-4.78166234 88.61092496 -2.87810694 86.71955761 -0.97460938 84.828125 C3.67571627 80.2107474 8.33451525 75.60205736 13 71 C11.56726841 67.71603603 9.81342216 65.58744126 7.25634766 63.09277344 C6.48860016 62.33808777 5.72085266 61.5834021 4.92984009 60.80584717 C3.68453018 59.59484344 3.68453018 59.59484344 2.4140625 58.359375 C0.66117996 56.63179282 -1.09141519 54.90391901 -2.84375 53.17578125 C-5.60712104 50.46196641 -8.37354186 47.75142293 -11.14550781 45.04638672 C-13.82207285 42.43045739 -16.48587772 39.8020475 -19.1484375 37.171875 C-19.97459564 36.37263611 -20.80075378 35.57339722 -21.65194702 34.74993896 C-26.8161386 29.63083102 -30.95870858 24.83894249 -32.53125 17.53125 C-32.43418787 11.22221169 -30.89879329 6.20821504 -26.609375 1.4609375 C-18.46046119 -5.87308493 -8.90449531 -5.49333148 0 0 Z " fill="#004996" transform="translate(117,193)"/>
<path d="M0 0 C6.06669758 3.90110369 10.95197498 9.24632561 15.9899292 14.35955811 C17.22071024 15.59205365 18.45238571 16.82365659 19.68490601 18.05441284 C22.2526651 20.62381698 24.81174986 23.20145475 27.36444092 25.78582764 C30.62561971 29.08676446 33.90425481 32.36967158 37.18910789 35.64703178 C39.72921775 38.1840634 42.26164575 40.72864958 44.79167557 43.27573013 C45.99775099 44.48880044 47.20574908 45.69996248 48.41575241 46.90911484 C50.10739547 48.60256855 51.78886459 50.30552574 53.46795654 52.01141357 C53.96150635 52.50203278 54.45505615 52.99265198 54.96356201 53.49813843 C59.79527065 58.44848442 63.47110173 63.62190501 63.5289917 70.74237061 C63.56250732 71.68854248 63.59602295 72.63471436 63.6305542 73.60955811 C61.31787883 83.97929605 51.54428308 91.66761845 44.2789917 98.89080811 C43.04596945 100.12585517 41.8133925 101.36134695 40.58123779 102.59725952 C38.01072029 105.17217615 35.43491581 107.74164852 32.85516357 110.30731201 C29.55648307 113.58884803 26.27152901 116.88374473 22.99038696 120.18280602 C20.45300854 122.7310414 17.90850812 125.27206846 15.36181641 127.81099319 C14.1476247 129.023191 12.93563724 130.237601 11.72595215 131.45429611 C10.03465716 133.15324298 8.33398437 134.84222365 6.6305542 136.5289917 C6.13791077 137.02770782 5.64526733 137.52642395 5.13769531 138.04025269 C0.26039068 142.82991482 -4.224718 145.29605256 -11.0960083 145.24237061 C-16.80139446 145.06627844 -20.62799502 144.38789481 -24.74835205 140.17987061 C-28.84275137 135.55560784 -30.27091774 132.97282827 -30.4085083 126.67987061 C-30.46458252 125.01891357 -30.46458252 125.01891357 -30.52178955 123.32440186 C-29.44476828 114.57977964 -22.7198125 109.09247126 -16.7366333 103.21502686 C-15.38006622 101.86482704 -15.38006622 101.86482704 -13.99609375 100.48735046 C-11.60781159 98.11295727 -9.21325387 95.74528295 -6.81530762 93.38067627 C-4.36301431 90.95924928 -1.91935 88.52914721 0.52508545 86.09979248 C5.31019593 81.34767259 10.10377836 76.6042317 14.9039917 71.86737061 C13.45599594 68.53183856 11.64638102 66.38477201 9.05267334 63.85247803 C8.2616774 63.07454391 7.47068146 62.2966098 6.65571594 61.49510193 C5.8004985 60.66275528 4.94528107 59.83040863 4.06414795 58.97283936 C2.2611375 57.19512452 0.45841197 55.41712068 -1.34405518 53.63885498 C-4.18876796 50.84375214 -7.03647738 48.05197107 -9.88970947 45.26556396 C-12.64311804 42.57266987 -15.38387208 39.86739164 -18.12335205 37.16033936 C-18.97654526 36.3340654 -19.82973846 35.50779144 -20.70878601 34.65647888 C-25.84040653 29.56852398 -29.32456244 25.53774552 -30.52960205 18.24237061 C-30.54063761 11.53274976 -29.44735924 7.40699969 -24.7053833 2.39862061 C-17.01175507 -4.56613758 -8.81235561 -4.55843337 0 0 Z " fill="#004996" transform="translate(32.09600830078125,192.13262939453125)"/>
<path d="M0 0 C0.78632812 -0.020625 1.57265625 -0.04125 2.3828125 -0.0625 C7.77433133 -0.09832405 11.46987329 0.71862184 16.25 3.25 C19.76025596 6.99427302 20.37447167 10.4187971 20.39044189 15.42976379 C20.39615204 16.50222855 20.40186218 17.5746933 20.40774536 18.67965698 C20.40886322 19.85633942 20.40998108 21.03302185 20.41113281 22.24536133 C20.41858017 24.10424736 20.41858017 24.10424736 20.42617798 26.00068665 C20.43828823 29.4016456 20.44574524 32.80254305 20.45018864 36.20351624 C20.45312097 38.32911268 20.4572261 40.45470374 20.46169281 42.58029747 C20.47536575 49.23314158 20.48503324 55.88597339 20.4888947 62.53883058 C20.49337429 70.21415682 20.51091829 77.88930486 20.5398953 85.56457692 C20.56152503 91.50014224 20.57159968 97.43565747 20.57293582 103.37126178 C20.57398298 106.91498999 20.57987164 110.45855066 20.59775543 114.00223732 C20.61732576 117.95703481 20.61294196 121.91161034 20.60644531 125.86645508 C20.62026749 127.62236969 20.62026749 127.62236969 20.6343689 129.41375732 C20.59805712 136.46155844 19.94171564 141.05192201 15.27734375 146.59375 C10.58142147 149.16287393 6.07619255 148.8292029 0.8125 148.75 C-0.21166016 148.76546875 -1.23582031 148.7809375 -2.29101562 148.796875 C-8.3778877 148.76535722 -12.20466465 148.44796825 -16.75 144.25 C-21.28672104 136.80068437 -19.89895724 125.892347 -19.89526367 117.46386719 C-19.89862228 116.34209076 -19.9019809 115.22031433 -19.90544128 114.06454468 C-19.91486675 110.39197658 -19.9168896 106.71945441 -19.91796875 103.046875 C-19.92118526 100.47861716 -19.92454962 97.91035951 -19.92805481 95.34210205 C-19.93402362 89.97610978 -19.93593992 84.61013555 -19.93530273 79.24414062 C-19.93470047 73.05524851 -19.94529184 66.86644312 -19.9610464 60.67757297 C-19.97572095 54.69801635 -19.97929032 48.71850677 -19.97869301 42.73892975 C-19.97987191 40.20482273 -19.98428862 37.67071505 -19.99202538 35.13661957 C-20.00182701 31.59719099 -19.99894725 28.05798691 -19.99291992 24.51855469 C-19.99853943 23.47631744 -20.00415894 22.4340802 -20.00994873 21.36026001 C-19.95644927 8.99115982 -19.95644927 8.99115982 -16.34765625 4.5078125 C-10.83309648 0.43854448 -6.68847922 0.04301273 0 0 Z " fill="#004996" transform="translate(540.75,188.75)"/>
<path d="M0 0 C1.12148438 -0.02191406 2.24296875 -0.04382813 3.3984375 -0.06640625 C8.20962784 0.87136814 10.11296786 3.42487045 12.87890625 7.33520508 C14.27800232 9.44728177 15.61269905 11.5905585 16.9375 13.75 C17.44240967 14.56082031 17.94731934 15.37164062 18.4675293 16.20703125 C20.19498431 18.987142 21.91081154 21.77419077 23.625 24.5625 C24.28628906 25.63580566 24.94757812 26.70911133 25.62890625 27.81494141 C28.39950493 32.31198557 31.16971236 36.80920928 33.92895508 41.31323242 C34.88644653 42.87521362 34.88644653 42.87521362 35.86328125 44.46875 C36.42055908 45.37947266 36.97783691 46.29019531 37.55200195 47.22851562 C40.53801861 52.03089974 43.58267193 56.79564957 46.625 61.5625 C46.63086624 60.84253342 46.63673248 60.12256683 46.64277649 59.38078308 C46.70066863 52.59736974 46.77272514 45.81423902 46.86071491 39.03115368 C46.90545208 35.5438232 46.94470032 32.05661043 46.97143555 28.5690918 C47.00240851 24.56008213 47.05719816 20.55170633 47.11328125 16.54296875 C47.12286613 14.66317574 47.12286613 14.66317574 47.13264465 12.7454071 C47.15243881 11.58443008 47.17223297 10.42345306 47.19262695 9.22729492 C47.20373001 8.20359299 47.21483307 7.17989105 47.22627258 6.12516785 C47.625 3.5625 47.625 3.5625 48.90592957 1.73188782 C51.34025784 0.07594995 53.71452048 0.19730323 56.58984375 0.1640625 C59.42591594 0.7193012 60.59767183 1.47051241 62.625 3.5625 C63.0173001 6.30247519 63.15183693 8.64239998 63.11083984 11.3828125 C63.11463654 12.17822449 63.11843323 12.97363647 63.12234497 13.79315186 C63.12976042 16.42500112 63.10835492 19.0557487 63.0859375 21.6875 C63.08355355 23.51448436 63.08264765 25.34147119 63.0831604 27.16845703 C63.0800307 30.99852838 63.06345249 34.82822584 63.03662109 38.65820312 C63.00264098 43.5712796 62.99499242 48.48394503 62.99651146 53.39712524 C62.99596797 57.17004328 62.9850042 60.94287119 62.97050858 64.71575928 C62.96413761 66.52747922 62.96020098 68.3392094 62.95872116 70.15093994 C62.9543913 72.68153324 62.93689731 75.21168819 62.91552734 77.7421875 C62.91643372 78.4934491 62.91734009 79.24471069 62.91827393 80.01873779 C62.87220817 83.74370085 62.74592122 85.38111817 60.625 88.5625 C57.54296875 89.03125 57.54296875 89.03125 53.8125 89.0625 C52.58917969 89.0934375 51.36585938 89.124375 50.10546875 89.15625 C45.59722586 88.38716704 44.44637475 87.13193156 41.625 83.5625 C39.70940322 80.69334695 37.97316624 77.73782145 36.25 74.75 C35.19868876 72.96232025 34.14520159 71.17591883 33.08984375 69.390625 C32.25428955 67.97620117 32.25428955 67.97620117 31.40185547 66.53320312 C28.27793427 61.31035713 25.04536223 56.15587874 21.8125 51 C21.20293457 50.02635498 20.59336914 49.05270996 19.96533203 48.04956055 C15.88025203 41.53573901 11.75542371 35.04763575 7.625 28.5625 C7.61913376 29.26993851 7.61326752 29.97737701 7.60722351 30.70625305 C7.54932899 37.37194932 7.47727147 44.03732418 7.38928509 50.70269489 C7.34454972 54.12949079 7.30530112 57.55616695 7.27856445 60.9831543 C7.24758953 64.9226231 7.19279902 68.86158651 7.13671875 72.80078125 C7.13032883 74.03210281 7.1239389 75.26342438 7.11735535 76.53205872 C7.09756119 77.67301498 7.07776703 78.81397125 7.05737305 79.98950195 C7.04626999 80.995439 7.03516693 82.00137604 7.02372742 83.03779602 C6.56512436 85.94162683 5.9754543 86.85050678 3.625 88.5625 C1.25 89.03125 1.25 89.03125 -1.375 89.0625 C-2.24125 89.0934375 -3.1075 89.124375 -4 89.15625 C-6.375 88.5625 -6.375 88.5625 -7.99917603 86.51014709 C-9.69436626 82.87827073 -9.79655065 79.73200527 -9.76318359 75.80639648 C-9.77106903 74.65914093 -9.77106903 74.65914093 -9.77911377 73.4887085 C-9.79227701 70.97012688 -9.78358987 68.45218137 -9.7734375 65.93359375 C-9.77545909 64.17912169 -9.77837124 62.42465046 -9.78213501 60.67018127 C-9.78655319 56.99756857 -9.78014286 53.32517508 -9.76611328 49.65258789 C-9.749009 44.94585727 -9.75887352 40.2396394 -9.77683067 35.53292751 C-9.78767144 31.91181067 -9.78422106 28.29081541 -9.7764473 24.6696949 C-9.77444675 22.93415326 -9.77689946 21.19860056 -9.78388596 19.46307182 C-9.79150673 17.03815331 -9.77988865 14.61406562 -9.76318359 12.18920898 C-9.76925629 11.47273697 -9.77532898 10.75626495 -9.78158569 10.01808167 C-9.74244492 6.95051646 -9.52322259 4.83269895 -8.03579712 2.12123108 C-5.50456987 -0.25443693 -3.40415323 -0.00389491 0 0 Z " fill="#F39500" transform="translate(779.375,375.4375)"/>
<path d="M0 0 C9.65494921 8.04579101 15.07353013 19.85162515 16.578125 32.1484375 C17.85022564 46.92265895 13.92740515 60.96133757 4.515625 72.3984375 C-1.40678928 78.70839231 -9.67173159 83.55803408 -18.44555664 84.32543945 C-33.657549 84.76175645 -44.87292056 83.27158677 -56.484375 72.5234375 C-65.99524543 62.7040083 -68.90426381 49.78296751 -68.77539062 36.49584961 C-68.35370856 23.0035294 -63.90316026 12.11591899 -54.72265625 2.2265625 C-39.49203089 -11.53013137 -16.5049162 -11.17618611 0 0 Z M-44.671875 13.2109375 C-51.55093741 21.90817172 -53.38306379 33.77236372 -52.1484375 44.53125 C-50.69257689 53.29388272 -47.53204783 61.45158867 -40.30078125 66.96484375 C-34.36218267 70.70579047 -28.40440634 72.15419946 -21.421875 71.1484375 C-13.74808828 69.27706927 -8.68694654 65.80059152 -4.421875 59.1484375 C1.17523866 49.38255373 1.20394516 36.48951321 -1.1875 25.69140625 C-2.09975796 23.04513415 -3.13020685 20.62861975 -4.421875 18.1484375 C-4.999375 17.0346875 -5.576875 15.9209375 -6.171875 14.7734375 C-10.3924408 9.84944407 -15.95696746 6.41700085 -22.49609375 5.91015625 C-31.85894497 5.71783822 -38.02917242 6.37092693 -44.671875 13.2109375 Z " fill="#F39500" transform="translate(366.421875,381.8515625)"/>
<path d="M0 0 C10.22265823 7.70631159 15.32978111 19.30829783 17.28515625 31.72265625 C18.51637942 46.48046818 15.71750351 60.1454034 6.5390625 71.97265625 C0.44524739 78.66191691 -8.56729616 84.09749375 -17.73852539 84.8996582 C-33.08051088 85.33970372 -44.00957334 83.75929634 -55.5859375 72.98046875 C-64.38789451 63.85671977 -67.63763499 51.29964719 -68.02734375 38.91015625 C-67.76830505 26.29820937 -64.10769083 13.73821308 -55.44140625 4.31640625 C-40.02620546 -9.91300987 -17.49661118 -11.28545285 0 0 Z M-44.5859375 15.1015625 C-51.66719557 26.22440191 -52.51178117 39.35060541 -50.0625 52.125 C-47.74274825 59.22363948 -43.89500828 65.27961307 -37.35546875 69.1015625 C-29.8371944 72.45209781 -23.37563537 72.85712351 -15.58984375 70.22265625 C-8.61783761 67.12639265 -4.52025024 61.9866716 -1.33984375 55.16015625 C2.7890822 43.5240922 2.05942166 31.33108352 -2.85546875 20.12109375 C-6.36012785 13.31140803 -10.68703633 9.78221179 -17.71484375 6.72265625 C-28.35795026 5.19714432 -37.67427211 6.31407978 -44.5859375 15.1015625 Z " fill="#F39500" transform="translate(736.71484375,381.27734375)"/>
<path d="M0 0 C4.42899364 4.5455461 6.83960784 9.51392148 7.25 15.875 C7 19 7 19 6 20 C3.88115293 20.20429655 1.7527973 20.31393738 -0.375 20.375 C-1.53773438 20.42398437 -2.70046875 20.47296875 -3.8984375 20.5234375 C-7 20 -7 20 -8.80078125 17.671875 C-9.19652344 16.79015625 -9.59226562 15.9084375 -10 15 C-12.7605008 10.24051585 -14.78377002 7.90593018 -20 6 C-27.26506637 4.45170717 -33.03334129 5.67778043 -40 8 C-41.38516784 11.95762241 -42.24935794 14.62853131 -41.5 18.75 C-38.16379993 23.75430011 -33.01572293 25.55012041 -27.38671875 26.9296875 C-25.5140332 27.41115234 -25.5140332 27.41115234 -23.60351562 27.90234375 C-21.0065249 28.55134781 -18.40688457 29.18822551 -15.80664062 29.82421875 C-6.48914685 32.23151771 1.52889229 34.86725315 7 43.1875 C10.75456255 49.79709448 11.22812282 57.18368703 9.3515625 64.54296875 C6.75401917 70.99242462 2.72136484 76.11351459 -3.53515625 79.28515625 C-16.45426499 84.5935971 -33.51233433 85.69306155 -46.5859375 80.32421875 C-53.50974875 76.52620578 -58.53121493 71.60273585 -61 64 C-62.77947292 56.51138479 -62.77947292 56.51138479 -60.84765625 52.765625 C-58.36489151 50.39308871 -56.89133697 50.46353401 -53.5 50.5 C-52.5409375 50.4896875 -51.581875 50.479375 -50.59375 50.46875 C-48 51 -48 51 -46.23046875 52.78515625 C-45.07394593 54.86689732 -44.41571773 56.6470868 -43.8125 58.9375 C-42.29612768 63.26077427 -39.93242024 64.87463589 -36.03515625 67.08984375 C-29.41244743 70.05163099 -21.32921426 70.07699153 -14.5 67.75 C-10.346769 65.71786106 -10.346769 65.71786106 -8 62 C-7.18625501 58.55723271 -6.88606703 55.81651964 -7.375 52.3125 C-12.47239567 45.05851385 -25.81308293 43.73603368 -33.84960938 41.64453125 C-43.37310971 39.08874063 -51.32843525 36.50734713 -57 28 C-60.04282642 21.63772657 -59.7723188 14.89160436 -57.75 8.25 C-54.73517143 0.30682153 -49.45973255 -3.33109736 -42 -7 C-27.75438039 -12.43548958 -11.6494777 -9.38164905 0 0 Z " fill="#F39500" transform="translate(921,383)"/>
<path d="M0 0 C5.3662465 4.24683594 8.3347643 8.78734562 10.56640625 15.2265625 C10.89105677 18.09769056 10.04420415 19.86454117 8.81640625 22.4375 C6.69168049 22.49136629 4.56656973 22.53023071 2.44140625 22.5625 C1.25804687 22.58570313 0.0746875 22.60890625 -1.14453125 22.6328125 C-4.18359375 22.4375 -4.18359375 22.4375 -6.18359375 20.4375 C-6.61671875 19.32375 -7.04984375 18.21 -7.49609375 17.0625 C-9.54400867 12.66327536 -11.88965905 10.58446735 -16.18359375 8.4375 C-18.59609067 8.26146853 -21.0151027 8.17005032 -23.43359375 8.125 C-24.738125 8.08761719 -26.04265625 8.05023438 -27.38671875 8.01171875 C-31.73281983 8.49909017 -33.8258964 9.6953805 -37.18359375 12.4375 C-38.75294969 15.57621188 -38.53560478 17.97605822 -38.18359375 21.4375 C-34.00969279 27.26281395 -28.24693427 28.26037655 -21.55859375 30 C5.07990028 37.18472524 5.07990028 37.18472524 11.81640625 47.5 C14.18245903 54.33526359 14.20122133 63.43074093 11.12890625 70 C6.74719695 77.1756215 0.16791916 82.08881295 -7.80078125 84.55859375 C-12.68640836 85.69205924 -17.49685701 85.82154266 -22.49609375 85.8125 C-23.42236572 85.81088867 -24.3486377 85.80927734 -25.30297852 85.80761719 C-36.2169736 85.61202244 -44.8874576 82.60753767 -52.80859375 74.875 C-56.93828176 69.63604304 -59.85908955 62.13521259 -59.18359375 55.4375 C-57.18359375 53.4375 -57.18359375 53.4375 -54.43359375 53.20703125 C-53.36109375 53.22121094 -52.28859375 53.23539062 -51.18359375 53.25 C-50.11109375 53.25644531 -49.03859375 53.26289063 -47.93359375 53.26953125 C-45.18359375 53.4375 -45.18359375 53.4375 -43.18359375 54.4375 C-42.1484375 56.6171875 -42.1484375 56.6171875 -41.12109375 59.3125 C-40.77949219 60.19679688 -40.43789062 61.08109375 -40.0859375 61.9921875 C-39.42032155 63.79597791 -38.79159905 65.6134841 -38.18359375 67.4375 C-35.9842644 68.60263613 -35.9842644 68.60263613 -33.18359375 69.4375 C-32.13171875 69.80875 -31.07984375 70.18 -29.99609375 70.5625 C-22.05519184 72.38500208 -15.54904501 71.92639796 -8.18359375 68.4375 C-5.40730088 66.22036682 -4.70354395 64.56917904 -4.30859375 61.0625 C-4.20804687 60.31226563 -4.1075 59.56203125 -4.00390625 58.7890625 C-4.25164279 55.54694518 -5.14307858 53.96723705 -7.18359375 51.4375 C-10.07147854 49.94973096 -10.07147854 49.94973096 -13.55859375 49 C-14.20127197 48.79882568 -14.8439502 48.59765137 -15.50610352 48.39038086 C-19.49869866 47.16106086 -23.52538069 46.07255026 -27.5625 45 C-28.48305176 44.75048584 -29.40360352 44.50097168 -30.35205078 44.24389648 C-32.15439094 43.7597023 -33.96131176 43.29215008 -35.77294922 42.84399414 C-43.07535446 40.89561949 -49.22599088 37.57776632 -53.62109375 31.25 C-56.60033508 25.22501643 -56.97056876 18.17645052 -55.18359375 11.75 C-52.65955023 5.37707564 -48.30539311 0.29492151 -42.24609375 -2.9375 C-28.48798986 -8.86003615 -12.59077513 -8.54646554 0 0 Z " fill="#F39500" transform="translate(274.18359375,380.5625)"/>
<path d="M0 0 C0.76183594 -0.00773437 1.52367187 -0.01546875 2.30859375 -0.0234375 C5.19153083 0.48619782 6.45176884 1.34889846 8.5625 3.375 C9.06129456 5.83914185 9.06129456 5.83914185 9.06079102 8.80517578 C9.07584435 10.47303635 9.07584435 10.47303635 9.09120178 12.17459106 C9.08301926 13.37767914 9.07483673 14.58076721 9.06640625 15.8203125 C9.07582748 17.05989716 9.08524872 18.29948181 9.09495544 19.57662964 C9.11882891 22.87770292 9.1272513 26.17828506 9.12585449 29.47943115 C9.12389789 34.10610192 9.13354629 38.7325196 9.16575623 43.35910034 C9.18248249 45.81992107 9.18546963 48.28088507 9.17274475 50.74172974 C9.18292846 61.57882951 9.18292846 61.57882951 13.97901917 70.99124146 C19.59698806 75.90062355 24.88882996 75.71875055 32.03125 75.65234375 C36.60698412 75.2929664 40.04882313 74.3893649 43.5625 71.375 C46.84768856 66.28825642 47.68342916 61.71319707 47.7043457 55.75195312 C47.71138016 54.62398315 47.71841461 53.49601318 47.72566223 52.3338623 C47.72982651 51.12025024 47.73399078 49.90663818 47.73828125 48.65625 C47.76146963 46.08983546 47.78558655 43.52342917 47.81054688 40.95703125 C47.84698131 36.90803953 47.87673732 32.85920284 47.88842773 28.81005859 C47.90044103 24.90433649 47.9440265 20.99924357 47.98828125 17.09375 C47.98637283 15.88013794 47.98446442 14.66652588 47.98249817 13.4161377 C47.99898911 12.28816772 48.01548004 11.16019775 48.0324707 9.99804688 C48.03833694 9.00639526 48.04420319 8.01474365 48.05024719 6.99304199 C48.70230162 3.66049633 49.94003069 2.46472832 52.5625 0.375 C54.81640625 -0.12109375 54.81640625 -0.12109375 57.125 -0.0625 C57.88941406 -0.06121094 58.65382813 -0.05992187 59.44140625 -0.05859375 C62.12596624 0.49018371 62.87610497 1.23286984 64.5625 3.375 C67.08317872 14.32327062 65.62851584 27.02115633 65.43041992 38.16870117 C65.37495969 41.56496842 65.34653159 44.96083284 65.31835938 48.35742188 C65.28291653 50.54429848 65.24586239 52.73114969 65.20703125 54.91796875 C65.20266556 55.91926315 65.19829987 56.92055756 65.19380188 57.95219421 C64.96433762 67.53546164 62.25970587 75.55351358 55.625 82.6171875 C44.97736797 91.69187389 31.75941598 91.12466701 18.5625 90.375 C10.12466397 89.17972431 4.24451686 85.05701686 -1.6875 79.125 C-7.33862549 70.24465995 -8.02208665 62.09718939 -7.93359375 51.72265625 C-7.93374905 50.33165918 -7.93524323 48.94066169 -7.93800354 47.54966736 C-7.93937829 44.65587896 -7.92697561 41.76259187 -7.90405273 38.86889648 C-7.8754828 35.16094945 -7.87846761 31.45382196 -7.89114285 27.74581242 C-7.89809075 24.88304121 -7.89032421 22.02045989 -7.87788582 19.15771294 C-7.87337569 17.78977625 -7.8730307 16.42181919 -7.87695122 15.05388069 C-7.87985907 13.14924876 -7.86121203 11.24462058 -7.84155273 9.34008789 C-7.83614975 8.25772354 -7.83074677 7.17535919 -7.82518005 6.06019592 C-7.4375 3.375 -7.4375 3.375 -6.04481506 1.52708435 C-3.93595981 0.01550819 -2.57776699 -0.02608196 0 0 Z " fill="#F39500" transform="translate(475.4375,375.625)"/>
<path d="M0 0 C9.50050174 5.73895724 16.19766176 13.96062477 19.33984375 24.625 C21.58888506 36.12305736 20.85674673 47.4263603 14.421875 57.4609375 C7.95679597 66.22665276 -0.0251145 72.96619255 -11 75 C-23.79363814 75.81890024 -34.81966015 75.14283934 -45.15625 66.69140625 C-53.10909841 59.39567879 -58.5356005 51.25529059 -59.23828125 40.27734375 C-59.56104205 27.67949544 -57.80411727 17.60641094 -49 8 C-36.09625783 -5.08591265 -16.55175376 -8.04962988 0 0 Z M-44.609375 20.1484375 C-48.87623311 27.3637425 -49.0676813 34.82032593 -48 43 C-45.39742826 52.25220479 -38.72989266 58.03222422 -30.8125 63 C-23.30021418 64.97043563 -14.1018481 65.48012074 -6.87109375 62.16796875 C1.36658226 57.02587036 5.94584116 51.16247651 9 42 C9.69040396 33.82833343 9.40124792 27.04476475 5 20 C4.61070313 19.37480469 4.22140625 18.74960937 3.8203125 18.10546875 C-0.9762407 11.59180627 -8.43740421 7.6966201 -16.3515625 6.48828125 C-28.24535851 6.08439356 -37.4573861 10.6008795 -44.609375 20.1484375 Z " fill="#004996" transform="translate(1173,9)"/>
<path d="M0 0 C1.93715881 -0.01418472 1.93715881 -0.01418472 3.91345215 -0.02865601 C5.32446601 -0.02328632 6.73547707 -0.01713338 8.14648438 -0.01025391 C9.59232734 -0.01227476 11.03816931 -0.01518629 12.48400879 -0.01895142 C15.51368925 -0.0233743 18.5431043 -0.01694517 21.57275391 -0.00292969 C25.45686213 0.01416255 29.34034849 0.00432112 33.2244339 -0.01364708 C36.20986621 -0.0244861 39.19515102 -0.02103811 42.18058777 -0.0132637 C43.61272759 -0.011262 45.0448808 -0.01371993 46.477005 -0.02070236 C48.47815699 -0.02831785 50.47935592 -0.01465302 52.48046875 0 C53.61947632 0.00238678 54.75848389 0.00477356 55.93200684 0.00723267 C58.74023438 0.38818359 58.74023438 0.38818359 60.60876465 1.77548218 C62.11536027 3.92285637 62.10847608 5.3479746 62.05273438 7.95068359 C62.04886719 8.73572266 62.045 9.52076172 62.04101562 10.32958984 C61.74023438 12.38818359 61.74023438 12.38818359 59.74023438 14.38818359 C57.21826172 14.61523438 57.21826172 14.61523438 54.07617188 14.58349609 C52.9546875 14.57705078 51.83320312 14.57060547 50.67773438 14.56396484 C49.50210938 14.54720703 48.32648437 14.53044922 47.11523438 14.51318359 C45.931875 14.50416016 44.74851562 14.49513672 43.52929688 14.48583984 C40.59940915 14.46221172 37.66992097 14.42926873 34.74023438 14.38818359 C34.74689621 15.25626648 34.75355804 16.12434937 34.76042175 17.01873779 C34.82053313 25.19963819 34.86620891 33.38046441 34.89567089 41.56153488 C34.91132681 45.76751883 34.93256357 49.9733203 34.96655273 54.17919922 C34.99914908 58.23812911 35.01708795 62.29688347 35.0248661 66.35593414 C35.03040914 67.90450046 35.04123338 69.45305717 35.05742455 71.00154877 C35.07920308 73.17067728 35.08220122 75.33908053 35.08081055 77.50830078 C35.08747238 78.74296082 35.09413422 79.97762085 35.10099792 81.24969482 C34.7121164 84.63279797 34.15427784 86.02624501 31.74023438 88.38818359 C29.14648438 88.95458984 29.14648438 88.95458984 26.24023438 88.95068359 C25.28117188 88.97259766 24.32210937 88.99451172 23.33398438 89.01708984 C20.74023438 88.38818359 20.74023438 88.38818359 19.09941101 86.28022766 C17.4556205 82.7825847 17.37849444 80.34543218 17.3996582 76.48657227 C17.39900108 75.47598251 17.39900108 75.47598251 17.39833069 74.44497681 C17.40041046 72.23173416 17.42370171 70.01926164 17.44726562 67.80615234 C17.4528645 66.26630568 17.45713322 64.72645366 17.46012878 63.18659973 C17.4715547 59.14394238 17.50100215 55.10161104 17.53424072 51.05908203 C17.56499042 46.92989512 17.57864456 42.80065526 17.59375 38.67138672 C17.62587431 30.57683647 17.67704303 22.48255065 17.74023438 14.38818359 C16.99338379 14.40389404 16.2465332 14.41960449 15.47705078 14.43579102 C12.10652177 14.49799436 8.73611325 14.53712779 5.36523438 14.57568359 C4.18960938 14.60082031 3.01398437 14.62595703 1.80273438 14.65185547 C0.68125 14.66152344 -0.44023438 14.67119141 -1.59570312 14.68115234 C-2.63259277 14.69686279 -3.66948242 14.71257324 -4.73779297 14.72875977 C-5.57004395 14.61636963 -6.40229492 14.50397949 -7.25976562 14.38818359 C-9.23921498 11.41900956 -9.55327144 10.73116081 -9.57226562 7.38818359 C-9.58902344 6.70755859 -9.60578125 6.02693359 -9.62304688 5.32568359 C-8.62703045 0.01359598 -4.6913433 0.00983067 0 0 Z " fill="#F39500" transform="translate(561.259765625,375.61181640625)"/>
<path d="M0 0 C0.86625 -0.00773437 1.7325 -0.01546875 2.625 -0.0234375 C5.56923495 0.47049665 6.26049801 0.96282845 8 3.375 C8.36076355 6.43119812 8.36076355 6.43119812 8.34057617 10.2331543 C8.34123329 11.27256668 8.34123329 11.27256668 8.34190369 12.33297729 C8.33981465 14.62201168 8.31647926 16.91031242 8.29296875 19.19921875 C8.28737318 20.78676452 8.2831029 22.37431548 8.28010559 23.96186829 C8.26865368 28.13935663 8.23918373 32.31653183 8.20599365 36.49389648 C8.17530011 40.75695561 8.1616018 45.02006535 8.14648438 49.28320312 C8.11431417 57.64727908 8.06311387 66.01110058 8 74.375 C9.22630127 74.36452637 10.45260254 74.35405273 11.71606445 74.34326172 C16.26144497 74.30708896 20.80681273 74.28410943 25.35229492 74.26513672 C27.32041564 74.25507293 29.28852138 74.24142066 31.2565918 74.22412109 C34.08385918 74.19988941 36.91092905 74.18852077 39.73828125 74.1796875 C40.61962234 74.16936493 41.50096344 74.15904236 42.40901184 74.14840698 C43.22963608 74.14825592 44.05026031 74.14810486 44.89575195 74.14794922 C45.61745071 74.143508 46.33914948 74.13906677 47.0827179 74.13449097 C49 74.375 49 74.375 52 76.375 C52.9979614 80.15299672 53.40288166 82.43320786 51.84840393 86.0670166 C50 88.375 50 88.375 47.52671814 88.99645996 C46.5445784 88.99440552 45.56243866 88.99235107 44.55053711 88.99023438 C42.87881691 89.0041925 42.87881691 89.0041925 41.17332458 89.01843262 C39.97015091 89.00203735 38.76697723 88.98564209 37.52734375 88.96875 C36.29335342 88.96879028 35.0593631 88.96883057 33.78797913 88.96887207 C30.50853489 88.96213131 27.23029514 88.93208746 23.95111084 88.89318848 C21.93784328 88.8750031 19.92520504 88.87243077 17.91186523 88.87597656 C14.05423776 88.88260845 10.19739254 88.86756893 6.33984375 88.84375 C5.13464584 88.84354858 3.92944794 88.84334717 2.68772888 88.84313965 C1.57640091 88.82722778 0.46507294 88.81131592 -0.67993164 88.79492188 C-2.15194786 88.78229309 -2.15194786 88.78229309 -3.65370178 88.76940918 C-4.42798019 88.63925415 -5.20225861 88.50909912 -6 88.375 C-8.46903656 84.67144515 -8.28878952 81.83992326 -8.2746582 77.5546875 C-8.2823246 76.36156952 -8.2823246 76.36156952 -8.29014587 75.14434814 C-8.30405605 72.51282242 -8.30308424 69.88155813 -8.30078125 67.25 C-8.30466702 65.42301333 -8.30900145 63.59602756 -8.31376648 61.76904297 C-8.32123148 57.93909781 -8.32093512 54.10924484 -8.31567383 50.27929688 C-8.30987478 45.3661766 -8.32681929 40.45343276 -8.3500185 35.54037476 C-8.36473359 31.76747423 -8.36563066 27.99466486 -8.36250877 24.22174072 C-8.36302297 22.41000624 -8.36827917 20.59826679 -8.37832069 18.78656006 C-8.39062668 16.25589348 -8.38392928 13.72596681 -8.37231445 11.1953125 C-8.37995819 10.4440509 -8.38760193 9.69278931 -8.39547729 8.91876221 C-8.34409924 3.86652561 -8.34409924 3.86652561 -6.62516785 1.41113281 C-4.35901241 -0.03366442 -2.67012593 -0.02384041 0 0 Z " fill="#F39500" transform="translate(406,375.625)"/>
<path d="M0 0 C0.86625 -0.00773437 1.7325 -0.01546875 2.625 -0.0234375 C5 0.375 5 0.375 6.62417603 1.41113281 C8.75255624 4.44920755 8.41710212 7.6177596 8.38818359 11.1953125 C8.39344055 11.99072449 8.39869751 12.78613647 8.40411377 13.60565186 C8.41732747 16.23730046 8.40857103 18.86834515 8.3984375 21.5 C8.40045785 23.32698686 8.40336895 25.15397294 8.40713501 26.98095703 C8.41156021 30.81095046 8.40512102 34.64073407 8.39111328 38.47070312 C8.37402125 43.38384705 8.38386139 48.29649936 8.40183067 53.20962524 C8.41266323 56.98254104 8.40922461 60.75533999 8.4014473 64.52825928 C8.39944382 66.33998675 8.40190971 68.15172479 8.40888596 69.96343994 C8.41649181 72.4941423 8.40490887 75.02404483 8.38818359 77.5546875 C8.39729263 78.6815799 8.39729263 78.6815799 8.40658569 79.83123779 C8.34469878 84.87723154 8.34469878 84.87723154 6.64004517 87.33886719 C4.22556221 88.86426726 2.2666787 88.77260329 -0.5625 88.75 C-1.53316406 88.75773437 -2.50382813 88.76546875 -3.50390625 88.7734375 C-4.32761719 88.64195312 -5.15132812 88.51046875 -6 88.375 C-8.46903656 84.67144515 -8.28878952 81.83992326 -8.2746582 77.5546875 C-8.2823246 76.36156952 -8.2823246 76.36156952 -8.29014587 75.14434814 C-8.30405605 72.51282242 -8.30308424 69.88155813 -8.30078125 67.25 C-8.30466702 65.42301333 -8.30900145 63.59602756 -8.31376648 61.76904297 C-8.32123148 57.93909781 -8.32093512 54.10924484 -8.31567383 50.27929688 C-8.30987478 45.3661766 -8.32681929 40.45343276 -8.3500185 35.54037476 C-8.36473359 31.76747423 -8.36563066 27.99466486 -8.36250877 24.22174072 C-8.36302297 22.41000624 -8.36827917 20.59826679 -8.37832069 18.78656006 C-8.39062668 16.25589348 -8.38392928 13.72596681 -8.37231445 11.1953125 C-8.37995819 10.4440509 -8.38760193 9.69278931 -8.39547729 8.91876221 C-8.34409924 3.86652561 -8.34409924 3.86652561 -6.62516785 1.41113281 C-4.35901241 -0.03366442 -2.67012593 -0.02384041 0 0 Z " fill="#F39500" transform="translate(645,375.625)"/>
<path d="M0 0 C5.26550388 2.0251938 5.26550388 2.0251938 7.25 5.25 C7.98259731 9.74663175 7.76113781 13.20642698 5.75 17.3125 C5.0075 18.2715625 5.0075 18.2715625 4.25 19.25 C4.74113281 19.78109375 5.23226563 20.3121875 5.73828125 20.859375 C7.68009777 23.93015462 7.55491694 25.89921396 7.4375 29.5 C7.41042969 30.57765625 7.38335938 31.6553125 7.35546875 32.765625 C7.32066406 33.58546875 7.28585937 34.4053125 7.25 35.25 C4.28 35.25 1.31 35.25 -1.75 35.25 C-2.41 31.29 -3.07 27.33 -3.75 23.25 C-6.72 22.92 -9.69 22.59 -12.75 22.25 C-12.75 26.21 -12.75 30.17 -12.75 34.25 C-19.375 35.375 -19.375 35.375 -22.75 34.25 C-22.75 23.03 -22.75 11.81 -22.75 0.25 C-17.05499853 -2.59750074 -6.17229646 -1.32598764 0 0 Z M-12.75 8.25 C-12.75 10.23 -12.75 12.21 -12.75 14.25 C-9.78 14.25 -6.81 14.25 -3.75 14.25 C-3.42 12.6 -3.09 10.95 -2.75 9.25 C-6.561969 6.70868733 -8.54185016 7.08913108 -12.75 8.25 Z " fill="#004996" transform="translate(1161.75,25.75)"/>
</svg>
