<?xml version="1.0" encoding="UTF-8"?>
<svg version="1.1" xmlns="http://www.w3.org/2000/svg" width="2848" height="1281">
<path d="M0 0 C134.31 0 268.62 0 514 34 C514.54060059 34.42394043 515.08120117 34.84788086 515.63818359 35.28466797 C545.88341905 59.25837473 560.76936039 93.20949462 565.60546875 130.94921875 C565.74252187 132.29892784 565.87330767 133.64927899 566 135 C566.0832166 135.82432274 566.1664332 136.64864548 566.25217152 137.49794769 C567.3680077 150.41109434 567.14806833 163.36036222 567.14526367 176.31054688 C567.14771933 179.07491182 567.15163528 181.83927432 567.15544128 184.6036377 C567.16370386 191.30810476 567.16649414 198.01256302 567.16705366 204.71703476 C567.167531 210.17513238 567.16959657 215.63322714 567.17275429 221.09132385 C567.18154956 236.61302472 567.18617553 252.1347187 567.18542381 267.65642208 C567.18536388 268.90833885 567.18536388 268.90833885 567.18530273 270.18554688 C567.18524141 271.43901699 567.18524141 271.43901699 567.18517885 272.71780974 C567.1847729 286.24297564 567.19433259 299.76811364 567.2084411 313.29327148 C567.22285934 327.22687581 567.22970827 341.16046658 567.22884732 355.09407854 C567.22851719 362.89813448 567.23118305 370.70216117 567.24202538 378.50621033 C567.25120253 385.15361156 567.25324727 391.80097029 567.24651595 398.44837517 C567.24328641 401.82939088 567.2441837 405.21026003 567.2518692 408.59127808 C567.29353159 428.20666849 567.04470406 447.94225623 562.8125 467.1875 C562.59891846 468.17814453 562.38533691 469.16878906 562.1652832 470.18945312 C556.53972296 495.02886413 545.48758055 516.48373824 528 535 C527.26394531 535.81210937 526.52789063 536.62421875 525.76953125 537.4609375 C506.05224581 558.40023225 478.24571013 569.01144315 451 576 C451.28496338 576.58450928 451.56992676 577.16901855 451.86352539 577.77124023 C458.17510831 590.74775482 464.31106586 603.78718362 470.25 616.9375 C475.39996549 628.34036514 480.64781383 639.69064167 486 651 C491.58474171 662.80297701 497.05091964 674.65298327 502.42724609 686.55224609 C507.1874851 697.08186472 512.05794407 707.55456232 517 718 C522.5798881 729.79354792 528.04778561 741.63138604 533.41314697 753.52404785 C537.02770959 761.53344425 540.69468045 769.51376526 544.4609375 777.453125 C545.01609039 778.62464111 545.01609039 778.62464111 545.5824585 779.81982422 C547.37562137 783.60062849 549.17586179 787.37784256 550.98632812 791.15039062 C551.63426936 792.51164509 552.28206362 793.87296953 552.9296875 795.234375 C553.49929199 796.42256836 554.06889648 797.61076172 554.65576172 798.83496094 C556.84725352 803.99487733 557.29621525 807.10446395 555.53149414 812.46557617 C555.18208771 813.54685287 554.83268127 814.62812958 554.47268677 815.74217224 C554.0808017 816.91393509 553.68891663 818.08569794 553.28515625 819.29296875 C552.6682089 821.18620634 552.05126254 823.07944424 551.43435669 824.97269535 C550.77402536 826.99140137 550.10786656 829.00809669 549.43991089 831.02429199 C548.05521721 835.20416817 546.68640201 839.38912811 545.32055664 843.57519531 C543.92549551 847.84838295 542.52945658 852.12123543 541.12773132 856.39224243 C537.01578651 868.9219241 532.97510712 881.4736545 528.96408081 894.03604126 C527.95783517 897.18633584 526.94906479 900.33581191 525.93969727 903.48510742 C525.32298882 905.41191762 524.70636598 907.33875521 524.08984375 909.265625 C523.81880829 910.11093277 523.54777283 910.95624054 523.26852417 911.8271637 C521.44576274 917.5345838 519.72228942 923.25903527 518 929 C475.43 929 432.86 929 389 929 C382.73 914.15 376.46 899.3 370 884 C366.24514569 875.11590315 366.24514569 875.11590315 362.48999023 866.23193359 C352.23035769 841.95660382 342.04867554 817.64903798 331.88537598 793.33325195 C329.27862549 787.09680192 326.67112513 780.86066614 324.0625 774.625 C323.69277069 773.74116638 323.32304138 772.85733276 322.94210815 771.94671631 C316.76064344 757.17354188 310.53848381 742.41778171 304.30252075 727.6675415 C298.50655029 713.95685023 292.74062699 700.23395086 287 686.5 C279.65002582 668.91686694 272.2497204 651.35537492 264.83082581 633.80122375 C264.25134438 632.43008675 264.25134438 632.43008675 263.66015625 631.03125 C263.27580917 630.1218718 262.8914621 629.21249359 262.49546814 628.27555847 C258.25898974 618.24992108 254.03489339 608.21907591 249.8125 598.1875 C249.46185486 597.35447357 249.11120972 596.52144714 248.74993896 595.66317749 C246.83297363 591.10891912 244.91642596 586.55448542 243 582 C225.675 581.505 225.675 581.505 208 581 C208 695.84 208 810.68 208 929 C139.36 929 70.72 929 0 929 C0 622.43 0 315.86 0 0 Z M208 154 C208 246.07 208 338.14 208 433 C284.53840567 444.74163787 284.53840567 444.74163787 349 425 C355.84390539 417.01035152 357.30477117 408.76083102 357.26742554 398.54560852 C357.27422221 397.16478971 357.27422221 397.16478971 357.28115618 395.75607556 C357.29376202 392.68799921 357.29218227 389.62010125 357.29052734 386.55200195 C357.29651503 384.34533969 357.30332113 382.13867952 357.31088257 379.93202209 C357.32852666 373.94833148 357.33323732 367.96469809 357.33451414 361.98098397 C357.33593735 358.23866639 357.34021022 354.49636328 357.34550858 350.7540493 C357.36305073 338.36088107 357.37234947 325.96774062 357.37084763 313.57456145 C357.37072776 312.5738779 357.37072776 312.5738779 357.37060547 311.55297852 C357.37048283 310.55106118 357.37048283 310.55106118 357.37035771 309.52890309 C357.36954546 298.71316882 357.38867069 287.89757403 357.4168822 277.08188007 C357.44567615 265.95432591 357.45905342 254.82682919 357.45769465 243.69923562 C357.45718586 237.46084259 357.4628233 231.22260743 357.48405075 224.98424721 C357.503484 219.11299233 357.50352265 213.24204507 357.48901749 207.37077904 C357.48693452 205.22346418 357.4915995 203.07612982 357.5037384 200.92884827 C357.78770665 181.23523342 357.78770665 181.23523342 349.25 163.9375 C342.84823014 157.47656406 337.05103418 156.01134093 328 154 C288.4 154 248.8 154 208 154 Z " fill="#005DA8" transform="translate(604,352)"/>
<path d="M0 0 C2.28143391 -0.00463552 4.56286705 -0.00966115 6.84429932 -0.01504517 C13.01882527 -0.02810649 19.19334037 -0.03460264 25.36787796 -0.03905582 C29.23897697 -0.04199866 33.11007311 -0.04610583 36.98117065 -0.05056 C47.74229345 -0.06266067 58.50341244 -0.07304368 69.26454163 -0.07643509 C69.95143269 -0.07665466 70.63832375 -0.07687422 71.3460297 -0.07710044 C72.03438736 -0.07731872 72.72274503 -0.077537 73.43196201 -0.07776189 C74.82638613 -0.07820532 76.22081026 -0.07865189 77.61523438 -0.07910156 C78.65271594 -0.07943371 78.65271594 -0.07943371 79.71115673 -0.07977256 C90.87859914 -0.0837072 102.04597577 -0.10112351 113.21339285 -0.12446108 C124.73551979 -0.14834117 136.25760457 -0.16038809 147.7797575 -0.16180301 C154.2259012 -0.16284258 160.6719521 -0.1685663 167.11807251 -0.18662262 C214.38687365 -0.31138904 263.0812793 0.08848647 305.41796875 24.16113281 C307.13886719 25.13373047 307.13886719 25.13373047 308.89453125 26.12597656 C340.21054835 44.64423024 359.11608546 73.4469447 368.41796875 108.16113281 C372.14787195 124.10608737 373.57237474 139.73253064 373.53149414 156.07568359 C373.53118731 157.6888828 373.53132215 159.30208215 373.5318594 160.9152813 C373.53208385 165.20968137 373.5263157 169.50405321 373.51924896 173.79844666 C373.51352622 177.83788129 373.51328433 181.87730929 373.51257324 185.91674805 C373.50733962 197.70654666 373.49337837 209.4963401 373.48046875 221.28613281 C373.45984375 247.64488281 373.43921875 274.00363281 373.41796875 301.16113281 C304.44796875 301.16113281 235.47796875 301.16113281 164.41796875 301.16113281 C164.10546875 239.53613281 164.10546875 239.53613281 164.0300293 220.14697266 C163.99342375 214.36322226 163.99342375 214.36322226 163.95295715 208.57949829 C163.93690905 206.02264149 163.92655251 203.4657448 163.92085266 200.90884399 C163.91102805 197.01404796 163.88259185 193.1197645 163.8503418 189.22509766 C163.85176776 188.10442587 163.85319372 186.98375408 163.8546629 185.82912254 C163.72016251 174.35488928 162.77628115 162.66426746 154.41796875 154.16113281 C153.57234375 153.25363281 152.72671875 152.34613281 151.85546875 151.41113281 C142.04824524 143.94622465 128.77249914 144.56537607 117.10546875 144.62988281 C115.36157008 144.62717997 113.61767288 144.62329101 111.8737793 144.61828613 C108.23959846 144.61242825 104.60581401 144.62083294 100.97167969 144.63964844 C96.34887626 144.6624359 91.72700225 144.64929268 87.10423279 144.62535858 C83.50933014 144.61079934 79.91464233 144.61555255 76.31973267 144.62586975 C74.61674892 144.62850918 72.91374468 144.62536716 71.21078491 144.61595154 C58.83943646 144.56253599 46.02974207 145.03748137 36.06640625 153.40332031 C28.21980477 161.77054938 27.10969795 172.36183312 27.16628647 183.34555721 C27.16192615 184.83312295 27.16192615 184.83312295 27.15747774 186.35074052 C27.1501852 189.67024482 27.15711774 192.98956385 27.16400146 196.30906677 C27.16169674 198.71446692 27.15852014 201.11986636 27.15454698 203.52526432 C27.14793624 208.75327695 27.14753603 213.98125202 27.1526413 219.20926476 C27.16021245 226.98361301 27.15633555 234.75792646 27.15022468 242.53227448 C27.13969609 256.41826876 27.14060487 270.30424464 27.14638251 284.19024067 C27.15141403 296.34274667 27.15272683 308.49524593 27.15033722 320.64775276 C27.15018445 321.45392303 27.15003168 322.2600933 27.14987428 323.09069297 C27.1492516 326.36322902 27.1486148 329.63576506 27.14795475 332.90830111 C27.14183683 363.60702372 27.14738345 394.30573462 27.15814855 425.00445542 C27.16763884 452.27519336 27.16679125 479.54591262 27.15722656 506.81665039 C27.14651569 537.45779252 27.14227162 568.09892428 27.14845109 598.74006802 C27.14909252 602.00694438 27.1497182 605.27382074 27.15033722 608.5406971 C27.15057445 609.74727309 27.15057445 609.74727309 27.15081648 610.97822436 C27.15309084 623.12205128 27.15043192 635.2658707 27.14537811 647.40969658 C27.13965968 661.21938106 27.14108905 675.02904426 27.1519396 688.8387261 C27.15781111 696.56627515 27.15819706 704.29377812 27.15064725 712.02132598 C27.14563215 717.79113633 27.15107387 723.56089903 27.1605964 729.33070195 C27.16283197 731.66504959 27.16169063 733.9994034 27.15684482 736.33374708 C27.15076398 739.50620832 27.15700106 742.67841908 27.16628647 745.85086727 C27.16160414 746.7573579 27.1569218 747.66384853 27.15209758 748.59780857 C27.2130619 759.01839442 28.60540483 769.34856889 36.23046875 776.97363281 C48.07038009 785.09906216 62.77450512 784.47114351 76.640625 784.42675781 C78.1588904 784.42811049 79.67715537 784.43005598 81.19541931 784.43255615 C84.35273426 784.43547826 87.50993484 784.43130437 90.66723633 784.421875 C94.67659374 784.41047234 98.68568348 784.41706375 102.69503117 784.42901993 C105.82236177 784.43630966 108.94963079 784.43391846 112.07696342 784.42876434 C113.55386831 784.42744793 115.03077914 784.42900343 116.50767708 784.43372345 C137.82145736 784.7213646 137.82145736 784.7213646 156.29296875 775.53613281 C162.18397668 766.17982609 163.56096376 757.0391413 163.57618713 746.13781738 C163.5835941 744.98825318 163.5835941 744.98825318 163.5911507 743.81546545 C163.60640193 741.26988262 163.61485242 738.72432475 163.62329102 736.17871094 C163.63287929 734.34503971 163.64288992 732.51137066 163.65328979 730.67770386 C163.68024204 725.71553984 163.70130381 720.75336642 163.72129178 715.79117012 C163.74321128 710.59949162 163.77057071 705.40784183 163.79734802 700.21618652 C163.84719445 690.39207935 163.89216304 680.56795618 163.93537039 670.74381781 C163.98481169 659.55640174 164.0397042 648.36901449 164.09504998 637.18162632 C164.2087464 614.17482075 164.31489263 591.16798859 164.41796875 568.16113281 C140.32796875 568.16113281 116.23796875 568.16113281 91.41796875 568.16113281 C91.41796875 522.29113281 91.41796875 476.42113281 91.41796875 429.16113281 C184.47796875 429.16113281 277.53796875 429.16113281 373.41796875 429.16113281 C373.5389628 518.32478308 373.5389628 518.32478308 373.56445312 555.65136719 C373.57032602 564.19392921 373.57638727 572.73649107 373.58276367 581.27905273 C373.58395054 582.88487989 373.58395054 582.88487989 373.58516139 584.523148 C373.59818054 601.76703471 373.62181601 619.01089116 373.64942714 636.25475997 C373.67756204 653.9745936 373.69416204 671.69441148 373.70023423 689.41426653 C373.70433397 700.33298742 373.71724426 711.2516228 373.74171815 722.17031734 C373.75767534 729.67540629 373.76234673 737.18045154 373.75847288 744.68555618 C373.75656673 749.0043073 373.75931912 753.32290984 373.77558517 757.64163399 C373.85455847 779.70421873 373.62915529 801.66298579 367.66796875 823.09863281 C367.41265381 824.04335449 367.15733887 824.98807617 366.89428711 825.96142578 C364.51343828 834.43066091 361.33324214 842.29616606 357.41796875 850.16113281 C356.86238281 851.29808594 356.30679688 852.43503906 355.734375 853.60644531 C339.59341408 885.14282624 310.89667484 905.81541965 277.88623047 917.02050781 C245.62162369 927.43359499 212.1825861 929.31666199 178.52978516 929.30639648 C176.52627501 929.30939888 174.52276544 929.31280384 172.51925659 929.3165741 C167.1384298 929.32531019 161.75761896 929.32774782 156.37678576 929.32838988 C152.99609625 929.32910653 149.61541066 929.33125235 146.23472214 929.3338871 C134.38645933 929.3431074 122.53820768 929.34722632 110.68994141 929.34643555 C99.73379824 929.34583622 88.77770453 929.35636814 77.82157385 929.37217921 C68.34307079 929.38535888 58.86458369 929.39061509 49.38607156 929.38998014 C43.75713565 929.38972812 38.12824376 929.392412 32.49931717 929.40315819 C-29.9747927 929.51396755 -96.91493337 928.41003605 -144.58203125 882.16113281 C-178.12353529 848.73509006 -183.62257677 801.01352032 -183.71444302 755.96321538 C-183.71582104 752.51730337 -183.71246989 749.07141383 -183.70901489 745.62550354 C-183.71016932 743.09470613 -183.711759 740.56390889 -183.71374214 738.03311199 C-183.71702865 732.56490988 -183.71726174 727.09672131 -183.71469498 721.62851906 C-183.71088838 713.49659795 -183.71285866 705.36468508 -183.71590328 697.23276401 C-183.72115143 682.70285448 -183.72071966 668.17294936 -183.71782437 653.64303942 C-183.71530307 640.92660139 -183.71465478 628.21016496 -183.71584702 615.49372673 C-183.7159234 614.64831857 -183.71599979 613.8029104 -183.71607849 612.93188381 C-183.71638985 609.49958745 -183.71670826 606.0672911 -183.71703825 602.63499474 C-183.72009338 570.47424036 -183.71732998 538.31348879 -183.71194135 506.15273484 C-183.70719661 477.61801639 -183.70762046 449.0833024 -183.71240234 420.54858398 C-183.71776423 388.44598397 -183.71987623 356.34338642 -183.71679008 324.24078602 C-183.71646939 320.81464223 -183.71615655 317.38849845 -183.71584702 313.96235466 C-183.71576794 313.11882931 -183.71568886 312.27530395 -183.71560739 311.40621722 C-183.71447286 298.70256396 -183.71579469 285.99891249 -183.71832657 273.29525948 C-183.72119311 258.84094301 -183.72045555 244.38663162 -183.71504582 229.93231577 C-183.71212235 221.85599332 -183.71189921 213.77968189 -183.715692 205.70335974 C-183.71821773 199.65484333 -183.71545334 193.606341 -183.71071742 187.55782544 C-183.70960805 185.1246877 -183.71015121 182.69154848 -183.71259321 180.25841171 C-183.72295764 169.0656887 -183.66312841 157.89212978 -183.14831352 146.70956326 C-183.1111396 145.89371801 -183.07396568 145.07787276 -183.03566528 144.23730493 C-181.83770676 121.2713445 -176.80252655 98.81812944 -166.58203125 78.16113281 C-166.03804687 77.03449219 -165.4940625 75.90785156 -164.93359375 74.74707031 C-160.70769934 66.43416066 -155.46212693 59.34154233 -149.58203125 52.16113281 C-148.98519531 51.40960938 -148.38835938 50.65808594 -147.7734375 49.88378906 C-143.05176407 44.16569535 -137.42865161 39.68549298 -131.58203125 35.16113281 C-130.73898438 34.49082031 -129.8959375 33.82050781 -129.02734375 33.12988281 C-102.01412593 12.43890746 -67.73328642 4.85474218 -34.58203125 1.16113281 C-33.86626545 1.07839143 -33.15049965 0.99565004 -32.41304398 0.91040134 C-21.63202686 -0.16648571 -10.82188329 0.00514164 0 0 Z " fill="#005DA8" transform="translate(2474.58203125,351.8388671875)"/>
<path d="M0 0 C6.19943677 0.00770645 12.3988616 0.00052104 18.59829903 -0.0041585 C29.00030128 -0.00958459 39.4022392 -0.00250783 49.80423164 0.01186323 C61.75354244 0.02818355 73.70269955 0.0228928 85.65200663 0.00638402 C95.9943377 -0.00732134 106.33662308 -0.00910671 116.67896032 -0.00129998 C122.81968604 0.00332724 128.96034004 0.00414058 135.10106087 -0.00590944 C187.89612053 -0.08042135 247.91371978 0.81247085 290.24514961 37.40297651 C291.24417305 38.25375776 292.24319649 39.10453901 293.27249336 39.98110151 C323.77151985 66.5765215 336.12369851 104.43973186 339.04167175 143.8581214 C339.37491539 149.66366899 339.37584955 155.45783042 339.358675 161.27138472 C339.35836772 162.62462915 339.35850377 163.97787374 339.35904026 165.33111811 C339.35926343 168.91261827 339.35352274 172.49408414 339.34642982 176.07557631 C339.3406796 179.45241085 339.34046373 182.82923759 339.3397541 186.2060771 C339.33453387 196.04254801 339.32057262 205.87901271 339.30764961 215.71547651 C339.28702461 237.72235151 339.26639961 259.72922651 339.24514961 282.40297651 C269.94514961 282.40297651 200.64514961 282.40297651 129.24514961 282.40297651 C128.75014961 232.40797651 128.75014961 232.40797651 128.24514961 181.40297651 C124.6341207 169.23100577 124.6341207 169.23100577 115.88186836 160.80141401 C105.64680984 155.35757262 95.48882086 155.08947634 84.13186836 155.10219526 C82.67132129 155.09829822 81.21077533 155.09396151 79.75023079 155.08921003 C76.70007836 155.08178441 73.65004174 155.08201188 70.59988594 155.08730268 C66.72359183 155.09308578 62.84777736 155.07617683 58.97156239 155.05295801 C55.95748896 155.03810336 52.94352785 155.03736487 49.92942429 155.04046774 C48.50192314 155.03996018 47.07441474 155.03483075 45.64694977 155.02465582 C33.4028307 154.94808773 20.61021804 155.55715941 11.24514961 164.40297651 C5.14636773 172.23302551 3.00297733 180.29266549 2.97772408 190.1110301 C2.97092741 191.2100838 2.97092741 191.2100838 2.96399343 192.33134061 C2.95142743 194.76373234 2.95296471 197.19589791 2.95462227 199.62831831 C2.94863205 201.38178495 2.94182537 203.13524896 2.93426704 204.88870955 C2.916648 209.63690534 2.91191333 214.38502897 2.91063547 219.13325429 C2.90921075 222.10502872 2.90493504 225.07678499 2.89964104 228.0485549 C2.88115282 238.43127427 2.87296873 248.8139424 2.87454414 259.19667768 C2.87574453 268.84990419 2.85465918 278.50290674 2.82305682 288.15607661 C2.79683574 296.46381397 2.78617932 304.77147845 2.78745496 313.07925683 C2.78796297 318.03216533 2.78236951 322.98487476 2.76109886 327.93774176 C2.7416185 332.60084 2.74165847 337.26355133 2.75613213 341.92666388 C2.75820937 343.62891412 2.75358472 345.33118921 2.74141121 347.0333972 C2.66203553 358.91072313 2.79240829 371.11551108 11.24514961 380.40297651 C22.49941478 387.48899532 35.9632111 387.84875952 48.89749336 387.80361128 C50.41064681 387.80937126 51.92379568 387.81646109 53.43693733 387.82475996 C56.66756635 387.83974596 59.89803149 387.84565833 63.12869453 387.84423208 C68.26070265 387.84217508 73.39249552 387.86192337 78.52444649 387.88440657 C88.50783697 387.92519846 98.49120982 387.943923 108.47466469 387.96057844 C121.15195862 387.98299123 133.82920116 388.01699908 146.50641346 388.06777757 C150.7613722 388.08424513 155.0162499 388.09637798 159.27124214 388.09801626 C202.37459375 388.11488779 202.37459375 388.11488779 223.30764961 392.15297651 C224.64823433 392.40676069 224.64823433 392.40676069 226.01590157 392.66567183 C260.7665329 399.52863962 293.78479252 414.07692884 314.99514961 443.65297651 C316.45273643 445.88865355 317.86833957 448.11965605 319.24514961 450.40297651 C319.61591621 451.01028608 319.98668282 451.61759565 320.36868477 452.24330854 C339.92089871 484.89142378 342.57704871 522.8402785 342.50393867 559.97158003 C342.50665754 562.33333649 342.51022343 564.6950921 342.51455879 567.05684614 C342.5235782 573.3976898 342.52018238 579.73846746 342.51380062 586.07931209 C342.51075631 590.05578889 342.51092762 594.03225647 342.51278114 598.00873327 C342.51308761 598.67367788 342.51339408 599.33862249 342.51370983 600.02371694 C342.51434943 601.37550657 342.51499786 602.7272962 342.51565501 604.07908582 C342.52132595 616.68462442 342.51485145 629.2901337 342.50405428 641.89566749 C342.49511966 652.65910481 342.49667641 663.42249895 342.5058918 674.1859355 C342.51664854 686.7551106 342.52077909 699.32426017 342.51466727 711.89343923 C342.51403033 713.23930466 342.51340158 714.58517009 342.51278114 715.93103552 C342.51247259 716.59283393 342.51216404 717.25463234 342.51184614 717.93648525 C342.51013547 722.55009904 342.5130992 727.16369568 342.51774025 731.77730703 C342.52357515 738.01150253 342.51940605 744.24561758 342.50795174 750.47980452 C342.50533778 752.74912524 342.50601327 755.0184529 342.51047707 757.28777075 C342.54383089 775.98768477 341.8902122 794.72618013 338.05764961 813.09047651 C337.84406807 814.12809126 337.63048653 815.16570601 337.41043282 816.23476362 C330.05258215 850.16538374 311.32132962 880.61216375 282.09231758 899.81752729 C234.83013582 929.82282763 178.36216633 929.74268401 124.28396797 929.67162752 C119.088735 929.66645419 113.89350797 929.6712896 108.69827461 929.67439985 C99.98471979 929.67800731 91.2711992 929.6733262 82.55764961 929.6637187 C72.5783126 929.65284048 62.5990574 929.65636836 52.61972237 929.66737151 C43.94942732 929.67653745 35.27915645 929.67768486 26.60885811 929.67249417 C21.47523858 929.66942491 16.3416571 929.66882179 11.20804024 929.67556715 C-51.8391697 929.74689869 -117.06075834 927.86808846 -165.31735039 881.96547651 C-166.12172539 881.11985151 -166.92610039 880.27422651 -167.75485039 879.40297651 C-168.75258476 878.38010542 -168.75258476 878.38010542 -169.77047539 877.33657026 C-175.83458538 870.91150135 -180.43814705 864.09681327 -184.75485039 856.40297651 C-185.65010429 854.81742964 -185.65010429 854.81742964 -186.56344414 853.19985151 C-203.44513418 821.46678604 -205.09998515 786.27469048 -204.95741081 751.12277174 C-204.94581108 747.78897245 -204.94547342 744.45517729 -204.94405937 741.1213603 C-204.93366655 731.44438095 -204.9057445 721.7674268 -204.87985039 712.09047651 C-204.83860039 690.41360151 -204.79735039 668.73672651 -204.75485039 646.40297651 C-135.45485039 646.40297651 -66.15485039 646.40297651 5.24514961 646.40297651 C5.57514961 679.73297651 5.90514961 713.06297651 6.24514961 747.40297651 C9.21774582 757.31163055 11.84591702 764.33351683 20.97500801 769.29051924 C30.15422305 773.78868999 39.38438029 773.84781326 49.40139961 773.80141401 C50.95498986 773.80343995 52.50857918 773.8063557 54.06216621 773.81011152 C57.30310391 773.81451046 60.54379194 773.80818295 63.78470039 773.79408979 C67.91340452 773.77699919 72.04152335 773.78685353 76.17020607 773.80480719 C79.37379455 773.81571124 82.57724707 773.81216856 85.78083992 773.80442381 C87.30209105 773.80244004 88.82335503 773.80481604 90.34459114 773.81186247 C101.9908113 773.85398572 112.91982002 773.10389385 122.24514961 765.40297651 C132.14656483 755.34439598 131.68709077 742.70636567 131.64920235 729.49159956 C131.65491261 727.68857607 131.6618794 725.88555619 131.67000008 724.08254194 C131.68787615 719.20839719 131.68677332 714.33443303 131.68105769 709.4602654 C131.67795715 705.38006696 131.68406805 701.29990277 131.69009644 697.21970922 C131.70412245 687.58716556 131.70259699 677.95471062 131.69119453 668.32216597 C131.67972093 658.41100018 131.6937807 648.50010523 131.72059101 638.58897513 C131.742802 630.05613757 131.74937307 621.52338469 131.7435146 612.9905203 C131.74015603 607.90463432 131.74248633 602.81892182 131.75976562 597.73306036 C131.77531849 592.94680547 131.77118735 588.16094922 131.75246048 583.37470961 C131.74879728 581.6273126 131.75181613 579.8798855 131.76234627 578.13251638 C131.82947316 566.06346222 131.71858779 553.91254775 123.24514961 544.40297651 C112.2585744 536.70043193 98.65172103 537.10675913 85.79153633 537.13173628 C84.27531851 537.12733793 82.7591031 537.12203179 81.24289131 537.11589766 C77.99862256 537.10447405 74.75441845 537.09894382 71.51012993 537.09801626 C66.35201177 537.09605513 61.19402435 537.07788652 56.03595161 537.05725813 C43.21525878 537.00832629 30.39453043 536.97735476 17.57376289 536.95595503 C7.61931702 536.93930822 -2.33501583 536.91613112 -12.28938663 536.87293428 C-16.56352711 536.85496299 -20.83751473 536.84251095 -25.11169624 536.84423208 C-72.31527536 536.85761527 -122.37357475 532.47411314 -159.75485039 500.40297651 C-160.61981133 499.69914839 -161.48477226 498.99532026 -162.37594414 498.27016401 C-191.65966373 473.50920298 -203.29108679 434.34424667 -207.04631329 397.54694414 C-207.96745048 386.13659776 -207.90308765 374.73948116 -207.90011406 363.29921675 C-207.90311115 360.98642628 -207.90651494 358.67363632 -207.91029167 356.360847 C-207.91908067 350.11252871 -207.92146765 343.86422415 -207.92210746 337.61590028 C-207.92282095 333.70162758 -207.92496093 329.7873583 -207.92760468 325.87308645 C-207.93636628 312.89184541 -207.94102648 299.91061402 -207.9402742 286.92937016 C-207.94023425 286.23189805 -207.94019429 285.53442594 -207.94015312 284.81581831 C-207.94011224 284.11747753 -207.94007136 283.41913676 -207.94002924 282.69963414 C-207.93962334 271.39827541 -207.94918282 260.09695008 -207.96329149 248.795601 C-207.97772123 237.14349616 -207.98455805 225.49140753 -207.98369771 213.83929354 C-207.98344416 207.316855 -207.98621565 200.7944543 -207.99687576 194.27202368 C-208.00664129 188.1298836 -208.00657869 181.98781688 -207.99935913 175.84567404 C-207.99832366 173.60818959 -208.00061342 171.37070037 -208.00671959 169.13322401 C-208.05145318 151.58671521 -207.45688213 133.97563521 -204.00485039 116.71547651 C-203.83566093 115.85792768 -203.66647148 115.00037886 -203.49215508 114.1168437 C-196.36888537 79.81633897 -177.48764634 48.52319637 -147.94186211 29.10805464 C-103.0831883 0.94124074 -51.20673659 -0.08380594 0 0 Z " fill="#005DA8" transform="translate(207.75485038757324,351.59702348709106)"/>
<path d="M0 0 C2 1 2 1 2.86038208 3.20956421 C3.15024994 4.19921173 3.4401178 5.18885925 3.73876953 6.20849609 C4.07709808 7.34896896 4.41542664 8.48944183 4.76400757 9.66447449 C5.13702243 10.95077233 5.50995422 12.23709426 5.8828125 13.5234375 C6.28390625 14.88521009 6.68575309 16.24676105 7.08828735 17.60810852 C7.97024174 20.59590581 8.84739242 23.58505874 9.72106934 26.57528687 C11.1512343 31.46903815 12.59252082 36.35946844 14.03613281 41.24926758 C14.41168808 42.52149532 14.41168808 42.52149532 14.79483032 43.81942463 C15.31349423 45.57641668 15.8321867 47.33340031 16.35090637 49.0903759 C17.16268543 51.8412507 17.97346323 54.59241909 18.78405762 57.34364319 C25.02847837 78.5295862 31.36565491 99.68773051 37.70162964 120.84643555 C39.76445161 127.735202 41.82587963 134.62438504 43.88696289 141.51367188 C44.39881055 143.22453885 44.39881055 143.22453885 44.92099857 144.9699688 C45.60855703 147.26816455 46.29611203 149.56636134 46.98366356 151.86455917 C48.00923292 155.2924725 49.03491005 158.72035356 50.06062317 162.14822388 C56.29843553 182.99483849 62.53073584 203.84309846 68.76078033 224.69203568 C69.56143211 227.37142631 70.3621044 230.05081081 71.16278076 232.73019409 C74.77554138 244.82002357 78.38789474 256.9099747 82 269 C82.25020149 269.83744247 82.50040298 270.67488495 82.75818634 271.53770447 C93.91801833 308.89060752 105.07408104 346.24463397 116.22390747 383.6005249 C122.91743446 406.02614782 129.61406451 428.45084275 136.3125 450.875 C136.55225555 451.67762268 136.79201111 452.48024536 137.03903198 453.30718994 C139.22948637 460.64008654 141.41997762 467.97297212 143.61050415 475.30584717 C146.99438943 486.63354168 150.37811877 497.96128276 153.76171875 509.2890625 C154.116976 510.4784096 154.116976 510.4784096 154.47941017 511.69178391 C155.67478281 515.69371219 156.87015265 519.69564131 158.06552124 523.6975708 C160.22068538 530.91275879 162.37587428 538.12793938 164.53106117 545.34312057 C165.72904178 549.35374675 166.92702081 553.3643734 168.125 557.375 C168.60416666 558.97916667 169.08333333 560.58333334 169.5625 562.1875 C205.140625 681.296875 205.140625 681.296875 333.4375 1110.8125 C333.67469316 1111.60658138 333.91188633 1112.40066277 334.15626717 1113.21880722 C334.63537679 1114.8227831 335.11448624 1116.42675903 335.5935955 1118.03073502 C336.79238337 1122.0440712 337.9911744 1126.05740644 339.18997192 1130.07073975 C341.33582211 1137.25462625 343.48165166 1144.43851891 345.62735939 1151.62244797 C346.81145279 1155.58684508 347.99556521 1159.55123651 349.1796875 1163.515625 C349.53218882 1164.69578564 349.53218882 1164.69578564 349.89181137 1165.8997879 C353.18502739 1176.92521218 356.47914033 1187.95036818 359.77386475 1198.9753418 C361.62558617 1205.17168016 363.47707021 1211.36808945 365.32850266 1217.56451416 C366.83093112 1222.59280279 368.33367124 1227.62099813 369.83665657 1232.64912033 C370.76886849 1235.76804784 371.70077127 1238.88706766 372.63259506 1242.00611115 C373.05882898 1243.43259746 373.48518547 1244.85904716 373.91168594 1246.2854538 C375.07522691 1250.17697321 376.23500965 1254.06958316 377.39209747 1257.96302795 C378.05818198 1260.19495736 378.73112649 1262.42476908 379.4039917 1264.65466309 C379.86760782 1266.20300306 380.33109149 1267.75138269 380.79443359 1269.29980469 C381.01474558 1270.02455616 381.23505756 1270.74930763 381.46204567 1271.49602127 C382.33787898 1274.43682893 383 1276.91321945 383 1280 C319.31 1280 255.62 1280 190 1280 C181.95977837 1252.43352583 181.95977837 1252.43352583 179.47192383 1243.25292969 C179.1767924 1242.1710245 178.88166098 1241.08911932 178.57758617 1239.97442913 C177.61872273 1236.45745554 176.66285657 1232.93967536 175.70703125 1229.421875 C175.00938759 1226.86071111 174.31156827 1224.29959569 173.61352539 1221.73854065 C172.12328669 1216.26971699 170.63454914 1210.80048662 169.1468811 1205.33096313 C166.96802666 1197.32033628 164.78663069 1189.31040311 162.60457456 1181.30064785 C161.57849578 1177.53417475 160.55250415 1173.7676779 159.52653503 1170.00117493 C159.32156169 1169.24868459 159.11658834 1168.49619426 158.90540367 1167.72090119 C157.43890856 1162.33695917 155.97285927 1156.95289587 154.5070343 1151.56877136 C148.93665553 1131.10831666 143.36148486 1110.64917507 137.78125 1090.19140625 C137.59513421 1089.50907472 137.40901841 1088.82674319 137.21726274 1088.12373495 C135.34743205 1081.26863501 133.47750205 1074.41356216 131.60748589 1067.55851281 C127.85917929 1053.81807029 124.11167077 1040.07741011 120.36421251 1026.3367362 C119.80553176 1024.28825184 119.24684326 1022.23976958 118.68815231 1020.19128799 C113.67913832 1001.82534222 108.67130486 983.45907502 103.66437912 965.09255981 C100.58902681 953.81163182 97.51336746 942.53078754 94.4375 931.25 C94.10082558 930.01524178 93.76415115 928.78048355 93.41727448 927.50830841 C82.16388801 886.23747606 70.88683881 844.97314997 59.59988022 803.71149063 C47.63146584 759.95852106 35.68279916 716.20019655 23.75 672.4375 C23.56290325 671.75133716 23.37580649 671.06517432 23.18304014 670.35821867 C21.36608001 663.6946188 19.54920184 657.03099659 17.73250955 650.3673237 C17.55754577 649.72555222 17.382582 649.08378074 17.20231628 648.42256165 C17.02823354 647.78401991 16.8541508 647.14547817 16.67479283 646.48758668 C15.4720278 642.07592982 14.26889115 637.66437442 13.06562805 633.25285339 C9.95338926 621.84130919 6.84365586 610.42910002 3.74326706 599.01433086 C2.33735395 593.83827764 0.929601 588.66272515 -0.47814178 583.48716927 C-1.1441829 581.03675037 -1.80946209 578.58612424 -2.47394562 576.13528252 C-3.38407191 572.7785579 -4.29672889 569.42253115 -5.20996094 566.06665039 C-5.47966454 565.06920115 -5.74936813 564.0717519 -6.02724457 563.04407692 C-6.27411263 562.13883467 -6.52098068 561.23359241 -6.77532959 560.30091858 C-6.98906094 559.51359879 -7.20279228 558.72627901 -7.42300034 557.91510105 C-7.958429 555.94132865 -7.958429 555.94132865 -9 554 C-25.68099461 605.30803174 -25.68099461 605.30803174 -42.18310547 656.67376709 C-47.7533923 674.12730834 -53.36967583 691.56576078 -59 709 C-65.00525689 727.59587036 -70.99221841 746.1973454 -76.9375 764.8125 C-83.30793405 784.75841378 -89.73774952 804.68482779 -96.18154144 824.60712433 C-101.85054261 842.13445159 -107.5065658 859.66566565 -113.11224365 877.21337891 C-115.01499757 883.16863569 -116.92099284 889.12285634 -118.82647705 895.07723999 C-120.52670208 900.39118031 -122.22546296 905.70558266 -123.92150974 911.02085781 C-126.21746315 918.21618443 -128.51769586 925.41011869 -130.82466984 932.60192013 C-131.95919999 936.13929929 -133.09153806 939.67734585 -134.21853638 943.21713257 C-135.46975801 947.14691062 -136.73056242 951.07354951 -137.9921875 955 C-138.36849808 956.18696976 -138.74480865 957.37393951 -139.13252258 958.59687805 C-139.48179306 959.67865829 -139.83106354 960.76043854 -140.19091797 961.875 C-140.49351532 962.82117188 -140.79611267 963.76734375 -141.10787964 964.7421875 C-142 967 -142 967 -144 969 C-147.22990769 957.53765453 -150.31188404 946.05198534 -153.20092773 934.49926758 C-153.59254271 932.94050272 -153.98435938 931.38178853 -154.37635803 929.82312012 C-155.2118709 926.49915052 -156.04599078 923.17483584 -156.87896538 919.85022926 C-158.212521 914.52772637 -159.54933403 909.20604457 -160.88648987 903.88444519 C-163.01757658 895.40158434 -165.14653596 886.91819127 -167.27457815 878.4345662 C-169.87643235 868.06217559 -172.47993892 857.69020005 -175.08398438 847.31835938 C-175.31452027 846.40013484 -175.54505616 845.4819103 -175.78257799 844.53586078 C-180.65524648 825.12872623 -185.53305188 805.72288655 -190.41659737 786.31848621 C-190.98152968 784.07340244 -191.5462211 781.82825822 -192.11082458 779.58309174 C-202.20994229 739.39811049 -202.20994229 739.39811049 -213.375 699.5 C-214.66435059 695.11761362 -215.94140076 690.73191187 -217.2109375 686.34375 C-217.49512543 685.39310669 -217.77931335 684.44246338 -218.07211304 683.4630127 C-220.7646374 674.14349641 -219.91699034 667.72501512 -216.7734375 658.671875 C-216.26526489 657.16638344 -216.26526489 657.16638344 -215.74682617 655.63047791 C-215.01523676 653.46680388 -214.27888342 651.30473599 -213.53826904 649.14413452 C-211.95105211 644.51302377 -210.38721627 639.87411898 -208.82168579 635.23564148 C-208.02160081 632.86602248 -207.22030383 630.49681237 -206.41781616 628.12800598 C-202.99045647 618.00647291 -199.66339161 607.85486221 -196.375 597.6875 C-195.24340898 594.19621761 -194.1103145 590.70542495 -192.9765625 587.21484375 C-192.67610016 586.28972992 -192.37563782 585.36461609 -192.06607056 584.41146851 C-187.5781604 570.60896295 -183.03593076 556.82418843 -178.50198364 543.03675461 C-176.24833242 536.1834841 -173.99515209 529.33005876 -171.7421875 522.4765625 C-171.49607979 521.7279212 -171.24997208 520.9792799 -170.99640656 520.2079525 C-166.27700248 505.85097732 -161.57251827 491.48915205 -156.875 477.125 C-150.46910861 457.53812265 -144.05140339 437.95515451 -137.625 418.375 C-137.18065329 417.02112853 -136.73630718 415.66725687 -136.29196167 414.31338501 C-135.84755457 412.95933023 -135.40314742 411.60527546 -134.95874023 410.2512207 C-134.29226582 408.22055299 -133.62579238 406.18988496 -132.95932198 404.15921593 C-132.51488085 402.80504958 -132.07043683 401.45088419 -131.62598991 400.09671974 C-126.72685465 385.16962076 -121.83171482 370.2412129 -116.9375 355.3125 C-116.52695374 354.06023621 -116.11640747 352.80797241 -115.69342041 351.51776123 C-113.62353105 345.20407556 -111.55369426 338.89037265 -109.48388672 332.57666016 C-106.99072792 324.97162459 -104.49735358 317.36665972 -102.00390625 309.76171875 C-101.79753981 309.13230692 -101.59117336 308.50289509 -101.37855339 307.85441017 C-100.33604078 304.6747796 -99.2935247 301.49515017 -98.25100708 298.31552124 C-96.3756308 292.59570765 -94.50028515 286.87588401 -92.62493706 281.15606117 C-91.58329261 277.97904037 -90.54164621 274.80202022 -89.5 271.625 C-89.08333332 270.35416667 -88.66666666 269.08333334 -88.25 267.8125 C-65.75000042 199.18750129 -65.75000042 199.18750129 -65.12499809 197.28124428 C-64.70833771 196.01043004 -64.2916774 194.73961578 -63.87501717 193.4688015 C-62.83325499 190.29142576 -61.79149151 187.11405045 -60.74972534 183.93667603 C-58.87586439 178.22141814 -57.00201251 172.50615727 -55.12821007 166.7908802 C-54.08808407 163.61839716 -53.04795033 160.44591666 -52.0078125 157.2734375 C-51.80180546 156.64510387 -51.59579842 156.01677025 -51.38354874 155.36939621 C-48.44415182 146.40411443 -45.50431729 137.43897624 -42.56422424 128.47392273 C-37.78539983 113.90209944 -33.0079705 99.32981932 -28.23156738 84.75720215 C-27.19705368 81.6011612 -26.16239606 78.44516753 -25.12765312 75.28920174 C-22.88527588 68.44992888 -20.64386703 61.61033952 -18.40338135 54.77044678 C-17.65282525 52.47953682 -16.90198571 50.1887197 -16.15081787 47.89801025 C-15.10492428 44.70831941 -14.05998014 41.51831987 -13.015625 38.328125 C-12.68559479 37.32051117 -12.35556458 36.31289734 -12.01553345 35.27474976 C-10.23534318 29.82640457 -8.47779755 24.37154514 -6.74414062 18.90820312 C-6.37609314 17.7495575 -6.00804565 16.59091187 -5.62884521 15.39715576 C-4.92046062 13.16274924 -4.2148274 10.92746813 -3.51226807 8.69122314 C-3.19723328 7.69709412 -2.88219849 6.70296509 -2.55761719 5.67871094 C-2.28020691 4.79729431 -2.00279663 3.91587769 -1.71697998 3.00775146 C-1 1 -1 1 0 0 Z " fill="#EA1C2D" transform="translate(1901,0)"/>
<path d="M0 0 C0.66 0 1.32 0 2 0 C10.51865113 29.24637255 18.86682198 58.53673627 27.0625 87.875 C27.39144131 89.05244719 27.39144131 89.05244719 27.72702789 90.25368118 C28.17387792 91.85320459 28.62071943 93.45273037 29.06755257 95.05225849 C30.20120318 99.1103827 31.33493743 103.16848353 32.46875 107.2265625 C32.69549282 108.03818533 32.92223564 108.84980816 33.15584946 109.68602562 C38.42646558 128.5496021 43.74132609 147.40063369 49.0625 166.25 C49.52457469 167.88703183 49.98664133 169.52406593 50.44869995 171.16110229 C52.28551867 177.66873593 54.12241386 184.17634796 55.95957947 190.68388367 C60.48073425 206.69924515 64.99356462 222.71694827 69.50474167 238.73512268 C70.33093928 241.66873727 71.15719135 244.60233652 71.98344135 247.53593636 C73.62792353 253.3746783 75.2723437 259.21343771 76.91670513 265.05221367 C79.60820261 274.60912082 82.30010295 284.16591446 84.9921875 293.72265625 C85.19867039 294.45565886 85.40515327 295.18866146 85.61789322 295.94387627 C86.66125245 299.64773572 87.70461778 303.35159347 88.74798584 307.05545044 C90.62373372 313.71418743 92.49942767 320.37293961 94.37512589 327.0316906 C95.4167484 330.72946102 96.45837437 334.42723046 97.5 338.125 C97.91666668 339.60416666 98.33333335 341.08333333 98.75 342.5625 C98.95625 343.2946875 99.1625 344.026875 99.375 344.78125 C100 347 100.625 349.21875 101.25 351.4375 C101.45625315 352.16969789 101.66250629 352.90189577 101.87500954 353.65628147 C102.29164607 355.13534277 102.70828095 356.61440453 103.12491417 358.09346676 C104.16702821 361.79299945 105.20917115 365.49252399 106.25137329 369.19203186 C108.12106155 375.82897627 109.99055614 382.46597486 111.85894966 389.10328388 C112.89280079 392.77592795 113.92682416 396.44852351 114.9609375 400.12109375 C115.16597271 400.84927244 115.37100792 401.57745113 115.58225632 402.32769585 C118.38269169 412.27213773 121.19096887 422.21433513 124.00543213 432.15481567 C125.56811004 437.67422592 127.12850827 443.19428002 128.68844986 448.71446419 C129.91162777 453.04218244 131.13695332 457.36927778 132.36618042 461.69528198 C136.58184521 476.5648161 140.69686476 491.45690811 144.62646484 506.40478516 C144.83861193 507.21102085 145.05075901 508.01725655 145.26933479 508.84792364 C150.3026168 527.99761111 155.1198183 547.20041603 159.91183853 566.41163468 C161.14428256 571.35048475 162.37934556 576.28868005 163.61401367 581.22697449 C165.6930133 589.54390055 167.77022136 597.86127232 169.84619141 606.17895508 C171.93276229 614.53906735 174.02089159 622.89878803 176.11083984 631.25805664 C194.81531295 706.07127337 194.81531295 706.07127337 202.265625 736.36865234 C202.47289404 737.21120005 202.68016308 738.05374775 202.893713 738.9218272 C204.82849366 746.78696105 206.76149844 754.65251354 208.68448621 762.52053982 C214.85181388 787.74474396 221.49052998 812.77245779 229.05078125 837.6171875 C229.70956167 839.792996 230.36796827 841.96891771 231.02603149 844.14494324 C232.40703829 848.7090542 233.79037909 853.27244765 235.17575073 857.8352356 C237.34400898 864.9767256 239.50664833 872.11990927 241.66821289 879.26342773 C243.82000133 886.37400451 245.97191923 893.4845413 248.12565613 900.5945282 C255.11452977 923.6673182 262.05546984 946.75418407 268.96250916 969.85160828 C270.96871404 976.55955659 272.98045358 983.26581545 274.99642277 989.97083378 C276.62379274 995.38383296 278.2482651 1000.79769629 279.87068844 1006.21218014 C280.83482559 1009.42936069 281.80072886 1012.64598355 282.76925659 1015.86184692 C283.82132462 1019.35599065 284.86831572 1022.85161637 285.9140625 1026.34765625 C286.38594246 1027.90830811 286.38594246 1027.90830811 286.86735535 1029.50048828 C287.15041031 1030.45044678 287.43346527 1031.40040527 287.72509766 1032.37915039 C287.97280914 1033.20411514 288.22052063 1034.0290799 288.47573853 1034.87904358 C289 1037 289 1037 289 1040 C229.6 1040 170.2 1040 109 1040 C104.82645299 1025.69069597 100.66967678 1011.38987001 96.69140625 997.02734375 C96.20730753 995.28407045 95.72308614 993.54083122 95.23875427 991.79762268 C93.94699394 987.14660078 92.65727158 982.49501618 91.36804199 977.84329224 C90.27160598 973.88817223 89.1739485 969.93339157 88.07636452 965.97859001 C79.85806428 936.36450307 71.67916189 906.73959478 63.5149231 877.11056519 C55.61964004 848.4582515 47.67996031 819.81848991 39.71713257 791.1848793 C31.35537176 761.11624822 23.03556553 731.03629431 14.74514771 700.94791794 C5.56031198 667.61410271 -3.69071808 634.29927382 -13 601 C-22.28256794 628.0593414 -31.4373506 655.15885376 -40.47807693 682.2999053 C-42.13347002 687.26869509 -43.79038057 692.23697892 -45.44702148 697.20535278 C-48.22454347 705.53612122 -51.0008308 713.86730031 -53.77636719 722.19873047 C-56.94080748 731.69748594 -60.10740514 741.19552013 -63.27512646 750.69318187 C-66.04191065 758.9889292 -68.80747535 767.2850824 -71.57210255 775.58154881 C-73.20263972 780.47468362 -74.83352946 785.36769991 -76.46554565 790.26034164 C-83.3615073 810.93575618 -90.19921828 831.62828327 -96.9301008 852.35806131 C-103.0983242 871.35139008 -109.38048262 890.30584048 -115.69461274 909.25109529 C-116.60058539 911.96973981 -117.50612718 914.68852749 -118.41153526 917.40736008 C-121.58187944 926.92750258 -124.75368421 936.44715686 -127.92700195 945.96630859 C-130.87246505 954.80208824 -133.81451589 963.63899939 -136.75511724 972.47639811 C-139.30443215 980.13737537 -141.85603319 987.79758862 -144.40945071 995.45719945 C-145.92476594 1000.00289059 -147.43915315 1004.54888566 -148.95121193 1009.09566116 C-150.35967827 1013.33067794 -151.77097076 1017.56474196 -153.18451881 1021.79806519 C-153.70279293 1023.35183653 -154.22003249 1024.90595339 -154.73618698 1026.46043015 C-155.43736429 1028.57160659 -156.14217888 1030.68153282 -156.84797668 1032.79116821 C-157.24183469 1033.97328699 -157.63569269 1035.15540577 -158.04148579 1036.37334633 C-159 1039 -159 1039 -160 1040 C-162.35287293 1040.09763101 -164.67634686 1040.12997445 -167.02967834 1040.12025452 C-167.7737393 1040.12110894 -168.51780025 1040.12196337 -169.28440851 1040.12284368 C-171.7964818 1040.12450071 -174.30848942 1040.1189735 -176.82055664 1040.11352539 C-178.61378477 1040.11324354 -180.40701302 1040.11340121 -182.20024109 1040.1139679 C-187.08433365 1040.11425596 -191.96840187 1040.10835786 -196.85248876 1040.10139394 C-201.9507658 1040.09516181 -207.04904334 1040.09455671 -212.14732361 1040.09336853 C-221.80877159 1040.0902548 -231.47020832 1040.08204084 -241.13165134 1040.07201904 C-252.12783623 1040.06085921 -263.12402163 1040.05534778 -274.12021077 1040.05032361 C-296.74681343 1040.03985826 -319.37340608 1040.02225801 -342 1040 C-341.34534427 1035.09810983 -340.39318543 1030.69430191 -338.8137207 1026.00292969 C-338.48102456 1025.00634055 -338.48102456 1025.00634055 -338.14160728 1023.9896183 C-337.40861499 1021.7984415 -336.66719369 1019.61021555 -335.92578125 1017.421875 C-335.40452524 1015.86848752 -334.88385158 1014.31490452 -334.36372375 1012.76113892 C-333.25965199 1009.46632332 -332.15205844 1006.17272262 -331.04156494 1002.88006592 C-328.43110522 995.13918473 -325.83871899 987.39224338 -323.24433899 979.64596176 C-322.38837504 977.09088157 -321.53169866 974.53604106 -320.67492676 971.98123169 C-316.59179004 959.80046078 -312.5725351 947.60044049 -308.625 935.375 C-302.94653332 917.80933995 -297.11185641 900.29744534 -291.25958252 882.78900146 C-286.11011138 867.37931161 -281.00504785 851.95720172 -276 836.5 C-270.19221856 818.56369811 -264.23895786 800.67761498 -258.26223755 782.79696655 C-252.80681096 766.47174464 -247.41209565 750.12916541 -242.10888672 733.75390625 C-236.7797133 717.306381 -231.31448927 700.90556799 -225.83270264 684.50836182 C-220.8460396 669.5881425 -215.90937906 654.65370289 -211.0625 639.6875 C-205.63444961 622.9270358 -200.08501622 606.20878111 -194.5 589.5 C-188.93587341 572.85368747 -183.40684847 556.1980916 -178 539.5 C-172.19221856 521.56369811 -166.23895786 503.67761498 -160.26223755 485.79696655 C-154.80681096 469.47174464 -149.41209565 453.12916541 -144.10888672 436.75390625 C-138.7797133 420.306381 -133.31448927 403.90556799 -127.83270264 387.50836182 C-122.8460396 372.5881425 -117.90937906 357.65370289 -113.0625 342.6875 C-107.63444961 325.9270358 -102.08501622 309.20878111 -96.5 292.5 C-90.93587341 275.85368747 -85.40684847 259.1980916 -80 242.5 C-74.19189152 224.56268808 -68.23827522 206.6756046 -62.26123047 188.79394531 C-57.11121045 173.38260722 -52.005583 157.95885445 -47 142.5 C-41.19581609 124.57480845 -35.24646819 106.69972864 -29.27331543 88.8302002 C-23.3117929 70.99098098 -17.41820476 53.13156175 -11.62695312 35.23632812 C-7.81729947 23.46859921 -3.92863688 11.72854539 0 0 Z " fill="#EA1C2D" transform="translate(1512,241)"/>
</svg>
