<?xml version="1.0" encoding="UTF-8"?>
<svg version="1.1" xmlns="http://www.w3.org/2000/svg" width="200" height="200">
<path d="M0 0 C66 0 132 0 200 0 C200 66 200 132 200 200 C134 200 68 200 0 200 C0 134 0 68 0 0 Z " fill="#000000" transform="translate(0,0)"/>
<path d="M0 0 C0.66 0 1.32 0 2 0 C4.19638724 3.59758333 6.36821516 7.20853778 8.51855469 10.83374023 C9.25319638 12.06457306 9.99437529 13.29152869 10.7421875 14.5144043 C11.81697601 16.27451341 12.86736936 18.04729539 13.9140625 19.82421875 C14.5529541 20.88729248 15.1918457 21.95036621 15.85009766 23.0456543 C17 26 17 26 16.39746094 28.51879883 C15.93629883 29.33759521 15.47513672 30.1563916 15 31 C14.50322754 31.92554687 14.00645508 32.85109375 13.49462891 33.8046875 C12.61943604 35.32449219 12.61943604 35.32449219 11.7265625 36.875 C11.07284668 38.01420898 10.41913086 39.15341797 9.74560547 40.32714844 C9.03879848 41.5514678 8.33192852 42.77575081 7.625 44 C6.89567647 45.26837096 6.16667582 46.53692762 5.43798828 47.80566406 C3.97498054 50.35234071 2.51047762 52.89814829 1.04492188 55.44335938 C-1.2162514 59.37275741 -3.46330503 63.31005037 -5.69702148 67.25512695 C-6.64941814 68.91909368 -7.61778337 70.57402113 -8.60180664 72.21948242 C-11.38770864 76.91595353 -13.69572997 81.56959384 -15.76171875 86.62890625 C-21.58160305 99.87402805 -21.58160305 99.87402805 -27 104 C-37.03758127 106.86998882 -47.80985402 105.47930651 -58 104 C-57.41200706 100.05154099 -56.20463504 97.23883582 -54.18359375 93.80859375 C-53.29704102 92.28975586 -53.29704102 92.28975586 -52.39257812 90.74023438 C-51.42481445 89.10538086 -51.42481445 89.10538086 -50.4375 87.4375 C-49.76022827 86.28109018 -49.08381247 85.12417869 -48.40820312 83.96679688 C-47.3503715 82.15471279 -46.29208297 80.34291631 -45.23129272 78.53256226 C-41.77328724 72.62914226 -38.37903001 66.69022037 -34.99377441 60.74487305 C-28.20603754 48.8269378 -21.37076452 36.93668565 -14.5 25.06640625 C-12.20920212 21.10607589 -9.93902112 17.13512765 -7.6875 13.15234375 C-6.92336792 11.80861694 -6.92336792 11.80861694 -6.14379883 10.43774414 C-5.19745461 8.77240042 -4.25685093 7.10377679 -3.32299805 5.43139648 C-2.27137305 3.5878146 -1.14379812 1.7878577 0 0 Z " fill="#FBFBFB" transform="translate(99,48)"/>
<path d="M0 0 C3.64751775 1.21583925 3.85255743 2.00287997 5.64453125 5.28515625 C6.40262085 6.65317383 6.40262085 6.65317383 7.17602539 8.04882812 C7.71606201 9.04333984 8.25609863 10.03785156 8.8125 11.0625 C9.97233315 13.15845223 11.13384907 15.25347398 12.296875 17.34765625 C13.20276367 18.98371826 13.20276367 18.98371826 14.12695312 20.65283203 C17.19982744 26.14411291 20.3794463 31.57206911 23.5625 37 C25.23246626 39.85050341 26.90240609 42.7009816 28.56689453 45.5546875 C29.46455818 47.08637389 30.37051361 48.61326391 31.28857422 50.1328125 C34 54.67840311 34 54.67840311 34 58 C23.77 58 13.54 58 3 58 C-4.3125 45.3125 -4.3125 45.3125 -6.6027832 41.3371582 C-7.20437256 40.29390381 -7.80596191 39.25064941 -8.42578125 38.17578125 C-9.03848877 37.11270752 -9.65119629 36.04963379 -10.2824707 34.9543457 C-11.93315505 32.00605795 -11.93315505 32.00605795 -13.84838867 29.42651367 C-15 27 -15 27 -14.36157227 24.50292969 C-13.91225342 23.67696289 -13.46293457 22.85099609 -13 22 C-12.56679443 21.18176758 -12.13358887 20.36353516 -11.68725586 19.52050781 C-11.20135986 18.67327148 -10.71546387 17.82603516 -10.21484375 16.953125 C-9.68439453 16.02628906 -9.15394531 15.09945312 -8.60742188 14.14453125 C-8.05634766 13.18933594 -7.50527344 12.23414062 -6.9375 11.25 C-6.38255859 10.27933594 -5.82761719 9.30867188 -5.25585938 8.30859375 C-1.14043257 1.14043257 -1.14043257 1.14043257 0 0 Z " fill="#3298F7" transform="translate(125,94)"/>
<path d="M0 0 C3.24822479 2.77687356 5.12183056 6.39061382 7.1875 10.0625 C7.55552734 10.69994141 7.92355469 11.33738281 8.30273438 11.99414062 C11 16.74312964 11 16.74312964 11 19 C10.34 19 9.68 19 9 19 C8.67 18.01 8.34 17.02 8 16 C7.34 15.67 6.68 15.34 6 15 C5.27306096 13.02111039 4.60183749 11.02045442 4 9 C2.68 9.99 1.36 10.98 0 12 C-0.33 10.35 -0.66 8.7 -1 7 C-0.34 6.67 0.32 6.34 1 6 C0.67 4.02 0.34 2.04 0 0 Z " fill="#3C90E5" transform="translate(137,113)"/>
<path d="M0 0 C3.34726719 1.11575573 3.62079748 1.51344622 5.25 4.4375 C5.8275 5.613125 6.405 6.78875 7 8 C6.67 8.66 6.34 9.32 6 10 C2.67098753 7.78065836 2.24976756 6.65316671 1 3 C0.67 3.99 0.34 4.98 0 6 C-0.66 6 -1.32 6 -2 6 C-2 6.66 -2 7.32 -2 8 C-2.66 8 -3.32 8 -4 8 C-2.87548273 5.0280615 -1.77706209 2.66559313 0 0 Z " fill="#3F8BD6" transform="translate(125,94)"/>
<path d="M0 0 C0.33 0.66 0.66 1.32 1 2 C0.71125 2.556875 0.4225 3.11375 0.125 3.6875 C-1.35485704 6.72942835 -1.61470012 9.66073437 -2 13 C-2.99 12.01 -3.98 11.02 -5 10 C-3.66511872 6.40608886 -2.03977277 3.24509304 0 0 Z " fill="#3C88D3" transform="translate(115,111)"/>
<path d="M0 0 C1.953125 0.8359375 1.953125 0.8359375 4 2 C4.75 4.625 4.75 4.625 5 7 C5.66 7 6.32 7 7 7 C7 8.98 7 10.96 7 13 C5.21178226 10.31767339 3.79857396 7.69711039 2.375 4.8125 C1.70597656 3.46091797 1.70597656 3.46091797 1.0234375 2.08203125 C0.68570313 1.39496094 0.34796875 0.70789063 0 0 Z " fill="#010E26" transform="translate(153,139)"/>
<path d="M0 0 C0.99 0 1.98 0 3 0 C6.125 5.5 6.125 5.5 5 10 C3.35 6.7 1.7 3.4 0 0 Z " fill="#031530" transform="translate(147,129)"/>
<path d="M0 0 C1.5 1.25 1.5 1.25 3 3 C3 4.32 3 5.64 3 7 C1.35 7 -0.3 7 -2 7 C-1.67 6.34 -1.34 5.68 -1 5 C0.10540926 2.21081851 0.10540926 2.21081851 0 0 Z " fill="#398EDD" transform="translate(155,144)"/>
<path d="M0 0 C0.66 0 1.32 0 2 0 C1.67 1.11375 1.34 2.2275 1 3.375 C-0.088643 6.69459717 -0.088643 6.69459717 0 9 C-0.66 9 -1.32 9 -2 9 C-2.25 3.375 -2.25 3.375 0 0 Z " fill="#010F28" transform="translate(111,114)"/>
<path d="M0 0 C2.15377564 2.62198774 3.40072174 4.64404172 4 8 C2.68 7.67 1.36 7.34 0 7 C0 4.69 0 2.38 0 0 Z " fill="#378CDA" transform="translate(133,105)"/>
</svg>
