<?xml version="1.0" encoding="utf-8"?>
<!-- Generator: Adobe Illustrator 25.0.0, SVG Export Plug-In . SVG Version: 6.00 Build 0)  -->
<svg version="1.1" id="Layer_1" xmlns="http://www.w3.org/2000/svg" xmlns:xlink="http://www.w3.org/1999/xlink" x="0px" y="0px"
	 viewBox="0 0 792 612" style="enable-background:new 0 0 792 612;" xml:space="preserve">
<style type="text/css">
	.st0{fill:#67686B;}
	.st1{fill:#0082C9;}
	.st2{fill:#005198;}
	.st3{fill:none;}
</style>
<g>
	<g>
		<g>
			<path class="st0" d="M281.25,367.45v-28.28h21.17c6.51,0,12.16,2.51,12.16,9.98c0,7.48-5.66,10.02-12.16,10.02h-15.96v8.28
				H281.25z M286.46,344.02v10.26h16.28c3.76,0,6.51-1.25,6.51-5.13c0-3.84-2.75-5.13-6.51-5.13H286.46z"/>
			<path class="st0" d="M351.07,367.45h-6.02l-3.64-6.06h-20.12l-3.6,6.06h-6.02l16.69-28.28h5.98L351.07,367.45z M324.84,355.33
				l-0.77,1.21h14.55l-0.73-1.21l-6.55-11.6L324.84,355.33z"/>
			<path class="st0" d="M388.48,367.45h-8l-16.89-12.12h-5.01v12.12h-5.21v-28.28h5.21v11.31h5.09l16.2-11.31h7.68l-10.22,7.07
				l-9.78,6.67l10.87,7.48L388.48,367.45z"/>
			<path class="st0" d="M391.62,367.45v-28.28h21.17c6.51,0,12.16,2.51,12.16,9.98c0,7.48-5.66,10.02-12.16,10.02h-15.96v8.28
				H391.62z M396.83,344.02v10.26h16.28c3.76,0,6.5-1.25,6.5-5.13c0-3.84-2.75-5.13-6.5-5.13H396.83z"/>
			<path class="st0" d="M447.09,338.56c12.49,0,18.99,6.34,18.99,14.75c0,8.4-6.5,14.75-18.99,14.75s-18.99-6.34-18.99-14.75
				C428.1,344.91,434.61,338.56,447.09,338.56z M447.09,363.17c9.29,0,13.66-4.12,13.66-9.86c0-5.78-4.36-9.9-13.66-9.9
				s-13.7,4.12-13.7,9.9C433.4,359.05,437.8,363.17,447.09,363.17z"/>
			<path class="st0" d="M499.17,339.17h5.21v16.97c0,8.36-5.66,11.92-16.97,11.92c-11.31,0-16.97-3.56-16.97-11.92v-16.97h5.21
				v16.97c0,5.66,4.77,7.03,11.76,7.03c6.95,0,11.76-1.37,11.76-7.03V339.17z"/>
			<path class="st0" d="M509.55,339.17h22.43c6.06,0,10.91,2.3,10.91,9.09c0,6.67-4.93,8.93-10.87,8.93h-1.05l13.09,10.26h-8.08
				l-12.37-10.1h-8.85v10.1h-5.21V339.17z M532.1,352.46c3.15,0,5.45-1.05,5.45-4.2s-2.26-4.24-5.41-4.24h-17.37v8.44H532.1z"/>
		</g>
		<g>
			<path class="st0" d="M288.59,376.96c1.71,0,3.15,0.36,4.22,0.67l0.19,0.05l0.49-1.88l-0.17-0.05c-0.55-0.18-2.23-0.74-4.73-0.74
				c-4.42,0-6.96,1.81-6.96,4.97c0,3.16,2.54,4.97,6.96,4.97c2.5,0,4.18-0.56,4.73-0.74l0.17-0.05l-0.49-1.88l-0.19,0.05
				c-1.05,0.31-2.48,0.66-4.22,0.66c-3.18,0-4.86-1.04-4.86-3.01C283.73,378.01,285.41,376.96,288.59,376.96z"/>
			<path class="st0" d="M305.69,375.01c-3.92,0-6.35,1.91-6.35,4.97s2.43,4.97,6.35,4.97c3.92,0,6.35-1.91,6.35-4.97
				S309.61,375.01,305.69,375.01z M309.93,379.99c0,1.91-1.55,3.01-4.24,3.01c-2.7,0-4.26-1.1-4.26-3.01c0-1.92,1.55-3.02,4.26-3.02
				C308.39,376.96,309.93,378.07,309.93,379.99z"/>
			<polygon class="st0" points="327.59,381.04 327.6,382.01 320.29,375.21 318.33,375.21 318.33,384.76 320.4,384.76 320.4,378.91 
				320.37,377.98 327.65,384.71 327.7,384.76 329.66,384.76 329.66,375.21 327.59,375.21 			"/>
			<path class="st0" d="M342.01,379.05c-1.79-0.07-3.65-0.15-3.65-1.03c0-0.78,1.5-1.06,2.91-1.06c1.57,0,3.05,0.17,4.65,0.52
				l0.18,0.04l0.44-1.92l-0.19-0.04c-1.64-0.36-3.35-0.55-4.81-0.55c-4.36,0-5.28,1.69-5.28,3.1c0,2.64,3,2.8,5.65,2.94
				c2.22,0.12,3.2,0.2,3.2,0.82c0,0.84-1.66,1.13-3.22,1.13c-1.81,0-3.38-0.24-5.25-0.82l-0.18-0.06L335.9,384l0.17,0.06
				c1.74,0.59,3.65,0.9,5.53,0.9c3.62,0,5.62-1.12,5.62-3.16C347.22,379.46,344.76,379.16,342.01,379.05z"/>
			<path class="st0" d="M362.83,380.9c0,1.49-1.05,2.09-3.63,2.09c-2.57,0-3.63-0.61-3.63-2.09v-5.7h-2.07v5.7
				c0,2.77,1.81,4.06,5.7,4.06c3.89,0,5.7-1.29,5.7-4.06v-5.7h-2.07V380.9z"/>
			<polygon class="st0" points="373.51,375.21 371.44,375.21 371.44,384.76 381.38,384.76 381.38,382.8 373.51,382.8 			"/>
			<polygon class="st0" points="385.17,377.16 389.63,377.16 389.63,384.76 391.7,384.76 391.7,377.16 396.18,377.16 396.18,375.21 
				385.17,375.21 			"/>
			<rect x="402.2" y="375.21" class="st0" width="2.07" height="9.56"/>
			<polygon class="st0" points="420.07,381.04 420.09,382.01 412.82,375.26 412.77,375.21 410.81,375.21 410.81,384.76 
				412.88,384.76 412.88,378.91 412.86,377.98 420.13,384.71 420.19,384.76 422.14,384.76 422.14,375.21 420.07,375.21 			"/>
			<path class="st0" d="M434.66,380.96h4.56c-0.12,1.24-1.8,2.03-4.37,2.03c-2.7,0-4.32-1.12-4.32-3.01c0-1.98,1.68-3.02,4.86-3.02
				c1.81,0,3.27,0.37,4.22,0.65l0.19,0.05l0.49-1.86l-0.36-0.11c-0.69-0.21-2.29-0.69-4.54-0.69c-4.42,0-6.95,1.81-6.95,4.97
				c0,3.07,2.46,4.97,6.42,4.97c4.21,0,6.44-1.62,6.44-4.7V379h-6.63V380.96z"/>
			<path class="st0" d="M464.46,380.96h4.56c-0.12,1.24-1.81,2.03-4.37,2.03c-2.7,0-4.32-1.12-4.32-3.01c0-1.98,1.68-3.02,4.86-3.02
				c1.81,0,3.27,0.37,4.22,0.65l0.19,0.05l0.49-1.86l-0.36-0.11c-0.69-0.21-2.29-0.69-4.54-0.69c-4.42,0-6.95,1.81-6.95,4.97
				c0,3.07,2.46,4.97,6.42,4.97c4.21,0,6.44-1.62,6.44-4.7V379h-6.63V380.96z"/>
			<path class="st0" d="M488.71,378.35c0-2.02-1.32-3.14-3.73-3.14h-7.47v9.56h2.07v-3.28h2.61l3.96,3.23l0.05,0.04h3.24l-4.25-3.33
				C487.46,381.37,488.71,380.28,488.71,378.35z M485.02,379.52h-5.44v-2.36h5.45c1.41,0,1.57,0.68,1.57,1.19
				C486.6,378.85,486.44,379.52,485.02,379.52z"/>
			<path class="st0" d="M501.07,375.01c-3.92,0-6.35,1.91-6.35,4.97s2.43,4.97,6.35,4.97c3.92,0,6.35-1.91,6.35-4.97
				S504.99,375.01,501.07,375.01z M505.31,379.99c0,1.91-1.55,3.01-4.24,3.01c-2.7,0-4.26-1.1-4.26-3.01c0-1.92,1.55-3.02,4.26-3.02
				C503.77,376.96,505.31,378.07,505.31,379.99z"/>
			<path class="st0" d="M523.03,380.9c0,1.49-1.05,2.09-3.63,2.09c-2.57,0-3.63-0.61-3.63-2.09v-5.7h-2.07v5.7
				c0,2.77,1.81,4.06,5.7,4.06c3.89,0,5.7-1.29,5.7-4.06v-5.7h-2.07V380.9z"/>
			<path class="st0" d="M538.71,375.21h-7.06v9.56h2.07v-2.69h4.99c2.67,0,4.13-1.22,4.13-3.44
				C542.85,376.43,541.38,375.21,538.71,375.21z M538.82,380.11h-5.09v-2.95h5.09c1.29,0,1.92,0.48,1.92,1.48
				C540.74,379.64,540.13,380.11,538.82,380.11z"/>
		</g>
		<g>
			<path class="st1" d="M427.58,246.15c0.28-0.31,0.59-0.6,0.89-0.9l-0.05-0.01L427.58,246.15c-0.01,0.01-0.02,0.02-0.03,0.03
				L427.58,246.15z"/>
			<g>
				<path class="st1" d="M441,236.01l0.06,0.02c0.37-0.2,0.76-0.38,1.15-0.57L441,236.01z"/>
				<path class="st2" d="M473.16,243.83c-5.74-2.35-24.54-10.05-25.34-10.31l-0.77-0.25l-0.75,0.31
					c-7.6,3.12-13.89,7.35-18.72,12.57l-2.7,2.93l3.91,0.76c6.46,1.26,11.84,2.83,15.2,3.85l4.84,1.82l0.97-0.7
					c0.02-0.01,1.89-1.36,5.2-2.59c2.49-1.02,5.23-1.88,8.2-2.58c3.41-0.87,6.32-1.25,9.25-1.53l9.62-0.59L473.16,243.83z"/>
				<path class="st1" d="M529.51,233.91c-6.55-2.06-21.88-6.87-44.53-6.87c-16.4,0-29.08,2.15-38.76,6.58l-0.04,0.02
					c0.04-0.02,0.08-0.04,0.12-0.05l0.75-0.31l0.77,0.25c0.8,0.26,19.6,7.96,25.34,10.31l8.9,3.68c0.96-0.02,1.93-0.03,2.92-0.03
					c17.58,0,31.06,3.5,39.67,6.13l5.57,1.7l5.23-19.55L529.51,233.91z"/>
			</g>
			<g>
				<path class="st3" d="M298.24,247.62c-10.43,0-20.58,1.26-30.98,3.84v52.18c10.41,2.58,20.56,3.84,30.98,3.84
					c31.21,0,47.71-10.35,47.71-29.93C345.94,257.97,329.45,247.62,298.24,247.62z"/>
				<g>
					<path class="st3" d="M353.69,250.74l0.05,0.06c0.32-0.47,0.62-0.95,0.97-1.4l0.03-0.04c-0.01,0.01-0.02,0.03-0.03,0.04
						L353.69,250.74z"/>
					<path class="st3" d="M298.24,247.62c-10.43,0-20.58,1.26-30.98,3.84v52.18c10.41,2.58,20.56,3.84,30.98,3.84
						c31.21,0,47.71-10.35,47.71-29.93C345.94,257.97,329.45,247.62,298.24,247.62z"/>
					<path class="st3" d="M354.81,305.57c-0.34-0.45-0.65-0.93-0.97-1.4l-0.05,0.06L354.81,305.57z"/>
					<path class="st1" d="M354.81,305.57l-1.02-1.34l0.05-0.06c-5.22-7.48-7.9-16.46-7.9-26.76c0-10.24,2.64-19.17,7.8-26.62
						l-0.05-0.06l1.01-1.34c0.01-0.01,0.02-0.03,0.03-0.04l1.66-2.2c-11.43-13.07-31.44-19.97-58.16-19.97
						c-23.96,0-40.11,5.38-45.43,7.15l-4.86,1.63v148.85h19.31v-60.07c9.87,2.11,20.28,3.18,30.98,3.18
						c26.82,0,46.87-6.95,58.28-20.11L354.81,305.57C354.81,305.58,354.81,305.57,354.81,305.57z M298.24,307.48
						c-10.42,0-20.57-1.26-30.98-3.84v-52.18c10.4-2.58,20.55-3.84,30.98-3.84c31.21,0,47.71,10.35,47.71,29.93
						C345.94,297.13,329.45,307.48,298.24,307.48z"/>
					<path class="st2" d="M356.43,247.19c-0.01-0.01-0.03-0.03-0.04-0.04l-1.66,2.2C355.29,248.61,355.86,247.89,356.43,247.19z"/>
					<path class="st2" d="M354.81,305.58L354.81,305.58C354.81,305.57,354.81,305.58,354.81,305.58l1.7,2.24
						c0.01-0.01,0.03-0.03,0.04-0.04C355.97,307.06,355.39,306.33,354.81,305.58z"/>
				</g>
			</g>
		</g>
	</g>
	<g>
		<path class="st3" d="M358.34,305.59c0.01-0.01,0.01-0.01,0.02-0.02l1.01-1.34l-0.05-0.06c-0.32,0.47-0.62,0.95-0.97,1.41
			L358.34,305.59z"/>
		<path class="st3" d="M359.22,250.79l0.05-0.06l-1.02-1.34c-0.01-0.01-0.01-0.01-0.02-0.02l0.02,0.02
			C358.59,249.84,358.9,250.32,359.22,250.79z"/>
		<g>
			<path class="st3" d="M367.12,277.41c0,19.58,9.08,29.93,40.29,29.93c6.9,0,11.51-0.55,17.59-1.65
				c-5.84-7.85-8.91-17.54-8.91-28.28c0-11.03,3.02-20.52,8.98-28.27c-6.08-1.11-10.73-1.66-17.66-1.66
				C376.2,247.48,367.12,257.83,367.12,277.41z"/>
			<path class="st1" d="M425.07,249.14c1.18,0.22,2.4,0.44,3.72,0.7l-3.7-0.72C425.08,249.12,425.08,249.13,425.07,249.14z"/>
		</g>
		<path class="st2" d="M358.23,249.36l-1.72-2.27c-0.02,0.03-0.05,0.06-0.08,0.09C357.05,247.9,357.66,248.62,358.23,249.36z"/>
		<path class="st2" d="M356.55,307.77c0.02,0.03,0.05,0.06,0.08,0.09l1.71-2.27C357.78,306.34,357.17,307.06,356.55,307.77z"/>
	</g>
	<path class="st2" d="M358.25,249.38l-1.78-2.34l-1.77,2.34c-5.81,7.71-8.76,17.14-8.76,28.02c0,10.95,2.98,20.42,8.87,28.16
		l1.78,2.34l1.77-2.34c5.81-7.71,8.76-17.14,8.76-28.02C367.12,266.6,364.14,257.12,358.25,249.38z"/>
	<g>
		<path class="st3" d="M428.3,309.61c-0.29-0.3-0.58-0.6-0.86-0.91l0.81,0.91L428.3,309.61z"/>
		<path class="st1" d="M428.3,309.61l-0.04,0.01l-0.81-0.91c-0.01-0.01-0.02-0.02-0.03-0.03l-2.6-2.92l0.2-0.04
			c-0.01-0.01-0.01-0.01-0.02-0.02c-6.07,1.1-10.69,1.65-17.59,1.65c-31.21,0-40.29-10.35-40.29-29.93s9.08-29.93,40.29-29.93
			c6.93,0,11.58,0.55,17.66,1.66c0.01-0.01,0.01-0.01,0.02-0.02l3.7,0.72l-3.91-0.76l2.7-2.93c4.82-5.22,11.12-9.45,18.72-12.57
			l0.75-0.31c-13.14-4.14-24.51-6.24-39.64-6.24c-26.79,0-40.2,6.93-50.9,20.06l1.72,2.27c0.01,0.01,0.01,0.01,0.02,0.02l1.02,1.34
			l-0.05,0.06c5.22,7.48,7.9,16.46,7.9,26.76c0,10.24-2.64,19.17-7.79,26.62l0.05,0.06l-1.01,1.34c-0.01,0.01-0.01,0.01-0.02,0.02
			l-1.71,2.27c10.72,13.04,24.09,19.92,50.78,19.92c14.76,0,25.81-2,38.68-5.94c0.07-0.02,0.12-0.06,0.19-0.09l-0.71-0.31
			C438.7,318.48,432.91,314.49,428.3,309.61z"/>
		<g>
			<path class="st1" d="M448.77,299.58l0.45,0.3c-7.83-5.19-11.95-12.88-11.95-22.47c0-9.55,3.86-16.9,11.48-21.93l-4.77-1.79
				c-3.35-1.02-8.74-2.59-15.2-3.85c-1.32-0.26-2.54-0.49-3.72-0.7c-5.96,7.76-8.98,17.25-8.98,28.27c0,10.74,3.07,20.44,8.91,28.28
				c1.16-0.21,2.36-0.43,3.65-0.69l0.03-0.01c6.48-1.26,11.92-2.84,15.44-3.91L448.77,299.58z"/>
			<path class="st2" d="M449.22,299.88c0.09,0.06,0.17,0.11,0.26,0.17L449.22,299.88z"/>
		</g>
		<path class="st2" d="M427.42,308.67c0.01,0.01,0.02,0.02,0.03,0.03L427.42,308.67c-0.85-0.95-1.64-1.94-2.4-2.95l-0.2,0.04
			L427.42,308.67z"/>
	</g>
	<g>
		<path class="st1" d="M440.46,318.97l0.75,0.36c-0.24-0.13-0.48-0.25-0.71-0.37L440.46,318.97z"/>
		<path class="st1" d="M445.48,321.41c0.02,0.01,0.03,0.01,0.05,0.02c-0.02-0.01-0.04-0.02-0.06-0.03L445.48,321.41z"/>
		<path class="st1" d="M488.23,268.49v18.96h34.33c-3.73,17.9-30.78,19.89-42.61,19.89c-0.02,0-0.03,0-0.05,0
			c-0.53,0.26-8.12,3.98-9.34,4.46l-20.56,8.78c-0.84,0.28-1.77,0.59-2.88,0.94l-0.79,0.25l-0.75-0.32
			c8.11,3.91,21.26,6.33,34.38,6.33c41.34,0,64.11-16.98,64.11-47.8v-11.5H488.23z"/>
		<path class="st1" d="M472.46,307.03l-0.47-0.04l-0.01,0.01c0.14,0.01,0.3,0.02,0.42,0.03L472.46,307.03z"/>
		<path class="st2" d="M445.57,321.45L445.57,321.45c-0.01,0-0.02-0.01-0.04-0.02C445.54,321.44,445.55,321.44,445.57,321.45z"/>
		<path class="st2" d="M445.47,321.4l-4.26-2.07C442.58,320.06,443.99,320.76,445.47,321.4z"/>
	</g>
	<path class="st2" d="M472.39,307.03c-2.03-0.13-6.13-0.62-9.61-1.53c-3.61-0.86-6.92-2-9.89-3.49c-1.98-1-2.72-1.5-3.19-1.8
		l-0.95-0.63l-4.65,1.51c-3.53,1.08-8.97,2.66-15.47,3.92l-3.83,0.75l2.6,2.92c4.74,5.32,10.84,9.61,18.15,12.78l0.76,0.33
		l0.79-0.25c1.11-0.35,2.04-0.66,2.88-0.94l20.56-8.78c1.27-0.51,9.39-4.49,9.39-4.49L472.39,307.03z"/>
</g>
</svg>
