<?xml version="1.0" encoding="UTF-8"?>
<svg version="1.1" xmlns="http://www.w3.org/2000/svg" width="500" height="162">
<path d="M0 0 C40.26 0 80.52 0 122 0 C122.020625 19.449375 122.04125 38.89875 122.0625 58.9375 C122.071604 65.08882568 122.08070801 71.24015137 122.09008789 77.57788086 C122.09460449 85.06359863 122.09460449 85.06359863 122.09544373 88.56300354 C122.09698382 91.01796143 122.10051006 93.47291855 122.10557556 95.9278717 C122.11284875 99.63674239 122.11390756 103.34556666 122.11352539 107.05444336 C122.1171235 108.15631202 122.12072161 109.25818068 122.12442875 110.39343929 C122.12305125 111.38560735 122.12167376 112.3777754 122.12025452 113.40000916 C122.12117631 114.26925994 122.1220981 115.13851072 122.12304783 116.03410244 C122 118 122 118 121 119 C119.43112365 119.09591199 117.85792208 119.12187996 116.28611755 119.12025452 C114.7568866 119.12231651 114.7568866 119.12231651 113.19676208 119.12442017 C112.068918 119.12082489 110.94107391 119.11722961 109.77905273 119.11352539 C108.59872467 119.11367142 107.41839661 119.11381744 106.20230103 119.1139679 C102.95657892 119.11338895 99.71089945 119.10835986 96.46518588 119.10139394 C93.07656968 119.09515962 89.68795272 119.09455654 86.29933167 119.09336853 C79.87844196 119.09025544 73.45756919 119.08204236 67.03668696 119.07201904 C59.01209143 119.05976309 50.98749317 119.05427527 42.96289062 119.04882812 C28.64191387 119.03907693 14.32097411 119.01904666 0 119 C0 79.73 0 40.46 0 0 Z " fill="#8A5136" transform="translate(38,22)"/>
<path d="M0 0 C40.26 0 80.52 0 122 0 C122 38.94 122 77.88 122 118 C121.67 118 121.34 118 121 118 C121 98.53 121 79.06 121 59 C81.07 59 41.14 59 0 59 C0 39.53 0 20.06 0 0 Z " fill="#9D8646" transform="translate(38,22)"/>
<path d="M0 0 C19.8 0 39.6 0 60 0 C60 19.47 60 38.94 60 59 C40.2 59 20.4 59 0 59 C0 39.53 0 20.06 0 0 Z " fill="#424242" transform="translate(38,81)"/>
<path d="M0 0 C19.8 0 39.6 0 60 0 C60 19.47 60 38.94 60 59 C40.2 59 20.4 59 0 59 C0 39.53 0 20.06 0 0 Z " fill="#6F9DA2" transform="translate(38,22)"/>
<path d="M0 0 C5.93521943 5.29839331 8.2795572 12.33971293 9.3828125 20.0625 C8.38155399 27.07130956 6.13532421 34.60179449 0.8828125 39.5625 C-6.98017502 45.24854469 -13.42016068 46.38752448 -23.1171875 45.5625 C-30.76714549 43.86371159 -35.90783568 40.15715119 -40.1171875 33.5625 C-43.39503725 26.95997407 -44.30602402 20.16924153 -42.4609375 13.01953125 C-39.84392099 5.56329024 -35.74326076 0.73814396 -28.9921875 -3.3125 C-19.02959136 -7.21090719 -8.88930404 -6.03554223 0 0 Z M-29.3671875 8.9375 C-32.75368674 14.01724887 -33.87663428 18.43870693 -33.1171875 24.5625 C-31.11422082 30.23757225 -27.50368571 33.86925089 -22.1171875 36.5625 C-17.191976 37.10285594 -13.24777032 37.10685469 -8.7421875 34.9375 C-3.78680538 30.45405903 -1.47636593 26.43045522 -1.01953125 19.80078125 C-1.2383649 14.78511404 -3.34566167 11.45272211 -6.5546875 7.75 C-10.78425103 4.13939699 -13.3744917 3.14241053 -19.09375 3.3125 C-23.53620007 3.86137414 -26.34488338 5.7472901 -29.3671875 8.9375 Z " fill="#F3A623" transform="translate(263.1171875,95.4375)"/>
<path d="M0 0 C5.89141706 4.76327336 9.46662452 10.5886852 11 18 C11.77640731 25.89347429 9.41087487 32.12537967 5.25 38.8125 C-1.80913349 45.67554645 -8.32812726 47.32803005 -17.96484375 47.2109375 C-25.36913935 46.69635325 -31.09612137 43.56353743 -36 38 C-39.96585314 31.76279461 -41.86670904 25.42893462 -41 18 C-39.21942636 10.53446232 -36.47523224 4.39646765 -30 0 C-19.22840589 -5.40187406 -10.7991126 -5.2127792 0 0 Z M-28.375 12.0625 C-30.88412654 16.59822874 -31.42301169 19.83925744 -31 25 C-28.92004126 31.05901025 -25.8260371 35.08698145 -20 38 C-15.04517906 38.54360446 -11.12874148 38.56437074 -6.625 36.3125 C-1.39995695 31.70948588 0.65788484 28.5579977 1.3125 21.75 C0.81939793 15.83277512 -1.26498459 11.65038051 -5.5625 7.5625 C-13.95162424 2.18485625 -22.59606816 4.61071947 -28.375 12.0625 Z " fill="#F3A623" transform="translate(367,94)"/>
<path d="M0 0 C6.4659375 -0.0928125 6.4659375 -0.0928125 13.0625 -0.1875 C14.40836182 -0.21481201 15.75422363 -0.24212402 17.14086914 -0.27026367 C25.28834032 -0.32684756 30.56751441 0.01522993 36.875 5.5 C40.39194358 9.63758068 40.2829159 13.35876207 40.21484375 18.5625 C39.80746057 23.18444741 37.77911187 25.29689904 34.4375 28.3125 C32 30 32 30 30 30 C32.99859542 35.6223664 36.57976205 40.63785647 40.390625 45.7421875 C42 48 42 48 42 49 C37.72058116 49.92647212 34.24704125 50.17365543 30 49 C25.65244399 45.2359534 22.71114233 40.00241749 20 35 C20 34.34 20 33.68 20 33 C16.37 33 12.74 33 9 33 C9 38.28 9 43.56 9 49 C6.03 49 3.06 49 0 49 C0 32.83 0 16.66 0 0 Z M9 9 C9 13.95 9 18.9 9 24 C11.56364483 24.10845031 14.12266279 24.18749744 16.6875 24.25 C17.40873047 24.28351563 18.12996094 24.31703125 18.87304688 24.3515625 C22.76104571 24.42257618 24.57426105 24.26826616 27.95703125 22.13671875 C30.34734012 19.63672075 31 18.4544604 31 15 C29.24886475 11.28738773 29.24886475 11.28738773 26 9 C23.11629667 8.92805131 20.25760336 8.90708292 17.375 8.9375 C16.17230469 8.94426758 16.17230469 8.94426758 14.9453125 8.95117188 C12.96350994 8.96296832 10.98174567 8.98090395 9 9 Z " fill="#F3A523" transform="translate(391,91)"/>
<path d="M0 0 C5.9090625 -0.12375 5.9090625 -0.12375 11.9375 -0.25 C13.16073975 -0.28641602 14.38397949 -0.32283203 15.64428711 -0.36035156 C24.97657762 -0.45427284 32.50550316 1.69980987 39.4921875 8.1015625 C43.23733427 12.81695454 44.66239655 18.63677587 45.5 24.5 C44.31052985 32.82629105 41.90602893 39.08737065 35.390625 44.5625 C27.61024735 49.24089702 20.8884754 49.38449223 12 49.1875 C6.06 49.0946875 6.06 49.0946875 0 49 C0 32.83 0 16.66 0 0 Z M9 9 C9 19.56 9 30.12 9 41 C21.00156241 41.07837687 21.00156241 41.07837687 30.9375 35.625 C34.70045319 30.83578684 35.53423577 27.09028779 35 21 C32.95682161 15.32450447 29.40252559 11.70126279 24 9 C19.05 9 14.1 9 9 9 Z " fill="#000000" transform="translate(169,22)"/>
<path d="M0 0 C3.3 0 6.6 0 10 0 C12.51134624 5.69131502 15.0197932 11.38389588 17.52563477 17.07763672 C18.37738991 19.01190138 19.2299177 20.945826 20.08325195 22.87939453 C21.3140777 25.66869141 22.54206228 28.45922457 23.76953125 31.25 C24.14777542 32.10553467 24.52601959 32.96106934 24.91572571 33.8425293 C27.11127969 38.84297616 29.13003848 43.86859798 31 49 C27.37 49 23.74 49 20 49 C18.68 45.7 17.36 42.4 16 39 C8.41 38.67 0.82 38.34 -7 38 C-7.495 40.475 -7.495 40.475 -8 43 C-8.95394836 45.02237052 -9.94535351 47.0282696 -11 49 C-14.3 49 -17.6 49 -21 49 C-17.02645714 38.1807799 -12.40224205 27.69855828 -7.6875 17.1875 C-6.93914699 15.51250653 -6.19109807 13.83737717 -5.44335938 12.16210938 C-3.63240056 8.10650109 -1.81736317 4.05274221 0 0 Z M4 12 C2.9932996 14.26807204 1.99448234 16.53907754 1 18.8125 C0.71382812 19.45509766 0.42765625 20.09769531 0.1328125 20.75976562 C-1.13711041 23.67756469 -2 25.78265714 -2 29 C2.62 29 7.24 29 12 29 C10.11994266 22.98381653 7.93937169 17.57467045 5 12 C4.67 12 4.34 12 4 12 Z " fill="#000000" transform="translate(240,22)"/>
<path d="M0 0 C2.296875 1.60546875 2.296875 1.60546875 4 3 C3.45773019 6.79588866 1.79872437 8.47211993 -1 11 C-1.72703125 10.566875 -1.72703125 10.566875 -2.46875 10.125 C-7.61348587 7.27560783 -11.12450405 6.40249194 -17 7 C-17.99 7.66 -18.98 8.32 -20 9 C-20.2502157 12.08365871 -20.2502157 12.08365871 -20 15 C-19.32195312 15.17015625 -18.64390625 15.3403125 -17.9453125 15.515625 C1.04127726 20.45950156 1.04127726 20.45950156 5 27 C6.61266232 30.22532464 6.4544969 33.50289888 6 37 C4.6309477 40.76489383 2.73757674 43.44681744 -0.5 45.875 C-7.79562317 49.15803043 -15.91772047 49.08107084 -23.375 46.3125 C-27.48503585 44.48654458 -30.13272759 42.4407269 -33 39 C-31.35 37.02 -29.7 35.04 -28 33 C-25.26844845 34.04441677 -22.82242908 35.10736847 -20.3125 36.625 C-15.90676767 38.45379455 -11.72251626 38.65401754 -7 38 C-4.71271266 36.16116119 -4.71271266 36.16116119 -4.875 33.375 C-4.91625 32.59125 -4.9575 31.8075 -5 31 C-9.31347984 29.03932735 -13.59952225 27.47601342 -18.125 26.0625 C-25.93279221 23.47616883 -25.93279221 23.47616883 -29 20 C-31.30527869 15.38944263 -31.6128883 10.89525747 -30 6 C-27.67712914 2.13359281 -25.16322367 -0.41838817 -21.125 -2.4375 C-13.5359361 -3.8035315 -7.11749825 -2.94141509 0 0 Z " fill="#000000" transform="translate(385,24)"/>
<path d="M0 0 C-1.12451727 2.9719385 -2.22293791 5.33440687 -4 8 C-9 6 -9 6 -11.3125 4.875 C-15.06996141 3.65164047 -18.048775 3.74090328 -22 4 C-24.28728734 5.83883881 -24.28728734 5.83883881 -24.125 8.625 C-24.08375 9.40875 -24.0425 10.1925 -24 11 C-19.87136704 13.20442846 -15.95290766 14.67018048 -11.4375 15.875 C-6.42512633 17.38213741 -3.07689331 18.54380969 0 23 C2.34120546 27.47882783 2.19731375 31.04372718 0.96484375 35.8125 C-0.69439007 39.57432566 -3.50121772 41.93320878 -7 44 C-14.82634146 46.63556468 -23.63973154 45.40911659 -31 42 C-33.12691343 40.77394866 -35.02484098 39.46870799 -37 38 C-35.55746343 34.63408134 -33.66735273 32.48952921 -31 30 C-30.14728516 30.52400391 -30.14728516 30.52400391 -29.27734375 31.05859375 C-23.59900042 34.40492964 -18.86998402 36.84130087 -12.125 35.375 C-9.76255361 34.16317789 -9.76255361 34.16317789 -9.1875 31.5 C-8.97507002 29.08543713 -8.97507002 29.08543713 -9 27 C-9.67804688 26.82984375 -10.35609375 26.6596875 -11.0546875 26.484375 C-29.85291837 21.5895448 -29.85291837 21.5895448 -34 16 C-35.24350856 12.26947433 -35.52198871 8.87447957 -35 5 C-32.26999991 -0.46000018 -28.50813895 -3.73317205 -22.75 -5.8125 C-13.97820938 -6.41057663 -7.5791774 -4.37012144 0 0 Z " fill="#F3A523" transform="translate(478,96)"/>
<path d="M0 0 C2.6875 2.75 2.6875 2.75 4 5 C2.35 6.98 0.7 8.96 -1 11 C-3.76341403 9.94340052 -6.29351095 8.83410251 -8.875 7.375 C-13.69831868 5.25273978 -17.27417367 5.35704509 -22.1875 7.1875 C-26.22593343 9.79004599 -28.48039779 12.44119336 -30 17 C-30.80555864 23.47899309 -30.10403876 27.95441075 -26.484375 33.40625 C-24.13706636 35.92651822 -22.03808281 36.86809839 -18.6328125 37.30078125 C-13.2654448 37.32586241 -9.68187597 36.89830417 -5 34 C-3.66666667 33.33333333 -2.33333333 32.66666667 -1 32 C0.65 33.65 2.3 35.3 4 37 C2.60802671 40.38256721 1.1974504 41.83688682 -1.9375 43.6875 C-2.62714844 44.10386719 -3.31679687 44.52023438 -4.02734375 44.94921875 C-10.1616915 48.21682181 -17.96509057 47.94832452 -24.609375 46.38671875 C-31.83455816 43.55893155 -36.05005072 38.27088267 -39.9375 31.75 C-41.97432811 24.5611949 -42.12842315 16.72887924 -39.03515625 9.80859375 C-35.01730591 2.78872693 -29.77610807 -1.309155 -22.01171875 -3.58203125 C-14.19089966 -5.20693929 -7.06614839 -3.60212451 0 0 Z " fill="#F3A523" transform="translate(208,94)"/>
<path d="M0 0 C3.3 0 6.6 0 10 0 C11.53015493 3.75357776 13.06009591 7.50724264 14.58984375 11.26098633 C15.10964254 12.53640059 15.62949849 13.81179155 16.14941406 15.0871582 C16.89924114 16.92653285 17.6488416 18.76599988 18.3984375 20.60546875 C19.07398682 22.26292114 19.07398682 22.26292114 19.76318359 23.95385742 C20.37540771 25.461698 20.37540771 25.461698 21 27 C21.38365723 27.89501221 21.76731445 28.79002441 22.16259766 29.7121582 C23 32 23 32 23 35 C23.66 35 24.32 35 25 35 C25.11408203 34.14768799 25.22816406 33.29537598 25.34570312 32.41723633 C26.0338073 28.82343257 27.12312698 25.72471622 28.46875 22.32421875 C28.70911987 21.71359085 28.94948975 21.10296295 29.19714355 20.47383118 C29.70205143 19.19458713 30.2097828 17.91645419 30.72021484 16.6394043 C31.50372119 14.67818538 32.27792051 12.71348214 33.05078125 10.74804688 C36.84850166 1.15149834 36.84850166 1.15149834 38 0 C41.33327842 -0.1424478 44.66453893 -0.04222103 48 0 C45.60662262 8.9728901 42.0763866 17.3769747 38.47485352 25.91552734 C37.43193248 28.38820009 36.39602111 30.8637181 35.36132812 33.33984375 C34.69831618 34.92204247 34.03491853 36.50407964 33.37109375 38.0859375 C33.06272079 38.82137787 32.75434784 39.55681824 32.43663025 40.31454468 C31.05187287 43.59516686 29.65422793 46.84504503 28 50 C25.36 50 22.72 50 20 50 C15.414374 41.4807133 11.83053164 32.56109498 8.21411133 23.60229492 C7.17891323 21.04125667 6.13375682 18.48443177 5.08789062 15.92773438 C4.42648404 14.29711795 3.76565534 12.66626699 3.10546875 11.03515625 C2.79304733 10.27268082 2.48062592 9.51020538 2.15873718 8.72462463 C0.93463375 5.6737038 0 3.31938236 0 0 Z " fill="#000000" transform="translate(271,22)"/>
<path d="M0 0 C2.97 0 5.94 0 9 0 C9 13.53 9 27.06 9 41 C17.58 41 26.16 41 35 41 C35 43.64 35 46.28 35 49 C23.45 49 11.9 49 0 49 C0 32.83 0 16.66 0 0 Z " fill="#F4A623" transform="translate(285,91)"/>
<path d="M0 0 C2.97 0 5.94 0 9 0 C9 16.17 9 32.34 9 49 C6.03 49 3.06 49 0 49 C0 32.83 0 16.66 0 0 Z " fill="#000000" transform="translate(331,22)"/>
</svg>
