<?xml version="1.0" encoding="UTF-8"?>
<svg version="1.1" xmlns="http://www.w3.org/2000/svg" width="250" height="215">
<path d="M0 0 C1.42713351 1.18200234 2.79982431 2.42919296 4.16015625 3.6875 C4.96453125 2.924375 5.76890625 2.16125 6.59765625 1.375 C11.38831965 -2.59279651 17.03225293 -4.40777647 23.22265625 -4.6875 C29.52552073 -4.08722719 35.03551229 -2.284421 39.84375 2.0390625 C43.74452529 6.92371287 45.51563579 13.5645556 46.16015625 19.6875 C46.45148438 19.04683594 46.7428125 18.40617187 47.04296875 17.74609375 C52.2978759 6.65790917 57.58315645 1.33076506 69.16015625 -3.3125 C78.21006265 -5.57836862 88.11807364 -4.86114843 96.28515625 -0.1875 C102.87279849 4.30945339 107.3433424 9.692922 109.75 17.31640625 C110.16015625 19.6875 110.16015625 19.6875 110.16015625 26.6875 C101.91015625 26.6875 93.66015625 26.6875 85.16015625 26.6875 C84.17015625 24.3775 83.18015625 22.0675 82.16015625 19.6875 C78.78615047 19.27024322 78.78615047 19.27024322 75.16015625 19.6875 C71.56357492 23.16419529 71.47561416 27.98634131 71.15234375 32.7578125 C71.16625066 37.97290204 71.34399062 43.87133437 75.16015625 47.6875 C78.61784816 48.27092353 78.61784816 48.27092353 82.16015625 47.6875 C84.63093574 44.72256461 85.21560802 42.46569292 86.16015625 38.6875 C94.41015625 38.6875 102.66015625 38.6875 111.16015625 38.6875 C111.16015625 40.3375 111.16015625 41.9875 111.16015625 43.6875 C119.08015625 43.6875 127.00015625 43.6875 135.16015625 43.6875 C136.15015625 45.9975 137.14015625 48.3075 138.16015625 50.6875 C140.80015625 50.6875 143.44015625 50.6875 146.16015625 50.6875 C146.49015625 49.3675 146.82015625 48.0475 147.16015625 46.6875 C140.82363585 44.10116514 134.39087137 42.43007236 127.74609375 40.84765625 C121.24874939 38.74557425 117.12027002 35.18765802 113.16015625 29.6875 C110.02976812 22.83045933 110.43512915 15.81415818 112.9921875 8.86328125 C116.21695852 2.85593189 121.9254584 -0.81030863 128.30078125 -2.82421875 C139.53844138 -5.77528496 152.07240609 -5.11051423 162.40625 0.484375 C166.47590635 3.27603236 169.22169369 7.17556129 171.16015625 11.6875 C171.57421875 14.046875 171.57421875 14.046875 171.78515625 16.4375 C171.85992187 17.23671875 171.9346875 18.0359375 172.01171875 18.859375 C172.06070313 19.46265625 172.1096875 20.0659375 172.16015625 20.6875 C168.22304188 20.83242719 164.28661 20.92144537 160.34765625 21 C159.22810547 21.04189453 158.10855469 21.08378906 156.95507812 21.12695312 C155.88193359 21.14306641 154.80878906 21.15917969 153.703125 21.17578125 C152.7133667 21.20196533 151.7236084 21.22814941 150.70385742 21.25512695 C148.16015625 20.6875 148.16015625 20.6875 146.50512695 18.20776367 C145.83936646 16.96023315 145.83936646 16.96023315 145.16015625 15.6875 C142.38270377 14.95062485 140.0188032 14.6875 137.16015625 14.6875 C137.49015625 16.0075 137.82015625 17.3275 138.16015625 18.6875 C138.75441406 18.84307373 139.34867188 18.99864746 139.9609375 19.15893555 C142.69786387 19.88386987 145.42882785 20.62926347 148.16015625 21.375 C149.09472656 21.61927734 150.02929688 21.86355469 150.9921875 22.11523438 C159.14459429 24.36712296 166.39679765 27.359256 171.16015625 34.6875 C174.26044121 41.2375566 174.43507202 48.73631477 172.21484375 55.6171875 C168.61595808 63.24501436 164.07506223 66.47168354 156.5390625 69.85546875 C145.40171226 73.75079814 132.77726666 72.43430333 122.16015625 67.6875 C115.70561592 63.72021884 112.59652654 58.75617958 110.16015625 51.6875 C108.61740385 53.72448745 107.10446735 55.76814792 105.65234375 57.87109375 C100.12749815 65.57118049 93.5625912 69.90427958 84.16015625 71.6875 C73.99801451 72.56706714 65.00462646 70.97407266 56.9765625 64.421875 C51.69095611 59.37497341 49.06209871 54.45869906 46.16015625 47.6875 C45.83015625 54.9475 45.50015625 62.2075 45.16015625 69.6875 C36.58015625 69.6875 28.00015625 69.6875 19.16015625 69.6875 C19.11117187 66.47386719 19.0621875 63.26023437 19.01171875 59.94921875 C18.95773023 56.84150479 18.90041435 53.73386881 18.84277344 50.6262207 C18.80445821 48.46417027 18.76960985 46.30205553 18.73828125 44.13989258 C18.69268608 41.03443396 18.63468241 37.92941901 18.57421875 34.82421875 C18.56266754 33.85538254 18.55111633 32.88654633 18.53921509 31.88835144 C18.5193454 30.9876442 18.49947571 30.08693695 18.47900391 29.15893555 C18.46568024 28.36617722 18.45235657 27.57341888 18.43862915 26.75663757 C18.27302043 24.38146892 18.27302043 24.38146892 16.16015625 21.6875 C13.07649754 21.4372843 13.07649754 21.4372843 10.16015625 21.6875 C7.65083698 26.53444828 7.81336473 31.25469193 7.74609375 36.58203125 C7.7267276 37.52938644 7.70736145 38.47674164 7.68740845 39.45280457 C7.62779254 42.46844577 7.5812992 45.48412552 7.53515625 48.5 C7.49695992 50.54884446 7.45790723 52.59767314 7.41796875 54.64648438 C7.32049923 59.66007259 7.24078766 64.67349971 7.16015625 69.6875 C-1.41984375 69.6875 -9.99984375 69.6875 -18.83984375 69.6875 C-18.90042969 66.47386719 -18.96101563 63.26023437 -19.0234375 59.94921875 C-19.0852213 56.84152865 -19.14861133 53.73387519 -19.2121582 50.6262207 C-19.25550688 48.4641444 -19.297182 46.30203387 -19.3371582 44.13989258 C-19.39486219 41.03456298 -19.45855647 37.92940564 -19.5234375 34.82421875 C-19.54014999 33.85538254 -19.55686249 32.88654633 -19.57408142 31.88835144 C-19.60399925 30.53729057 -19.60399925 30.53729057 -19.63452148 29.15893555 C-19.65783791 27.96979805 -19.65783791 27.96979805 -19.68162537 26.75663757 C-19.77065601 24.49010226 -19.77065601 24.49010226 -20.83984375 21.6875 C-23.14984375 21.6875 -25.45984375 21.6875 -27.83984375 21.6875 C-29.73745568 27.33039865 -30.17430107 32.40835524 -30.25390625 38.33984375 C-30.2732724 39.23997696 -30.29263855 40.14011017 -30.31259155 41.06752014 C-30.37198846 43.91991945 -30.41861206 46.77236001 -30.46484375 49.625 C-30.5030603 51.56837619 -30.54211413 53.51173612 -30.58203125 55.45507812 C-30.67922054 60.19913022 -30.75910483 64.94302581 -30.83984375 69.6875 C-39.41984375 69.6875 -47.99984375 69.6875 -56.83984375 69.6875 C-56.83984375 45.9275 -56.83984375 22.1675 -56.83984375 -2.3125 C-48.25984375 -2.3125 -39.67984375 -2.3125 -30.83984375 -2.3125 C-30.50984375 -0.9925 -30.17984375 0.3275 -29.83984375 1.6875 C-29.17984375 1.06875 -28.51984375 0.45 -27.83984375 -0.1875 C-19.5311954 -6.07279258 -8.29926156 -5.92049232 0 0 Z " fill="#CCCCCC" transform="translate(66.83984375,100.3125)"/>
<path d="M0 0 C75.57 0 151.14 0 229 0 C229 1.32 229 2.64 229 4 C153.43 4 77.86 4 0 4 C0 2.68 0 1.36 0 0 Z " fill="#CCCCCC" transform="translate(10,179)"/>
<path d="M0 0 C2.125 1.875 2.125 1.875 4 4 C6.59915538 5.19027984 6.59915538 5.19027984 9 6 C9.33 6.33 9.66 6.66 10 7 C10.33 6.34 10.66 5.68 11 5 C12.32 5 13.64 5 15 5 C15.33 5.66 15.66 6.32 16 7 C16.66 6.34 17.32 5.68 18 5 C20.93359375 4.515625 20.93359375 4.515625 24.4375 4.25 C25.59121094 4.15203125 26.74492187 4.0540625 27.93359375 3.953125 C31 4 31 4 34 6 C34.99 5.34 35.98 4.68 37 4 C39.9375 4.375 39.9375 4.375 43 5 C46.27275026 5 48.846632 4.70074844 52 4 C52.33 2.68 52.66 1.36 53 0 C54.32 0 55.64 0 57 0 C57 5.61 57 11.22 57 17 C48.25 17.125 48.25 17.125 46 16 C46 15.34 46 14.68 46 14 C45.34 14 44.68 14 44 14 C44 14.66 44 15.32 44 16 C41.23749964 17.38125018 39.05268901 17.19079306 36 17 C35.34 16.34 34.68 15.68 34 15 C33.67 15.66 33.34 16.32 33 17 C31.68 17 30.36 17 29 17 C29 14.03 29 11.06 29 8 C28.01 8 27.02 8 26 8 C26 10.97 26 13.94 26 17 C24.68 17 23.36 17 22 17 C21.505 13.535 21.505 13.535 21 10 C20.34 12.31 19.68 14.62 19 17 C17.35 17 15.7 17 14 17 C14 15.68 14 14.36 14 13 C13.34 13 12.68 13 12 13 C12 14.32 12 15.64 12 17 C10.35 17 8.7 17 7 17 C6.34 15.02 5.68 13.04 5 11 C4.54625 11.804375 4.0925 12.60875 3.625 13.4375 C2 16 2 16 0 17 C-3.7621596 17.34834811 -6.14128053 17.50642431 -9.4375 15.5625 C-11.75587974 11.76035723 -11.77201236 8.33759522 -11 4 C-8.21093968 -0.57405892 -5.10245628 -0.72892233 0 0 Z M-5 4 C-7.2491908 5.82703227 -7.2491908 5.82703227 -7.25 8.5 C-7.2491908 11.17296773 -7.2491908 11.17296773 -5 13 C-2.21762345 12.59471099 -2.21762345 12.59471099 0 11 C0.2500773 8.54190002 0.2500773 8.54190002 0 6 C-0.66 5.34 -1.32 4.68 -2 4 C-2.99 4 -3.98 4 -5 4 Z M50 8 C49.67 9.65 49.34 11.3 49 13 C50.32 13 51.64 13 53 13 C52.67 11.35 52.34 9.7 52 8 C51.34 8 50.68 8 50 8 Z M38 12 C38.66 12.66 39.32 13.32 40 14 C40.33 13.34 40.66 12.68 41 12 C40.01 12 39.02 12 38 12 Z " fill="#CCCCCC" transform="translate(181,188)"/>
<path d="M0 0 C75.57 0 151.14 0 229 0 C229 0.99 229 1.98 229 3 C153.43 3 77.86 3 0 3 C0 2.01 0 1.02 0 0 Z " fill="#CCCCCC" transform="translate(10,85)"/>
<path d="M0 0 C12.1875 -0.40178571 12.1875 -0.40178571 17 3 C17.33 2.01 17.66 1.02 18 0 C20.06132142 -0.10864945 22.12431321 -0.18588321 24.1875 -0.25 C25.33605469 -0.29640625 26.48460937 -0.3428125 27.66796875 -0.390625 C31.66290537 0.07771458 33.24102446 1.11840333 36 4 C36.63734462 7.96569988 36.61999672 10.03280512 34.4375 13.4375 C31.18129203 15.5248128 28.79004984 15.2915423 25 15 C25 16.98 25 18.96 25 21 C22.69 21 20.38 21 18 21 C17.67 18.36 17.34 15.72 17 13 C16.01 13.66 15.02 14.32 14 15 C11.66800612 15.07905064 9.33167378 15.08798769 7 15 C7 16.98 7 18.96 7 21 C4.69 21 2.38 21 0 21 C0 14.07 0 7.14 0 0 Z M7 6 C7 6.99 7 7.98 7 9 C8.32 9 9.64 9 11 9 C10.67 8.01 10.34 7.02 10 6 C9.01 6 8.02 6 7 6 Z M25 6 C25 6.99 25 7.98 25 9 C26.32 9 27.64 9 29 9 C28.67 8.01 28.34 7.02 28 6 C27.01 6 26.02 6 25 6 Z " fill="#CCCCCC" transform="translate(168,53)"/>
<path d="M0 0 C1.32 0 2.64 0 4 0 C4.33 1.98 4.66 3.96 5 6 C5.99 5.34 6.98 4.68 8 4 C10.91796875 4.0234375 10.91796875 4.0234375 14.1875 4.375 C15.27417969 4.48585937 16.36085937 4.59671875 17.48046875 4.7109375 C18.72763672 4.85402344 18.72763672 4.85402344 20 5 C20.33 6.32 20.66 7.64 21 9 C21.66 9 22.32 9 23 9 C23.33 7.68 23.66 6.36 24 5 C25.74714233 4.74997791 27.49799141 4.52576806 29.25 4.3125 C30.22453125 4.18488281 31.1990625 4.05726563 32.203125 3.92578125 C35.48272731 4.0128098 36.63310671 4.80780598 39 7 C39.53625 6.484375 40.0725 5.96875 40.625 5.4375 C43 4 43 4 46.1875 4.1875 C47.5796875 4.5896875 47.5796875 4.5896875 49 5 C50.10647808 7.21295616 50.19588368 8.54672699 50.25 11 C50.27578125 11.70125 50.3015625 12.4025 50.328125 13.125 C50.21984375 13.74375 50.1115625 14.3625 50 15 C46.11986924 17.58675384 44.47050246 16.79830401 40 16 C39.01 16 38.02 16 37 16 C36.505 16.495 36.505 16.495 36 17 C33.1875 17.375 33.1875 17.375 30 17 C27.625 14.5 27.625 14.5 26 12 C25.525625 13.134375 25.05125 14.26875 24.5625 15.4375 C23 19 23 19 22 20 C20.33382885 20.04063832 18.66611905 20.042721 17 20 C17 19.01 17 18.02 17 17 C17.66 17 18.32 17 19 17 C18.34 15.35 17.68 13.7 17 12 C16.814375 12.639375 16.62875 13.27875 16.4375 13.9375 C15 16 15 16 11.5625 16.875 C8 17 8 17 5 15 C4.67 15.66 4.34 16.32 4 17 C2.68 17 1.36 17 0 17 C0 11.39 0 5.78 0 0 Z M9 8 C8.67 9.32 8.34 10.64 8 12 C9.485 12.99 9.485 12.99 11 14 C12.10836423 12.11683841 12.10836423 12.11683841 13 10 C12.67 9.34 12.34 8.68 12 8 C11.01 8 10.02 8 9 8 Z M31 12 C35 13 35 13 35 13 Z M43 12 C43.66 12.66 44.32 13.32 45 14 C45.33 13.34 45.66 12.68 46 12 C45.01 12 44.02 12 43 12 Z " fill="#CCCCCC" transform="translate(114,188)"/>
<path d="M0 0 C2.5 1.5 2.5 1.5 4 3 C4.33 2.01 4.66 1.02 5 0 C10.94 0 16.88 0 23 0 C23 1.98 23 3.96 23 6 C21.35 6 19.7 6 18 6 C18 10.95 18 15.9 18 21 C15.69 21 13.38 21 11 21 C11 16.05 11 11.1 11 6 C7.7 6.66 4.4 7.32 1 8 C2.32 8.66 3.64 9.32 5 10 C6 12.8125 6 12.8125 6 16 C4.5 18.8125 4.5 18.8125 2 21 C-1.98123144 22.20188119 -4.98004084 22.27314308 -8.875 20.9375 C-12 19 -12 19 -12.9375 15.8125 C-12.958125 14.884375 -12.97875 13.95625 -13 13 C-12.01 12.67 -11.02 12.34 -10 12 C-10.66 11.34 -11.32 10.68 -12 10 C-12.66932271 3.86454183 -12.66932271 3.86454183 -10.5 1.0625 C-6.95928686 -0.44230308 -3.79173171 -0.60605548 0 0 Z M-5 5 C-5 5.66 -5 6.32 -5 7 C-4.01 6.67 -3.02 6.34 -2 6 C-2.99 5.67 -3.98 5.34 -5 5 Z M-6 13 C-5.67 13.99 -5.34 14.98 -5 16 C-4.01 16 -3.02 16 -2 16 C-2 15.34 -2 14.68 -2 14 C-3.32 13.67 -4.64 13.34 -6 13 Z " fill="#CCCCCC" transform="translate(85,30)"/>
<path d="M0 0 C3.3 0 6.6 0 10 0 C10.66 2.31 11.32 4.62 12 7 C12.66 4.69 13.32 2.38 14 0 C17.3 0 20.6 0 24 0 C24 6.6 24 13.2 24 20 C21.69 20 19.38 20 17 20 C16.67 19.34 16.34 18.68 16 18 C15.67 18.66 15.34 19.32 15 20 C13.02 20 11.04 20 9 20 C8.67 19.01 8.34 18.02 8 17 C7.67 17.99 7.34 18.98 7 20 C4.69 20 2.38 20 0 20 C0 13.4 0 6.8 0 0 Z " fill="#CCCCCC" transform="translate(124,8)"/>
<path d="M0 0 C2.31 0 4.62 0 7 0 C7 4.62 7 9.24 7 14 C9.97 14 12.94 14 16 14 C16 9.38 16 4.76 16 0 C18.64 0 21.28 0 24 0 C24 4.62 24 9.24 24 14 C26.64 14 29.28 14 32 14 C32 15.98 32 17.96 32 20 C21.44 20 10.88 20 0 20 C0 13.4 0 6.8 0 0 Z " fill="#CCCCCC" transform="translate(169,8)"/>
<path d="M0 0 C2.64 0 5.28 0 8 0 C8.99 1.98 9.98 3.96 11 6 C11.33 4.02 11.66 2.04 12 0 C14.31 0 16.62 0 19 0 C19 6.93 19 13.86 19 21 C16.69 21 14.38 21 12 21 C9.5625 18 9.5625 18 8 15 C7.67 16.98 7.34 18.96 7 21 C4.69 21 2.38 21 0 21 C0 14.07 0 7.14 0 0 Z " fill="#CCCCCC" transform="translate(219,30)"/>
<path d="M0 0 C2.206875 -0.061875 4.41375 -0.12375 6.6875 -0.1875 C8.54955078 -0.23970703 8.54955078 -0.23970703 10.44921875 -0.29296875 C14.22562033 0.01861554 16.09415751 0.59497506 19 3 C19.3125 6.5 19.3125 6.5 19 10 C19 12.48349306 19.17841759 14.73543415 19.5 17.1875 C19.7475 19.0746875 19.7475 19.0746875 20 21 C17.69 21 15.38 21 13 21 C12.7525 20.030625 12.505 19.06125 12.25 18.0625 C11.63125 16.5465625 11.63125 16.5465625 11 15 C8.96756452 14.03122943 8.96756452 14.03122943 7 14 C7 16.31 7 18.62 7 21 C4.69 21 2.38 21 0 21 C0 14.07 0 7.14 0 0 Z M7 6 C7 6.99 7 7.98 7 9 C8.65 9 10.3 9 12 9 C11.67 8.01 11.34 7.02 11 6 C9.68 6 8.36 6 7 6 Z " fill="#CCCCCC" transform="translate(109,30)"/>
<path d="M0 0 C2.578125 -0.061875 5.15625 -0.12375 7.8125 -0.1875 C9.02450073 -0.22846802 9.02450073 -0.22846802 10.26098633 -0.27026367 C15.50046478 -0.33139421 15.50046478 -0.33139421 17.99609375 1.32421875 C19.53984456 3.90114132 19.24471229 6.06345247 19 9 C18.67 9.99 18.34 10.98 18 12 C18.33 12.66 18.66 13.32 19 14 C19.039992 15.99960012 19.04346799 18.00047242 19 20 C16.69 20 14.38 20 12 20 C11.67 18.35 11.34 16.7 11 15 C9.68 14.67 8.36 14.34 7 14 C7 15.98 7 17.96 7 20 C4.69 20 2.38 20 0 20 C0 13.4 0 6.8 0 0 Z M7 6 C7 6.66 7 7.32 7 8 C8.65 8 10.3 8 12 8 C12 7.34 12 6.68 12 6 C10.35 6 8.7 6 7 6 Z " fill="#CCCCCC" transform="translate(220,8)"/>
<path d="M0 0 C2.31 0 4.62 0 7 0 C8.32 2.31 9.64 4.62 11 7 C11.33 4.69 11.66 2.38 12 0 C13.98 0 15.96 0 18 0 C18 6.93 18 13.86 18 21 C15.69 21 13.38 21 11 21 C9.68 18.69 8.36 16.38 7 14 C6.67 16.31 6.34 18.62 6 21 C4.02 21 2.04 21 0 21 C0 14.07 0 7.14 0 0 Z " fill="#CCCCCC" transform="translate(53,30)"/>
<path d="M0 0 C2.31 0 4.62 0 7 0 C7 4.95 7 9.9 7 15 C7.99 15 8.98 15 10 15 C10.33 10.05 10.66 5.1 11 0 C13.64 0 16.28 0 19 0 C19.05428973 2.22889496 19.09292338 4.45817471 19.125 6.6875 C19.14820313 7.92886719 19.17140625 9.17023437 19.1953125 10.44921875 C18.94684418 14.96637288 18.21377715 17.78622285 15 21 C10.01304075 22.15083675 6.69270045 22.07351881 2 20 C0 18 0 18 -0.22705078 16.12060547 C-0.21657715 15.37697754 -0.20610352 14.63334961 -0.1953125 13.8671875 C-0.18886719 13.06152344 -0.18242187 12.25585938 -0.17578125 11.42578125 C-0.15064453 10.16314453 -0.15064453 10.16314453 -0.125 8.875 C-0.11597656 8.02550781 -0.10695312 7.17601562 -0.09765625 6.30078125 C-0.07405647 4.20040116 -0.03818483 2.10016556 0 0 Z " fill="#CCCCCC" transform="translate(130,30)"/>
<path d="M0 0 C3.72397497 2.97917998 4.08797843 4.86852326 4.625 9.625 C4.5366282 12.77692738 3.95731115 14.65905425 2.0625 17.1875 C-1.15837918 20.05828361 -2.53954506 20.75 -6.8125 20.75 C-10.48264058 20.01597188 -12.39516493 19.12340507 -15.1875 16.625 C-17.26897776 12.9423855 -17.61895638 9.83817492 -16.8125 5.75 C-13.08392344 -1.3214383 -7.57624565 -3.36722029 0 0 Z M-7.8125 4.75 C-10.17942966 7.59826598 -10.17942966 7.59826598 -9.4375 10.9375 C-9.23125 11.865625 -9.025 12.79375 -8.8125 13.75 C-7.8225 14.08 -6.8325 14.41 -5.8125 14.75 C-4.12568262 13.64958081 -4.12568262 13.64958081 -2.8125 11.75 C-3.04533149 8.60078091 -3.04533149 8.60078091 -3.8125 5.75 C-5.1325 5.42 -6.4525 5.09 -7.8125 4.75 Z " fill="#CCCCCC" transform="translate(213.8125,31.25)"/>
<path d="M0 0 C2.38527062 1.9082165 3.29939676 2.84348031 4.1875 5.75 C4.64503144 10.78284587 4.21282355 13.67744907 1.1875 17.75 C-1.46001415 20.39751415 -3.11011096 20.46520084 -6.8125 20.75 C-10.48264058 20.01597188 -12.39516493 19.12340507 -15.1875 16.625 C-17.26897776 12.9423855 -17.61895638 9.83817492 -16.8125 5.75 C-13.08392344 -1.3214383 -7.57624565 -3.36722029 0 0 Z M-7.8125 4.75 C-8.4725 5.41 -9.1325 6.07 -9.8125 6.75 C-9.48923447 10.34679066 -9.48923447 10.34679066 -8.8125 13.75 C-7.8225 14.08 -6.8325 14.41 -5.8125 14.75 C-4.12568262 13.64958081 -4.12568262 13.64958081 -2.8125 11.75 C-3.04533149 8.60078091 -3.04533149 8.60078091 -3.8125 5.75 C-5.70429203 5.0685177 -5.70429203 5.0685177 -7.8125 4.75 Z " fill="#CCCCCC" transform="translate(46.8125,31.25)"/>
<path d="M0 0 C5.61 0 11.22 0 17 0 C17 1.98 17 3.96 17 6 C16.67 6.33 16.34 6.66 16 7 C15.83333333 10 15.83333333 10 16 13 C16.33 13.33 16.66 13.66 17 14 C17 15.98 17 17.96 17 20 C11.39 20 5.78 20 0 20 C0 13.4 0 6.8 0 0 Z " fill="#CCCCCC" transform="translate(202,8)"/>
<path d="M0 0 C2.5625 1.8125 2.5625 1.8125 4 4 C4 4.99 4 5.98 4 7 C3.01 7.33 2.02 7.66 1 8 C2.0209375 8.7734375 2.0209375 8.7734375 3.0625 9.5625 C5 12 5 12 4.9375 15.625 C4 19 4 19 1 21 C-3.90267209 21.64370962 -8.46910783 21.99686002 -12.6875 19.25 C-14 17 -14 17 -14 13 C-13.01 12.67 -12.02 12.34 -11 12 C-11.66 11.34 -12.32 10.68 -13 10 C-13.45409879 6.51857596 -13.39476404 4.65221885 -11.5625 1.625 C-7.78967317 -0.76752433 -4.34922017 -0.80600227 0 0 Z M-6 5 C-6 5.66 -6 6.32 -6 7 C-5.01 6.67 -4.02 6.34 -3 6 C-3.99 5.67 -4.98 5.34 -6 5 Z M-7 13 C-6.67 13.99 -6.34 14.98 -6 16 C-5.01 16 -4.02 16 -3 16 C-3 15.34 -3 14.68 -3 14 C-4.32 13.67 -5.64 13.34 -7 13 Z " fill="#CCCCCC" transform="translate(140,53)"/>
<path d="M0 0 C5.61 0 11.22 0 17 0 C17 5.94 17 11.88 17 18 C11.39 18 5.78 18 0 18 C0 12.06 0 6.12 0 0 Z " fill="#CCCCCC" transform="translate(11,7)"/>
<path d="M0 0 C2.31 0 4.62 0 7 0 C7 4.95 7 9.9 7 15 C8.32 15 9.64 15 11 15 C11 10.05 11 5.1 11 0 C13.31 0 15.62 0 18 0 C18.107834 2.93847653 18.18721916 5.87301151 18.25 8.8125 C18.30027344 10.06256836 18.30027344 10.06256836 18.3515625 11.33789062 C18.44970221 17.44708745 18.44970221 17.44708745 16.33203125 20.05078125 C13.55101924 21.18275096 11.4390631 21.39950256 8.4375 21.375 C7.01244141 21.38660156 7.01244141 21.38660156 5.55859375 21.3984375 C2.54538405 20.92920484 1.846554 20.3646113 0 18 C-0.34057617 16.00708008 -0.34057617 16.00708008 -0.29296875 13.76953125 C-0.28330078 12.96708984 -0.27363281 12.16464844 -0.26367188 11.33789062 C-0.23853516 10.50451172 -0.21339844 9.67113281 -0.1875 8.8125 C-0.17396484 7.96751953 -0.16042969 7.12253906 -0.14648438 6.25195312 C-0.11115799 4.16769616 -0.05735139 2.08376723 0 0 Z " fill="#CCCCCC" transform="translate(146,53)"/>
<path d="M0 0 C2.31 0 4.62 0 7 0 C7.33 4.95 7.66 9.9 8 15 C8.99 14.67 9.98 14.34 11 14 C11.33 9.38 11.66 4.76 12 0 C14.31 0 16.62 0 19 0 C19.13517903 2.75164432 19.23415251 5.49664521 19.3125 8.25 C19.35439453 9.02730469 19.39628906 9.80460937 19.43945312 10.60546875 C19.56273952 16.37527196 19.56273952 16.37527196 16.73046875 19.51953125 C12.92923391 21.58057274 10.21129887 21.71464466 6 21 C3.0625 19.6875 3.0625 19.6875 1 18 C-0.2062252 14.38132441 -0.10816918 11.07493749 -0.0625 7.3125 C-0.05798828 6.61060547 -0.05347656 5.90871094 -0.04882812 5.18554688 C-0.03706927 3.45699462 -0.01913454 1.72848635 0 0 Z " fill="#CCCCCC" transform="translate(149,8)"/>
<path d="M0 0 C3.38186376 1.9427728 4.70264591 2.99357079 5.8125 6.75 C5.874375 7.4925 5.93625 8.235 6 9 C3.69 9 1.38 9 -1 9 C-1.33 8.01 -1.66 7.02 -2 6 C-3.98 6.99 -3.98 6.99 -6 8 C-6 9.98 -6 11.96 -6 14 C-4.68 14.33 -3.36 14.66 -2 15 C-1.67 14.01 -1.34 13.02 -1 12 C1.31 12 3.62 12 6 12 C5.6567585 15.08917348 5.17806461 16.77105979 3.25 19.25 C0.62933078 21.28829828 -0.68866521 21.84598443 -4 22 C-7.87708979 21.33153624 -10.21463663 20.83603198 -12.9375 17.9375 C-14.40560007 13.87863511 -14.7185694 10.26505708 -14 6 C-10.37213198 0.19541117 -6.70204644 -0.9244202 0 0 Z " fill="#CCCCCC" transform="translate(164,30)"/>
<path d="M0 0 C3 1.6875 3 1.6875 5 4 C5.3125 6.75 5.3125 6.75 5 9 C2.69 9 0.38 9 -2 9 C-2.33 8.34 -2.66 7.68 -3 7 C-3.99 7 -4.98 7 -6 7 C-6 9.31 -6 11.62 -6 14 C-4.68 14.33 -3.36 14.66 -2 15 C-2 14.01 -2 13.02 -2 12 C0.31 12 2.62 12 5 12 C5.35659503 15.20935531 5.29619066 16.58988985 3.375 19.25 C0.40223162 21.44046091 -1.30391473 21.92752774 -5 22 C-9.34986291 20.5500457 -11.4325645 19.85115325 -14 16 C-14.69012348 11.71327144 -15.18001783 7.0346631 -12.9375 3.16796875 C-8.87579872 -0.66195067 -5.19541737 -0.74220248 0 0 Z " fill="#CCCCCC" transform="translate(24,30)"/>
<path d="M0 0 C3.19017028 1.30878781 3.95709812 2.96128035 5.4375 6 C5.829375 5.195625 6.22125 4.39125 6.625 3.5625 C8.4375 1 8.4375 1 10.875 0 C14.15388446 0 15.12369578 0.71523935 17.4375 3 C17.93359375 5.59375 17.93359375 5.59375 17.875 8.5 C17.87371094 9.4590625 17.87242188 10.418125 17.87109375 11.40625 C17.4375 14 17.4375 14 16.140625 15.86328125 C14.4375 17 14.4375 17 10.75 16.6875 C9.656875 16.460625 8.56375 16.23375 7.4375 16 C6.7775 14.35 6.1175 12.7 5.4375 11 C4.7775 12.65 4.1175 14.3 3.4375 16 C0.125 16.6875 0.125 16.6875 -3.5625 17 C-5.265625 15.86328125 -5.265625 15.86328125 -6.5625 14 C-6.99609375 11.40625 -6.99609375 11.40625 -7 8.5 C-7.01933594 7.5409375 -7.03867187 6.581875 -7.05859375 5.59375 C-6.5625 3 -6.5625 3 -4.6953125 1.15625 C-2.5625 0 -2.5625 0 0 0 Z M-1.5625 4 C-2.76811184 4.98267859 -2.76811184 4.98267859 -2.66015625 6.84765625 C-2.64855469 7.57855469 -2.63695312 8.30945313 -2.625 9.0625 C-2.604375 10.361875 -2.58375 11.66125 -2.5625 13 C-1.5725 13 -0.5825 13 0.4375 13 C0.4375 10.36 0.4375 7.72 0.4375 5 C-0.2225 4.67 -0.8825 4.34 -1.5625 4 Z M10.4375 4 C9.50369039 8.53140653 9.50369039 8.53140653 10.4375 13 C11.4275 12.67 12.4175 12.34 13.4375 12 C13.4375 9.69 13.4375 7.38 13.4375 5 C12.4475 4.67 11.4575 4.34 10.4375 4 Z " fill="#CCCCCC" transform="translate(25.5625,188)"/>
<path d="M0 0 C2.31 0 4.62 0 7 0 C7.66 1.65 8.32 3.3 9 5 C9.66 5 10.32 5 11 5 C11.66 3.35 12.32 1.7 13 0 C15.31 0 17.62 0 20 0 C19.43373901 3.66782686 18.45167538 6.23189488 16.5 9.375 C14.1771079 13.37144548 13.293043 16.40899307 13 21 C10.69 21 8.38 21 6 21 C5.938125 19.700625 5.87625 18.40125 5.8125 17.0625 C5.31362577 12.27784258 3.60648501 8.97285732 1.05859375 4.9453125 C0 3 0 3 0 0 Z " fill="#CCCCCC" transform="translate(220,53)"/>
<path d="M0 0 C5.94 0 11.88 0 18 0 C18 1.98 18 3.96 18 6 C16.02 6 14.04 6 12 6 C12 10.95 12 15.9 12 21 C9.69 21 7.38 21 5 21 C5 16.05 5 11.1 5 6 C3.35 6 1.7 6 0 6 C0 4.02 0 2.04 0 0 Z " fill="#CCCCCC" transform="translate(170,30)"/>
<path d="M0 0 C2.31 0 4.62 0 7 0 C7 4.95 7 9.9 7 15 C9.97 15 12.94 15 16 15 C16 16.98 16 18.96 16 21 C10.72 21 5.44 21 0 21 C0 14.07 0 7.14 0 0 Z " fill="#CCCCCC" transform="translate(205,53)"/>
<path d="M0 0 C2.5 0.125 2.5 0.125 5 1 C6.3125 3.0625 6.3125 3.0625 7 5 C7.6496875 3.7625 7.6496875 3.7625 8.3125 2.5 C8.869375 1.675 9.42625 0.85 10 0 C10.99 0 11.98 0 13 0 C12.37240135 2.92879371 11.41377341 5.36095629 10 8 C10.969375 7.979375 11.93875 7.95875 12.9375 7.9375 C16 8 16 8 17 9 C17.1875 11.9375 17.1875 11.9375 17 15 C16.34 15.66 15.68 16.32 15 17 C11.875 16.625 11.875 16.625 9 16 C8.67 14.68 8.34 13.36 8 12 C7.566875 12.825 7.13375 13.65 6.6875 14.5 C5.8521875 15.7375 5.8521875 15.7375 5 17 C4.01 17 3.02 17 2 17 C2.57584432 14.61435923 3.22227595 12.33317216 4 10 C3.195625 9.855625 2.39125 9.71125 1.5625 9.5625 C-1 9 -1 9 -2 8 C-2.1875 5.0625 -2.1875 5.0625 -2 2 C-1.34 1.34 -0.68 0.68 0 0 Z M1 3 C1.33 4.32 1.66 5.64 2 7 C2 5.68 2 4.36 2 3 C1.67 3 1.34 3 1 3 Z M12 11 C12.33 11.99 12.66 12.98 13 14 C13.33 13.01 13.66 12.02 14 11 C13.34 11 12.68 11 12 11 Z " fill="#CCCCCC" transform="translate(46,188)"/>
<path d="M0 0 C0.85980469 -0.00257813 1.71960938 -0.00515625 2.60546875 -0.0078125 C4.8125 0.125 4.8125 0.125 6.8125 1.125 C6.8125 5.085 6.8125 9.045 6.8125 13.125 C5.4925 13.125 4.1725 13.125 2.8125 13.125 C2.8125 10.155 2.8125 7.185 2.8125 4.125 C2.1525 4.125 1.4925 4.125 0.8125 4.125 C0.8125 7.095 0.8125 10.065 0.8125 13.125 C-0.5075 13.125 -1.8275 13.125 -3.1875 13.125 C-3.3828125 11.07421875 -3.578125 9.0234375 -3.7734375 6.97265625 C-3.91007812 6.36292969 -4.04671875 5.75320312 -4.1875 5.125 C-4.8475 4.795 -5.5075 4.465 -6.1875 4.125 C-6.1875 7.095 -6.1875 10.065 -6.1875 13.125 C-7.5075 13.125 -8.8275 13.125 -10.1875 13.125 C-10.1875 9.165 -10.1875 5.205 -10.1875 1.125 C-6.49294362 0.38608872 -3.67675653 -0.01112483 0 0 Z " fill="#CCCCCC" transform="translate(93.1875,191.875)"/>
<path d="M0 0 C3.96 0 7.92 0 12 0 C12 1.32 12 2.64 12 4 C9.36 4 6.72 4 4 4 C4 4.66 4 5.32 4 6 C6.31 6 8.62 6 11 6 C11 7.32 11 8.64 11 10 C8.69 10 6.38 10 4 10 C4 10.99 4 11.98 4 13 C6.64 13 9.28 13 12 13 C12 14.32 12 15.64 12 17 C8.04 17 4.08 17 0 17 C0 11.39 0 5.78 0 0 Z " fill="#CCCCCC" transform="translate(70,188)"/>
<path d="M0 0 C2.31 0 4.62 0 7 0 C7 6.93 7 13.86 7 21 C4.69 21 2.38 21 0 21 C0 14.07 0 7.14 0 0 Z " fill="#CCCCCC" transform="translate(189,30)"/>
<path d="M0 0 C1.58894072 1.58894072 1.16998411 3.24801424 1.1875 5.4375 C1.20167969 6.24058594 1.21585938 7.04367188 1.23046875 7.87109375 C1 10 1 10 -1 12 C-3.625 12.125 -3.625 12.125 -6 12 C-6.33 12.99 -6.66 13.98 -7 15 C-8.32 15 -9.64 15 -11 15 C-11 10.05 -11 5.1 -11 0 C-6.50428004 -0.89914399 -4.31285646 -0.98019465 0 0 Z M-6 3 C-6.33 4.32 -6.66 5.64 -7 7 C-5.515 7.99 -5.515 7.99 -4 9 C-2.70366379 7.93354885 -2.70366379 7.93354885 -2.9375 5.4375 C-2.958125 4.633125 -2.97875 3.82875 -3 3 C-3.99 3 -4.98 3 -6 3 Z " fill="#CCCCCC" transform="translate(112,193)"/>
<path d="M0 0 C1.32 0 2.64 0 4 0 C4 5.28 4 10.56 4 16 C2.68 16 1.36 16 0 16 C0 12.7 0 9.4 0 6 C-1.32 6 -2.64 6 -4 6 C-4 5.01 -4 4.02 -4 3 C-2.68 2.67 -1.36 2.34 0 2 C0 1.34 0 0.68 0 0 Z " fill="#CCCCCC" transform="translate(14,189)"/>
</svg>
