<?xml version="1.0" standalone="no"?>
<!DOCTYPE svg PUBLIC "-//W3C//DTD SVG 20010904//EN"
 "http://www.w3.org/TR/2001/REC-SVG-20010904/DTD/svg10.dtd">
<svg version="1.0" xmlns="http://www.w3.org/2000/svg"
 width="1520.000000pt" height="848.000000pt" viewBox="0 0 1520.000000 848.000000"
 preserveAspectRatio="xMidYMid meet">
<g transform="translate(0.000000,848.000000) scale(0.100000,-0.100000)"
fill="#000000" stroke="none">
<path d="M6978 8406 c-12 -5 -61 -10 -108 -11 -212 -3 -497 -18 -515 -28 -11
-6 -58 -12 -105 -13 -122 -3 -345 -20 -357 -27 -6 -4 -80 -13 -165 -21 -85 -8
-166 -20 -182 -25 -15 -6 -66 -14 -114 -17 -48 -4 -99 -13 -114 -20 -15 -8
-42 -14 -61 -14 -18 0 -67 -9 -108 -19 -41 -11 -101 -23 -134 -26 -33 -4 -69
-13 -81 -20 -11 -7 -47 -16 -80 -20 -32 -4 -74 -14 -93 -21 -18 -8 -52 -14
-75 -14 -22 0 -59 -9 -81 -19 -22 -10 -64 -21 -94 -25 -30 -4 -66 -13 -81 -21
-15 -8 -51 -17 -81 -21 -30 -3 -64 -13 -77 -21 -13 -8 -46 -17 -75 -20 -29 -3
-61 -12 -72 -19 -11 -7 -42 -16 -70 -20 -27 -4 -59 -13 -70 -19 -11 -7 -38
-16 -60 -20 -22 -3 -50 -13 -62 -21 -12 -7 -41 -16 -65 -20 -24 -3 -52 -12
-63 -19 -11 -6 -38 -15 -59 -19 -21 -4 -48 -14 -60 -21 -12 -8 -39 -18 -61
-24 -58 -14 -134 -41 -181 -62 -22 -11 -50 -19 -61 -19 -11 0 -26 -7 -33 -15
-7 -8 -27 -17 -46 -21 -19 -3 -51 -15 -71 -25 -21 -11 -43 -19 -51 -19 -8 0
-25 -9 -39 -20 -14 -11 -38 -20 -53 -20 -15 0 -30 -6 -33 -14 -3 -7 -23 -16
-45 -20 -22 -3 -42 -13 -46 -21 -3 -8 -15 -15 -27 -15 -12 0 -36 -9 -53 -19
-17 -10 -46 -22 -64 -26 -18 -4 -36 -13 -39 -21 -3 -7 -20 -16 -39 -20 -18 -3
-38 -12 -44 -19 -6 -8 -26 -17 -43 -20 -18 -4 -39 -13 -47 -20 -8 -7 -26 -16
-40 -20 -14 -4 -36 -16 -49 -26 -13 -11 -30 -19 -38 -19 -7 0 -16 -6 -19 -14
-3 -8 -19 -18 -35 -21 -16 -4 -31 -11 -35 -16 -3 -5 -20 -16 -37 -25 -48 -22
-90 -44 -107 -54 -8 -5 -46 -25 -85 -45 -69 -35 -83 -43 -207 -118 -97 -58
-94 -56 -243 -155 -179 -118 -261 -177 -319 -227 -25 -22 -57 -49 -71 -60 -31
-24 -126 -102 -140 -115 -72 -66 -335 -333 -335 -339 0 -3 -17 -25 -38 -48
-20 -23 -46 -54 -57 -68 -11 -14 -33 -40 -49 -58 -15 -18 -46 -60 -69 -94 -22
-35 -44 -63 -49 -63 -4 0 -8 -6 -8 -14 0 -8 -11 -28 -25 -44 -14 -17 -25 -33
-25 -38 0 -4 -6 -15 -14 -23 -7 -9 -24 -36 -37 -61 -13 -25 -31 -54 -40 -65
-9 -11 -20 -34 -24 -52 -3 -17 -12 -37 -20 -43 -8 -6 -17 -24 -20 -40 -3 -16
-13 -34 -21 -41 -8 -6 -14 -19 -14 -29 0 -9 -8 -28 -19 -41 -10 -13 -21 -40
-25 -60 -4 -21 -13 -42 -21 -49 -8 -7 -15 -20 -15 -29 0 -9 -8 -32 -19 -51
-10 -19 -21 -53 -25 -74 -4 -21 -13 -48 -21 -60 -7 -12 -16 -41 -20 -66 -4
-25 -13 -56 -20 -70 -7 -14 -15 -52 -19 -85 -4 -33 -13 -85 -21 -115 -18 -67
-21 -789 -3 -855 5 -22 15 -71 20 -110 5 -38 16 -81 23 -95 7 -14 16 -47 20
-75 4 -27 13 -59 20 -70 7 -11 16 -39 20 -62 3 -23 12 -47 20 -53 7 -6 16 -27
20 -47 3 -20 15 -52 26 -72 10 -20 19 -43 19 -52 0 -9 6 -22 14 -28 8 -7 18
-25 21 -41 3 -16 12 -34 20 -40 8 -6 17 -24 20 -40 3 -16 12 -34 20 -40 8 -6
17 -25 20 -41 4 -16 11 -31 16 -35 5 -3 16 -20 25 -37 21 -44 44 -84 79 -136
17 -24 35 -51 40 -60 32 -50 51 -78 62 -91 17 -19 64 -81 83 -110 56 -85 343
-383 515 -535 43 -38 88 -80 100 -92 12 -13 26 -23 30 -23 4 0 21 -11 39 -25
17 -14 41 -34 54 -43 12 -9 30 -24 40 -33 9 -8 41 -31 69 -49 29 -18 53 -37
53 -42 0 -4 6 -8 14 -8 8 0 28 -11 44 -25 17 -14 35 -25 41 -25 6 0 11 -5 11
-10 0 -6 12 -17 27 -23 42 -19 103 -58 103 -66 0 -4 12 -12 28 -19 15 -7 45
-23 67 -37 22 -14 51 -30 65 -37 14 -7 28 -18 33 -25 4 -6 21 -14 37 -18 16
-4 33 -12 37 -20 5 -7 38 -27 75 -44 37 -17 69 -35 72 -40 4 -5 19 -12 35 -16
16 -3 35 -12 41 -20 6 -8 24 -17 40 -20 16 -3 34 -12 40 -20 6 -7 23 -16 37
-20 15 -3 38 -15 51 -26 14 -10 33 -19 42 -19 10 0 23 -6 29 -14 7 -8 27 -17
45 -20 19 -4 39 -13 46 -21 6 -7 24 -17 40 -20 16 -3 34 -12 40 -20 6 -7 29
-16 50 -20 21 -4 44 -13 50 -20 6 -8 24 -17 40 -20 15 -3 45 -15 66 -26 21
-10 46 -19 55 -19 9 0 22 -6 28 -14 7 -8 27 -18 44 -22 17 -3 41 -12 52 -19
11 -7 36 -16 55 -20 19 -4 42 -13 50 -20 8 -7 34 -16 57 -20 23 -3 47 -12 53
-20 6 -7 31 -16 55 -20 25 -3 45 -10 45 -15 0 -5 19 -14 43 -20 23 -6 58 -17
77 -25 19 -8 51 -17 70 -21 19 -4 44 -12 55 -19 11 -7 36 -15 55 -19 19 -3 49
-12 65 -20 49 -22 127 -47 180 -58 28 -5 60 -16 72 -24 13 -8 44 -17 70 -21
27 -3 55 -11 63 -18 8 -7 39 -15 69 -18 29 -4 63 -13 75 -20 11 -8 45 -17 75
-21 30 -4 66 -13 81 -21 15 -8 51 -17 81 -21 30 -4 68 -12 85 -19 17 -7 60
-16 95 -20 35 -4 78 -13 96 -20 17 -7 58 -17 89 -21 32 -4 72 -13 89 -20 17
-7 64 -16 105 -20 41 -4 91 -13 111 -19 20 -7 67 -16 105 -20 38 -4 89 -13
114 -20 25 -8 87 -17 139 -21 52 -3 108 -12 125 -19 17 -7 84 -16 149 -20 65
-3 140 -13 165 -20 26 -7 110 -16 187 -20 162 -8 202 -11 305 -25 99 -12 2049
-12 2155 1 44 6 166 16 270 23 105 7 240 20 300 29 180 26 254 36 365 51 58 7
123 18 145 24 22 6 74 14 115 18 41 3 80 10 86 15 6 5 49 14 95 20 46 5 100
16 119 24 19 8 67 17 105 20 39 4 82 13 97 21 14 7 53 17 85 20 32 4 69 12 83
19 14 7 52 16 85 20 33 4 69 12 80 18 11 6 47 16 80 23 33 7 78 19 100 28 22
8 54 15 70 16 17 0 39 6 50 14 11 7 45 17 75 21 30 4 62 13 70 20 8 7 37 16
64 20 27 4 59 13 70 20 12 7 39 17 61 21 22 3 51 12 65 19 14 7 44 16 67 20
23 3 47 13 53 20 6 7 30 16 53 20 23 4 51 13 62 20 11 7 36 16 55 20 19 4 44
13 55 20 11 7 36 16 55 20 19 4 42 13 50 20 8 7 29 16 47 19 17 4 48 16 69 27
21 10 46 19 55 19 9 0 22 6 28 14 7 8 30 17 51 21 21 4 44 12 50 20 6 7 26 16
44 19 19 4 39 13 45 20 7 8 27 17 45 20 19 4 39 13 46 21 6 7 24 17 40 20 15
3 45 15 66 26 21 10 43 19 50 19 6 0 17 6 23 14 7 8 27 17 45 20 19 4 39 13
46 21 7 8 27 17 46 21 18 3 38 12 44 19 6 8 24 17 40 20 16 3 34 13 41 21 6 8
16 14 22 14 14 0 187 88 207 105 8 7 26 16 40 20 14 4 36 16 49 26 13 11 30
19 37 19 8 0 37 16 65 35 27 20 60 41 72 46 61 29 250 151 280 181 10 10 22
18 28 18 6 0 29 15 52 33 23 19 66 49 95 67 28 18 52 36 52 40 0 4 29 28 64
54 34 25 71 55 81 66 10 11 23 20 28 20 5 0 20 10 32 22 12 13 70 70 129 127
98 95 243 252 291 316 11 15 36 44 56 65 31 33 91 115 124 169 6 9 16 20 23
24 6 4 12 14 12 22 0 7 17 35 38 62 20 26 43 59 50 73 7 14 24 43 37 65 14 22
32 54 41 70 8 17 26 48 39 70 27 45 45 82 45 94 0 5 6 14 14 20 8 7 18 25 21
41 3 16 13 34 21 41 8 6 14 22 14 34 0 12 9 34 20 48 11 14 23 40 26 59 4 18
12 38 19 43 6 6 15 28 19 50 4 22 14 47 21 55 7 8 16 36 19 61 4 26 13 55 21
65 8 11 15 30 15 44 0 14 7 50 16 80 50 172 56 767 10 921 -8 25 -17 77 -21
115 -5 38 -14 78 -20 89 -7 11 -16 40 -20 65 -4 25 -13 54 -20 65 -7 11 -16
41 -20 65 -4 25 -13 52 -20 60 -7 8 -15 31 -19 51 -4 21 -13 43 -21 49 -9 7
-18 30 -21 51 -4 21 -12 40 -20 43 -8 3 -17 23 -20 46 -4 22 -11 40 -16 40 -4
0 -13 12 -19 28 -12 35 -15 39 -44 87 -13 22 -30 51 -37 65 -7 14 -27 46 -45
72 -18 26 -33 51 -33 55 0 8 -50 84 -66 98 -5 6 -23 30 -39 55 -16 25 -40 56
-54 70 -13 14 -32 38 -41 53 -81 132 -615 657 -668 657 -5 0 -12 6 -15 14 -3
7 -28 28 -56 46 -28 19 -51 37 -51 42 0 4 -7 8 -15 8 -8 0 -25 11 -37 25 -12
14 -25 25 -29 25 -10 0 -64 36 -117 78 -22 18 -43 32 -48 32 -9 0 -86 51 -94
62 -10 13 -95 68 -106 68 -6 0 -18 7 -25 16 -7 9 -22 20 -34 26 -11 5 -38 20
-60 33 -22 14 -51 30 -65 37 -14 7 -33 21 -42 31 -10 9 -27 17 -38 17 -11 0
-20 4 -20 10 0 5 -15 17 -32 25 -30 14 -70 35 -108 57 -8 5 -28 15 -45 23 -16
9 -37 20 -45 25 -8 6 -26 14 -40 20 -14 5 -32 14 -40 20 -27 17 -207 100 -218
100 -5 0 -15 6 -21 14 -7 8 -27 17 -45 20 -19 4 -39 13 -46 21 -6 7 -26 17
-43 20 -18 4 -39 13 -47 20 -8 7 -28 16 -45 19 -16 4 -37 13 -45 21 -8 7 -32
16 -53 19 -21 4 -40 13 -43 21 -3 7 -25 16 -49 19 -24 4 -48 13 -55 21 -6 7
-29 16 -50 20 -21 4 -44 13 -51 21 -6 8 -21 14 -33 14 -12 0 -39 9 -59 19 -21
11 -56 22 -77 26 -21 4 -44 12 -50 20 -6 7 -27 16 -48 20 -20 4 -48 12 -62 20
-14 7 -43 16 -64 19 -21 4 -48 14 -60 21 -12 7 -39 17 -61 20 -22 4 -49 13
-60 20 -11 7 -44 16 -72 20 -29 4 -57 13 -63 20 -6 7 -35 16 -65 20 -29 3 -59
12 -65 20 -6 7 -36 16 -68 20 -31 4 -68 13 -82 20 -14 7 -45 15 -69 19 -24 4
-55 13 -70 20 -14 8 -55 17 -91 21 -36 4 -77 13 -91 21 -14 7 -50 16 -80 20
-30 4 -60 11 -66 16 -7 6 -50 14 -95 19 -45 5 -95 16 -110 24 -16 8 -61 17
-101 21 -40 4 -83 12 -97 19 -14 7 -64 15 -113 19 -48 4 -102 13 -120 20 -17
8 -75 17 -127 21 -52 4 -99 10 -105 14 -11 9 -148 27 -264 36 -41 3 -79 9 -85
14 -6 5 -72 12 -146 16 -74 3 -162 12 -195 20 -62 14 -424 32 -553 27 -44 -2
-89 3 -115 12 -51 17 -1128 19 -1169 2z m-377 -128 c29 -22 30 -22 61 -4 30
18 31 18 47 -1 14 -19 22 -20 81 -12 36 5 85 13 110 19 25 6 105 13 178 15
112 5 137 3 165 -12 22 -12 60 -18 127 -20 52 -1 128 -3 168 -5 60 -2 76 0 89
15 20 21 66 22 83 2 9 -10 32 -15 76 -15 45 0 75 -6 103 -21 35 -18 45 -19 93
-9 93 19 93 19 90 -18 -2 -21 3 -40 13 -52 20 -22 12 -40 -16 -40 -13 0 -19
-7 -19 -23 0 -31 -8 -38 -31 -26 -10 5 -28 13 -38 19 -18 8 -19 6 -14 -24 5
-30 2 -34 -21 -40 -33 -8 -46 -1 -46 24 0 10 -4 21 -9 25 -13 8 -81 -34 -81
-50 0 -15 -38 -31 -48 -20 -3 3 -7 16 -7 28 0 16 -7 23 -25 25 -14 2 -35 14
-48 28 -26 28 -47 31 -56 9 -4 -10 3 -20 19 -27 30 -13 34 -48 6 -48 -10 0
-24 7 -31 15 -18 22 -37 18 -52 -11 -18 -36 -128 -73 -128 -44 0 15 -33 12
-66 -5 -37 -19 -45 -9 -32 41 14 50 7 71 -27 84 -14 5 -25 14 -25 20 0 5 -17
10 -39 10 -53 0 -70 22 -48 60 35 58 18 78 -43 54 -31 -13 -58 -15 -109 -10
-65 6 -68 5 -79 -18 -14 -31 -94 -52 -136 -37 -15 6 -52 11 -82 11 -30 0 -54
4 -54 10 0 22 -56 37 -122 32 -66 -4 -68 -4 -68 20 0 50 42 62 91 26z m-321
-32 c0 -8 -6 -16 -14 -19 -8 -3 -16 -18 -18 -33 -3 -24 -10 -29 -59 -43 -31
-9 -64 -22 -73 -30 -10 -8 -41 -15 -70 -16 -91 -4 -176 -69 -133 -103 25 -20
127 -25 147 -7 13 11 26 15 37 10 16 -7 186 -26 241 -27 12 0 22 -4 22 -9 0
-5 -9 -9 -19 -9 -11 0 -28 -15 -40 -35 -11 -20 -41 -48 -65 -63 -27 -16 -49
-39 -55 -55 -10 -27 -31 -29 -31 -3 0 6 -17 29 -38 49 -48 47 -136 69 -173 43
-29 -20 -89 -21 -115 -1 -10 8 -27 15 -37 15 -10 0 -29 7 -43 16 -43 29 -186
-17 -192 -62 -2 -11 -16 -27 -31 -35 -15 -8 -44 -23 -64 -33 -37 -20 -37 -20
-65 1 -24 18 -30 19 -47 7 -32 -23 -124 -18 -150 9 -13 12 -39 35 -59 51 -19
16 -36 38 -38 50 -3 19 -9 21 -63 21 -65 0 -79 13 -87 80 -3 29 -2 30 37 27
75 -5 90 -5 188 -1 85 3 100 2 111 -14 7 -9 25 -17 40 -17 23 0 26 4 26 35 0
24 6 37 20 45 25 13 36 7 60 -32 17 -29 17 -29 38 6 15 25 26 33 39 30 11 -3
25 2 32 10 17 20 41 20 67 1 26 -20 36 -19 78 10 38 26 66 32 66 15 0 -16 18
-12 60 16 24 16 46 24 58 20 11 -4 51 2 90 13 45 12 86 17 112 14 36 -5 42 -3
47 16 4 16 13 21 42 21 20 1 47 7 61 15 32 18 60 19 60 1z m2044 -6 c21 -8 26
-16 26 -45 0 -31 3 -35 28 -35 15 0 36 -7 46 -15 28 -21 56 -19 56 4 0 21 -19
31 -55 31 -29 0 -41 16 -25 35 20 24 101 20 107 -4 3 -12 17 -23 33 -26 21 -5
30 -14 35 -35 7 -30 24 -43 43 -31 18 11 2 51 -24 57 -27 7 -31 26 -9 44 18
15 45 6 45 -15 0 -12 12 -15 54 -15 44 0 56 -4 70 -22 15 -22 16 -22 29 -5 19
23 35 22 39 -5 2 -12 8 -23 14 -25 13 -4 40 19 46 39 3 8 13 5 33 -10 32 -25
65 -29 65 -8 0 27 23 30 42 6 19 -23 19 -23 34 -2 21 30 42 28 55 -5 11 -28
11 -28 26 -5 19 27 43 29 43 3 0 -11 5 -23 10 -26 18 -11 189 -15 195 -5 11
18 54 10 69 -12 15 -21 18 -21 43 -7 22 11 60 14 168 13 151 -2 217 -15 303
-58 44 -22 64 -26 144 -26 82 0 96 -2 111 -21 12 -14 24 -18 35 -13 43 18 85
17 101 -4 14 -18 30 -21 122 -26 110 -5 174 -23 185 -51 4 -9 18 -22 33 -30
22 -12 23 -14 6 -15 -11 0 -29 -7 -39 -15 -11 -8 -32 -15 -47 -15 -34 0 -176
35 -192 48 -7 5 -32 12 -56 15 -25 3 -48 12 -52 20 -5 9 -32 17 -68 21 -51 6
-65 3 -106 -19 -60 -31 -133 -34 -159 -6 -10 10 -32 22 -51 25 -21 4 -35 13
-38 26 -3 12 -14 20 -26 20 -14 0 -29 12 -42 35 -20 34 -20 34 -87 28 -39 -3
-72 -11 -78 -19 -6 -8 -21 -14 -33 -14 -12 0 -35 -14 -51 -31 -28 -31 -30 -32
-92 -26 -104 10 -157 -22 -158 -93 0 -71 -136 -57 -154 15 -10 38 -87 75 -157
75 -33 0 -68 6 -79 12 -17 11 -24 8 -59 -26 -48 -47 -82 -45 -100 5 -8 23 -15
29 -29 25 -27 -9 -112 41 -112 65 0 14 -7 19 -25 19 -18 0 -25 -5 -25 -20 0
-13 7 -20 20 -20 27 0 25 -18 -3 -31 -15 -7 -36 -7 -57 -2 -32 9 -43 19 -54
56 -4 11 -16 17 -36 17 -26 0 -30 -3 -30 -29 0 -22 -6 -31 -29 -41 -39 -16
-51 -7 -51 41 0 44 -21 54 -40 18 -15 -27 -56 -23 -52 6 2 11 6 34 9 51 3 18
0 35 -6 38 -19 12 -13 46 8 46 27 0 37 21 18 35 -30 22 -5 31 37 15z m-97 -33
c20 -15 5 -27 -32 -27 -36 0 -50 12 -41 36 6 15 49 11 73 -9z m-2 -72 c0 -13
-8 -21 -23 -23 -26 -4 -42 25 -21 39 22 14 44 6 44 -16z m-1124 4 c25 -13 16
-29 -17 -29 -23 0 -32 18 -17 33 8 9 11 9 34 -4z m-661 -6 c0 -5 -7 -17 -15
-27 -8 -11 -15 -28 -15 -38 0 -10 -4 -18 -10 -18 -5 0 -10 9 -10 20 0 13 -10
24 -25 30 -45 17 -31 40 25 40 28 0 50 -3 50 -7z m739 -32 c16 -10 6 -31 -15
-31 -8 0 -20 -13 -25 -30 -12 -33 -26 -39 -36 -14 -4 10 2 23 14 33 11 9 23
24 26 34 7 19 15 21 36 8z m-871 -23 c17 -17 15 -35 -4 -42 -19 -7 -54 20 -54
41 0 16 42 17 58 1z m-1513 -68 c-10 -11 -24 -20 -31 -20 -9 0 -12 -24 -11
-96 2 -71 -1 -98 -11 -101 -18 -8 -93 35 -119 67 -23 28 -23 28 12 54 26 20
35 35 35 57 0 26 3 29 30 29 17 0 40 5 53 12 44 22 52 26 56 22 2 -2 -4 -13
-14 -24z m3389 14 c22 -22 20 -70 -4 -94 -23 -23 -77 -27 -103 -7 -28 20 -27
103 1 110 39 11 91 6 106 -9z m-1332 -6 c13 -10 15 -24 11 -60 -7 -56 -18 -61
-143 -55 -104 5 -110 0 -103 -70 3 -32 9 -62 13 -66 4 -5 42 -3 83 4 87 15
117 1 117 -51 0 -54 -19 -64 -103 -57 -98 8 -112 -2 -102 -77 4 -28 12 -57 17
-63 14 -18 80 -16 104 2 30 22 115 19 142 -5 22 -20 29 -64 14 -86 -4 -7 -59
-14 -135 -19 -79 -4 -139 -13 -157 -22 -36 -17 -60 -11 -79 19 -16 25 -18 42
-25 203 -2 61 -7 166 -11 236 -5 99 -4 127 7 136 37 29 320 54 350 31z m2926
-105 c3 -17 11 -23 40 -25 33 -3 37 -6 33 -28 -7 -52 -64 -54 -69 -2 -3 30 -5
32 -43 32 -42 0 -64 24 -38 41 26 17 74 6 77 -18z m-2050 -28 c23 -8 51 -21
62 -27 15 -10 22 -10 32 0 17 17 83 15 98 -3 9 -11 10 -29 1 -80 -6 -36 -11
-137 -10 -225 1 -161 1 -161 -27 -201 -16 -23 -35 -44 -44 -47 -8 -3 -23 -12
-34 -21 -24 -21 -185 -18 -233 4 -29 14 -33 21 -33 56 0 50 8 53 107 41 89
-10 124 -2 147 33 22 34 21 69 -1 60 -10 -4 -55 -9 -99 -12 -79 -5 -83 -5
-118 23 -20 16 -36 33 -36 37 0 4 -9 21 -21 36 -19 25 -21 40 -18 119 4 89 5
91 45 138 26 31 52 51 75 57 19 5 38 13 44 18 12 12 12 12 63 -6z m-3180 -22
c17 -37 16 -41 -13 -35 -20 3 -25 10 -25 33 0 37 21 38 38 2z m2763 13 c70
-29 75 -46 82 -249 7 -201 6 -207 -55 -207 -57 0 -66 24 -66 168 0 148 -4 170
-39 183 -29 11 -63 -6 -100 -50 -21 -24 -22 -36 -23 -163 0 -138 0 -138 -55
-138 -73 0 -73 -1 -71 245 1 200 1 200 43 203 33 2 46 -2 60 -17 22 -26 37
-26 54 -1 9 13 32 23 69 29 30 5 58 9 61 10 4 0 22 -5 40 -13z m-2381 -26 c0
-13 -9 -22 -27 -26 -16 -4 -33 -13 -40 -21 -8 -11 -20 -13 -40 -8 -27 6 -27 7
-8 21 11 7 31 23 43 34 31 27 72 27 72 0z m3218 14 c31 -6 31 -6 27 -206 -5
-225 -9 -238 -72 -238 -73 0 -90 38 -58 130 10 30 15 83 15 175 0 152 2 156
88 139z m257 -12 c6 -4 16 -20 24 -37 13 -30 13 -30 28 -7 9 12 21 22 28 22 7
0 18 7 26 16 22 27 121 0 171 -47 22 -21 27 -35 29 -80 3 -114 -9 -310 -21
-324 -17 -20 -73 -19 -99 3 -20 17 -20 21 -10 152 13 167 8 190 -48 190 -27 0
-48 -9 -73 -30 -35 -29 -35 -29 -38 -152 -2 -68 -7 -127 -13 -133 -11 -11 -76
-13 -103 -2 -17 7 -18 16 -11 135 4 70 8 162 10 205 2 42 7 82 10 87 7 12 75
13 90 2z m-4084 -23 c-22 -21 -22 -21 -2 -43 29 -31 27 -36 -18 -36 -30 0 -41
-5 -46 -19 -7 -22 -47 -35 -77 -26 -12 4 -27 0 -39 -11 -21 -19 -26 -5 -9 27
7 13 21 19 45 19 60 0 82 14 89 58 6 42 15 50 55 51 25 1 25 1 2 -20z m732 2
c3 -15 -5 -26 -33 -45 -22 -15 -40 -35 -42 -48 -5 -40 -23 -25 -29 25 -5 48
-5 48 35 67 53 24 63 24 69 1z m4887 -11 c0 -15 -7 -20 -25 -20 -29 0 -32 8
-7 26 24 19 32 17 32 -6z m-5517 -26 c-8 -20 -33 -17 -33 4 0 10 3 22 7 25 10
11 32 -13 26 -29z m195 9 c2 -8 -6 -13 -22 -13 -17 0 -26 5 -26 16 0 19 41 16
48 -3z m4520 -31 c56 -37 82 -90 82 -164 0 -54 -2 -59 -26 -68 -14 -6 -30 -7
-36 -4 -6 4 -40 8 -77 11 -36 2 -79 7 -96 12 -40 10 -55 4 -55 -22 1 -61 76
-95 169 -76 71 15 91 5 91 -45 -1 -24 -8 -36 -36 -53 -49 -32 -178 -33 -217
-3 -14 11 -29 20 -35 20 -20 0 -82 93 -83 124 0 17 -4 40 -8 51 -11 27 13 131
35 158 71 82 75 84 180 86 62 1 76 -2 112 -27z m726 19 c9 -14 -4 -41 -20 -41
-8 0 -14 10 -14 25 0 25 23 35 34 16z m966 -1 c14 -7 25 -7 38 1 16 10 26 8
56 -10 20 -13 46 -24 59 -26 67 -12 119 -26 139 -39 13 -8 42 -18 66 -22 42
-7 42 -7 42 -50 0 -33 4 -44 16 -44 32 0 54 20 54 50 0 38 27 40 60 5 16 -17
34 -25 57 -25 41 0 73 -15 73 -35 0 -27 62 -21 100 10 9 7 23 10 35 5 19 -7
19 -7 -2 -18 -20 -11 -53 -63 -53 -84 0 -17 40 -7 50 13 16 30 84 24 88 -8 4
-25 30 -31 50 -11 8 8 12 8 12 1 0 -6 30 -20 68 -33 37 -12 74 -29 83 -36 8
-8 23 -14 32 -14 9 0 31 -13 49 -29 32 -28 32 -28 8 -47 -12 -10 -38 -32 -57
-48 -19 -16 -49 -36 -66 -45 -27 -13 -32 -22 -32 -50 0 -29 -4 -36 -25 -41
-14 -3 -30 -17 -36 -30 -92 -193 -82 -180 -136 -180 -41 0 -54 5 -79 29 -16
16 -29 36 -29 44 0 8 -7 20 -15 27 -9 8 -15 29 -15 55 0 34 -4 44 -20 48 -23
6 -27 27 -5 27 25 0 31 31 9 47 -19 14 -19 14 0 29 17 12 18 19 10 51 -9 35
-12 38 -43 35 -50 -4 -60 10 -54 74 4 35 2 54 -5 54 -24 0 -42 -13 -42 -32 0
-15 -6 -19 -27 -16 -35 4 -45 37 -13 45 12 3 20 12 18 22 -5 24 -35 25 -43 2
-7 -22 -49 -29 -60 -11 -3 6 -19 10 -36 10 -25 0 -29 4 -29 29 0 31 -28 50
-51 35 -10 -6 -82 -6 -179 1 -45 3 -100 27 -125 55 -25 28 -87 60 -116 60 -25
0 -76 29 -83 47 -17 43 150 102 204 73z m-6712 -22 c3 -13 -3 -18 -22 -18 -20
0 -26 5 -26 21 0 26 43 23 48 -3z m789 6 c4 -10 -1 -22 -12 -30 -23 -17 -35
-9 -35 22 0 28 37 35 47 8z m1198 4 c2 -7 6 -61 8 -121 3 -59 10 -113 16 -121
13 -16 27 -192 18 -229 -12 -44 -99 -124 -146 -132 -22 -4 -43 -11 -47 -16 -9
-15 -95 -10 -136 8 -34 15 -38 20 -38 54 0 45 8 49 105 46 63 -2 74 1 108 27
28 21 37 36 37 58 0 38 -25 47 -54 19 -34 -32 -142 -30 -192 4 -67 45 -86 96
-82 210 3 103 22 140 90 175 48 25 143 28 152 5 8 -22 34 -18 41 5 5 17 15 20
61 20 35 0 56 -5 59 -12z m-1418 -13 c1 -5 -11 -18 -28 -27 -33 -19 -89 -24
-89 -8 0 6 12 10 26 10 18 0 28 6 31 21 6 21 53 25 60 4z m5653 -20 c16 -10
12 -82 -6 -99 -17 -18 -27 -19 -72 -10 -48 10 -66 45 -47 90 15 37 15 37 65
31 28 -3 55 -9 60 -12z m-5490 -15 c0 -15 -39 -21 -60 -10 -32 17 -24 26 20
22 22 -2 40 -8 40 -12z m4716 5 c10 -8 35 -19 54 -25 51 -14 90 -88 90 -169 0
-38 -5 -63 -14 -70 -17 -15 -125 -5 -173 16 -37 15 -99 17 -107 4 -10 -16 14
-66 42 -86 22 -16 43 -20 117 -20 90 0 90 0 93 -37 3 -35 1 -37 -44 -57 -55
-25 -140 -27 -168 -6 -11 8 -27 15 -36 15 -10 0 -40 23 -68 50 -43 44 -51 57
-54 98 -12 125 35 232 117 268 87 38 120 42 151 19z m-5586 -14 c0 -13 -8 -21
-22 -23 -18 -2 -24 -10 -26 -39 -3 -33 -5 -35 -32 -31 -44 6 -46 72 -2 72 9 0
23 9 30 20 16 26 52 27 52 1z m47 -65 c-30 -32 -37 -33 -37 -4 0 12 12 32 28
44 25 21 27 21 30 4 2 -10 -8 -30 -21 -44z m-197 34 c0 -10 -9 -24 -19 -30
-11 -5 -21 -20 -23 -32 -2 -17 -11 -24 -31 -26 -26 -3 -28 -1 -22 20 8 24 70
88 86 88 5 0 9 -9 9 -20z m1687 12 c34 -21 73 -98 73 -143 0 -26 9 -75 20
-109 11 -34 20 -82 20 -105 0 -39 -4 -46 -36 -66 -36 -22 -36 -22 -62 -2 -19
14 -28 31 -30 54 -4 55 -33 223 -41 239 -5 9 -25 16 -49 18 -34 3 -44 -2 -71
-30 -38 -40 -41 -86 -11 -180 38 -120 21 -164 -60 -156 -46 4 -43 -8 -82 263
-5 39 -16 82 -24 97 -30 57 -9 88 60 88 26 0 36 -5 41 -20 9 -29 20 -25 61 20
36 40 37 40 108 40 39 0 76 -4 83 -8z m-1041 -43 c3 -6 7 -52 8 -102 5 -196
15 -414 21 -447 6 -33 4 -38 -32 -63 -61 -42 -133 -30 -133 22 0 10 -9 26 -20
36 -11 10 -20 23 -20 29 0 6 -16 35 -35 65 -19 29 -35 59 -35 67 0 23 -55 78
-69 69 -14 -8 -8 -120 9 -180 4 -16 11 -63 14 -102 7 -87 -6 -108 -77 -118
-52 -8 -87 6 -87 35 0 10 -5 22 -11 26 -6 3 -17 22 -25 40 -8 19 -18 34 -23
34 -5 0 -12 13 -16 30 -4 16 -12 33 -19 37 -13 8 -30 37 -60 99 -8 17 -22 36
-30 44 -9 7 -16 18 -16 25 0 6 -9 20 -20 30 -11 10 -20 24 -20 30 0 7 -9 24
-20 38 -36 46 -27 65 35 72 65 9 101 -9 111 -53 4 -15 12 -34 19 -42 7 -8 16
-26 20 -40 4 -14 13 -32 20 -40 7 -8 16 -26 20 -40 4 -14 13 -32 20 -40 7 -8
15 -27 19 -41 8 -35 33 -44 47 -18 7 14 7 56 0 145 -16 187 -15 243 7 251 9 3
24 12 33 20 21 18 66 -23 100 -91 13 -27 39 -72 57 -100 17 -28 32 -56 32 -63
0 -6 6 -18 14 -26 8 -8 22 -31 30 -52 14 -32 18 -36 32 -24 13 10 14 27 9 98
-3 47 -10 95 -15 106 -5 11 -13 58 -18 104 -8 80 -7 85 16 112 25 31 93 42
108 18z m149 -10 c0 -8 -10 -15 -22 -17 -25 -4 -33 22 -10 31 18 8 32 2 32
-14z m5310 9 c26 -75 22 -72 56 -44 68 57 148 10 109 -64 -10 -19 -47 -34
-110 -44 -47 -8 -76 -69 -86 -179 -7 -90 -19 -107 -74 -107 -58 0 -66 21 -51
129 7 47 19 104 26 126 8 22 16 71 20 110 3 38 11 73 18 77 20 13 87 9 92 -4z
m-6265 -16 c0 -18 -31 -50 -55 -56 -44 -11 -26 -46 25 -46 12 0 20 8 22 23 2
16 10 22 27 22 37 0 38 -24 2 -38 -17 -6 -31 -17 -31 -24 0 -7 -8 -17 -18 -22
-14 -7 -18 -18 -14 -40 4 -26 0 -32 -22 -41 -26 -10 -35 -33 -16 -45 17 -11
11 -25 -10 -25 -11 0 -23 6 -26 14 -3 8 -16 17 -30 20 -13 4 -24 13 -24 22 0
8 -7 17 -15 20 -8 4 -15 12 -15 20 0 7 -8 19 -19 26 -10 7 -21 23 -25 36 -9
27 7 29 52 6 27 -13 32 -21 32 -50 0 -41 10 -43 50 -6 48 42 19 82 -61 82 -20
0 -29 5 -29 16 0 9 -8 23 -17 30 -30 21 -5 28 32 8 29 -15 38 -17 53 -6 9 7
34 20 55 29 20 9 37 20 37 25 0 4 9 8 20 8 11 0 20 -3 20 -8z m1320 -75 c129
-113 147 -238 49 -353 -49 -59 -87 -74 -187 -74 -91 0 -91 0 -152 59 -33 32
-64 71 -70 85 -17 45 -12 140 8 167 10 13 23 36 29 51 7 15 27 35 45 44 18 9
36 21 39 27 22 33 199 29 239 -6z m5304 7 c21 -20 20 -43 -4 -104 -11 -28 -20
-60 -20 -72 0 -24 -38 -191 -51 -225 -12 -33 -55 -41 -80 -14 -11 11 -24 21
-29 21 -17 0 -11 79 9 118 10 20 22 63 26 95 3 32 13 74 21 92 8 19 14 47 14
63 0 16 3 32 7 35 13 14 92 7 107 -9z m227 -34 c10 -6 19 -16 19 -23 0 -7 6
-22 14 -32 13 -18 14 -18 41 3 32 25 79 28 115 7 14 -8 34 -18 46 -24 26 -12
64 -83 64 -119 -1 -15 -7 -38 -15 -52 -8 -14 -14 -35 -15 -48 0 -12 -9 -48
-20 -79 -11 -32 -20 -72 -20 -89 0 -62 -53 -83 -105 -42 -25 20 -27 25 -22 71
4 27 12 55 18 63 14 18 42 119 42 156 0 42 -20 58 -69 58 -58 0 -99 -39 -112
-107 -13 -68 -33 -145 -42 -163 -9 -19 -86 -26 -106 -9 -20 16 -17 76 5 125
10 23 22 61 26 85 4 24 14 56 21 71 8 15 14 45 14 66 0 69 49 109 101 82z
m-7293 -87 c2 -12 -4 -23 -13 -27 -32 -12 -48 17 -23 42 17 17 32 10 36 -15z
m89 6 c27 -10 27 -11 9 -25 -36 -26 -75 -12 -62 21 6 18 16 18 53 4z m101 -28
c3 -16 -1 -22 -10 -19 -7 3 -15 15 -16 27 -3 16 1 22 10 19 7 -3 15 -15 16
-27z m-245 -20 c13 -13 -4 -41 -29 -47 -41 -10 -69 27 -42 54 13 13 55 8 71
-7z m4077 -17 c0 -16 -37 -19 -60 -4 -12 7 -10 11 10 18 30 11 50 5 50 -14z
m-3990 -24 c0 -13 -7 -20 -20 -20 -13 0 -20 7 -20 20 0 13 7 20 20 20 13 0 20
-7 20 -20z m-340 -9 c13 -26 15 -22 -25 -65 -31 -34 -39 -38 -67 -32 -130 25
-128 26 -128 -61 0 -79 0 -79 35 -96 53 -25 46 -47 -16 -47 -46 0 -51 2 -60
29 -10 27 -13 29 -34 19 -18 -8 -28 -8 -39 1 -15 13 -67 -6 -81 -29 -3 -5 -24
-10 -46 -10 -32 0 -39 4 -39 19 0 11 -6 22 -12 25 -7 3 11 3 40 0 42 -5 52 -3
52 9 0 8 -7 17 -15 21 -19 7 -20 36 -1 36 8 0 17 -7 20 -16 3 -9 15 -14 28
-12 18 2 22 8 20 30 -3 22 3 30 30 43 64 30 110 63 122 86 7 14 22 25 38 27
14 2 34 12 44 23 25 27 119 27 134 0z m8231 1 c19 -10 45 -28 57 -40 20 -20
30 -22 66 -17 71 11 103 -53 56 -112 -11 -14 -20 -40 -20 -57 0 -17 -11 -53
-25 -81 -13 -27 -25 -62 -25 -76 0 -15 -6 -32 -14 -38 -7 -6 -16 -28 -20 -49
-7 -43 -65 -112 -94 -112 -11 0 -26 -7 -33 -16 -15 -18 -124 -13 -143 6 -6 6
-22 10 -37 10 -15 0 -33 7 -40 16 -7 9 -23 20 -36 25 -18 7 -23 16 -23 44 0
30 5 38 34 52 33 15 35 15 79 -15 80 -53 145 -55 171 -4 21 42 11 52 -54 52
-92 0 -148 48 -181 154 -6 19 -3 41 7 70 8 22 20 57 26 76 29 97 161 157 249
112z m-4891 -1 c0 -5 9 -12 19 -16 11 -3 23 -15 26 -26 8 -25 31 -24 46 3 11
21 12 21 28 2 27 -34 70 -48 91 -29 23 21 43 19 87 -11 26 -17 45 -23 61 -19
13 3 39 1 58 -5 30 -10 34 -16 34 -47 0 -47 33 -44 38 4 3 28 7 32 43 38 22 4
52 18 66 31 37 34 70 32 78 -6 9 -39 22 -46 46 -24 26 24 24 41 -8 58 -28 15
-28 15 -4 16 14 0 33 -8 43 -17 16 -14 24 -15 49 -6 27 10 31 9 46 -13 21 -32
37 -26 43 17 4 30 9 34 34 34 16 0 32 -7 36 -15 44 -97 78 -123 90 -70 8 33
40 37 93 11 24 -12 55 -21 70 -21 22 0 28 -6 37 -40 13 -48 21 -54 55 -38 22
10 32 9 60 -6 23 -13 38 -15 51 -8 38 19 91 23 104 7 18 -22 10 -158 -12 -182
-9 -10 -21 -37 -27 -60 -7 -23 -15 -44 -19 -46 -9 -5 -205 27 -219 36 -15 9
-25 61 -27 135 -1 50 -5 67 -20 78 -59 43 -133 -16 -91 -72 25 -34 15 -106
-22 -146 -29 -32 -43 -4 -43 86 0 96 -12 122 -50 108 -83 -32 -98 -145 -30
-221 31 -34 31 -34 103 -27 72 6 72 6 110 -45 38 -51 38 -51 16 -85 -12 -20
-31 -36 -47 -40 -15 -3 -32 -8 -38 -12 -62 -39 -95 -66 -114 -91 -12 -17 -26
-31 -33 -31 -6 0 -21 -10 -34 -21 -26 -25 -49 -14 -55 24 -4 29 -45 35 -64 10
-13 -17 -15 -17 -37 8 -36 43 -42 44 -344 49 -115 2 -157 0 -169 -10 -9 -8
-51 -15 -102 -18 -94 -5 -113 -12 -92 -37 11 -13 6 -22 -31 -63 -54 -59 -45
-56 -112 -34 -57 19 -57 19 -57 -9 0 -26 2 -28 30 -23 46 10 49 -18 6 -61 -20
-20 -36 -40 -36 -46 0 -5 -11 -14 -25 -19 -14 -5 -25 -14 -25 -19 0 -5 11 -12
25 -15 35 -9 31 -22 -15 -51 -31 -20 -40 -31 -40 -53 0 -15 -4 -32 -9 -37 -10
-10 -34 -73 -53 -135 -5 -19 -17 -43 -25 -52 -11 -12 -14 -30 -11 -56 5 -35 4
-38 -20 -37 -23 0 -27 -5 -33 -38 -3 -20 -16 -48 -27 -60 -16 -17 -22 -36 -22
-68 0 -40 -3 -46 -28 -55 -24 -9 -30 -19 -35 -54 -3 -23 -15 -52 -26 -64 -12
-12 -21 -33 -21 -47 0 -14 -9 -30 -21 -37 -11 -7 -19 -21 -18 -30 3 -36 -2
-53 -21 -69 -15 -13 -18 -25 -14 -53 6 -40 -22 -115 -55 -144 -11 -10 -23 -35
-26 -57 -4 -21 -11 -41 -16 -45 -5 -3 -9 -17 -9 -32 -1 -15 -7 -38 -15 -52 -8
-14 -14 -37 -15 -52 0 -15 -11 -67 -25 -114 -14 -47 -25 -105 -26 -128 0 -22
-6 -56 -13 -75 -12 -35 -12 -35 -34 10 -17 35 -24 84 -37 247 -9 112 -20 226
-25 255 -5 29 -12 115 -15 192 -4 77 -11 160 -17 185 -10 47 -12 69 -23 265
-4 66 -11 145 -17 175 -5 30 -13 125 -16 210 -7 155 -7 155 -59 163 -56 9 -63
19 -37 48 22 24 22 80 0 93 -49 30 -49 30 -34 66 14 34 14 34 99 31 91 -3 109
-11 109 -47 0 -28 42 -59 66 -50 14 5 16 16 11 55 -5 45 -3 51 31 89 20 22 46
42 57 44 16 2 21 12 23 48 5 67 9 69 130 65 134 -5 152 4 152 71 0 31 -7 54
-20 71 -14 18 -20 41 -20 73 0 31 -5 52 -15 60 -14 11 -11 16 22 35 21 13 62
28 92 34 54 11 55 11 88 -21 37 -36 65 -32 71 11 4 26 9 26 31 0 17 -21 17
-21 68 23 61 50 97 94 89 107 -10 16 5 41 25 41 12 0 19 -7 19 -20 0 -11 6
-20 14 -20 25 0 30 22 10 39 -11 9 -25 27 -31 41 -15 33 -23 110 -12 110 5 0
9 -4 9 -9z m1038 -39 c4 -24 -7 -29 -25 -11 -14 14 -5 41 11 36 6 -2 12 -13
14 -25z m4910 11 c-2 -12 -14 -19 -37 -21 -56 -6 -26 30 32 37 5 1 7 -7 5 -16z
m-4089 -8 c16 -8 31 -23 34 -35 4 -15 13 -20 36 -20 24 0 31 -4 31 -19 0 -18
-16 -27 -70 -40 -17 -4 -32 -21 -49 -53 -16 -33 -29 -48 -43 -48 -10 0 -28 -4
-38 -10 -37 -20 -51 -3 -45 54 16 141 12 132 63 159 26 14 48 26 50 26 2 1 16
-6 31 -14z m433 -42 c-3 -37 -1 -42 19 -45 15 -2 25 -12 29 -28 4 -18 13 -25
30 -25 35 0 39 32 6 41 -14 3 -26 10 -26 15 0 18 31 21 49 5 10 -9 25 -16 35
-16 9 0 21 -10 25 -22 9 -23 9 -23 19 2 8 20 6 29 -10 43 -10 11 -17 24 -15
30 7 21 48 20 68 -2 11 -12 26 -21 34 -21 27 0 25 -19 -4 -35 -20 -10 -28 -20
-25 -30 8 -19 70 -20 77 -1 3 8 18 20 34 28 32 16 78 -2 86 -34 7 -26 77 -36
94 -12 10 14 16 15 25 6 19 -19 35 -14 42 13 9 34 80 38 89 5 3 -11 10 -20 16
-20 6 0 11 9 11 20 0 11 -7 20 -15 20 -8 0 -15 7 -15 15 0 25 36 17 48 -10 7
-14 12 -32 12 -40 0 -9 9 -15 21 -15 11 0 40 -16 64 -36 44 -35 44 -35 143
-36 56 0 109 5 121 11 17 10 33 7 84 -15 97 -41 145 -46 163 -18 8 12 26 25
40 28 18 5 24 13 24 35 0 41 12 46 27 10 10 -24 17 -29 30 -24 10 4 24 9 31
12 6 3 12 -2 12 -11 0 -9 -7 -19 -15 -22 -17 -7 -19 -22 -6 -43 7 -11 13 -10
32 3 20 12 29 13 49 3 39 -19 37 -45 -4 -62 -56 -24 -56 -52 0 -69 18 -5 22
-1 28 25 6 30 8 31 42 26 28 -5 45 0 74 18 35 22 39 23 45 7 7 -19 100 -82
121 -82 8 0 19 11 24 25 12 32 55 35 63 5 3 -11 14 -20 24 -20 29 0 73 -23 73
-39 0 -16 69 -81 87 -81 8 0 13 -12 13 -30 0 -23 6 -33 24 -39 45 -18 51 -81
8 -81 -18 0 -37 -9 -51 -26 -30 -34 -55 -28 -59 14 -3 25 -8 32 -20 30 -13 -3
-17 -13 -15 -48 2 -45 2 -45 -179 -43 -109 1 -185 6 -192 13 -12 12 -1742 15
-1748 3 -2 -5 -21 -18 -43 -29 -23 -13 -42 -31 -45 -45 -7 -31 -28 -35 -32 -7
-2 17 -10 23 -28 23 -34 0 -36 -39 -2 -43 17 -3 22 -9 20 -25 -3 -23 -18 -25
-84 -12 -42 9 -55 -12 -25 -37 23 -18 23 -48 -1 -48 -6 0 -22 -10 -34 -21 -27
-26 -69 -20 -77 11 -3 11 -12 20 -21 20 -9 0 -38 14 -64 30 -27 17 -56 30 -65
30 -9 0 -22 8 -29 18 -16 23 -53 44 -62 35 -3 -3 -6 -14 -6 -24 0 -12 -11 -21
-32 -27 -17 -4 -33 -13 -36 -20 -5 -16 42 -16 68 0 17 11 24 8 54 -21 28 -27
40 -32 61 -27 39 10 228 -178 223 -221 -2 -23 -9 -29 -34 -31 -44 -4 -84 14
-84 38 0 12 -9 24 -23 29 -13 5 -31 21 -40 35 -10 14 -24 26 -32 26 -8 0 -15
5 -15 10 0 18 -63 50 -98 50 -25 0 -35 -5 -42 -24 -6 -16 -19 -26 -45 -30 -25
-5 -39 -15 -47 -32 -7 -16 -19 -24 -35 -24 -44 0 -111 -92 -82 -111 21 -13 27
-11 39 11 6 11 19 20 29 20 10 0 24 6 30 14 6 7 39 25 74 40 34 15 70 31 80
37 26 14 67 0 77 -27 6 -15 18 -24 30 -24 30 0 37 -28 11 -46 -27 -19 -28 -54
-1 -61 11 -3 20 -9 20 -13 0 -4 3 -21 6 -39 6 -26 3 -32 -18 -40 -25 -9 -38
-43 -38 -97 0 -12 -6 -29 -13 -36 -13 -14 -52 -108 -63 -150 -3 -15 -12 -32
-20 -39 -8 -6 -14 -19 -14 -29 0 -9 -9 -25 -20 -35 -11 -10 -20 -24 -20 -32 0
-21 -31 -15 -37 7 -3 11 -9 20 -14 20 -12 0 -11 -26 1 -48 5 -9 14 -28 20 -42
5 -14 15 -33 22 -42 21 -29 -6 -47 -32 -23 -29 26 -43 5 -35 -53 7 -51 -18
-71 -43 -34 -8 12 -18 22 -23 22 -15 0 -10 -40 6 -46 8 -3 17 -16 21 -27 4
-12 14 -27 22 -33 17 -12 8 -34 -14 -34 -8 0 -14 9 -14 21 0 14 -5 19 -17 17
-23 -4 -31 -48 -9 -48 25 0 19 -18 -18 -56 -28 -29 -35 -46 -46 -112 -7 -42
-21 -102 -31 -133 -10 -30 -19 -66 -19 -80 0 -13 -9 -33 -21 -43 -16 -13 -20
-25 -16 -49 7 -39 -15 -149 -30 -154 -19 -7 -23 13 -24 130 0 71 -5 123 -13
139 -7 13 -10 33 -6 43 4 11 3 37 -1 60 -5 22 -15 168 -24 323 -8 156 -17 288
-20 293 -3 5 -12 149 -20 321 -16 354 -19 371 -60 378 -39 7 -42 26 -8 58 42
39 52 109 17 122 -13 5 -24 17 -24 27 0 23 39 63 62 63 9 0 25 11 33 24 9 13
33 31 54 40 27 10 41 23 45 42 4 15 23 46 42 70 35 42 35 42 9 68 -14 14 -25
30 -25 35 0 13 61 -23 85 -49 22 -25 51 -26 64 -3 5 10 31 30 57 44 33 17 51
35 58 56 6 17 23 41 39 53 18 15 27 31 27 50 0 20 7 33 23 41 33 18 38 30 32
77 -7 45 0 50 30 28 16 -12 17 -17 6 -44 -19 -46 9 -73 39 -37 9 10 31 15 72
15 54 0 62 3 88 32 16 17 30 41 32 52 2 12 15 26 29 33 15 7 32 28 39 45 16
39 49 78 66 78 21 0 26 -18 12 -40 -11 -17 -11 -22 2 -30 24 -16 45 -7 48 20
6 39 17 43 58 21 56 -30 64 -27 64 20 0 38 1 40 28 37 25 -3 27 -6 24 -45z
m3768 7 c0 -10 -33 -30 -49 -30 -15 0 -14 33 1 48 12 12 48 -1 48 -18z m-8945
-6 c14 -15 25 -39 25 -53 0 -15 5 -32 12 -39 11 -11 30 -57 49 -120 6 -19 19
-48 30 -65 10 -18 19 -39 19 -48 0 -9 7 -22 15 -29 8 -7 17 -27 21 -45 3 -19
15 -41 25 -51 11 -10 19 -30 19 -50 0 -30 -5 -35 -46 -54 -59 -26 -62 -25 -76
8 -6 15 -16 41 -23 57 -7 17 -21 52 -31 79 -24 63 -48 79 -69 48 -9 -12 -26
-22 -39 -22 -12 0 -28 -6 -34 -12 -7 -7 -32 -18 -55 -24 -40 -10 -42 -12 -41
-47 1 -20 10 -48 20 -63 68 -96 64 -166 -9 -172 -52 -4 -87 19 -87 58 0 17 -9
47 -20 67 -11 21 -20 45 -20 53 0 8 -9 29 -20 45 -11 17 -20 37 -20 46 0 9 -7
22 -15 29 -8 7 -17 27 -21 45 -3 19 -15 41 -25 51 -10 9 -19 26 -19 37 0 10
-8 32 -17 48 -27 45 -1 83 59 86 40 3 45 0 66 -33 12 -19 22 -45 22 -57 0 -13
6 -32 14 -43 8 -11 16 -31 18 -44 3 -21 8 -25 37 -23 19 1 38 8 43 16 4 9 22
18 39 22 96 21 142 63 105 94 -8 7 -18 25 -21 41 -3 15 -15 36 -26 46 -28 25
-26 90 4 119 30 31 63 30 92 -1z m159 20 c34 -13 16 -114 -21 -114 -14 0 -53
70 -53 94 0 20 44 32 74 20z m9012 -40 c36 -28 45 -54 18 -54 -8 0 -12 -5 -8
-11 4 -8 9 -8 17 0 20 20 45 11 66 -24 14 -24 28 -35 43 -35 28 0 42 -9 51
-32 3 -10 13 -18 20 -18 8 0 20 -7 27 -15 7 -8 25 -15 41 -15 29 0 99 -58 99
-82 0 -19 62 -78 81 -78 11 0 19 9 21 22 4 27 33 36 42 13 3 -9 1 -25 -4 -35
-8 -15 -5 -23 18 -39 15 -11 34 -28 43 -36 9 -9 23 -13 31 -10 10 4 30 -6 49
-23 19 -16 52 -39 75 -50 22 -11 47 -28 55 -38 8 -9 29 -23 47 -31 17 -7 32
-20 32 -28 0 -9 9 -15 25 -15 48 0 75 -20 75 -57 0 -37 24 -47 33 -12 8 29 41
21 45 -11 4 -30 37 -67 66 -76 12 -3 31 -18 43 -33 23 -26 23 -26 41 -3 19 25
32 20 32 -12 0 -12 5 -37 10 -57 9 -34 13 -36 48 -35 34 1 37 -2 40 -28 2 -18
11 -30 23 -33 12 -4 19 -14 19 -29 0 -16 8 -28 23 -33 12 -5 35 -23 51 -40 17
-17 38 -31 47 -31 10 0 21 -10 25 -22 8 -27 72 -88 91 -88 7 0 17 -8 22 -19 6
-10 26 -28 46 -40 24 -14 37 -30 42 -52 3 -17 12 -33 19 -36 8 -3 14 -10 14
-16 0 -5 23 -34 50 -63 28 -29 50 -58 50 -64 0 -8 9 -10 24 -6 28 7 43 -8 28
-27 -6 -7 -12 -23 -14 -37 -2 -21 2 -26 25 -28 30 -4 30 -4 47 -69 6 -23 26
-60 45 -83 19 -23 35 -49 35 -57 0 -9 16 -36 36 -60 20 -25 38 -59 40 -76 5
-40 29 -75 65 -95 20 -12 29 -25 29 -43 0 -15 7 -32 15 -39 8 -7 15 -28 15
-46 0 -28 4 -34 20 -34 29 0 36 -28 17 -62 -25 -44 -22 -106 8 -151 14 -20 30
-37 35 -37 12 0 40 -53 40 -75 0 -23 -90 -10 -109 16 -18 26 -33 24 -29 -3 4
-32 76 -79 109 -72 29 5 25 26 47 -236 9 -105 6 -605 -4 -645 -6 -22 -17 -50
-25 -62 -11 -19 -11 -27 -1 -43 17 -28 16 -34 -14 -69 -18 -21 -24 -39 -21
-53 4 -12 0 -36 -7 -52 -22 -53 -37 -106 -33 -113 3 -5 0 -21 -7 -38 -13 -30
-13 -30 -13 17 0 54 -5 63 -28 54 -17 -6 -17 -62 0 -143 5 -21 3 -33 -3 -33
-6 0 -12 10 -14 23 -2 14 -10 22 -22 22 -15 0 -22 -11 -31 -55 -6 -30 -19 -67
-29 -82 -10 -16 -16 -35 -12 -43 3 -8 -4 -24 -16 -35 -21 -19 -21 -20 -4 -39
20 -22 14 -41 -12 -41 -9 0 -38 -23 -64 -50 -40 -42 -48 -57 -48 -89 0 -23 -8
-48 -20 -64 -11 -14 -20 -32 -20 -40 0 -9 -5 -19 -10 -22 -6 -4 -22 -24 -36
-46 -13 -21 -30 -39 -37 -39 -18 0 -97 -88 -113 -126 -7 -18 -32 -47 -54 -66
-35 -31 -39 -39 -34 -66 6 -27 3 -32 -20 -38 -16 -4 -26 -13 -26 -24 0 -32
-11 -50 -31 -50 -10 0 -19 5 -19 10 0 6 -5 10 -10 10 -6 0 -6 -7 2 -19 10 -16
5 -27 -34 -79 -25 -33 -51 -69 -57 -81 -28 -52 -43 13 -20 89 13 43 -9 90 -41
90 -24 0 -57 -43 -70 -90 -5 -20 -19 -45 -30 -55 -11 -10 -20 -26 -20 -35 0
-10 -7 -23 -15 -30 -23 -19 -18 -45 11 -59 32 -14 28 -40 -9 -61 -27 -14 -30
-14 -44 8 -20 28 -31 28 -73 -3 -19 -14 -42 -25 -53 -25 -10 0 -49 -18 -87
-40 -44 -26 -81 -40 -103 -40 -42 0 -101 -38 -105 -68 -4 -28 33 -80 64 -92
34 -13 31 -45 -6 -60 -16 -7 -35 -18 -41 -26 -6 -8 -18 -14 -25 -14 -17 0 -18
27 -1 33 6 2 9 8 5 12 -4 4 -20 3 -35 -3 -15 -6 -40 -13 -55 -16 -41 -9 -39
-46 2 -46 20 0 30 -5 30 -15 0 -20 -44 -20 -60 0 -15 18 -56 20 -67 2 -11 -18
-110 -81 -156 -101 -21 -8 -57 -33 -80 -56 -98 -94 -176 -120 -220 -76 -38 38
-80 35 -70 -4 3 -13 17 -22 39 -26 24 -4 34 -12 34 -25 0 -24 -76 -27 -106 -4
-10 8 -29 15 -41 15 -33 0 -31 -43 2 -58 32 -15 32 -26 0 -40 -21 -10 -27 -9
-37 8 -16 26 -44 26 -58 0 -6 -11 -16 -20 -24 -20 -7 0 -39 -14 -71 -30 -34
-17 -74 -30 -96 -30 -30 0 -41 -6 -63 -35 -28 -37 -46 -38 -46 -4 0 23 -27 36
-42 21 -16 -16 -1 -59 23 -65 12 -3 19 -12 17 -19 -7 -20 -47 -22 -83 -2 -31
16 -33 16 -54 -5 -14 -14 -33 -21 -59 -21 -32 0 -41 -5 -50 -25 -15 -32 -67
-36 -75 -5 -10 38 -36 23 -39 -22 -2 -34 -7 -44 -23 -46 -11 -2 -25 -10 -31
-17 -7 -10 -19 -12 -39 -7 -34 10 -44 29 -18 39 29 11 63 46 63 66 0 16 -5 17
-31 12 -35 -8 -38 10 -5 29 13 9 20 7 30 -7 16 -20 56 -23 56 -3 0 7 -7 19
-15 26 -14 12 -12 18 20 50 45 46 45 60 0 60 -30 0 -35 3 -35 24 0 14 5 28 10
31 15 9 12 25 -5 25 -8 0 -15 -4 -15 -10 0 -5 -10 -10 -22 -10 -23 0 -23 0 0
18 23 18 23 18 3 44 -12 14 -21 31 -21 37 0 6 -13 14 -29 17 -29 6 -29 7 -15
30 15 22 14 25 -11 48 -27 25 -27 25 -6 38 29 18 26 36 -5 44 -14 4 -34 19
-43 35 -26 42 -70 74 -84 60 -13 -13 -47 -15 -47 -1 0 5 8 13 17 19 25 14 13
21 -49 30 -29 4 -59 10 -66 14 -15 10 -52 -10 -52 -27 0 -8 11 -17 25 -20 14
-4 25 -11 25 -16 0 -20 -25 -22 -75 -4 -69 23 -90 10 -81 -48 7 -44 -6 -50
-34 -15 -17 21 -20 21 -52 8 -18 -8 -55 -15 -83 -16 -27 -2 -70 -13 -95 -25
-43 -22 -44 -23 -22 -33 27 -12 30 -47 4 -47 -11 0 -29 -9 -42 -20 -32 -28
-56 -25 -64 6 -6 23 -10 25 -39 19 -18 -4 -39 -13 -47 -20 -26 -23 -66 -29
-73 -11 -4 9 -13 16 -22 16 -8 0 -20 11 -25 25 -5 14 -14 25 -19 25 -22 0 -21
-24 2 -57 25 -35 26 -63 2 -63 -7 0 -15 9 -18 20 -7 28 -57 28 -57 0 0 -11 -8
-23 -17 -26 -10 -3 -30 -12 -45 -20 -34 -18 -126 -18 -158 1 -14 8 -30 17 -37
21 -7 3 -24 -4 -39 -15 -16 -12 -41 -21 -62 -21 -27 0 -45 -9 -78 -40 -24 -22
-49 -40 -56 -41 -7 0 -99 -1 -204 -3 -181 -2 -191 -3 -212 -24 -30 -30 -45
-28 -89 11 -48 42 -126 87 -151 87 -11 0 -30 -8 -43 -19 -13 -10 -34 -21 -45
-25 -12 -4 -36 -20 -53 -36 -17 -17 -39 -30 -50 -30 -10 0 -24 -7 -31 -15 -7
-9 -29 -15 -51 -15 -32 0 -39 -3 -39 -20 0 -13 10 -24 26 -30 32 -12 27 -34
-9 -38 -18 -2 -29 3 -37 17 -6 12 -19 21 -28 21 -10 0 -27 7 -39 15 -20 14
-45 4 -29 -12 3 -3 -2 -19 -10 -35 -12 -22 -19 -27 -27 -19 -16 16 -57 14 -63
-3 -3 -8 -1 -24 6 -35 9 -19 8 -21 -13 -21 -30 0 -60 28 -83 79 -12 25 -25 40
-34 38 -21 -3 -25 -60 -6 -77 18 -14 21 -40 5 -40 -25 0 -79 56 -79 82 0 33
-13 42 -40 28 -28 -15 -25 -37 5 -44 14 -4 25 -10 25 -16 0 -14 -41 -23 -53
-11 -6 6 -24 11 -39 11 -23 0 -28 4 -28 24 0 21 -16 36 -40 36 -5 0 -12 -10
-16 -22 -4 -13 -14 -28 -22 -34 -21 -16 -7 -32 23 -26 34 6 34 -25 0 -34 -19
-5 -31 1 -59 30 -24 26 -41 36 -58 34 -12 -2 -25 2 -26 7 -2 6 -10 24 -17 41
-8 19 -9 37 -4 47 12 20 -4 31 -32 22 -16 -5 -27 0 -43 20 -20 25 -27 27 -104
27 -77 1 -83 -1 -102 -25 -12 -14 -27 -24 -34 -21 -8 3 -28 -2 -45 -11 -33
-17 -42 -49 -15 -59 22 -9 6 -29 -20 -23 -16 4 -26 -3 -43 -29 -13 -20 -23
-39 -23 -44 0 -5 -9 -12 -20 -15 -11 -4 -28 -17 -36 -31 -9 -13 -24 -24 -33
-24 -9 0 -24 -9 -34 -20 -28 -33 -72 -24 -124 25 -22 19 -29 20 -73 11 -42 -8
-52 -7 -68 7 -23 21 -46 22 -62 2 -16 -19 -32 -19 -69 2 -36 21 -65 6 -41 -22
11 -13 9 -15 -15 -15 -16 0 -43 -11 -61 -25 -25 -19 -42 -24 -74 -22 -48 3
-62 20 -54 65 6 29 4 32 -18 32 -17 0 -29 8 -37 26 -14 31 -36 26 -36 -9 1
-27 -18 -24 -44 7 -11 14 -15 14 -36 0 -21 -14 -24 -13 -38 7 -16 22 -50 23
-99 4 -23 -9 -25 31 -3 55 9 10 13 25 9 34 -7 17 -20 21 -28 8 -2 -4 -35 -7
-72 -6 -81 2 -106 22 -66 52 28 21 20 32 -24 32 -19 0 -34 6 -38 15 -8 21 -33
19 -46 -4 -6 -13 -17 -17 -30 -14 -11 3 -28 2 -37 -1 -16 -7 -15 -9 6 -25 16
-12 22 -24 18 -35 -9 -23 -37 -20 -65 7 -22 21 -24 21 -36 5 -22 -30 -56 -23
-56 11 0 21 -6 32 -20 36 -34 11 -96 8 -118 -6 -19 -12 -25 -10 -55 19 -18 17
-40 32 -49 32 -8 0 -27 9 -41 20 -46 37 -109 16 -174 -59 -15 -17 -34 -31 -43
-31 -8 0 -20 -10 -25 -22 -6 -14 -20 -24 -35 -25 -14 -1 -34 -3 -45 -5 -14 -2
-21 3 -23 20 -5 31 -46 27 -50 -6 -4 -23 -35 -46 -55 -39 -7 2 -12 19 -12 38
0 29 -4 35 -25 37 -13 2 -30 11 -36 20 -10 13 -15 14 -27 4 -10 -9 -26 -10
-53 -4 -22 5 -55 7 -75 4 -23 -2 -64 6 -111 22 -41 14 -83 23 -95 20 -14 -4
-25 1 -35 15 -9 12 -25 20 -39 20 -13 -1 -31 1 -40 5 -11 5 -19 -1 -27 -19
-14 -30 -31 -32 -63 -6 -14 10 -41 26 -62 34 -20 9 -37 23 -37 31 0 22 -17 20
-30 -4 -15 -28 -39 -25 -50 6 -6 14 -19 28 -29 31 -11 3 -22 12 -26 20 -5 14
-7 14 -23 1 -27 -24 -72 -32 -72 -13 0 23 -57 20 -65 -4 -9 -30 -65 -36 -65
-7 0 6 -17 20 -37 30 -21 11 -47 30 -59 44 -13 15 -36 26 -62 29 -42 6 -57 28
-27 39 36 14 -8 36 -75 38 -19 1 -27 9 -36 36 -8 23 -19 36 -33 38 -11 2 -26
13 -32 24 -8 15 -17 19 -39 14 -55 -10 -60 28 -6 48 18 6 18 7 1 26 -14 15
-26 18 -59 14 -31 -5 -45 -2 -55 10 -18 21 -38 20 -50 -1 -5 -10 -13 -14 -17
-10 -5 4 -3 17 4 27 17 27 15 60 -3 60 -8 0 -15 -9 -15 -19 0 -22 -30 -35 -60
-26 -28 9 -25 33 5 47 41 19 29 27 -40 26 -65 -1 -79 -11 -48 -33 19 -14 12
-45 -11 -45 -7 0 -21 11 -30 25 -21 32 -53 33 -58 3 -4 -31 -43 -37 -51 -8 -4
17 -12 21 -38 18 -44 -4 -48 -25 -7 -36 47 -12 51 -42 5 -42 -28 0 -46 -11
-96 -56 -34 -31 -61 -65 -61 -76 0 -10 -7 -21 -15 -25 -9 -3 -25 -23 -36 -44
-11 -22 -26 -39 -34 -39 -7 0 -20 -8 -27 -18 -7 -10 -21 -21 -31 -25 -21 -8
-22 -30 -2 -47 15 -13 14 -14 30 35 6 19 55 20 55 1 0 -30 -19 -64 -39 -71
-26 -8 -27 -35 -2 -66 10 -13 21 -41 25 -62 4 -22 13 -37 21 -37 18 0 19 -14
3 -40 -11 -17 -9 -27 11 -63 13 -24 21 -49 17 -56 -10 -15 11 -41 33 -41 10 0
30 -13 45 -28 23 -25 25 -31 12 -41 -17 -14 -36 -10 -114 25 -29 13 -57 24
-62 24 -5 0 -17 11 -26 25 -20 30 -33 31 -79 5 -42 -24 -52 -25 -36 -6 7 8 11
29 9 46 -3 32 -3 32 -80 35 -57 2 -81 -1 -89 -11 -14 -17 -59 -18 -59 -1 0 6
14 20 30 29 32 18 40 52 14 62 -25 10 -32 7 -39 -14 -9 -29 -51 -27 -59 4 -4
18 -19 27 -63 41 -51 15 -171 67 -227 97 -10 5 -39 7 -66 3 -57 -8 -78 10 -31
26 40 14 41 39 2 39 -40 0 -61 9 -61 27 0 13 -9 15 -54 9 -64 -7 -107 6 -161
51 -32 27 -36 34 -26 47 16 20 6 36 -23 36 -13 0 -35 9 -49 20 -14 11 -31 20
-39 21 -33 1 -133 65 -136 86 -2 15 -13 24 -33 28 -17 4 -33 13 -36 21 -3 8
-19 14 -35 14 -21 0 -31 6 -35 20 -4 14 -14 20 -33 20 -22 0 -30 6 -39 30 -12
35 -38 40 -43 8 -4 -30 -38 -37 -38 -8 0 11 7 23 15 26 8 4 15 12 15 19 0 22
-39 28 -65 11 -23 -15 -25 -15 -35 3 -5 11 -10 27 -10 36 0 8 -12 20 -27 26
-15 6 -43 26 -63 46 -19 20 -60 50 -90 67 -43 25 -56 37 -60 61 -4 25 -11 31
-40 35 -35 5 -35 5 -45 79 -8 61 -14 76 -32 84 -13 6 -24 22 -27 42 -7 37 -38
52 -61 29 -18 -19 -9 -42 17 -46 12 -2 24 -10 28 -18 4 -8 17 -36 30 -61 24
-49 21 -69 -11 -69 -15 0 -19 7 -19 33 0 28 -5 36 -32 48 -19 8 -34 23 -36 34
-5 25 -30 45 -58 45 -12 0 -32 9 -45 20 -24 19 -24 19 13 20 46 0 68 8 68 25
0 31 -71 34 -101 4 -16 -16 -24 -18 -33 -9 -8 8 -7 15 7 25 29 21 18 57 -20
67 -24 6 -38 21 -63 66 -18 31 -50 79 -71 105 -21 27 -41 64 -45 83 -6 34 -17
43 -29 24 -8 -12 -45 -13 -45 -1 0 5 7 11 15 15 8 3 15 14 15 25 0 21 -42 53
-62 46 -20 -7 -40 10 -36 31 2 11 13 20 26 22 15 2 22 9 20 20 -4 23 -39 28
-50 8 -5 -9 -16 -16 -25 -16 -13 0 -15 8 -10 44 6 39 4 46 -18 60 -32 21 -32
33 0 48 28 13 33 33 9 42 -27 10 -34 7 -34 -19 0 -18 -5 -25 -19 -25 -28 0
-34 27 -9 44 20 14 20 17 6 33 -27 30 -158 303 -158 329 0 17 -8 27 -25 34
-25 10 -35 33 -36 85 -1 140 -8 179 -30 196 -21 16 -23 25 -21 90 1 40 -1 82
-4 92 -10 33 -34 -1 -34 -49 0 -68 -17 -52 -22 21 -3 36 -10 71 -16 78 -7 8
-8 26 -2 51 5 22 12 72 15 111 7 72 7 72 -29 101 -42 34 -45 44 -13 44 28 0
47 17 47 42 0 11 -7 18 -19 18 -31 0 -34 18 -5 36 23 16 25 22 19 60 -4 29 -2
46 8 56 8 7 16 33 20 57 7 57 23 73 37 37 17 -45 12 -92 -11 -107 -13 -9 -22
-29 -26 -56 -5 -38 -3 -43 15 -43 20 0 32 24 32 67 0 13 9 32 20 43 30 30 29
141 -1 171 -29 29 -24 134 9 178 26 35 28 73 7 91 -22 18 -19 29 18 50 34 20
67 75 73 123 5 39 61 147 92 179 43 42 52 56 58 87 4 16 12 32 19 35 20 7 28
63 14 97 -10 27 -9 34 8 57 13 17 29 26 42 25 18 -2 27 9 50 60 26 58 100 159
158 215 24 24 26 29 27 77 1 26 5 31 35 35 29 4 36 10 43 38 5 18 15 32 24 32
8 0 49 33 92 74 42 41 88 83 102 94 25 21 25 21 2 37 -31 23 -14 42 44 51 45
6 62 18 44 29 -5 3 -10 15 -10 26 0 16 7 19 40 19 27 0 43 5 46 15 4 8 11 15
18 15 7 0 32 21 56 46 25 25 61 52 80 60 19 8 41 22 48 32 7 9 27 22 45 28 37
12 43 37 10 42 -49 7 -20 42 34 42 15 0 36 11 49 25 15 16 34 25 53 25 19 0
36 8 48 23 28 35 39 39 78 23 64 -27 36 -67 -41 -58 -35 4 -44 2 -44 -11 0
-10 11 -17 28 -19 34 -4 36 -30 2 -39 -18 -4 -29 -1 -41 14 -12 15 -23 18 -47
12 -41 -9 -41 -31 -2 -69 29 -27 32 -27 44 -11 10 13 15 15 20 6 5 -7 1 -17
-8 -24 -11 -8 -18 -31 -21 -67 -2 -34 -9 -58 -19 -66 -21 -15 -20 -60 2 -76 9
-7 26 -30 37 -52 11 -21 39 -59 62 -85 24 -25 55 -72 70 -104 26 -58 26 -58
48 -37 23 21 23 21 39 -1 9 -13 16 -28 16 -33 0 -5 18 -27 40 -47 22 -21 40
-43 40 -51 1 -37 37 -62 96 -66 78 -5 91 1 160 83 74 87 104 143 104 198 0 67
9 87 41 94 16 3 29 11 29 19 0 19 20 28 33 14 9 -9 8 -14 -5 -24 -27 -20 -22
-28 12 -21 21 5 39 2 55 -9 21 -14 43 -15 135 -10 105 7 154 23 115 38 -19 7
-20 46 -1 46 8 0 18 -9 21 -20 3 -11 11 -20 16 -20 17 0 68 65 69 88 0 34 44
51 69 28 17 -15 19 -29 16 -90 -7 -151 -8 -332 -1 -354 4 -12 16 -27 26 -32
17 -9 19 -18 13 -71 -5 -53 -3 -62 16 -80 11 -11 21 -25 21 -32 0 -7 9 -29 20
-50 13 -23 20 -56 20 -89 0 -57 2 -60 146 -183 23 -20 45 -47 48 -60 4 -14 11
-25 16 -25 6 0 40 -27 75 -60 35 -33 73 -60 84 -60 11 0 22 -4 25 -9 8 -12
123 -67 159 -75 15 -4 31 -14 34 -24 4 -9 18 -32 31 -50 22 -28 29 -32 55 -26
33 7 47 -6 47 -43 0 -30 9 -33 56 -21 58 16 91 5 108 -37 8 -19 20 -35 25 -35
18 0 51 -39 51 -59 0 -14 -10 -21 -36 -25 -41 -8 -51 -27 -35 -63 9 -21 14
-23 26 -13 21 17 20 -3 -1 -36 -21 -31 -12 -209 12 -235 8 -8 14 -20 14 -26 0
-5 9 -18 21 -29 17 -16 20 -26 15 -69 -24 -207 -14 -336 30 -400 8 -11 14 -29
14 -41 0 -12 9 -33 21 -48 17 -22 19 -29 8 -42 -9 -11 -9 -18 -1 -26 20 -20
13 -48 -13 -58 -30 -11 -27 6 -26 -203 0 -179 6 -213 51 -297 17 -32 17 -37 2
-53 -13 -14 -13 -21 -2 -41 14 -26 7 -46 -16 -46 -24 0 -16 -30 12 -40 25 -10
25 -30 -1 -30 -39 0 -45 -67 -10 -109 15 -17 25 -40 23 -53 -1 -13 4 -42 11
-65 13 -38 12 -45 -2 -61 -20 -22 -21 -39 -3 -71 12 -21 12 -28 0 -46 -12 -19
-12 -27 1 -59 12 -28 13 -41 4 -57 -8 -16 -8 -27 1 -45 11 -19 10 -26 -1 -40
-12 -15 -10 -20 19 -44 32 -26 41 -53 22 -65 -18 -11 -10 -35 15 -45 25 -10
33 -34 15 -45 -7 -4 -8 -26 -4 -56 6 -42 4 -52 -12 -63 -17 -13 -17 -17 -4
-40 10 -20 11 -29 2 -38 -18 -18 -14 -53 8 -73 25 -23 25 -41 0 -55 -26 -14
-17 -30 16 -30 20 0 24 -5 24 -31 0 -56 44 -114 112 -148 32 -16 39 -17 49 -5
6 8 20 14 29 14 10 0 32 12 49 26 37 31 52 24 69 -35 15 -50 17 -50 137 -40
55 5 239 8 409 7 261 -1 310 1 314 13 4 12 34 77 108 234 13 28 24 55 24 61 0
7 6 17 14 23 8 7 18 27 21 44 4 18 13 39 20 47 7 8 16 26 20 40 4 13 14 30 21
38 8 7 14 24 14 36 0 13 9 35 20 49 11 14 20 30 20 36 0 10 25 64 65 141 7 14
16 39 19 57 4 17 13 34 21 37 8 3 17 21 20 40 4 19 13 40 21 47 8 6 14 16 14
22 0 12 35 90 86 191 19 37 34 74 34 81 0 7 9 23 19 37 11 13 23 38 27 54 4
16 16 43 26 59 10 17 18 37 18 46 0 9 7 22 15 29 8 7 15 20 15 30 0 9 9 28 19
42 11 13 23 38 27 54 4 16 15 40 26 53 10 13 18 29 18 36 0 7 7 18 15 25 8 7
19 26 23 43 17 67 47 29 31 -40 -5 -21 -9 -59 -9 -85 0 -26 -4 -49 -9 -52 -10
-7 -23 -114 -26 -223 -1 -46 -7 -88 -12 -95 -22 -28 -23 -55 -3 -78 12 -14 18
-30 14 -39 -9 -21 -5 -263 7 -376 4 -49 8 -122 8 -160 0 -41 6 -86 16 -107 8
-21 15 -64 15 -97 0 -33 4 -62 9 -65 4 -3 11 -30 15 -59 8 -73 41 -147 66
-147 24 0 27 -6 36 -67 6 -46 4 -52 -15 -58 -23 -7 -29 -25 -8 -25 20 1 56 36
67 65 9 25 14 27 46 20 25 -4 43 -1 60 10 38 25 68 16 72 -20 2 -16 7 -34 11
-38 5 -4 717 -9 1584 -10 1577 -2 1577 -2 1602 61 14 34 25 68 25 76 0 7 6 19
14 25 8 7 17 30 21 51 4 21 13 44 21 51 8 6 14 19 14 28 0 9 9 34 19 55 11 21
23 52 27 69 3 18 15 48 25 67 30 57 59 126 59 138 0 6 9 26 20 44 11 18 20 42
20 52 0 11 7 27 16 37 9 10 18 36 21 58 3 22 12 46 19 52 8 6 14 17 14 23 0 6
12 34 25 61 14 28 25 57 25 66 0 9 7 22 15 29 8 7 20 30 25 51 6 22 14 39 19
39 11 0 31 47 31 75 0 17 9 29 30 40 22 12 30 22 30 43 -1 27 -1 27 -34 -10
-18 -21 -38 -38 -44 -38 -18 0 -80 -40 -86 -55 -3 -8 -12 -15 -19 -15 -8 0
-20 -7 -27 -15 -13 -15 -60 -21 -60 -7 0 4 15 21 33 37 17 17 47 49 66 73 23
28 42 42 58 42 16 0 23 6 23 19 0 17 -5 19 -35 14 -41 -7 -48 12 -10 27 14 5
25 11 25 14 0 20 -16 36 -36 36 -17 0 -27 8 -34 24 -4 13 -19 26 -32 28 -13 3
-31 9 -40 13 -13 5 -18 3 -18 -8 0 -22 -20 -32 -31 -16 -14 22 -10 39 8 39 13
0 14 3 5 12 -8 8 -15 8 -27 -2 -12 -10 -19 -10 -37 2 -23 16 -26 15 -82 -39
-29 -29 -44 -29 -56 0 -7 17 -8 13 -4 -16 7 -39 7 -39 -37 -32 -41 6 -46 4
-78 -29 -23 -24 -44 -36 -62 -36 -15 0 -41 -12 -58 -26 -43 -36 -66 -29 -65
19 1 21 10 48 20 60 33 38 44 65 50 124 4 32 14 68 22 81 17 25 20 98 5 113
-13 13 -55 -10 -98 -54 -39 -40 -42 -49 -19 -67 9 -8 14 -25 12 -44 -3 -27 -7
-31 -29 -29 -19 1 -30 -5 -38 -23 -8 -18 -19 -24 -41 -24 -36 0 -38 -12 -5
-34 27 -18 24 -40 -8 -58 -17 -9 -24 -7 -39 12 -22 27 -24 78 -3 86 8 4 15 12
15 19 0 15 43 45 64 45 20 0 25 20 13 53 -7 20 -5 33 5 50 17 26 31 87 20 87
-4 0 -13 -9 -19 -19 -8 -13 -26 -21 -50 -23 -36 -3 -37 -4 -56 -66 -10 -35
-32 -82 -50 -106 -28 -37 -73 -124 -106 -210 -12 -29 -12 -29 -32 -7 -23 25
-67 27 -109 6 -54 -28 -94 20 -49 59 13 12 30 33 36 49 7 15 20 27 28 27 8 0
21 12 27 28 7 15 28 51 48 81 57 88 60 94 54 126 -4 17 -8 33 -11 38 -8 14
-41 -13 -79 -65 -21 -29 -49 -61 -62 -71 -12 -10 -29 -32 -38 -49 -13 -24 -20
-29 -40 -24 -20 5 -26 2 -34 -19 -6 -15 -17 -25 -30 -25 -15 0 -20 -7 -20 -29
0 -39 -9 -41 -162 -41 -122 0 -131 -1 -148 -22 -15 -19 -21 -21 -43 -11 -21
10 -33 9 -61 -2 -19 -8 -47 -12 -63 -9 -20 4 -38 -2 -63 -20 -50 -36 -107 -66
-113 -60 -7 7 26 120 46 159 20 40 83 173 97 205 6 14 17 36 25 50 8 14 15 34
15 45 0 11 14 36 29 55 26 31 34 35 78 34 26 0 230 -1 453 -1 461 -1 424 -1
635 -6 89 -2 178 -9 200 -16 22 -7 46 -15 54 -17 11 -4 11 -8 -3 -23 -20 -22
-12 -49 20 -61 20 -8 22 -13 14 -41 -5 -17 -7 -36 -4 -40 9 -16 32 -9 39 10 3
11 12 22 20 25 20 7 20 80 0 99 -8 8 -26 37 -40 64 -24 45 -64 99 -111 148
-20 22 -20 22 -741 23 -397 1 -725 2 -730 3 -27 5 -33 -4 -87 -141 -3 -8 -10
-22 -15 -30 -21 -34 -90 -187 -97 -213 -3 -16 -12 -31 -19 -34 -7 -2 -16 -16
-20 -31 -5 -25 -36 -95 -57 -132 -4 -8 -13 -26 -18 -40 -6 -14 -15 -32 -20
-40 -6 -8 -17 -29 -25 -47 -8 -17 -19 -34 -25 -38 -5 -3 -10 -18 -10 -31 0
-26 0 -26 118 -19 64 4 488 7 942 8 918 2 822 -5 894 65 13 12 29 22 35 22 15
0 123 87 135 109 5 9 10 17 10 18 1 1 19 -4 41 -11 35 -13 37 -14 18 -25 -12
-6 -23 -25 -27 -44 -3 -18 -15 -40 -26 -50 -11 -9 -20 -29 -20 -44 0 -14 -7
-35 -17 -45 -9 -10 -17 -34 -17 -54 -1 -22 -9 -41 -19 -49 -22 -16 -65 -100
-73 -142 -3 -18 -12 -37 -20 -44 -8 -6 -14 -19 -14 -28 0 -9 -9 -34 -19 -55
-11 -21 -23 -51 -26 -66 -3 -16 -12 -34 -20 -40 -7 -6 -16 -30 -19 -55 -4 -24
-14 -49 -21 -55 -8 -7 -15 -20 -15 -29 0 -9 -11 -38 -25 -66 -13 -27 -25 -57
-25 -66 0 -9 -6 -22 -14 -28 -8 -7 -17 -26 -20 -44 -3 -18 -15 -51 -26 -72
-11 -22 -20 -44 -20 -51 0 -6 -10 -30 -22 -53 -23 -42 -23 -42 -1538 -44 -833
-2 -1537 -5 -1565 -8 -68 -7 -75 1 -75 78 0 36 -7 104 -15 152 -8 47 -19 158
-25 246 -5 88 -14 188 -19 221 -6 34 -15 133 -20 220 -5 88 -12 170 -15 184
-9 40 -26 238 -26 313 0 38 -7 84 -15 104 -9 20 -13 45 -9 55 3 10 0 26 -8 35
-9 11 -12 39 -9 92 5 110 5 125 -3 246 -4 61 -9 136 -9 169 -2 42 -7 62 -18
69 -27 17 -49 1 -49 -35 0 -18 -9 -46 -20 -63 -11 -16 -20 -38 -20 -48 0 -10
-9 -35 -20 -55 -29 -56 -60 -127 -60 -139 0 -6 -7 -16 -15 -23 -8 -7 -15 -20
-15 -29 0 -10 -18 -53 -40 -97 -22 -43 -40 -84 -40 -90 0 -6 -9 -23 -20 -37
-11 -14 -20 -31 -20 -39 0 -7 -11 -35 -25 -63 -13 -27 -25 -55 -25 -61 0 -6
-7 -17 -15 -24 -8 -7 -17 -28 -21 -47 -4 -19 -13 -37 -20 -40 -8 -3 -14 -13
-14 -22 0 -9 -18 -51 -39 -93 -22 -43 -42 -91 -46 -107 -3 -16 -13 -35 -20
-41 -8 -7 -17 -27 -21 -46 -3 -18 -12 -38 -19 -44 -8 -6 -17 -24 -20 -40 -3
-16 -13 -34 -20 -40 -8 -7 -17 -28 -21 -47 -4 -19 -12 -37 -19 -39 -7 -3 -16
-20 -19 -39 -4 -18 -13 -38 -20 -44 -8 -7 -17 -27 -20 -45 -4 -19 -13 -37 -21
-40 -8 -3 -15 -16 -15 -29 0 -14 -9 -36 -20 -50 -11 -14 -20 -31 -20 -39 0 -8
-18 -50 -40 -94 -22 -43 -42 -91 -45 -106 -4 -15 -12 -32 -20 -38 -8 -6 -17
-24 -20 -40 -3 -16 -12 -34 -20 -40 -7 -6 -16 -26 -19 -44 -4 -19 -13 -39 -21
-46 -8 -7 -15 -23 -15 -36 0 -12 -4 -25 -9 -29 -8 -4 -780 -10 -839 -6 -8 1
-13 15 -12 39 0 20 -4 69 -9 107 -6 39 -13 135 -16 215 -4 80 -10 161 -15 180
-12 46 -30 255 -30 345 0 39 -4 75 -9 80 -5 6 -14 93 -21 195 -13 215 -14 233
-28 320 -6 36 -16 154 -22 263 -5 109 -14 206 -19 215 -5 10 -12 87 -16 172
-4 85 -11 160 -16 166 -5 7 -7 30 -3 52 4 25 2 42 -5 46 -6 4 -11 36 -11 75 0
97 -20 331 -30 361 -5 14 -11 91 -14 171 -3 80 -10 158 -16 173 -6 16 -10 45
-10 65 1 20 -6 101 -13 181 -8 80 -14 152 -15 160 0 8 -5 47 -12 85 -6 39 -13
140 -16 225 -3 85 -10 182 -15 215 -5 33 -13 81 -18 107 -4 28 -17 59 -32 74
-13 14 -49 53 -79 85 -30 32 -73 79 -95 106 -22 26 -68 75 -102 109 -98 98
-88 116 57 94 71 -11 1151 -15 1206 -4 19 3 45 3 59 0 24 -6 24 -6 24 -144 0
-75 5 -162 11 -192 6 -30 15 -127 20 -215 5 -88 16 -207 24 -265 9 -58 20
-185 26 -283 6 -97 14 -187 19 -200 5 -12 11 -85 15 -162 8 -175 16 -266 27
-285 8 -17 21 -277 23 -460 1 -115 1 -115 25 -112 32 3 51 20 51 45 0 20 68
204 96 260 8 16 14 37 14 46 0 10 9 30 20 44 11 14 20 32 20 40 0 8 8 25 19
38 10 13 22 35 26 49 4 14 13 32 20 40 7 8 16 29 20 47 3 17 13 37 21 44 8 6
14 22 14 34 0 12 9 33 19 47 11 13 23 38 27 54 4 16 12 36 19 44 7 8 16 26 20
40 4 14 13 32 20 40 7 8 16 29 20 47 3 17 12 37 20 43 7 6 16 26 19 44 4 19
13 39 20 45 8 7 17 27 20 45 4 19 13 39 21 46 8 7 15 17 15 22 0 6 18 47 39
91 22 45 43 94 46 109 4 15 13 32 21 39 7 6 16 26 20 45 3 18 12 38 20 45 8 6
14 17 14 23 0 6 12 34 25 61 14 28 25 55 25 61 0 6 7 17 15 24 8 7 17 27 21
46 3 18 12 38 20 45 8 6 14 17 14 23 0 6 11 34 25 61 13 28 25 55 25 61 0 6 6
17 14 23 8 7 17 27 20 45 4 19 13 39 20 45 8 7 17 27 20 45 4 19 13 39 20 45
8 7 17 27 20 45 4 19 13 39 21 46 8 7 15 20 15 29 0 10 6 25 13 35 12 16 44
18 392 21 209 1 393 4 408 6 26 4 30 0 47 -51 22 -64 25 -91 9 -107 -9 -9 -9
-23 -1 -55 6 -24 14 -133 17 -243 3 -110 10 -216 15 -235 10 -43 19 -160 25
-345 6 -190 15 -313 25 -355 5 -19 12 -125 15 -235 3 -110 9 -209 12 -220 8
-27 13 -110 17 -298 2 -93 8 -163 14 -169 15 -15 42 -2 42 19 1 10 9 36 20 58
11 22 19 46 20 53 0 6 9 29 20 49 11 21 20 45 20 53 0 8 7 24 15 34 8 11 15
26 15 33 0 19 57 140 70 148 5 3 10 17 10 29 0 13 8 34 19 47 10 13 22 35 26
49 4 14 13 32 20 40 7 8 15 28 19 44 4 16 16 41 27 54 10 14 19 35 19 47 0 12
6 28 14 34 8 7 18 25 21 41 3 16 12 34 20 40 7 6 16 26 19 44 4 19 13 39 21
46 8 7 15 18 15 24 0 6 12 34 25 61 14 28 25 55 25 61 0 6 7 17 15 24 8 7 15
20 15 30 0 9 8 28 19 41 10 13 22 40 26 59 4 19 13 42 20 50 7 8 16 26 20 40
4 14 13 32 20 40 7 8 16 29 20 47 3 17 13 37 20 43 8 7 17 27 21 46 3 18 12
38 19 44 8 6 17 24 20 40 3 16 13 34 20 40 8 7 17 27 21 46 3 18 12 38 19 44
8 6 17 26 21 43 3 18 15 43 25 56 11 13 19 32 19 41 0 10 6 23 14 29 7 6 16
29 20 50 3 21 12 41 20 44 8 3 17 19 21 36 3 16 12 35 20 41 7 6 16 26 19 44
4 19 13 39 21 46 8 7 15 21 15 32 0 11 12 40 28 65 25 41 29 43 63 38 75 -10
2973 -5 3012 6 62 17 78 6 70 -49 -3 -26 -14 -56 -24 -68 -11 -11 -19 -27 -19
-36 0 -8 -9 -26 -19 -40 -11 -13 -23 -38 -27 -54 -4 -16 -15 -45 -26 -64 -10
-19 -18 -42 -18 -51 0 -9 -6 -22 -14 -28 -7 -6 -16 -29 -20 -50 -3 -21 -12
-44 -20 -50 -8 -6 -17 -27 -20 -45 -4 -19 -13 -39 -20 -45 -8 -6 -16 -26 -20
-44 -3 -17 -13 -45 -20 -62 -29 -59 -54 -121 -66 -157 -6 -21 -16 -40 -21 -43
-5 -4 -9 -14 -9 -23 0 -10 -8 -33 -19 -52 -10 -19 -22 -55 -26 -80 -12 -71
-19 -80 -55 -67 -21 8 -30 18 -30 34 0 13 -21 55 -47 93 -47 70 -47 70 -912
67 -850 -2 -864 -3 -872 -22 -45 -118 -56 -141 -66 -148 -7 -4 -13 -17 -13
-28 0 -11 -9 -37 -20 -57 -28 -53 -70 -149 -70 -160 0 -5 -6 -15 -14 -21 -8
-7 -18 -25 -21 -41 -3 -16 -12 -34 -20 -40 -7 -6 -16 -27 -20 -47 -3 -20 -14
-47 -24 -62 -52 -79 -84 -150 -76 -169 4 -12 19 -13 78 -7 39 4 218 6 397 5
880 -5 949 -4 974 19 12 12 25 21 29 21 3 0 43 25 88 56 45 31 92 59 104 64
11 4 27 15 34 24 7 9 19 16 27 16 7 0 18 9 24 20 6 11 19 20 29 20 10 0 26 11
35 25 14 21 20 24 37 14 22 -12 19 -60 -6 -89 -16 -18 -44 -90 -55 -143 -4
-21 -17 -48 -29 -61 -11 -12 -21 -27 -21 -33 0 -6 -9 -21 -19 -35 -11 -13 -22
-41 -26 -61 -4 -20 -13 -42 -21 -48 -8 -6 -17 -29 -20 -50 -4 -21 -13 -44 -20
-50 -8 -6 -14 -19 -14 -28 0 -9 -9 -34 -20 -56 -11 -22 -20 -44 -20 -50 0 -6
-9 -27 -20 -48 -11 -20 -20 -43 -20 -49 0 -7 -12 -35 -25 -63 -14 -27 -25 -57
-25 -66 0 -9 -6 -22 -14 -28 -7 -6 -16 -29 -20 -50 -3 -21 -13 -44 -21 -51 -8
-7 -15 -21 -15 -32 0 -10 -11 -40 -25 -66 -14 -26 -25 -54 -25 -62 0 -8 -7
-23 -15 -33 -7 -11 -17 -37 -20 -59 -4 -21 -13 -42 -20 -44 -7 -3 -16 -21 -20
-41 -3 -20 -15 -52 -26 -72 -10 -20 -19 -43 -19 -52 0 -9 -7 -22 -15 -29 -8
-7 -15 -22 -15 -34 -1 -11 -9 -39 -20 -61 -27 -56 -26 -60 34 -121 30 -29 56
-64 58 -76 8 -53 60 -17 78 54 5 24 17 56 25 71 8 16 15 36 15 45 0 9 9 31 20
47 11 17 20 37 20 45 0 9 9 33 20 55 11 22 20 44 20 50 0 5 11 33 25 60 13 28
25 57 25 66 0 9 6 22 14 28 7 6 16 30 19 52 3 22 12 48 20 57 9 9 19 31 23 47
4 17 16 44 26 60 10 17 18 43 18 58 0 15 6 30 14 33 8 3 18 20 22 37 4 18 15
48 25 67 11 19 19 39 19 45 0 6 9 28 20 50 11 22 20 47 20 57 0 9 4 20 10 23
5 3 14 25 21 48 6 23 17 49 25 58 7 8 17 31 20 50 4 19 12 41 20 49 7 8 16 32
19 53 4 21 13 41 21 44 7 2 15 22 19 43 4 21 15 46 26 56 10 9 19 24 19 33 0
9 9 30 20 46 13 19 20 47 20 78 0 31 6 54 16 64 11 11 14 28 11 52 -3 27 1 42
16 59 11 12 23 41 26 64 5 35 10 43 33 49 15 4 44 17 63 29 31 19 36 27 33 54
-3 35 -35 49 -50 22 -5 -9 -22 -16 -37 -16 -22 0 -31 -7 -41 -30 -9 -21 -19
-30 -36 -30 -14 0 -33 -13 -51 -35 -15 -19 -36 -35 -45 -35 -10 0 -18 -9 -20
-22 -2 -13 -10 -23 -18 -23 -21 0 -25 33 -5 55 9 10 14 24 10 29 -11 19 -38
12 -60 -15 -14 -17 -26 -23 -38 -19 -23 9 -22 32 3 47 29 19 25 27 -19 34 -53
8 -70 19 -53 36 20 20 13 31 -17 25 -27 -6 -30 -3 -33 21 -4 36 -35 42 -44 8
-4 -18 0 -33 15 -52 15 -20 21 -41 21 -80 0 -29 5 -56 10 -59 6 -3 10 -17 10
-30 0 -23 -1 -23 -77 -18 -70 5 -80 3 -97 -16 -25 -28 -35 -27 -96 9 -58 34
-74 31 -65 -11 8 -34 -8 -59 -35 -59 -10 0 -23 -7 -30 -15 -10 -12 -16 -13
-27 -3 -12 10 -17 9 -27 -3 -18 -25 -209 -36 -242 -14 -34 22 -66 11 -58 -20
8 -32 -26 -51 -64 -36 -15 5 -46 10 -70 10 -26 0 -56 8 -77 21 -18 11 -68 27
-110 35 -42 8 -84 19 -93 24 -9 5 -30 11 -47 12 -25 3 -31 0 -33 -18 -2 -12
-9 -26 -15 -31 -19 -16 -146 -82 -158 -82 -20 0 3 83 52 185 26 55 50 112 54
127 4 14 18 47 31 74 13 26 24 53 24 60 0 7 7 17 15 22 9 4 19 21 24 38 7 29
7 29 772 32 833 3 892 1 903 -44 6 -21 12 -24 50 -24 45 0 64 -12 118 -79 11
-13 29 -21 48 -21 29 0 30 1 30 49 0 29 6 53 14 60 8 6 17 31 20 56 4 24 14
49 21 55 8 7 15 18 15 24 0 7 9 29 20 51 11 21 23 54 26 72 3 18 12 37 20 44
8 6 14 18 14 27 0 8 11 38 24 66 34 73 76 182 76 198 0 7 7 22 15 32 8 11 15
27 15 37 0 9 7 22 15 29 8 7 15 20 15 29 0 9 20 55 44 102 24 48 46 103 50
123 7 36 7 36 -31 37 -21 0 -53 6 -72 13 -38 14 -32 22 34 51 63 27 70 31 74
50 3 16 -2 17 -38 11 -57 -9 -67 16 -23 55 18 16 32 33 32 39 0 13 -1 13 -39
-6 -25 -13 -35 -13 -46 -4 -21 18 -18 29 10 40 22 8 24 14 19 37 -4 16 -9 31
-11 36 -7 13 -41 -12 -45 -33 -5 -32 -21 -28 -30 8 -7 27 -13 32 -38 32 -20 0
-30 5 -30 15 0 8 6 15 14 15 22 0 28 17 15 41 -9 17 -8 24 4 36 22 22 40 6 33
-28 -6 -31 4 -42 28 -33 20 8 20 21 1 57 -17 33 -12 51 19 65 18 8 22 16 18
41 -3 25 -1 31 14 31 43 -1 51 -17 28 -57 -26 -46 -38 -111 -29 -153 8 -38 25
-34 46 11 17 34 17 34 29 -9 6 -24 10 -53 10 -65 -4 -42 0 -57 15 -57 10 0 15
11 15 35 0 24 5 35 14 35 17 0 21 -5 30 -43 6 -24 3 -30 -14 -34 -26 -7 -26
-33 0 -33 11 0 20 7 20 15 0 8 5 15 10 15 7 0 9 -13 5 -32 -9 -53 8 -67 45
-40 21 16 35 20 43 14 23 -18 75 -22 87 -7 21 25 42 18 38 -12 -2 -22 -8 -28
-27 -28 -33 0 -37 -19 -7 -39 24 -15 26 -15 36 4 15 28 32 25 70 -10 18 -17
45 -38 61 -47 30 -18 43 -39 33 -54 -8 -14 -44 -11 -60 6 -9 8 -26 15 -40 15
-14 0 -24 6 -24 15 0 8 -13 21 -29 29 -26 14 -30 14 -45 -3 -17 -18 -16 -19
23 -26 26 -4 45 -15 56 -31 9 -15 25 -24 40 -24 16 0 25 -6 25 -16 0 -14 7
-16 44 -11 35 5 47 3 61 -13 10 -11 26 -22 36 -25 11 -4 23 -22 29 -44 8 -32
17 -41 53 -55 80 -30 102 -21 112 47 7 44 6 49 -14 54 -15 4 -21 13 -21 33 0
20 -6 31 -21 35 -21 7 -23 35 -1 43 17 5 82 -61 82 -84 0 -10 12 -29 28 -42
18 -15 23 -25 15 -28 -14 -6 -18 -64 -5 -64 5 0 14 11 20 25 7 14 20 25 31 25
26 0 38 -20 18 -31 -8 -5 -19 -24 -22 -41 -4 -18 -12 -40 -18 -50 -6 -9 -9
-19 -7 -20 3 -2 33 -28 68 -57 50 -43 67 -52 87 -47 35 9 42 48 20 110 -22 62
-32 76 -56 76 -11 0 -19 5 -19 10 0 13 41 13 74 0 16 -6 26 -17 26 -29 0 -10
9 -21 20 -24 10 -3 22 -16 25 -31 3 -14 7 -38 10 -52 3 -14 14 -28 24 -31 10
-3 24 -16 30 -29 13 -30 33 -30 72 -2 26 20 33 21 64 9 53 -19 75 5 35 37 -19
16 -20 19 -5 40 9 12 22 22 30 22 7 0 15 -10 17 -22 4 -31 32 -29 36 1 2 13
16 37 32 52 42 43 45 72 13 136 -16 32 -38 59 -50 64 -23 8 -32 39 -13 39 6 0
10 4 10 10 0 6 -18 7 -46 3 -45 -6 -46 -6 -39 18 10 32 24 49 41 49 24 0 15
28 -11 34 -14 4 -25 10 -25 15 0 17 33 21 50 6 25 -23 38 -18 55 18 8 17 20
40 27 49 10 14 9 20 -5 36 -9 10 -17 33 -17 50 0 24 -5 31 -21 34 -12 2 -25
10 -29 18 -4 8 -16 32 -26 53 -30 62 -50 77 -97 77 -51 0 -131 37 -135 64 -2
10 9 32 26 50 55 58 69 113 32 123 -15 4 -20 14 -20 38 0 36 -13 45 -61 45
-33 0 -39 -16 -9 -25 22 -7 90 -96 90 -118 0 -9 -9 -18 -19 -22 -11 -3 -23
-15 -26 -26 -7 -22 -18 -24 -46 -8 -16 8 -28 7 -52 -4 -73 -34 -130 -28 -80 8
17 13 10 35 -12 35 -7 0 -15 -7 -19 -15 -9 -25 -34 -17 -50 17 -15 30 -15 33
5 54 11 12 34 28 50 34 39 16 39 53 2 77 -16 9 -37 24 -48 34 -11 9 -57 36
-103 59 -96 49 -119 75 -106 123 8 27 15 33 49 38 73 11 86 9 121 -17z m-307
-3 c20 -13 4 -31 -27 -31 -39 0 -62 17 -42 30 19 12 50 13 69 1z m-8539 -19
c0 -4 -4 -12 -10 -18 -11 -11 16 -72 46 -105 19 -21 12 -84 -10 -92 -8 -3 -17
-19 -21 -36 -8 -36 -20 -39 -35 -12 -15 28 -13 39 10 46 15 5 20 15 20 44 0
25 -7 44 -20 56 -12 11 -20 31 -20 52 0 27 -4 33 -20 33 -18 0 -19 3 -10 20
10 20 70 30 70 12z m-517 -67 c4 -8 2 -17 -4 -21 -15 -9 -39 3 -39 21 0 19 36
20 43 0z m8938 -17 c46 -37 46 -38 14 -76 -14 -17 -25 -39 -25 -50 0 -12 -9
-27 -19 -34 -11 -8 -23 -27 -27 -43 -4 -17 -12 -37 -19 -45 -7 -8 -16 -29 -20
-47 -3 -17 -12 -37 -20 -43 -7 -6 -16 -26 -19 -44 -4 -19 -13 -39 -20 -46 -8
-6 -17 -28 -21 -48 -3 -20 -17 -50 -31 -65 -24 -28 -24 -28 -74 -6 -42 19 -50
27 -50 49 0 14 4 30 9 36 16 15 61 104 61 118 0 7 8 24 19 37 10 13 22 38 25
56 4 17 14 37 22 44 8 6 14 19 14 29 0 9 9 29 20 43 11 14 20 39 20 55 0 17 7
37 15 46 8 8 19 26 25 40 13 36 51 34 101 -6z m-6654 -29 c19 -19 114 -29 145
-15 11 5 26 -2 49 -22 33 -29 33 -29 31 -146 0 -93 2 -118 14 -123 31 -12 11
-22 -48 -25 -53 -3 -64 -6 -74 -26 -18 -36 -22 -36 -39 -2 -14 28 -15 37 -4
57 10 18 10 26 0 36 -15 15 -33 -9 -25 -35 3 -9 -2 -28 -11 -42 -12 -18 -14
-30 -6 -44 14 -26 -10 -58 -50 -67 -19 -4 -34 -16 -40 -31 -9 -25 -10 -25
-123 -23 -89 1 -119 -2 -136 -14 -25 -17 -154 -13 -177 5 -8 6 -226 9 -572 6
-560 -3 -560 -3 -571 -26 -12 -28 -34 -24 -38 6 -3 18 2 22 23 22 20 0 26 4
23 17 -5 26 -34 27 -64 4 -15 -12 -37 -21 -50 -21 -36 0 -38 -18 -4 -35 37
-19 38 -32 5 -47 -18 -8 -24 -17 -19 -30 7 -22 -24 -26 -32 -3 -10 26 -34 17
-41 -15 -5 -28 -8 -30 -47 -28 -45 3 -61 -24 -18 -30 47 -7 34 -62 -14 -62
-19 0 -24 5 -24 25 0 16 -6 25 -15 25 -22 0 -18 -38 5 -50 15 -8 20 -21 20
-50 0 -34 4 -41 25 -46 18 -4 25 -13 25 -30 0 -17 7 -25 25 -30 14 -3 25 -10
25 -15 0 -5 22 -33 50 -63 27 -31 57 -70 66 -88 9 -18 24 -40 34 -48 25 -21
35 -84 15 -100 -8 -7 -15 -25 -15 -41 0 -19 -12 -42 -34 -67 -34 -37 -34 -37
-60 -13 -14 13 -29 33 -32 44 -6 20 -7 20 -20 2 -29 -39 -14 -98 22 -89 24 6
34 -13 17 -30 -26 -26 -40 -159 -21 -201 27 -61 73 -9 73 84 0 57 4 71 28 102
15 20 27 41 27 47 0 17 40 39 85 47 35 5 45 2 83 -27 45 -35 52 -58 25 -86
-37 -36 -53 -72 -53 -115 0 -28 -6 -49 -15 -57 -8 -7 -19 -27 -23 -44 -6 -23
-17 -34 -43 -43 -49 -17 -114 -16 -129 2 -14 17 -62 20 -90 5 -17 -9 -18 -14
-8 -36 10 -22 16 -24 49 -19 39 7 78 -17 90 -54 4 -11 14 -9 45 7 30 15 44 18
52 10 16 -16 41 -2 52 27 13 34 30 23 30 -19 0 -17 5 -37 11 -43 13 -13 4 -33
-15 -33 -6 0 -27 -15 -45 -34 -38 -39 -29 -52 24 -37 28 7 38 6 50 -6 18 -18
18 -17 -1 -54 -10 -21 -13 -43 -8 -74 6 -44 6 -44 -22 -36 -20 5 -35 19 -47
44 -10 20 -24 37 -31 37 -6 0 -19 9 -29 20 -16 19 -47 18 -47 -1 0 -13 -58
-11 -66 2 -4 7 3 19 15 28 19 15 20 20 10 49 -13 37 -20 39 -37 12 -9 -15 -23
-20 -58 -20 -55 0 -82 13 -95 47 -8 22 -14 25 -39 20 -27 -6 -37 2 -117 83
-140 143 -143 148 -125 188 14 29 14 34 2 42 -22 14 -35 7 -38 -23 -2 -15 -7
-27 -12 -27 -14 0 -22 38 -15 70 7 30 -7 67 -33 86 -10 7 -16 29 -16 62 -1 37
-8 59 -25 83 -24 33 -64 209 -54 237 8 19 19 14 31 -14 20 -42 28 -20 26 68
-2 103 1 94 -34 102 -35 6 -40 30 -10 46 11 6 20 19 20 30 0 13 10 21 33 25
36 8 47 20 47 53 0 12 6 25 14 28 8 3 47 37 87 75 73 70 73 70 124 67 47 -3
50 -2 50 22 0 20 -6 26 -29 30 -16 3 -31 11 -34 19 -6 18 76 9 116 -13 15 -8
35 -17 45 -20 24 -8 17 -30 -11 -34 -26 -4 -29 -17 -5 -26 11 -4 22 -1 29 8 6
9 25 16 43 16 43 0 41 26 -4 44 -44 19 -47 46 -5 46 53 0 159 65 160 98 0 17
-47 15 -54 -3 -6 -17 -56 -21 -56 -5 0 6 13 13 28 16 27 6 42 31 59 104 4 14
13 31 22 37 14 11 14 14 2 22 -8 5 -20 7 -28 4 -8 -3 -13 2 -13 15 0 34 19 72
35 72 9 0 18 12 22 30 10 50 26 35 19 -18 -5 -41 -3 -52 16 -71 20 -22 22 -23
34 -6 8 11 19 15 33 10 28 -8 27 -23 -1 -27 -17 -2 -24 -11 -26 -30 -3 -24 0
-28 23 -28 14 0 28 -7 31 -15 4 -8 15 -15 25 -15 10 0 34 -14 53 -30 47 -42
116 -51 156 -21 16 11 34 21 39 21 14 0 76 61 84 83 9 23 34 22 47 -3 15 -28
70 -28 70 -1 0 31 19 35 30 7 12 -33 38 -33 50 -1 12 30 26 32 40 4 9 -15 19
-19 43 -17 40 4 42 28 4 46 -27 13 -28 32 -2 32 8 0 19 9 25 21 19 34 54 21
55 -20 0 -41 20 -52 29 -16 5 18 13 25 31 25 14 0 28 1 33 1 4 1 12 -8 18 -20
7 -13 24 -29 39 -37 25 -13 29 -12 41 3 19 26 18 27 -26 47 -45 20 -68 52 -51
69 7 7 17 7 33 0 85 -38 98 -42 152 -36 58 6 73 -6 44 -35 -15 -15 -5 -24 27
-24 34 0 39 6 25 32 -17 33 -5 50 34 50 30 0 37 4 42 26 9 35 43 46 128 39 69
-5 73 -4 136 34 71 43 81 46 97 30z m-3078 -46 c35 -20 42 -53 11 -53 -10 0
-23 6 -27 14 -4 7 -18 18 -31 25 -23 12 -22 31 3 31 7 0 27 -8 44 -17z m9892
-4 c16 -11 29 -26 29 -32 1 -16 83 -67 108 -67 11 0 25 -6 31 -14 14 -17 -5
-26 -52 -26 -32 0 -107 42 -107 60 0 5 -10 12 -22 15 -32 10 -68 45 -68 67 0
25 44 24 81 -3z m-9991 -40 c0 -6 -12 -26 -27 -45 -22 -30 -24 -37 -12 -45 22
-14 43 -6 49 20 7 30 23 37 40 16 14 -17 -1 -45 -25 -45 -7 0 -15 -9 -18 -20
-6 -24 -55 -28 -63 -5 -4 8 -17 15 -30 15 -23 0 -28 9 -24 40 4 36 110 102
110 69z m2405 -14 c0 -28 -29 -25 -33 3 -3 19 0 23 15 20 10 -2 18 -12 18 -23z
m-1878 -10 c3 -9 3 -18 1 -21 -9 -9 -38 8 -38 22 0 19 29 18 37 -1z m-64 -57
c10 -24 11 -42 4 -65 -10 -31 -13 -33 -56 -33 -25 -1 -64 -9 -86 -20 -22 -11
-43 -19 -47 -20 -17 0 -59 -55 -79 -100 -21 -49 -21 -49 2 -107 13 -32 37 -70
54 -86 16 -15 37 -34 47 -43 27 -26 129 -24 180 5 47 26 88 79 88 116 0 32
-14 39 -55 25 -44 -15 -66 -7 -87 28 -17 28 -17 29 15 60 18 18 40 32 48 32 9
0 24 9 34 20 13 14 29 20 48 18 28 -3 36 -10 52 -48 3 -8 17 -33 30 -55 14
-22 31 -54 39 -71 8 -17 22 -36 30 -44 41 -33 -22 -118 -67 -90 -18 11 -23 9
-40 -11 -47 -60 -79 -89 -95 -89 -10 0 -25 -9 -35 -20 -14 -17 -29 -20 -106
-20 -73 0 -93 3 -114 20 -14 11 -29 20 -34 20 -5 0 -25 14 -43 30 -18 17 -37
30 -42 30 -4 0 -8 6 -8 14 0 7 -9 25 -20 38 -44 57 -70 190 -46 237 9 16 16
37 16 45 0 49 135 176 187 176 11 0 26 7 33 14 6 8 33 17 58 19 26 2 55 4 64
5 12 1 23 -10 31 -30z m-606 -8 c3 -11 9 -20 13 -20 3 0 25 -17 48 -38 49 -45
57 -78 17 -68 -14 4 -45 9 -70 13 -42 5 -44 7 -30 23 19 21 19 66 0 74 -8 3
-15 12 -15 21 0 22 31 18 37 -5z m9283 -20 c0 -5 6 -10 13 -10 7 0 23 -7 35
-15 21 -15 21 -17 5 -43 -10 -15 -27 -36 -38 -47 -11 -11 -29 -31 -40 -46 -11
-14 -34 -33 -51 -43 -31 -18 -32 -18 -63 5 -36 26 -39 44 -11 59 11 6 20 16
20 21 0 10 10 24 72 102 21 26 58 37 58 17z m-9361 -22 c5 -13 7 -26 4 -30 -8
-15 -56 -8 -69 10 -23 29 -16 42 21 42 28 0 38 -5 44 -22z m10231 -17 c5 -11
10 -29 10 -41 0 -18 5 -21 33 -19 87 6 102 1 156 -52 56 -55 65 -90 36 -139
-8 -14 -18 -34 -24 -45 -5 -12 -16 -27 -25 -34 -8 -7 -18 -28 -22 -47 -3 -18
-12 -38 -20 -45 -8 -6 -14 -24 -14 -39 0 -15 -7 -34 -16 -41 -9 -7 -20 -23
-25 -36 -10 -28 -39 -30 -46 -4 -2 10 -16 24 -29 30 -34 15 -31 90 6 134 18
21 55 81 79 127 23 44 23 44 -13 77 -20 19 -46 33 -60 33 -41 0 -124 -91 -140
-153 -3 -14 -16 -42 -27 -62 -18 -30 -26 -35 -60 -35 -65 0 -101 57 -59 95 11
10 20 24 20 30 0 7 9 24 20 38 11 14 20 32 20 41 0 8 9 23 19 33 11 10 22 30
26 45 4 15 13 32 20 38 8 6 17 26 21 43 9 46 11 47 59 47 34 0 47 -5 55 -19z
m-10317 -39 c17 2 39 -8 65 -30 23 -17 49 -32 59 -32 34 0 48 -17 25 -29 -29
-15 -65 -14 -88 4 -10 8 -29 15 -42 15 -15 0 -26 9 -32 25 -5 14 -20 27 -35
31 -14 3 -25 12 -25 18 0 22 13 26 31 10 10 -9 29 -14 42 -12z m9747 -2 c0
-15 -7 -20 -25 -20 -18 0 -25 5 -25 20 0 15 7 20 25 20 18 0 25 -5 25 -20z
m1019 -69 c18 -11 5 -31 -20 -31 -12 0 -19 7 -19 20 0 21 16 26 39 11z
m-10791 -18 c-4 -20 -66 -65 -82 -60 -6 2 -12 20 -14 40 -3 37 -3 37 48 37 43
0 51 -3 48 -17z m8855 -83 c7 -5 27 -21 45 -36 17 -14 32 -30 32 -35 0 -12
-37 -12 -44 0 -14 21 -58 19 -79 -5 -28 -32 -70 -33 -65 -1 2 17 11 23 36 25
26 3 32 8 32 26 0 35 18 46 43 26z m-8587 -105 c25 -28 52 -59 61 -70 11 -12
19 -42 21 -80 3 -52 0 -65 -21 -93 -25 -33 -123 -112 -139 -112 -29 0 3 -61
60 -113 41 -39 26 -115 -28 -132 -28 -9 -74 16 -78 42 -2 11 -12 29 -23 39
-10 9 -19 22 -19 27 0 5 -15 28 -34 51 -18 23 -36 51 -40 64 -4 12 -11 22 -15
22 -4 0 -23 24 -41 53 -33 52 -45 66 -88 110 -37 38 -28 96 19 122 20 11 54
33 75 48 111 79 104 77 178 74 68 -3 68 -3 112 -52z m9044 35 c0 -24 -26 -38
-42 -22 -8 8 -8 15 2 27 18 21 40 19 40 -5z m-82 -7 c2 -8 -6 -13 -22 -13 -17
0 -26 5 -26 16 0 19 41 16 48 -3z m1700 -39 c80 -52 102 -81 102 -135 0 -49 0
-49 -44 -49 -39 0 -46 4 -70 39 -71 102 -216 65 -216 -55 0 -25 4 -54 10 -64
13 -25 98 -73 116 -66 16 6 84 -18 84 -30 0 -4 -10 -22 -22 -41 -21 -35 -21
-35 -82 -28 -34 3 -72 13 -86 20 -14 8 -34 18 -45 23 -41 19 -91 94 -98 145
-15 112 55 237 150 268 49 15 160 1 201 -27z m-9700 -146 c2 -9 -6 -18 -17
-21 -12 -3 -24 -13 -27 -24 -11 -30 -45 -62 -60 -56 -22 8 -17 19 34 72 47 50
65 57 70 29z m-1438 -94 c0 -8 -9 -14 -20 -14 -19 0 -28 28 -13 43 9 9 33 -12
33 -29z m1882 15 c20 -11 20 -11 -3 -35 -29 -31 -39 -30 -39 4 0 42 9 49 42
31z m9351 -227 c53 -24 63 -55 27 -87 -11 -10 -20 -24 -20 -32 0 -7 -6 -13
-12 -13 -7 0 -22 -3 -33 -6 -26 -7 -85 47 -85 78 0 21 58 92 70 85 3 -1 26
-13 53 -25z m-12479 -670 c-1 -7 -2 -21 -2 -32 -3 -32 -32 -24 -32 8 0 16 3
32 7 36 10 9 28 1 27 -12z m9856 -507 c-2 -14 -35 -25 -50 -15 -7 4 -9 13 -5
19 8 14 56 10 55 -4z m490 -113 c0 -12 -13 -23 -36 -31 -46 -17 -56 -5 -21 25
33 28 57 31 57 6z m-6994 -3253 c11 -9 30 -19 44 -23 34 -8 130 -99 130 -123
0 -19 -52 -71 -73 -74 -29 -3 -39 3 -53 36 -8 19 -20 35 -28 35 -7 0 -21 9
-31 20 -15 16 -31 20 -85 20 -67 0 -67 0 -117 -50 -36 -36 -52 -61 -57 -88
-13 -83 -3 -146 28 -178 8 -7 16 -17 18 -21 1 -5 24 -19 50 -32 46 -23 48 -23
94 -7 66 22 81 20 99 -14 29 -56 21 -73 -45 -98 -78 -30 -100 -31 -134 -11
-17 10 -42 19 -55 19 -13 0 -37 11 -55 25 -115 94 -126 115 -126 252 0 96 3
113 20 133 11 13 20 30 20 38 0 20 101 121 121 122 9 0 27 9 40 20 31 26 165
25 195 -1z m7648 -132 c13 -9 17 -23 14 -52 -3 -40 -3 -40 -66 -43 -55 -3 -64
-6 -74 -27 -19 -42 5 -59 74 -51 70 7 95 -2 142 -50 31 -32 36 -44 36 -83 0
-42 -4 -51 -40 -84 -70 -64 -80 -68 -166 -65 -79 3 -79 3 -79 53 0 50 0 50 70
55 78 6 95 13 95 40 0 26 -35 43 -74 37 -52 -8 -125 13 -152 46 -39 47 -35
124 11 173 49 51 168 81 209 51z m-318 -99 c12 -20 8 -102 -5 -106 -7 -2 -26
-17 -43 -34 -37 -36 -41 -99 -9 -152 12 -18 21 -45 21 -58 0 -14 7 -31 15 -38
20 -17 19 -25 -7 -60 -17 -23 -30 -30 -55 -30 -31 0 -36 4 -58 53 -14 28 -25
65 -25 80 0 15 -6 40 -14 55 -8 15 -18 46 -21 67 -4 22 -16 57 -26 77 -26 51
-24 71 11 96 37 27 44 27 64 0 16 -23 16 -23 53 20 38 43 83 57 99 30z m-6881
-88 c10 -11 23 -20 28 -20 13 0 57 -40 57 -53 0 -5 9 -20 20 -34 25 -32 28
-144 5 -183 -7 -14 -21 -40 -29 -57 -8 -18 -19 -33 -25 -33 -5 0 -24 -12 -42
-27 -30 -25 -40 -28 -114 -28 -94 0 -133 20 -193 97 -33 42 -33 45 -30 128 3
79 5 88 38 132 19 26 45 51 58 54 12 3 27 15 33 25 15 29 168 28 194 -1z
m6476 -36 c7 -8 25 -22 40 -29 25 -13 89 -111 89 -135 0 -21 -53 -60 -81 -60
-16 0 -48 -6 -71 -14 -24 -8 -55 -17 -70 -20 -38 -9 -36 -39 3 -67 41 -29 95
-22 148 20 21 17 44 31 49 31 17 0 62 -46 62 -63 0 -26 -78 -83 -143 -105 -62
-20 -63 -20 -117 -2 -75 25 -144 94 -155 152 -10 54 -10 134 0 173 22 86 201
173 246 119z m-6116 -91 c19 -22 24 -24 43 -14 40 21 141 3 176 -31 29 -29 29
-30 23 -122 -3 -56 -12 -106 -21 -124 -9 -17 -16 -50 -17 -74 -2 -73 -11 -92
-50 -101 -21 -5 -46 -4 -62 2 -25 10 -26 13 -20 63 3 29 14 73 24 96 25 58 36
167 19 187 -15 18 -71 20 -91 3 -44 -39 -63 -72 -70 -121 -22 -159 -54 -198
-127 -161 -37 18 -41 47 -16 95 21 42 55 172 64 248 9 74 27 96 75 86 16 -3
39 -17 50 -32z m4778 -45 c33 -79 -71 -137 -121 -68 -12 16 -22 32 -22 35 0 3
10 19 22 35 18 25 29 30 65 30 39 0 44 -3 56 -32z m911 13 c35 -22 76 -73 76
-94 0 -8 7 -20 15 -27 39 -33 4 -85 -65 -95 -170 -27 -199 -46 -139 -96 45
-38 73 -36 125 6 53 44 87 46 103 7 14 -34 5 -81 -18 -89 -9 -3 -24 -13 -33
-21 -25 -21 -104 -34 -165 -26 -129 16 -224 208 -163 330 12 25 44 62 72 85
44 35 56 39 105 39 38 0 66 -6 87 -19z m-4326 -79 c2 -30 -6 -111 -17 -180
-35 -226 -35 -239 -6 -268 32 -32 35 -88 4 -104 -36 -20 -95 -3 -125 37 -25
33 -26 39 -20 107 4 39 13 98 21 131 8 33 14 106 15 163 0 67 5 115 15 138 14
34 16 35 62 32 48 -3 48 -3 51 -56z m-754 -5 c35 -22 45 -52 30 -91 -9 -23
-66 -20 -98 5 -36 28 -80 23 -84 -12 -2 -21 6 -31 50 -59 95 -62 98 -66 98
-135 0 -62 0 -62 -47 -99 -75 -58 -169 -45 -255 36 -35 32 -35 51 -2 77 34 27
36 27 86 -9 48 -35 78 -38 102 -11 17 19 17 21 -25 48 -59 39 -129 110 -129
131 0 22 29 103 42 119 32 38 173 38 232 0z m1290 7 c27 -17 39 -53 30 -88 -7
-29 -42 -39 -94 -28 -32 7 -35 11 -38 46 -6 68 49 105 102 70z m2466 -5 c0
-16 -31 -22 -43 -10 -9 9 -9 14 2 20 16 10 41 4 41 -10z m873 -6 c48 -33 71
-84 87 -193 6 -47 18 -100 26 -119 33 -80 16 -113 -57 -109 -54 3 -54 3 -61
63 -5 44 -32 202 -37 222 -1 1 -8 9 -17 17 -28 28 -60 19 -98 -28 -41 -50 -43
-66 -16 -136 13 -32 20 -74 20 -115 0 -65 0 -65 -49 -65 -64 0 -73 13 -79 113
-2 45 -11 94 -18 109 -9 16 -15 66 -17 120 -2 93 -2 93 31 96 22 2 34 -2 38
-12 8 -21 33 -20 58 3 32 29 98 61 125 61 14 0 42 -12 64 -27z m-4398 -30 c20
-20 13 -164 -11 -222 -42 -102 27 -171 105 -105 17 14 31 33 31 42 0 10 7 26
15 36 10 14 15 45 15 101 0 91 12 118 53 118 75 0 93 -50 58 -164 -11 -35 -23
-107 -27 -159 -3 -52 -11 -101 -16 -107 -11 -14 -98 -18 -98 -5 0 5 -6 17 -14
27 -13 18 -14 18 -41 -3 -60 -47 -177 -10 -196 62 -16 58 7 308 32 359 22 42
64 51 94 20z m780 0 c13 -12 15 -26 11 -54 -5 -33 -3 -40 16 -50 89 -45 86
-119 -3 -119 -46 0 -49 -9 -46 -120 2 -71 3 -75 30 -88 36 -18 59 -54 55 -89
-3 -26 -6 -28 -56 -31 -58 -3 -85 11 -130 71 -23 30 -24 37 -18 124 4 51 9
106 12 122 6 27 3 32 -20 41 -24 9 -27 15 -24 47 3 32 7 38 36 45 30 8 32 11
32 57 0 26 3 51 7 54 13 14 82 7 98 -10z m1970 3 c24 -17 27 -92 5 -106 -8 -5
-59 -6 -115 -3 -121 7 -125 4 -116 -79 9 -72 11 -74 69 -59 97 26 132 13 132
-49 0 -54 -17 -64 -103 -58 -39 3 -78 3 -84 1 -16 -6 -17 -39 -2 -48 6 -4 8
-22 4 -45 -4 -22 -2 -41 4 -44 5 -4 53 -1 106 5 95 11 97 11 121 -12 19 -18
24 -32 22 -59 -3 -35 -3 -35 -173 -43 -207 -10 -197 -17 -194 128 2 101 -15
358 -27 406 -8 34 44 69 91 62 17 -2 41 0 55 6 39 15 183 14 205 -3z m1205
-55 c5 -11 10 -33 10 -49 0 -17 9 -83 20 -147 11 -64 20 -141 20 -171 0 -54 0
-54 -50 -54 -62 0 -66 7 -75 125 -4 50 -15 124 -26 167 -10 42 -19 83 -19 92
0 48 98 78 120 37z m2550 9 c0 -5 -16 -10 -36 -10 -21 0 -33 4 -29 10 3 6 19
10 36 10 16 0 29 -4 29 -10z m-2923 -41 c34 -21 34 -21 57 0 12 11 34 21 49
21 35 0 45 -24 50 -123 3 -41 7 -79 10 -84 3 -5 8 -47 11 -94 3 -46 8 -100 12
-120 8 -53 -11 -110 -48 -146 -66 -63 -193 -91 -259 -57 -27 14 -30 19 -27 57
3 42 3 42 85 42 80 0 83 1 118 35 38 37 44 72 12 78 -10 2 -28 -4 -39 -14 -30
-28 -134 -26 -171 3 -60 47 -80 91 -85 185 -5 105 17 165 77 203 64 40 100 43
148 14z m-5543 -21 c18 -25 13 -38 -15 -38 -22 0 -34 22 -25 45 8 21 22 19 40
-7z m8070 -4 c30 -12 18 -34 -18 -34 -56 0 -56 18 1 39 1 1 8 -2 17 -5z
m-2925 -29 c51 -32 53 -35 63 -124 4 -42 12 -101 18 -131 26 -147 26 -148 -6
-160 -15 -6 -44 -10 -63 -8 -36 3 -36 3 -41 133 -7 192 -45 244 -125 173 -38
-33 -38 -33 -31 -172 7 -154 4 -166 -48 -166 -71 0 -71 2 -78 315 -3 130 -3
130 39 133 34 3 44 -1 53 -18 11 -20 12 -20 53 14 53 45 108 48 166 11z m2658
12 c4 -8 16 -16 26 -20 24 -9 22 -37 -3 -37 -14 0 -20 7 -20 21 0 33 -44 22
-48 -13 -3 -28 27 -58 61 -58 38 0 9 -25 -32 -28 -35 -3 -46 1 -58 17 -16 23
-86 30 -99 10 -13 -21 24 -43 66 -40 44 3 47 0 24 -24 -10 -9 -24 -13 -36 -10
-23 8 -48 -11 -48 -36 0 -30 -35 -23 -64 14 -43 53 -109 107 -132 107 -20 0
-28 21 -13 31 22 14 75 10 89 -6 25 -30 77 -30 117 1 21 16 46 27 55 26 12 -2
21 6 27 21 14 36 71 51 88 24z m-4763 -27 c5 -5 4 -28 -4 -54 -7 -25 -10 -53
-6 -61 3 -9 0 -26 -6 -38 -7 -12 -15 -74 -18 -137 -5 -115 -5 -115 -53 -118
-65 -4 -81 10 -72 63 4 22 8 60 9 85 0 25 5 51 10 58 4 8 10 54 12 104 4 110
12 122 73 113 25 -4 50 -11 55 -15z m206 -15 c9 -25 11 -25 39 -10 16 8 33 19
36 25 3 5 35 10 69 10 63 0 63 0 100 -47 36 -46 36 -46 34 -221 -3 -174 -3
-174 -28 -187 -20 -11 -34 -11 -63 -2 -38 12 -38 12 -31 169 7 158 7 158 -17
166 -20 8 -86 1 -93 -10 -40 -60 -41 -65 -46 -188 -5 -125 -5 -125 -65 -125
-60 0 -60 0 -57 60 1 33 4 101 5 152 2 57 8 97 16 107 9 10 11 28 7 51 -11 58
-1 75 45 75 33 0 41 -4 49 -25z m618 -5 c29 -18 37 -19 76 -8 78 21 78 21 73
-247 -4 -221 -11 -275 -37 -275 -5 0 -11 -9 -15 -20 -4 -12 -22 -24 -48 -32
-23 -6 -51 -18 -62 -25 -27 -18 -79 -16 -128 6 -23 10 -50 21 -59 24 -25 9
-22 36 5 71 24 29 24 29 70 16 87 -24 147 -3 163 58 9 32 5 33 -57 20 -30 -6
-70 -8 -90 -4 -45 8 -119 79 -119 113 0 13 -7 37 -15 53 -13 25 -13 34 0 77 8
26 15 57 15 69 0 48 102 122 170 123 14 1 40 -8 58 -19z m-3503 -32 c39 -29
52 -44 43 -50 -21 -13 -35 -9 -41 12 -6 23 -55 28 -88 8 -18 -11 -23 -9 -45
15 -27 32 -24 53 6 37 20 -11 50 -4 50 11 0 17 20 9 75 -33z m174 -77 c22 -14
3 -31 -34 -31 -35 0 -51 12 -40 30 8 12 55 13 74 1z m608 -52 c7 -7 29 -15 49
-18 61 -10 57 -35 -4 -26 -45 6 -51 4 -57 -14 -3 -11 -15 -23 -25 -26 -10 -3
-22 -14 -25 -23 -4 -9 -21 -29 -40 -44 -30 -26 -35 -27 -64 -15 -29 12 -71 70
-71 97 0 5 13 10 29 10 21 0 30 6 34 22 5 18 8 19 21 9 14 -11 11 -18 -16 -52
-29 -37 -31 -41 -15 -56 15 -15 17 -14 29 13 13 31 94 117 118 127 22 8 25 8
37 -4z m-266 -18 c35 -28 13 -48 -38 -35 -44 11 -54 30 -21 43 32 13 33 13 59
-8z m6479 -6 c7 -8 8 -15 2 -15 -5 0 -24 -3 -41 -6 -37 -8 -43 12 -8 26 31 12
33 12 47 -5z m-270 -5 c11 -7 9 -11 -13 -19 -16 -6 -34 -11 -41 -11 -7 0 -21
-9 -31 -20 -37 -41 -48 -17 -13 30 23 31 66 40 98 20z m-143 -85 c-7 -20 -47
-18 -47 3 0 10 3 21 6 25 9 8 45 -16 41 -28z m-117 0 c0 -9 -9 -15 -25 -15
-26 0 -34 15 -12 23 23 10 37 7 37 -8z m-200 -7 c-1 -20 -26 -48 -43 -48 -28
0 -28 18 0 39 32 24 43 26 43 9z m80 -52 c0 -14 -21 -26 -46 -26 -21 0 -17 16
9 28 30 15 37 14 37 -2z m-352 -20 c3 -13 -1 -17 -14 -14 -11 2 -20 11 -22 22
-3 13 1 17 14 14 11 -2 20 -11 22 -22z m-4580 -3 c-4 -22 -48 -31 -48 -10 0
19 10 27 32 27 13 0 18 -6 16 -17z m4512 -23 c21 -14 -44 -69 -82 -70 -36 0
-36 14 1 30 16 6 31 20 34 31 6 21 24 24 47 9z m140 -9 c0 -15 -29 -33 -45
-27 -28 10 -17 36 15 36 17 0 30 -4 30 -9z m180 0 c0 -5 -8 -11 -17 -13 -27
-6 -64 3 -57 13 7 12 74 12 74 0z m-510 -20 c0 -46 -25 -64 -59 -42 -12 8 -12
13 3 35 20 31 56 35 56 7z m-92 -39 c2 -13 -3 -25 -13 -28 -22 -9 -27 -1 -19
30 7 31 28 29 32 -2z m-3763 -12 c0 -16 -6 -26 -17 -28 -14 -3 -18 3 -18 28 0
25 4 31 18 28 11 -2 17 -12 17 -28z m2025 -5 c20 -37 49 -45 57 -16 6 23 18
27 29 10 4 -7 -1 -16 -10 -21 -38 -21 -8 -48 56 -48 31 0 47 -18 27 -32 -20
-13 -87 -3 -108 16 -10 9 -26 16 -37 16 -27 0 -44 19 -44 47 0 16 -8 27 -25
33 -36 14 -31 32 7 28 23 -2 36 -11 48 -33z m824 -34 c32 -13 27 -26 -16 -36
-22 -6 -29 -3 -34 11 -4 11 -14 27 -21 36 -23 26 -5 43 21 21 11 -11 34 -25
50 -32z m-2480 33 c26 -10 18 -24 -13 -24 -16 0 -31 6 -35 15 -6 16 18 20 48
9z m1591 -28 c2 -6 6 -23 9 -38 5 -22 12 -28 34 -28 18 0 37 -10 54 -30 14
-16 35 -30 46 -30 20 0 36 -25 26 -41 -3 -5 -21 -9 -40 -9 -19 0 -43 -6 -54
-12 -15 -10 -22 -10 -32 0 -9 9 -6 12 16 12 23 0 27 4 24 22 -4 30 -40 30 -53
1 -7 -17 -18 -23 -43 -23 -30 0 -33 2 -30 27 2 20 9 29 26 31 14 2 22 10 22
23 0 29 -38 24 -52 -6 -6 -14 -15 -25 -19 -25 -4 0 -9 -10 -11 -22 -2 -15 -10
-23 -23 -23 -30 0 -29 28 1 58 37 37 64 91 57 115 -4 17 -1 20 17 15 12 -3 23
-11 25 -17z m999 15 c8 -12 -21 -34 -34 -26 -17 11 -11 35 9 35 11 0 22 -4 25
-9z m-2094 -23 c0 -12 8 -30 17 -41 17 -18 17 -20 -12 -43 -31 -25 -65 -32
-65 -14 0 22 -30 20 -69 -4 -40 -25 -41 -26 -51 -6 -12 22 -10 23 43 34 22 5
27 12 27 36 0 40 25 39 45 0 9 -16 18 -30 20 -30 11 0 34 60 29 74 -3 9 -1 16
5 16 6 0 11 -10 11 -22z m174 -20 c16 -52 17 -54 29 -38 32 41 106 67 92 33
-4 -10 -10 -26 -12 -35 -4 -13 -16 -18 -39 -18 -24 0 -34 -5 -34 -15 0 -26
-46 -18 -65 11 -13 21 -15 31 -6 50 11 26 29 32 35 12z m1550 -10 c21 -30 20
-36 -6 -40 -15 -2 -24 -11 -26 -25 -4 -28 -22 -29 -44 -4 -8 10 -22 21 -29 23
-19 6 -3 38 20 38 10 0 21 -7 25 -15 11 -29 28 -16 21 15 -8 37 16 42 39 8z
m-2081 -8 c26 -21 27 -46 3 -62 -16 -11 -37 13 -30 34 3 10 0 25 -6 33 -18 22
3 18 33 -5z m-182 -1 c26 -14 15 -29 -22 -29 -22 0 -29 5 -29 20 0 22 20 26
51 9z m319 -4 c16 -19 5 -35 -24 -35 -31 0 -50 22 -34 38 16 16 43 15 58 -3z
m2124 9 c28 -11 18 -33 -16 -36 -25 -2 -34 -8 -36 -25 -3 -17 -10 -23 -28 -23
-34 0 -30 19 13 57 39 35 42 36 67 27z m240 -20 c6 -10 15 -22 21 -26 5 -4 6
-10 2 -14 -4 -4 -13 -2 -19 4 -7 7 -20 12 -29 12 -21 0 -31 24 -16 39 14 14
28 10 41 -15z m-777 -30 c3 -8 16 -20 29 -25 34 -12 33 -49 -1 -49 -18 0 -25
5 -25 19 0 10 -7 21 -15 25 -17 6 -21 46 -5 46 6 0 13 -7 17 -16z m173 -9 c9
-8 29 -15 43 -15 20 0 27 -5 27 -20 0 -24 -54 -29 -67 -6 -4 8 -24 18 -43 23
-49 13 -57 49 -9 39 18 -3 40 -13 49 -21z m428 19 c27 -8 29 -30 2 -39 -26 -8
-40 1 -40 26 0 21 3 22 38 13z m-1878 -19 c0 -9 11 -20 25 -25 14 -5 25 -14
25 -20 0 -17 -38 -11 -49 8 -8 14 -13 15 -31 4 -30 -18 -43 -5 -23 23 20 27
53 33 53 10z m268 -2 c-2 -10 -14 -20 -28 -21 -13 -2 -35 -13 -49 -23 -28 -23
-47 -24 -54 -5 -7 18 1 26 29 26 13 0 28 9 34 20 14 27 73 29 68 3z"/>
<path d="M7430 8220 c-11 -7 -12 -12 -3 -21 14 -14 56 -2 50 14 -5 16 -28 19
-47 7z"/>
<path d="M7810 8180 c-7 -4 -9 -13 -6 -19 10 -16 46 -14 46 3 0 17 -23 27 -40
16z"/>
<path d="M7926 8158 c-9 -12 -16 -28 -16 -35 0 -21 27 -15 33 7 6 24 29 26 47
5 16 -19 40 -19 40 -1 0 20 -39 46 -67 46 -12 0 -29 -10 -37 -22z"/>
<path d="M7710 8140 c0 -15 7 -20 25 -20 29 0 30 3 9 24 -21 22 -34 20 -34 -4z"/>
<path d="M7479 8070 c-30 -33 -26 -35 31 -17 27 8 40 17 38 27 -5 26 -42 21
-69 -10z"/>
<path d="M8317 8143 c-14 -13 -6 -33 13 -33 13 0 20 7 20 20 0 19 -20 27 -33
13z"/>
<path d="M7684 7780 c-41 -16 -64 -59 -64 -117 0 -69 40 -113 102 -113 87 0
113 150 37 214 -33 28 -42 30 -75 16z"/>
<path d="M8965 7683 c-46 -50 -31 -63 71 -63 78 0 91 16 48 61 -37 39 -83 40
-119 2z"/>
<path d="M11341 7581 c-23 -15 -2 -31 40 -31 47 0 51 14 8 29 -18 6 -32 11
-33 11 -1 0 -7 -4 -15 -9z"/>
<path d="M11437 7513 c-9 -9 -9 -43 1 -43 18 1 32 18 26 33 -6 18 -16 21 -27
10z"/>
<path d="M5840 7650 c-16 -16 -20 -33 -20 -81 0 -57 2 -64 34 -94 41 -38 71
-48 87 -29 6 8 17 14 24 14 6 0 20 18 30 41 16 34 17 45 7 73 -7 18 -12 40
-12 48 0 49 -109 69 -150 28z"/>
<path d="M9473 7633 c-31 -10 -43 -20 -43 -34 0 -23 31 -37 106 -45 55 -7 55
-7 52 26 -2 25 -11 38 -33 51 -36 21 -30 21 -82 2z"/>
<path d="M4812 7475 c-35 -19 -72 -75 -72 -109 0 -75 93 -140 161 -112 74 31
101 117 57 177 -40 53 -98 71 -146 44z"/>
<path d="M11072 7263 c-30 -6 -82 -88 -82 -130 0 -22 10 -44 31 -68 65 -73
152 -28 166 86 5 46 3 52 -23 78 -32 31 -57 40 -92 34z"/>
<path d="M7032 7248 c5 -13 53 -29 62 -20 17 17 3 32 -30 32 -23 0 -34 -4 -32
-12z"/>
<path d="M6856 7221 c-22 -24 -13 -41 20 -41 20 0 24 5 24 30 0 35 -18 39 -44
11z"/>
<path d="M6505 7210 c-8 -14 3 -30 21 -30 8 0 14 9 14 20 0 21 -24 28 -35 10z"/>
<path d="M6595 7210 c-4 -7 -3 -16 3 -22 14 -14 57 -6 57 12 0 18 -50 26 -60
10z"/>
<path d="M7064 7084 c-13 -19 -14 -28 -5 -37 14 -14 26 -2 35 36 8 34 -8 35
-30 1z"/>
<path d="M5917 7003 c-7 -11 4 -73 13 -73 8 0 7 66 -2 75 -3 4 -8 3 -11 -2z"/>
<path d="M6182 6533 c5 -27 48 -30 48 -4 0 16 -6 21 -26 21 -19 0 -25 -5 -22
-17z"/>
<path d="M5796 5805 c-10 -28 -7 -45 9 -45 16 0 20 27 6 48 -7 11 -10 10 -15
-3z"/>
<path d="M5530 5202 c0 -39 14 -62 37 -62 20 0 16 64 -5 83 -27 25 -32 21 -32
-21z"/>
<path d="M8504 7225 c-8 -21 3 -48 19 -43 19 7 22 58 2 58 -8 0 -18 -7 -21
-15z"/>
<path d="M7875 6913 c9 -50 10 -50 41 -20 33 33 26 57 -17 57 -31 0 -31 -1
-24 -37z"/>
<path d="M10196 6943 c-15 -15 -3 -32 25 -38 28 -6 73 16 58 28 -8 8 -77 15
-83 10z"/>
<path d="M10448 6909 c-17 -21 -14 -49 4 -49 5 0 12 9 15 20 3 11 9 20 14 20
5 0 9 7 9 15 0 22 -22 18 -42 -6z"/>
<path d="M10586 6812 c-9 -14 11 -34 30 -30 30 5 30 38 0 38 -14 0 -27 -4 -30
-8z"/>
<path d="M10640 6731 c0 -12 4 -21 9 -21 5 0 17 -3 26 -6 13 -5 16 -2 13 17
-4 32 -48 41 -48 10z"/>
<path d="M8145 6541 c-9 -16 3 -31 26 -31 14 0 19 6 17 17 -4 20 -33 29 -43
14z"/>
<path d="M7733 6528 c2 -7 12 -13 22 -13 10 0 20 6 23 13 2 7 -6 12 -23 12
-17 0 -25 -5 -22 -12z"/>
<path d="M7470 6516 c0 -16 27 -29 41 -20 19 11 9 34 -16 34 -15 0 -25 -6 -25
-14z"/>
<path d="M7646 6465 c-9 -21 -30 -44 -51 -56 -26 -16 -35 -27 -33 -43 4 -27
34 -32 59 -10 15 13 22 15 31 6 14 -14 126 -16 148 -2 12 7 12 12 0 34 -15 29
-45 33 -74 11 -28 -21 -68 -20 -64 3 2 11 14 18 36 20 36 4 37 5 21 35 -26 48
-54 49 -73 2z"/>
<path d="M8100 6442 c0 -10 56 -52 70 -52 19 0 10 28 -15 44 -26 17 -55 21
-55 8z"/>
<path d="M7542 6275 c-27 -31 -27 -34 -1 -64 24 -29 39 -16 39 34 0 49 -13 59
-38 30z"/>
<path d="M7702 5488 c2 -12 11 -24 21 -26 14 -3 18 1 15 20 -2 12 -11 24 -21
26 -14 3 -18 -1 -15 -20z"/>
<path d="M12740 6881 c15 -30 28 -34 39 -13 12 23 5 32 -26 32 -20 0 -22 -3
-13 -19z"/>
<path d="M12914 6775 c-4 -9 -4 -18 -1 -21 10 -10 48 7 44 19 -6 19 -36 20
-43 2z"/>
<path d="M13062 6723 c5 -27 48 -30 48 -4 0 16 -6 21 -26 21 -19 0 -25 -5 -22
-17z"/>
<path d="M1584 6445 c-9 -21 3 -45 21 -45 10 0 15 10 15 30 0 32 -26 43 -36
15z"/>
<path d="M11870 6335 c-13 -16 -6 -35 15 -35 18 0 26 15 19 34 -8 20 -18 20
-34 1z"/>
<path d="M13780 6303 c0 -20 18 -43 33 -43 4 0 7 12 5 27 -4 32 -38 46 -38 16z"/>
<path d="M1583 6274 c-7 -18 8 -49 23 -49 5 0 10 15 12 33 4 35 -23 47 -35 16z"/>
<path d="M12097 6173 c-17 -16 -7 -120 12 -137 11 -10 23 -31 26 -48 7 -30 9
-32 58 -42 31 -7 45 -31 31 -55 -5 -9 -7 -69 -4 -136 4 -103 7 -120 22 -123
15 -3 18 8 20 94 2 67 7 99 16 102 9 3 12 -27 12 -128 0 -132 0 -132 -24 -126
-19 5 -26 1 -31 -13 -3 -11 -12 -22 -20 -25 -8 -3 -15 -17 -15 -31 0 -17 -8
-29 -25 -37 -27 -12 -32 -27 -13 -46 8 -8 9 -15 2 -22 -8 -8 -21 -2 -44 20
-52 48 -120 32 -120 -29 0 -16 -11 -26 -45 -41 -50 -21 -50 -22 -33 -49 10
-16 9 -23 -8 -38 -17 -15 -20 -28 -16 -85 3 -49 8 -68 17 -68 8 0 17 5 20 10
3 6 14 10 23 10 14 0 17 -10 19 -50 1 -57 24 -100 53 -100 25 0 36 -18 16 -26
-25 -10 -19 -43 9 -54 14 -5 25 -17 25 -25 0 -17 -43 -65 -58 -65 -5 0 -12 -9
-15 -20 -3 -11 -19 -25 -36 -31 -29 -10 -37 -26 -32 -66 1 -6 -3 -14 -9 -18
-23 -14 -8 -26 33 -25 23 0 72 -2 108 -6 66 -6 66 -6 86 28 38 65 37 172 -3
266 -8 18 -14 48 -14 66 0 38 -59 101 -117 125 -33 13 -36 19 -48 79 -14 69
48 134 111 117 38 -10 153 -16 180 -10 26 6 37 41 25 82 -10 35 9 89 39 110
43 30 50 63 50 228 0 155 0 155 -32 185 -18 16 -40 30 -49 30 -8 0 -26 12 -40
26 -13 14 -36 32 -51 40 -16 8 -28 20 -28 27 0 7 -11 28 -25 47 -14 19 -25 47
-25 62 0 26 -17 37 -33 21z"/>
<path d="M14060 6001 c0 -15 6 -21 21 -21 25 0 22 33 -4 38 -12 2 -17 -3 -17
-17z"/>
<path d="M1903 5965 c-3 -9 -3 -18 0 -22 10 -10 37 6 37 22 0 20 -29 20 -37 0z"/>
<path d="M14112 5964 c22 -49 34 -64 50 -64 28 0 22 35 -9 51 -44 21 -46 22
-41 13z"/>
<path d="M11676 5705 c-6 -18 2 -45 15 -45 5 0 9 14 9 30 0 32 -14 40 -24 15z"/>
<path d="M12106 5551 c-16 -30 -16 -31 3 -31 22 0 38 37 23 52 -7 7 -16 0 -26
-21z"/>
<path d="M12432 5498 c-19 -19 -14 -82 9 -112 17 -22 20 -38 18 -89 -6 -131
-1 -166 26 -191 21 -19 25 -32 25 -78 0 -49 4 -59 35 -91 29 -30 35 -44 35
-79 0 -51 3 -55 56 -91 50 -34 46 -34 78 12 23 33 27 47 24 97 -3 59 -3 59
-38 64 -35 5 -35 5 -38 74 -2 50 -8 76 -22 94 -11 14 -20 35 -20 47 0 12 -8
33 -17 46 -40 54 -53 90 -70 198 -3 21 -20 48 -44 72 -44 44 -41 43 -57 27z"/>
<path d="M595 5330 c-8 -25 3 -62 16 -55 5 4 9 19 9 35 0 35 -16 48 -25 20z"/>
<path d="M10015 5243 c-7 -31 -21 -43 -48 -43 -10 0 -37 -9 -60 -19 -23 -11
-60 -22 -81 -26 -26 -5 -49 -19 -69 -42 -22 -25 -36 -33 -51 -29 -11 3 -49 -1
-83 -9 -34 -8 -76 -12 -93 -8 -31 6 -31 5 -28 -28 4 -41 20 -47 139 -48 47 -1
100 -6 118 -12 42 -15 86 11 77 45 -10 40 44 81 103 78 71 -3 115 29 119 85 5
68 -29 112 -43 56z"/>
<path d="M10970 5246 c0 -12 10 -16 40 -16 22 0 40 5 40 10 0 6 -11 10 -24 10
-13 0 -31 3 -40 6 -11 4 -16 1 -16 -10z"/>
<path d="M11817 5254 c-11 -12 3 -24 29 -24 16 0 24 5 22 13 -5 13 -40 22 -51
11z"/>
<path d="M11430 5144 c0 -44 46 -134 69 -134 14 0 51 -69 51 -93 0 -13 9 -40
20 -62 11 -22 20 -55 20 -75 0 -20 7 -45 15 -57 8 -11 27 -58 41 -102 30 -92
44 -111 83 -111 31 0 50 -13 75 -53 9 -15 28 -33 41 -39 53 -24 31 -88 -30
-88 -24 0 -35 -17 -35 -54 0 -13 -9 -31 -20 -41 -36 -33 -19 -175 21 -175 11
0 36 -17 57 -39 20 -21 44 -40 51 -43 11 -3 14 -17 13 -50 -4 -62 14 -78 82
-78 62 0 72 8 81 72 11 70 -9 113 -91 193 -74 73 -99 109 -89 125 4 6 33 24
65 40 32 16 61 34 65 40 9 14 -12 48 -35 55 -22 7 -40 60 -40 121 0 31 -6 46
-26 65 -28 26 -57 86 -50 104 4 12 -46 65 -62 65 -33 0 -58 -85 -27 -96 21 -8
19 -34 -2 -34 -44 1 -60 31 -67 122 -6 81 -5 88 14 98 21 11 27 45 9 55 -5 4
-15 -7 -22 -24 -12 -34 -19 -38 -34 -18 -11 12 -16 34 -35 125 -9 48 -15 57
-69 98 -32 25 -59 49 -59 54 0 5 -9 11 -19 15 -11 3 -24 19 -30 35 -15 44 -31
36 -31 -16z"/>
<path d="M9436 5164 c-6 -16 42 -69 53 -58 3 3 -2 10 -12 15 -9 6 -17 21 -17
34 0 28 -15 33 -24 9z"/>
<path d="M11317 5154 c-9 -9 -9 -116 -1 -138 13 -34 34 -17 34 29 0 30 5 47
16 53 25 14 14 56 -16 60 -14 2 -29 0 -33 -4z"/>
<path d="M14700 5082 c0 -11 9 -29 20 -42 11 -13 20 -31 20 -42 0 -10 2 -18 4
-18 2 0 11 -3 20 -6 13 -5 16 1 16 30 0 29 -4 36 -19 36 -13 0 -21 9 -26 30
-7 33 -35 42 -35 12z"/>
<path d="M11717 5074 c-11 -11 -8 -52 4 -60 19 -11 45 24 33 43 -12 20 -27 26
-37 17z"/>
<path d="M9400 5021 c0 -10 7 -21 15 -25 8 -3 20 -17 25 -31 11 -30 35 -33 50
-5 12 23 6 40 -14 40 -7 0 -25 9 -39 20 -31 25 -37 25 -37 1z"/>
<path d="M11150 4920 c0 -15 5 -20 18 -18 9 2 17 10 17 18 0 8 -8 16 -17 18
-13 2 -18 -3 -18 -18z"/>
<path d="M14707 4913 c-12 -11 -8 -40 7 -52 11 -10 16 -8 20 7 11 33 -9 64
-27 45z"/>
<path d="M12789 4780 c-31 -18 -31 -57 -3 -121 26 -56 26 -60 9 -73 -13 -9
-16 -20 -10 -44 6 -30 9 -32 53 -32 26 0 57 -3 69 -6 16 -4 26 1 39 21 17 26
17 28 0 60 -10 18 -27 35 -37 38 -22 6 -39 45 -39 93 0 54 -42 87 -81 64z"/>
<path d="M12531 4701 c-8 -5 -11 -16 -6 -30 4 -15 -3 -39 -24 -76 -25 -44 -31
-66 -31 -115 0 -59 0 -60 -37 -79 -21 -11 -54 -35 -72 -55 -19 -20 -43 -36
-54 -36 -31 0 -57 -20 -57 -44 0 -13 -9 -31 -20 -41 -11 -10 -22 -25 -25 -35
-3 -9 -17 -22 -30 -28 -20 -9 -25 -19 -25 -50 0 -39 0 -39 51 -45 28 -4 56
-10 63 -15 6 -5 22 -13 36 -17 14 -4 49 -27 79 -51 29 -24 58 -44 65 -44 27 0
79 21 90 36 7 9 22 14 37 12 22 -3 24 -6 21 -54 -6 -82 63 -177 103 -144 8 7
15 22 15 34 0 40 12 64 36 74 13 7 26 23 29 39 4 15 13 40 21 55 16 29 19 120
5 147 -6 10 -13 64 -17 122 -7 112 -14 129 -49 129 -25 0 -35 22 -35 76 0 30
-52 148 -71 159 -5 4 -9 17 -9 30 0 35 -58 65 -89 46z m73 -265 c34 -45 33
-46 -13 -46 -48 0 -54 8 -38 49 14 39 19 39 51 -3z m51 -107 c5 17 35 32 35
17 0 -2 3 -11 6 -19 3 -8 -3 -22 -12 -32 -15 -14 -16 -22 -6 -49 7 -18 12 -66
12 -107 0 -68 -3 -78 -26 -99 -25 -24 -25 -24 -67 -2 -23 12 -52 22 -64 22
-12 0 -23 6 -26 13 -3 9 -7 9 -20 -2 -23 -18 -71 -8 -119 26 -52 35 -53 81 -4
127 18 17 39 41 45 54 6 12 18 22 26 22 7 0 22 12 32 26 17 23 23 25 40 15 16
-8 30 -7 60 3 36 14 39 13 59 -11 22 -25 22 -25 29 -4z"/>
<path d="M12408 4174 c-11 -10 27 -64 45 -64 13 0 17 8 17 35 0 32 -3 35 -28
35 -16 0 -31 -3 -34 -6z"/>
<path d="M10983 4688 c-6 -7 -13 -45 -17 -84 -3 -39 -8 -84 -11 -100 -7 -39 4
-54 51 -64 57 -13 123 -1 140 24 23 36 6 106 -31 126 -18 10 -35 30 -41 49 -7
23 -21 38 -44 47 -39 17 -35 17 -47 2z"/>
<path d="M12960 4354 c0 -11 -7 -30 -16 -42 -9 -13 -14 -33 -10 -44 3 -12 0
-41 -6 -64 -14 -50 -3 -69 44 -80 46 -10 58 13 58 113 0 51 -4 83 -10 83 -6 0
-22 12 -35 26 -22 24 -25 25 -25 8z"/>
<path d="M201 4216 c-7 -9 -8 -17 -2 -20 14 -9 41 4 41 20 0 18 -24 18 -39 0z"/>
<path d="M264 4135 c-7 -18 3 -35 21 -35 15 0 28 27 19 41 -8 14 -34 11 -40
-6z"/>
<path d="M13294 4130 c-20 -8 -64 -71 -64 -92 0 -5 -8 -26 -17 -45 -15 -32
-15 -39 -2 -62 13 -23 21 -26 82 -29 63 -3 68 -5 82 -32 8 -16 15 -45 15 -63
0 -40 50 -92 98 -103 79 -18 103 -26 114 -40 52 -63 84 -76 123 -50 20 13 25
25 25 60 0 53 -8 76 -25 76 -18 0 -25 23 -25 86 0 60 -13 94 -35 94 -7 0 -37
22 -67 50 -29 27 -56 50 -60 50 -4 0 -36 25 -72 55 -67 57 -113 69 -172 45z
m144 -140 c28 -14 40 -25 36 -35 -8 -21 -53 -19 -61 3 -3 9 -15 25 -27 34 -30
25 -1 24 52 -2z m170 -153 c6 -28 -17 -47 -55 -47 -44 0 -55 26 -23 52 29 23
73 20 78 -5z"/>
<path d="M7577 4093 c-9 -9 12 -33 29 -33 8 0 14 9 14 20 0 19 -28 28 -43 13z"/>
<path d="M12988 3949 c-49 -28 -2 -77 78 -81 49 -3 49 -3 47 32 -1 19 -9 39
-18 46 -19 14 -84 16 -107 3z"/>
<path d="M12180 3817 c-33 -11 -35 -15 -38 -59 -4 -57 12 -91 37 -83 10 3 37
-2 61 -10 63 -22 86 -19 137 20 25 19 50 35 56 35 6 0 3 8 -6 18 -10 10 -17
30 -17 45 0 14 -3 28 -7 30 -22 12 -191 15 -223 4z"/>
<path d="M12833 3703 c-34 -12 -43 -20 -43 -38 0 -12 -7 -28 -15 -35 -20 -16
-19 -50 1 -78 12 -18 24 -22 52 -20 31 3 39 9 59 47 13 25 30 52 38 61 8 9 15
31 15 48 0 30 -2 32 -32 31 -18 -1 -52 -8 -75 -16z"/>
<path d="M8031 3657 c-13 -17 -4 -50 13 -44 15 5 20 37 9 48 -6 6 -14 4 -22
-4z"/>
<path d="M14715 3568 c-9 -24 -1 -103 10 -103 14 0 19 95 6 108 -7 7 -12 5
-16 -5z"/>
<path d="M13546 3528 c-9 -12 -16 -27 -16 -33 0 -15 -55 -55 -75 -55 -20 0
-20 -38 2 -62 15 -17 14 -19 -10 -42 -15 -14 -27 -32 -27 -41 0 -8 -4 -15 -9
-15 -6 0 -18 -13 -27 -30 -21 -35 -40 -26 -50 25 -3 18 -17 43 -30 56 -13 12
-24 32 -24 45 0 13 -8 24 -20 27 -16 4 -20 14 -20 45 0 48 -26 72 -78 72 -30
0 -45 -11 -115 -85 -55 -58 -88 -85 -103 -85 -35 0 -71 -20 -83 -46 -7 -16
-19 -24 -35 -24 -14 0 -30 -10 -40 -25 -10 -16 -26 -25 -42 -25 -29 0 -42 -24
-23 -46 11 -14 10 -18 -6 -30 -10 -8 -23 -14 -29 -14 -5 0 -17 -7 -26 -15 -12
-11 -24 -12 -51 -5 -18 5 -56 10 -84 12 -50 3 -50 3 -59 -50 -9 -50 -12 -53
-48 -62 -33 -9 -38 -15 -38 -39 0 -28 -1 -29 -69 -36 -58 -6 -73 -11 -97 -36
-15 -16 -43 -32 -61 -35 -53 -10 -63 -36 -60 -145 2 -107 -17 -168 -59 -188
-14 -6 -33 -30 -44 -55 -15 -36 -24 -45 -47 -48 -39 -4 -42 -33 -6 -52 54 -27
74 -134 33 -171 -41 -37 -20 -89 35 -89 43 0 65 22 65 65 0 46 51 81 109 73
67 -8 123 15 179 76 25 27 54 50 65 50 36 0 58 19 47 40 -6 11 -8 31 -4 45 5
20 3 25 -14 25 -11 0 -25 -7 -32 -15 -7 -8 -19 -15 -27 -15 -8 0 -29 -11 -46
-24 -18 -13 -41 -26 -52 -28 -11 -2 -22 -14 -25 -28 -7 -31 -37 -38 -56 -13
-13 17 -14 17 -31 -5 -18 -22 -18 -22 -31 -2 -7 11 -18 20 -25 20 -8 0 -17 21
-23 50 -11 50 -11 50 18 50 22 0 29 6 34 28 4 15 15 42 25 61 13 25 15 38 7
56 -14 31 23 102 57 111 14 3 30 15 35 25 7 12 24 19 52 21 24 2 43 9 46 17 4
11 -6 13 -51 8 -99 -12 -126 24 -33 43 39 8 64 21 89 45 25 24 45 35 66 35 17
0 34 6 38 13 12 19 100 57 132 57 45 0 87 19 99 45 7 14 35 40 64 59 29 19 64
46 78 61 14 15 53 39 86 55 36 16 71 41 85 59 16 22 26 28 35 20 8 -7 14 -7
19 1 4 6 18 15 31 20 13 5 26 21 30 35 9 38 29 24 29 -21 1 -64 36 -91 49 -38
9 34 30 26 34 -13 2 -17 14 -41 28 -54 13 -12 24 -32 24 -44 0 -46 49 -61 68
-20 9 20 18 25 44 23 31 -3 33 -1 30 27 -1 17 4 39 12 50 22 30 39 6 43 -62 8
-123 28 -141 35 -34 9 118 23 106 28 -23 7 -160 2 -258 -13 -253 -7 2 -13 26
-13 56 -1 51 -8 70 -21 58 -7 -7 -9 -23 -19 -123 -7 -73 12 -116 48 -106 20 5
20 2 16 -49 -6 -70 -107 -229 -145 -229 -14 0 -37 -16 -59 -40 -20 -22 -44
-40 -54 -40 -10 0 -26 -3 -35 -6 -15 -6 -15 -8 1 -25 9 -10 14 -25 11 -34 -8
-20 -66 -20 -73 0 -4 8 -17 15 -30 15 -21 0 -37 -30 -16 -30 4 0 14 -5 22 -10
13 -8 10 -14 -15 -39 -16 -17 -38 -40 -47 -51 -20 -22 -86 -28 -105 -9 -20 20
-43 2 -43 -33 -1 -43 -55 -111 -70 -88 -5 8 -10 23 -10 33 0 12 -8 17 -29 17
-79 0 -101 35 -56 88 29 35 31 48 9 56 -33 13 -62 6 -78 -19 -9 -14 -21 -23
-26 -20 -16 10 -12 55 5 61 20 8 20 54 0 54 -9 0 -27 -7 -40 -16 -31 -20 -42
-13 -50 35 -10 60 -22 71 -77 64 -39 -4 -47 -10 -53 -30 -5 -20 5 -33 55 -81
33 -32 60 -63 60 -69 0 -7 23 -34 50 -61 29 -29 50 -58 50 -71 0 -11 15 -38
33 -58 19 -21 37 -46 40 -55 8 -22 21 -23 37 -3 7 8 16 15 21 15 19 0 7 -40
-25 -89 -19 -28 -36 -59 -38 -68 -3 -14 -14 -18 -53 -18 -75 0 -117 -22 -113
-60 3 -28 7 -31 59 -41 31 -6 61 -14 68 -18 6 -4 21 0 33 8 12 9 30 16 39 16
19 0 74 83 84 128 11 52 137 192 201 222 29 14 78 51 110 83 31 31 60 57 65
57 4 0 23 13 41 28 18 16 44 32 58 35 14 4 33 21 43 38 13 23 22 30 38 26 15
-4 23 1 29 19 6 14 18 27 27 30 39 12 47 22 58 72 14 58 29 82 56 82 25 0 31
27 29 143 -2 56 -2 208 -2 337 1 234 1 235 -23 272 -29 44 -30 48 -11 48 29 0
26 89 -4 125 -18 22 -57 18 -74 -7z"/>
<path d="M10435 3168 c-10 -26 -2 -52 18 -56 21 -4 23 26 3 54 -13 17 -15 18
-21 2z"/>
<path d="M13344 3056 c-17 -13 -16 -14 4 -25 28 -15 47 -14 61 3 17 21 -40 40
-65 22z"/>
<path d="M10382 3048 c-19 -19 -15 -48 8 -48 16 0 20 7 20 30 0 32 -9 37 -28
18z"/>
<path d="M8557 3025 c-16 -15 -13 -45 4 -45 23 0 59 25 57 39 -4 22 -42 26
-61 6z"/>
<path d="M590 2965 c0 -21 30 -31 40 -14 11 17 3 29 -21 29 -10 0 -19 -7 -19
-15z"/>
<path d="M12420 2900 c-12 -7 -12 -12 0 -34 17 -33 38 -33 46 -2 10 41 -12 58
-46 36z"/>
<path d="M14397 2814 c-15 -15 -8 -94 8 -94 14 0 20 22 15 65 -2 24 -14 38
-23 29z"/>
<path d="M12423 2774 c-7 -20 17 -37 34 -23 15 13 6 39 -13 39 -8 0 -17 -7
-21 -16z"/>
<path d="M10440 2720 c0 -16 5 -21 23 -18 12 2 22 10 22 18 0 8 -10 16 -22 18
-18 3 -23 -2 -23 -18z"/>
<path d="M13430 2725 c0 -3 7 -17 16 -30 18 -27 54 -34 54 -10 0 8 -6 15 -14
15 -7 0 -19 7 -26 15 -12 15 -30 20 -30 10z"/>
<path d="M843 2703 c-24 -8 -14 -58 16 -87 28 -27 29 -27 36 -7 7 23 -13 88
-29 94 -6 2 -17 2 -23 0z"/>
<path d="M12720 2686 c0 -16 27 -29 41 -20 19 11 9 34 -16 34 -15 0 -25 -6
-25 -14z"/>
<path d="M10426 2424 c-8 -21 13 -49 27 -35 10 10 0 51 -13 51 -4 0 -11 -7
-14 -16z"/>
<path d="M13067 2363 c-11 -10 42 -53 65 -53 17 0 18 2 8 15 -7 8 -21 15 -31
15 -11 0 -19 7 -19 15 0 16 -12 20 -23 8z"/>
<path d="M4143 2054 c-8 -21 13 -42 28 -27 13 13 5 43 -11 43 -6 0 -13 -7 -17
-16z"/>
<path d="M1442 2008 c5 -15 58 -24 58 -10 0 11 -24 22 -47 22 -8 0 -13 -6 -11
-12z"/>
<path d="M1531 1986 c-23 -13 -23 -13 9 -36 35 -25 54 -17 48 21 -4 28 -24 34
-57 15z"/>
<path d="M4150 1870 c0 -30 13 -40 25 -20 8 13 -4 50 -16 50 -5 0 -9 -13 -9
-30z"/>
<path d="M4067 1744 c-14 -14 -6 -24 19 -24 16 0 24 5 22 13 -5 14 -31 21 -41
11z"/>
<path d="M1870 1691 c0 -15 6 -21 21 -21 14 0 19 5 17 17 -5 26 -38 29 -38 4z"/>
<path d="M13194 1689 c-3 -6 -17 -14 -30 -19 -32 -13 -32 -40 1 -40 14 0 25 4
25 10 0 5 9 18 21 28 17 16 18 20 5 25 -9 4 -18 2 -22 -4z"/>
<path d="M6467 1503 c-14 -13 -6 -33 13 -33 13 0 20 7 20 20 0 19 -20 27 -33
13z"/>
<path d="M5197 1468 c-4 -12 2 -41 13 -65 19 -43 19 -43 63 -37 40 6 47 4 61
-18 18 -27 62 -52 77 -43 18 12 7 80 -20 125 -29 47 -36 50 -88 29 -29 -12
-35 -11 -62 9 -37 27 -37 27 -44 0z"/>
<path d="M2227 1434 c-17 -17 -7 -45 16 -42 14 2 22 10 22 23 0 20 -25 32 -38
19z"/>
<path d="M11701 1431 c-21 -13 -5 -41 24 -41 29 0 36 34 9 44 -19 7 -16 8 -33
-3z"/>
<path d="M4385 1419 c-9 -14 12 -29 43 -29 17 0 23 5 20 18 -4 20 -52 29 -63
11z"/>
<path d="M2451 1381 c-43 -12 -37 -31 9 -31 33 0 41 3 38 17 -4 20 -15 23 -47
14z"/>
<path d="M4493 1373 c-20 -8 -15 -17 17 -31 39 -18 64 -12 68 16 3 20 -1 22
-35 21 -21 0 -44 -3 -50 -6z"/>
<path d="M12730 1370 c0 -13 38 -32 50 -25 22 14 10 35 -20 35 -16 0 -30 -4
-30 -10z"/>
<path d="M11790 1264 c0 -48 33 -45 38 4 3 27 0 32 -17 32 -17 0 -21 -6 -21
-36z"/>
<path d="M5270 1215 c0 -28 24 -34 34 -9 8 20 -1 34 -20 34 -8 0 -14 -10 -14
-25z"/>
<path d="M8352 1093 c4 -20 30 -28 56 -18 16 6 15 8 -2 21 -28 20 -58 18 -54
-3z"/>
<path d="M6836 1051 c-9 -15 22 -33 44 -26 31 10 25 35 -9 35 -17 0 -32 -4
-35 -9z"/>
<path d="M6948 1029 c11 -28 26 -29 30 -1 3 17 -2 22 -17 22 -16 0 -19 -4 -13
-21z"/>
<path d="M7154 969 c-4 -7 4 -20 17 -30 42 -32 62 -21 39 22 -12 21 -45 26
-56 8z"/>
<path d="M5583 6865 c-17 -13 -17 -15 3 -36 25 -25 44 -18 44 16 0 28 -22 38
-47 20z"/>
<path d="M3800 6830 c0 -15 5 -20 18 -18 9 2 17 10 17 18 0 8 -8 16 -17 18
-13 2 -18 -3 -18 -18z"/>
<path d="M5431 6776 c-13 -16 -6 -56 9 -56 5 0 14 10 21 21 15 29 -10 59 -30
35z"/>
<path d="M3154 5906 c-7 -19 3 -36 22 -36 10 0 14 8 12 22 -4 26 -26 36 -34
14z"/>
<path d="M3685 5896 c-18 -13 -18 -15 -3 -21 25 -10 53 -2 53 15 0 20 -26 24
-50 6z"/>
<path d="M3602 5630 c2 -19 8 -33 13 -30 12 6 8 41 -6 55 -7 7 -9 -1 -7 -25z"/>
<path d="M3380 5440 c0 -15 5 -20 18 -18 9 2 17 10 17 18 0 8 -8 16 -17 18
-13 2 -18 -3 -18 -18z"/>
<path d="M3820 5295 c0 -22 4 -26 23 -23 14 2 22 10 22 23 0 13 -8 21 -22 23
-19 3 -23 -1 -23 -23z"/>
<path d="M2023 6482 c-49 -32 -56 -64 -20 -105 12 -14 30 -37 40 -51 22 -32
49 -33 80 -3 13 12 32 27 42 33 33 19 26 84 -13 122 -41 40 -73 41 -129 4z"/>
<path d="M4168 1149 c-49 -25 -68 -55 -68 -109 0 -69 8 -84 53 -108 52 -27 47
-28 100 8 56 37 73 97 47 164 -7 19 -89 75 -94 65 -1 -1 -18 -10 -38 -20z"/>
<path d="M10651 1085 c-40 -46 -33 -69 20 -61 93 15 137 60 84 84 -44 20 -71
14 -104 -23z"/>
<path d="M10217 992 c-34 -21 -45 -58 -25 -79 14 -13 20 -13 54 5 22 10 51 22
67 26 33 8 34 22 5 47 -28 22 -64 23 -101 1z"/>
<path d="M9003 782 c-7 -4 -19 -24 -28 -44 -24 -59 4 -140 57 -164 36 -16 40
-16 73 2 39 21 52 59 40 120 -11 62 -42 94 -89 94 -23 0 -46 -4 -53 -8z"/>
<path d="M7318 694 c-7 -8 -21 -23 -30 -32 -31 -28 -24 -93 15 -144 39 -51 69
-59 104 -26 56 52 65 100 31 165 -28 53 -91 73 -120 37z"/>
<path d="M13387 7143 c-14 -13 -6 -33 13 -33 13 0 20 7 20 20 0 19 -20 27 -33
13z"/>
<path d="M712 6525 c-12 -22 -4 -57 12 -52 15 5 20 47 8 59 -7 7 -13 4 -20 -7z"/>
<path d="M14336 6465 c-18 -13 -17 -45 2 -45 20 0 45 28 39 44 -8 19 -16 20
-41 1z"/>
<path d="M1267 1534 c-9 -10 4 -34 19 -34 8 0 17 -7 20 -15 7 -16 34 -21 34
-5 0 5 -9 14 -20 20 -11 6 -20 17 -20 25 0 15 -21 21 -33 9z"/>
<path d="M1593 1254 c-8 -21 13 -42 28 -27 13 13 5 43 -11 43 -6 0 -13 -7 -17
-16z"/>
<path d="M13304 1226 c-6 -17 11 -46 28 -46 14 0 5 53 -9 58 -7 2 -16 -4 -19
-12z"/>
<path d="M13370 1147 c0 -24 26 -51 44 -44 22 9 20 34 -3 47 -26 14 -41 13
-41 -3z"/>
<path d="M2270 890 c0 -6 -11 -15 -25 -20 -15 -6 -25 -17 -25 -30 0 -30 38
-26 50 5 5 14 14 25 20 25 5 0 10 7 10 15 0 8 -7 15 -15 15 -8 0 -15 -5 -15
-10z"/>
<path d="M12730 890 c-8 -5 -12 -10 -10 -12 3 -2 15 -12 28 -22 17 -15 22 -16
22 -4 0 26 -24 49 -40 38z"/>
<path d="M12107 543 c-12 -12 -7 -41 7 -46 22 -9 41 19 26 38 -14 16 -23 19
-33 8z"/>
</g>
</svg>
