<svg version="1.1" id="Layer_1" xmlns="http://www.w3.org/2000/svg" xmlns:xlink="http://www.w3.org/1999/xlink" x="0px" y="0px"
	 width="100%" viewBox="0 0 864 864" enable-background="new 0 0 864 864" xml:space="preserve">
<path fill="#000000" opacity="1.000000" stroke="none" 
	d="
M349.000122,311.647095 
	C470.821045,311.647644 592.141968,311.647949 713.462891,311.650055 
	C721.338501,311.650177 721.346741,311.656616 721.347168,319.506897 
	C721.350037,374.834564 721.351807,430.162231 721.346436,485.489899 
	C721.345825,492.292999 721.325195,492.316162 714.463257,492.316589 
	C526.815796,492.328339 339.168396,492.335846 151.520966,492.339142 
	C144.679642,492.339264 144.661926,492.316132 144.661240,485.464783 
	C144.655563,429.803802 144.654083,374.142853 144.660172,318.481873 
	C144.660919,311.669342 144.685181,311.649689 151.520462,311.649200 
	C217.180344,311.644470 282.840210,311.646912 349.000122,311.647095 
M493.647888,402.686066 
	C497.144989,402.735504 500.657074,402.594269 504.136505,402.868134 
	C517.741882,403.938995 523.508606,409.361237 525.420410,422.759613 
	C526.452393,429.992340 527.262573,437.258392 528.392761,444.474976 
	C529.607727,452.233368 530.609619,460.548309 537.886719,465.119385 
	C548.847839,472.004639 560.580750,470.440094 572.301758,467.081238 
	C571.860229,462.431305 569.394592,463.745300 567.142517,464.213867 
	C558.725220,465.965057 554.798279,463.256409 553.700256,454.840576 
	C552.604126,446.439484 551.579529,438.027496 550.659790,429.605408 
	C548.930908,413.773804 541.777100,405.442993 526.216248,401.349548 
	C525.299622,401.108398 524.136230,401.303925 523.794983,399.347748 
	C529.552917,397.341980 535.504761,395.552612 541.044922,392.633423 
	C562.042542,381.569397 557.317688,353.577332 543.669678,344.380096 
	C535.906921,339.148895 527.233398,336.737946 518.252136,336.525635 
	C496.442261,336.010010 474.614410,336.243225 452.793762,336.225616 
	C451.082184,336.224213 448.948914,335.827789 448.486084,338.511566 
	C449.604950,340.704895 451.730469,340.550262 453.671326,340.626740 
	C456.332611,340.731598 459.007996,340.794556 461.663849,340.641479 
	C465.019684,340.447998 466.387360,341.666992 466.379211,345.215759 
	C466.291962,383.194855 466.285858,421.174408 466.398834,459.153412 
	C466.410461,463.060577 464.716339,464.117004 461.287170,463.899933 
	C457.966034,463.689667 454.638519,463.534088 451.311676,463.476593 
	C449.372070,463.443085 447.457397,463.873199 447.443481,466.341888 
	C447.429749,468.789551 449.413177,468.639008 451.069092,468.640381 
	C468.726135,468.654907 486.383209,468.652771 504.040253,468.632477 
	C505.693970,468.630585 507.709198,468.775818 507.621826,466.315216 
	C507.539520,463.997803 505.538788,464.029388 503.894562,463.962006 
	C500.235138,463.812103 496.570465,463.671906 492.909668,463.707520 
	C489.072174,463.744843 487.715424,461.980591 487.747437,458.191162 
	C487.889435,441.368103 487.888702,424.543091 487.810455,407.719421 
	C487.794037,404.191620 488.911713,402.280701 493.647888,402.686066 
M390.202057,466.734833 
	C431.338776,446.763733 443.433289,392.510712 414.720062,356.753113 
	C390.956818,327.160034 350.161682,325.122650 324.727386,352.258759 
	C302.000031,376.506714 298.862244,415.144012 317.314178,442.755096 
	C332.842346,465.991089 361.027344,478.854919 390.202057,466.734833 
M669.499939,468.652283 
	C676.830383,468.651581 684.160889,468.641174 691.491333,468.656219 
	C693.668579,468.660706 695.598999,468.369293 695.603943,465.561768 
	C695.623840,454.232666 695.626099,442.903534 695.629944,431.574432 
	C695.630493,430.123596 695.273865,428.798920 693.548279,428.728577 
	C691.890625,428.661011 690.587280,429.365173 690.436707,431.241669 
	C690.330383,432.567535 690.371155,433.904846 690.335327,435.236755 
	C689.904175,451.266602 682.470215,459.963837 666.727112,462.414276 
	C652.833801,464.576813 638.843018,463.816437 624.859253,463.533386 
	C620.345398,463.442017 618.686829,462.089386 618.751160,457.486694 
	C618.960632,442.494781 618.817017,427.498169 618.840759,412.503387 
	C618.854736,403.660126 618.881531,403.659210 627.949585,403.651642 
	C629.948914,403.649963 631.948303,403.645905 633.947510,403.662628 
	C647.944885,403.779663 652.002991,407.286469 654.008179,420.990479 
	C654.056335,421.319855 654.091125,421.651550 654.121338,421.983124 
	C654.285156,423.785736 654.071655,426.112213 656.692688,426.003448 
	C659.566284,425.884186 658.627380,423.343079 658.636658,421.723938 
	C658.712830,408.395691 658.764099,395.066040 658.623230,381.738983 
	C658.600281,379.569397 660.243347,375.841553 656.610413,375.578888 
	C652.712952,375.297089 654.211304,379.342957 653.937866,381.397339 
	C652.829773,389.723206 649.625122,396.191315 640.606201,397.872925 
	C634.350037,399.039429 627.981812,398.337158 621.663269,398.359131 
	C619.124756,398.367981 618.871765,396.410980 618.872559,394.477081 
	C618.878967,377.983063 618.921387,361.489014 618.906128,344.995026 
	C618.903137,341.746185 620.524963,340.659515 623.593323,340.691681 
	C633.255310,340.793060 642.937012,340.386353 652.577576,340.859039 
	C671.787903,341.800873 678.791138,347.697235 683.182190,365.775146 
	C683.552002,367.297668 683.699341,368.918579 685.782532,368.684204 
	C687.870728,368.449249 687.805237,366.724579 687.705750,365.233398 
	C687.185364,357.434753 686.352661,349.647400 686.132324,341.841919 
	C686.000427,337.170624 684.014099,336.094666 679.687744,336.111359 
	C648.366028,336.232269 617.043457,336.135132 585.721191,336.111359 
	C584.888794,336.110718 584.054626,336.133392 583.224304,336.189392 
	C581.785339,336.286377 580.474976,336.695984 580.559021,338.453583 
	C580.639099,340.129211 581.916992,340.631287 583.365784,340.656677 
	C586.363770,340.709259 589.371155,340.839600 592.359558,340.670837 
	C596.026184,340.463715 597.342773,342.007141 597.335388,345.649750 
	C597.258789,383.469818 597.251953,421.290161 597.340149,459.110168 
	C597.349365,463.063995 595.504150,463.937347 592.086853,463.715759 
	C588.937439,463.511505 585.766785,463.543915 582.608154,463.606628 
	C580.983765,463.638824 580.307251,464.708344 580.389954,466.307037 
	C580.461853,467.695190 581.170532,468.486084 582.532654,468.579193 
	C583.860291,468.669952 585.196045,468.660217 586.528259,468.660248 
	C613.852112,468.660858 641.176025,468.656494 669.499939,468.652283 
M217.158676,341.446045 
	C232.439941,334.389496 246.450424,337.306915 259.138367,347.427277 
	C267.759521,354.303833 273.106262,363.356689 274.466400,374.544128 
	C274.713074,376.573120 274.810455,379.593262 277.637207,379.410126 
	C280.926178,379.197021 279.579926,376.043213 279.603882,374.167023 
	C279.735504,363.840088 279.683350,353.510468 279.639069,343.182007 
	C279.632202,341.579773 279.939331,339.629700 277.754272,339.049561 
	C275.283661,338.393555 275.094055,340.550842 274.592102,342.000031 
	C273.006348,346.578644 269.718018,347.146149 265.809204,345.635132 
	C263.507263,344.745331 261.272308,343.480682 259.285187,342.009247 
	C238.674347,326.746735 212.916931,332.696625 196.882935,346.140198 
	C165.373611,372.558838 161.373032,417.756500 187.584579,449.361755 
	C204.197220,469.392853 235.761490,481.467194 262.183350,460.516022 
	C263.090729,459.796539 264.132629,459.236938 265.145264,458.661682 
	C269.892426,455.965027 272.407898,456.864441 274.241913,462.044006 
	C274.861267,463.793060 275.113495,465.973572 277.546753,465.651184 
	C280.513489,465.258026 279.618164,462.637726 279.631317,460.828491 
	C279.714813,449.334229 279.755646,437.838287 279.621521,426.345123 
	C279.597809,424.312439 281.036438,420.902252 277.548615,420.645966 
	C274.136749,420.395264 275.486237,424.143036 274.485443,425.989471 
	C274.412140,426.124725 274.440491,426.316589 274.427094,426.482605 
	C273.589447,436.863281 269.152924,445.709778 262.311249,453.285370 
	C245.081955,472.362885 211.299835,473.797424 200.480865,441.751801 
	C200.214920,440.964142 199.883774,440.196838 199.649277,439.400513 
	C192.813553,416.190063 192.771561,392.799133 198.334610,369.404877 
	C201.012466,358.143677 205.957443,348.050690 217.158676,341.446045 
z"/>
<path fill="#000000" opacity="1.000000" stroke="none" 
	d="
M177.289169,505.841064 
	C183.580078,505.751678 189.403854,505.609253 195.221603,505.738312 
	C206.118851,505.980042 211.510986,514.038025 207.378632,524.063354 
	C206.535187,526.109619 206.762665,527.424927 207.981674,529.014099 
	C211.590775,533.718994 211.896820,538.851746 209.175690,543.970093 
	C206.429901,549.134705 201.784439,551.369629 195.996887,551.353149 
	C190.508057,551.337463 185.014328,551.199829 179.532013,551.387207 
	C175.803970,551.514526 174.623627,549.947510 174.664505,546.359802 
	C174.800888,534.385498 174.693314,522.408630 174.721054,510.432861 
	C174.725174,508.653931 174.438324,506.634125 177.289169,505.841064 
M200.637436,534.719482 
	C196.501404,530.631592 191.353058,532.094910 186.479462,532.204590 
	C185.158585,532.234253 184.654175,533.323059 184.349731,534.588989 
	C182.883057,540.687500 184.546814,542.935791 190.719147,542.981262 
	C192.382645,542.993530 194.059616,543.027649 195.708298,542.848389 
	C200.294357,542.349792 201.656403,540.372314 200.637436,534.719482 
M184.391785,520.983948 
	C187.212280,524.984131 196.575546,524.879700 198.869553,520.834717 
	C199.574615,519.591553 199.878647,518.288208 199.017059,517.085999 
	C195.862045,512.683533 191.160324,514.431702 187.067795,514.452087 
	C183.106094,514.471802 184.640427,517.943481 184.391785,520.983948 
z"/>
<path fill="#000000" opacity="1.000000" stroke="none" 
	d="
M613.719299,542.174194 
	C613.442139,534.553650 612.266907,533.408569 605.093933,533.346069 
	C604.427429,533.340210 603.760803,533.343567 603.094238,533.342957 
	C595.749207,533.336731 595.758728,533.336609 595.918762,540.707703 
	C595.958496,542.539673 595.845093,544.376526 595.924561,546.205750 
	C596.069092,549.533630 595.216858,551.468384 591.209900,551.431152 
	C587.166748,551.393677 586.615234,549.387878 586.642944,546.091309 
	C586.740967,534.427368 586.823242,522.759338 586.600952,511.098816 
	C586.520264,506.867523 588.134277,505.459778 592.156372,505.726227 
	C599.119385,506.187500 606.160645,504.910309 613.074951,506.476227 
	C622.117920,508.524170 626.181763,516.956299 621.950867,525.278015 
	C620.789551,527.562134 620.478760,529.304932 621.434387,531.747131 
	C623.617859,537.327209 622.189270,543.638794 624.703857,549.258667 
	C625.265442,550.513794 623.743286,551.228699 622.479370,551.261353 
	C615.517151,551.441528 613.966858,552.210999 613.719299,542.174194 
M596.667053,515.273926 
	C595.709473,516.961853 595.982544,518.813477 595.985474,520.619690 
	C595.988892,522.749451 596.331116,524.722839 599.094604,524.740417 
	C602.571289,524.762512 606.061829,524.875427 609.521729,524.618164 
	C612.783936,524.375549 613.942566,522.173584 613.787720,519.063354 
	C613.639587,516.088379 612.194092,514.351501 609.189392,514.348206 
	C605.232117,514.343872 601.249817,513.820618 596.667053,515.273926 
z"/>
<path fill="#000000" opacity="1.000000" stroke="none" 
	d="
M473.578369,541.278320 
	C469.489136,548.449768 463.762909,551.859924 455.742340,551.395569 
	C451.431976,551.146057 447.092316,551.217712 442.773193,551.362427 
	C439.413818,551.474915 437.912933,550.160889 437.926544,546.729248 
	C437.975342,534.421997 437.906342,522.114197 437.874451,509.806641 
	C437.868622,507.551697 438.504761,505.787445 441.162903,505.802979 
	C447.476807,505.839844 453.867218,505.349640 460.086060,506.156433 
	C469.485382,507.375824 475.609039,514.947388 476.278351,524.868896 
	C476.652222,530.411133 476.197510,535.834106 473.578369,541.278320 
M456.201416,543.017090 
	C458.932343,542.954285 461.660583,542.584595 463.401489,540.260681 
	C468.041962,534.066040 467.734131,527.098999 465.447693,520.311157 
	C463.411987,514.267639 457.972870,514.291016 452.593964,514.188782 
	C448.303894,514.107239 447.078674,515.803223 447.269348,519.799438 
	C447.514679,524.942139 447.323517,530.105469 447.323700,535.259949 
	C447.324005,542.988464 447.325256,542.988464 456.201416,543.017090 
z"/>
<path fill="#000000" opacity="1.000000" stroke="none" 
	d="
M660.007935,539.488281 
	C659.697510,536.992554 659.501160,534.845337 662.492676,534.780945 
	C665.033386,534.726135 667.714050,533.937866 669.007141,537.598022 
	C671.339905,544.201172 679.450623,546.672363 685.263306,542.856934 
	C688.809387,540.529297 688.673950,536.203247 684.674072,534.673706 
	C680.670105,533.142578 676.379822,532.344482 672.195190,531.305115 
	C665.099304,529.542542 661.837646,526.076477 661.646118,519.974182 
	C661.409058,512.421692 664.513550,507.828156 671.364807,505.593842 
	C682.127808,502.083893 693.371643,507.029938 695.289246,516.117859 
	C696.320251,521.004028 694.158264,522.992126 689.325867,521.739441 
	C687.592224,521.290039 687.136963,520.159363 686.603699,518.629639 
	C684.811035,513.486816 676.912720,511.299194 672.482544,514.585083 
	C671.060120,515.640015 670.131714,516.955994 670.484497,518.836670 
	C670.872192,520.903320 672.402588,521.994507 674.210815,522.460144 
	C677.742371,523.369507 681.333069,524.053955 684.907715,524.790649 
	C692.511719,526.357483 696.938354,531.043030 697.159973,537.801147 
	C697.379089,544.479980 692.658142,550.143860 685.375183,551.939819 
	C672.786621,555.044250 663.436523,550.591492 660.007935,539.488281 
z"/>
<path fill="#000000" opacity="1.000000" stroke="none" 
	d="
M513.830933,547.741089 
	C513.778809,535.272766 513.871338,523.278381 513.660461,511.289307 
	C513.590515,507.314148 514.691528,505.530243 518.973572,505.657104 
	C527.127869,505.898651 535.295349,505.796814 543.455444,505.689270 
	C546.716675,505.646271 548.362793,506.638123 548.340942,510.241821 
	C548.319458,513.788635 546.440491,514.348450 543.564270,514.307800 
	C538.235474,514.232422 532.902283,514.398071 527.575684,514.267273 
	C524.288086,514.186462 523.204834,515.649719 523.216248,518.786255 
	C523.227783,521.956421 523.966675,523.883972 527.665955,523.755859 
	C532.490112,523.588806 537.327087,523.820068 542.154419,523.706543 
	C545.586487,523.625854 546.284973,525.464233 546.317444,528.427490 
	C546.352295,531.612000 544.783325,532.399536 541.980896,532.343079 
	C537.152771,532.245850 532.317322,532.450562 527.491882,532.301453 
	C523.217590,532.169312 523.289612,534.892334 523.195251,537.925659 
	C523.095459,541.131653 523.860535,542.960327 527.590759,542.827637 
	C533.079590,542.632568 538.582642,542.880798 544.077759,542.804138 
	C547.381348,542.758057 549.001099,544.095215 549.020203,547.507812 
	C549.040466,551.128540 546.782532,551.393616 544.031067,551.375183 
	C535.536804,551.318420 527.041992,551.352600 518.547485,551.324524 
	C516.334290,551.317261 514.037781,551.337524 513.830933,547.741089 
z"/>
<path fill="#000000" opacity="1.000000" stroke="none" 
	d="
M284.001831,518.034607 
	C283.814026,524.840393 284.338318,531.158142 283.432648,537.467041 
	C282.022522,547.290161 275.207275,552.929443 264.608856,552.759888 
	C254.393616,552.596497 247.369705,546.682434 246.863785,536.927612 
	C246.390274,527.797913 246.772568,518.625488 246.698944,509.472473 
	C246.672699,506.208466 248.606689,505.717407 251.254303,505.689331 
	C254.080231,505.659393 256.196289,506.124481 256.183533,509.649567 
	C256.153442,517.970764 256.112305,526.295044 256.301575,534.612976 
	C256.468903,541.966919 261.432404,545.542847 268.389008,543.549927 
	C273.590851,542.059753 274.456512,537.721802 274.583099,533.295105 
	C274.801819,525.645081 274.732910,517.983887 274.633484,510.329285 
	C274.594452,507.326019 275.369659,505.647797 278.795868,505.669678 
	C281.955048,505.689880 283.990265,506.457550 283.933502,510.052185 
	C283.894104,512.547241 283.974335,515.044189 284.001831,518.034607 
z"/>
<path fill="#000000" opacity="1.000000" stroke="none" 
	d="
M371.705566,513.099731 
	C371.892029,509.476959 370.635071,505.628479 376.180878,505.680389 
	C379.825928,505.714539 381.282013,507.014191 381.239319,510.656403 
	C381.131989,519.813049 381.327759,528.973633 381.185303,538.129211 
	C381.132233,541.540588 382.281677,542.988037 385.790344,542.833496 
	C389.944061,542.650513 394.113525,542.844788 398.276031,542.835632 
	C401.229187,542.829163 402.335388,544.269531 402.348572,547.188354 
	C402.361847,550.133545 401.317566,551.425293 398.280579,551.379333 
	C390.955780,551.268555 383.626251,551.228394 376.302887,551.374512 
	C372.760773,551.445129 371.677979,549.866394 371.705261,546.554932 
	C371.795868,535.566101 371.718353,524.575928 371.705566,513.099731 
z"/>
<path fill="#000000" opacity="1.000000" stroke="none" 
	d="
M332.334045,512.122498 
	C332.331696,523.768616 332.270813,534.932251 332.357941,546.094849 
	C332.383392,549.359314 331.894104,551.377869 327.806763,551.432007 
	C323.457764,551.489746 323.548981,549.180847 323.567810,546.046387 
	C323.635803,534.718140 323.477814,523.388794 323.474091,512.059814 
	C323.473145,509.209503 322.552246,505.915955 327.429901,505.676270 
	C332.199677,505.441925 332.572357,508.119873 332.334045,512.122498 
z"/>
<path fill="#000000" opacity="1.000000" stroke="none" 
	d="
M531.460022,360.971436 
	C533.000061,368.041290 532.810730,374.665619 530.690247,381.108307 
	C527.279053,391.472595 518.886047,395.448151 509.039246,397.120697 
	C503.627991,398.039825 498.130280,398.297119 492.613159,398.232483 
	C489.269592,398.193359 487.758850,396.985504 487.777710,393.529633 
	C487.865906,377.368225 487.844666,361.206207 487.849213,345.044403 
	C487.849884,342.602112 488.450256,340.767029 491.406403,340.731964 
	C499.060150,340.641205 506.685547,340.434174 514.203369,342.521790 
	C523.607544,345.133240 529.555664,350.823395 531.460022,360.971436 
z"/>
<path fill="#000000" opacity="1.000000" stroke="none" 
	d="
M388.857819,345.084961 
	C397.695770,353.314941 401.455139,363.683746 403.642303,374.808380 
	C407.648010,395.182465 407.349792,415.474487 402.322266,435.652771 
	C401.150116,440.357300 399.355499,444.840057 397.022278,449.088440 
	C390.600159,460.781952 380.721497,466.918518 367.353088,466.768707 
	C354.434753,466.623962 344.824738,460.686005 338.593384,449.281921 
	C333.296875,439.588745 331.031586,429.013794 330.026215,418.225647 
	C328.445160,401.260956 328.824554,384.348602 333.481995,367.762756 
	C334.705933,363.404144 336.456207,359.280487 338.597412,355.317352 
	C348.637909,336.733154 371.758301,331.899292 388.857819,345.084961 
z"/>
</svg>