<?xml version="1.0" encoding="UTF-8"?>
<svg version="1.1" xmlns="http://www.w3.org/2000/svg" width="349" height="400">
<path d="M0 0 C115.17 0 230.34 0 349 0 C349 132 349 264 349 400 C233.83 400 118.66 400 0 400 C0 268 0 136 0 0 Z " fill="#FDFEFE" transform="translate(0,0)"/>
<path d="M0 0 C7.56278722 6.49927027 11.46833473 14.04948739 12.26226807 24.00866699 C12.34537075 27.76195464 12.3375243 31.50387363 12.29296875 35.2578125 C12.28736007 36.63357069 12.283096 38.00933495 12.28010559 39.38510132 C12.26875667 42.97232165 12.2393781 46.55916635 12.20599365 50.14624023 C12.17507545 53.82009808 12.16155422 57.49401777 12.14648438 61.16796875 C12.11449636 68.35175201 12.06181281 75.53515011 12 82.71875 C7.05 82.71875 2.1 82.71875 -3 82.71875 C-3.99 80.40875 -4.98 78.09875 -6 75.71875 C-6.79857422 76.1209375 -6.79857422 76.1209375 -7.61328125 76.53125 C-10.46180667 77.9485196 -13.31676815 79.34683514 -16.1875 80.71875 C-17.25355469 81.234375 -18.31960938 81.75 -19.41796875 82.28125 C-36.24249985 89.03307928 -60.2041137 88.43314322 -77 81.71875 C-88.08011327 76.65318896 -95.22067127 69.89465506 -100 58.71875 C-100.391875 57.8525 -100.78375 56.98625 -101.1875 56.09375 C-105.47007296 43.57545981 -104.27221233 26.48299199 -98.8125 14.59375 C-92.20237451 2.350648 -81.22668406 -5.26276125 -68 -9.28125 C-46.88184892 -14.85542261 -17.96585511 -12.94598383 0 0 Z " fill="#034F9A" transform="translate(337,113.28125)"/>
<path d="M0 0 C3.21004327 2.76602156 6.30916336 5.63396126 9.37890625 8.5546875 C11.94581706 11.01190891 11.94581706 11.01190891 14.64453125 13.11328125 C25.22248683 21.58617104 34.98383219 35.94227971 41 48 C41 48.66 41 49.32 41 50 C36.44717822 50.24893457 31.8983805 50.42939301 27.34033203 50.54931641 C25.79373142 50.59933166 24.24759725 50.66737763 22.70263672 50.75439453 C9.87924107 51.45806698 9.87924107 51.45806698 5.29736328 47.90307617 C3.27013262 45.3632693 1.61270798 42.81703844 0 40 C-20.25143288 15.08863533 -51.54146778 0.06873643 -83 -4 C-105.89780784 -5.36152854 -130.17669616 -4.62946891 -151 6 C-152.25505911 6.58385907 -153.51169384 7.16433818 -154.76953125 7.7421875 C-173.17288378 16.356805 -192.65700902 30.16626907 -203.64550781 47.61254883 C-206 50 -206 50 -209.48339844 50.56762695 C-210.85897802 50.5668403 -212.23472587 50.53887353 -213.609375 50.48828125 C-214.69958954 50.47766914 -214.69958954 50.47766914 -215.81182861 50.46684265 C-218.12561457 50.4389273 -220.43694998 50.37620383 -222.75 50.3125 C-224.32157954 50.28741299 -225.89319716 50.26460051 -227.46484375 50.24414062 C-231.3108352 50.18911132 -235.15500265 50.10286666 -239 50 C-223.43375241 17.46149532 -194.12094987 -6.00625784 -162 -21 C-160.9476416 -21.50043823 -160.9476416 -21.50043823 -159.87402344 -22.01098633 C-109.30368963 -45.41226937 -42.69267308 -35.00902502 0 0 Z " fill="#35A6FF" transform="translate(273,34)"/>
<path d="M0 0 C1.36125 0.8971875 1.36125 0.8971875 2.75 1.8125 C9.02437137 7.91258328 9.9964122 11.9677098 11 21 C-0.55 21 -12.1 21 -24 21 C-24.99 19.02 -25.98 17.04 -27 15 C-34.32227974 11.06766458 -41.80664839 10.3032047 -50 11 C-53.45128672 12.33207558 -55.40996081 13.40996081 -58 16 C-58.33333333 18.5 -58.33333333 18.5 -58 21 C-55.22151915 23.77848085 -52.23207393 23.82866446 -48.4921875 24.40234375 C-47.73390656 24.5255751 -46.97562561 24.64880646 -46.19436646 24.77577209 C-43.75573656 25.17066874 -41.31552799 25.55452558 -38.875 25.9375 C-20.07007481 28.93885647 -20.07007481 28.93885647 -11.16796875 30.5546875 C-9.91781982 30.7801123 -8.6676709 31.00553711 -7.37963867 31.23779297 C1.47224086 33.23414982 7.94319064 37.41478597 13 45 C16.28872362 51.63244262 16.18998354 60.30477342 13.9375 67.3125 C9.64810429 76.65866037 2.36184876 81.39008472 -7 85 C-16.99732095 87.74014296 -26.68170334 88.45516706 -36.9987793 88.33618164 C-39.19682183 88.31239914 -41.39365618 88.31567779 -43.59179688 88.32226562 C-58.85701195 88.29327928 -74.73704373 86.9852289 -86.37890625 75.97265625 C-89.09975941 72.66173855 -90.55898594 68.99738928 -92 65 C-92.33 64.34 -92.66 63.68 -93 63 C-93 61.02 -93 59.04 -93 57 C-80.79 57 -68.58 57 -56 57 C-55.01 59.31 -54.02 61.62 -53 64 C-46.82209685 68.1186021 -38.20266076 67.55258508 -31 67 C-28.02200611 66.28787103 -25.77640202 65.36200854 -23 64 C-21.58558126 61.17116253 -21.68099668 59.12623255 -22 56 C-25.52811268 52.05331824 -30.63944295 52.01977039 -35.59375 51.3515625 C-37.53127376 51.06526494 -39.46877297 50.77880114 -41.40625 50.4921875 C-44.44203399 50.05752731 -47.47845813 49.62801363 -50.515625 49.203125 C-80.05763771 45.02702896 -80.05763771 45.02702896 -87.6640625 35.17578125 C-91.57352097 28.80862228 -93.05615065 22.24269375 -91.56640625 14.84765625 C-89.24095062 6.39801934 -83.69892875 0.33537373 -76.15625 -3.97265625 C-55.82892453 -13.65759574 -18.69189493 -13.40091771 0 0 Z " fill="#034F9A" transform="translate(213,111)"/>
<path d="M0 0 C5.17339879 -0.25014574 10.34316937 -0.42997302 15.52124023 -0.54931641 C17.27609658 -0.5991292 19.03054834 -0.66701369 20.78393555 -0.75439453 C31.27743713 -1.2636424 38.66624155 -1.04520349 46.7787323 6.08924866 C48.19080218 7.38743564 49.59562739 8.69349001 51 10 C53.74404144 11.93690419 56.58705355 13.64317423 59.5 15.3125 C60.21865234 15.72781982 60.93730469 16.14313965 61.67773438 16.57104492 C67.89579442 20.08424885 74.19422215 22.81270955 81 25 C81.66531738 25.21495117 82.33063477 25.42990234 83.01611328 25.65136719 C85.19349674 26.34658277 87.37593851 27.0217388 89.5625 27.6875 C90.5525 27.99167847 90.5525 27.99167847 91.5625 28.30200195 C102.41048832 31.46732018 113.04468511 32.3389857 124.3125 32.25 C126.24258911 32.23549805 126.24258911 32.23549805 128.21166992 32.22070312 C158.36445777 31.83836891 185.32718363 21.57611936 209 3 C209.47101639 2.46739059 209.94203278 1.93478119 210.42732239 1.3860321 C213.26741341 -1.11699669 217.21750092 -0.35964298 220.82421875 -0.29296875 C222.11632011 -0.28660149 222.11632011 -0.28660149 223.43452454 -0.28010559 C226.18583431 -0.26331248 228.93641162 -0.22565956 231.6875 -0.1875 C233.5527238 -0.17245396 235.41795907 -0.15876541 237.28320312 -0.14648438 C241.85575098 -0.11340693 246.4277513 -0.0616206 251 0 C244.97210585 9.18373931 237.55457221 17.11461261 229 24 C228.03320312 24.78117187 227.06640625 25.56234375 226.0703125 26.3671875 C193.36032527 52.37934409 151.55849663 65.90034246 109.74169922 61.67041016 C68.23686686 56.59285579 33.09629506 37.9791801 4.75 7.4375 C4.27159668 6.92461426 3.79319336 6.41172852 3.30029297 5.88330078 C0 2.24746782 0 2.24746782 0 0 Z " fill="#5BCC29" transform="translate(49,258)"/>
<path d="M0 0 C6.59763051 6.41357644 11.58954324 14.79326908 13.5625 23.8125 C13.5625 24.8025 13.5625 25.7925 13.5625 26.8125 C2.0125 26.8125 -9.5375 26.8125 -21.4375 26.8125 C-22.4275 24.1725 -23.4175 21.5325 -24.4375 18.8125 C-28.07253558 14.15173656 -32.6346956 11.76377941 -38.4375 10.8125 C-47.88838914 9.96654629 -54.84678774 11.11997057 -62.3125 17.125 C-67.32923284 23.46969154 -67.99150771 29.26442389 -67.9375 37.125 C-67.93322998 38.05691162 -67.92895996 38.98882324 -67.92456055 39.94897461 C-67.71477704 48.40628904 -65.94286596 54.1226411 -60.0625 60.3125 C-52.33712463 64.72700021 -43.10516547 65.21426218 -34.515625 63.08984375 C-29.55813137 61.27845185 -26.16604972 59.50560551 -23.4375 54.8125 C-22.4475 52.5025 -21.4575 50.1925 -20.4375 47.8125 C-9.2175 47.8125 2.0025 47.8125 13.5625 47.8125 C11.84006953 59.86951329 7.80524001 69.03279778 -2.0625 76.4375 C-14.81449028 84.99550236 -29.20034113 86.20826699 -44.1875 86.1875 C-44.84980621 86.18695618 -45.51211243 86.18641235 -46.19448853 86.18585205 C-62.43827961 86.12448896 -77.38216176 83.53608094 -89.75 72.125 C-100.8968296 60.13128602 -102.03558004 46.76752206 -101.75 31.15625 C-101.25333585 19.28597671 -96.40393304 9.28864384 -87.8125 1.125 C-80.4950596 -4.89125119 -71.81477614 -8.88884845 -62.4375 -10.1875 C-61.39335938 -10.35185547 -61.39335938 -10.35185547 -60.328125 -10.51953125 C-40.56174981 -13.07552804 -16.19821237 -12.95856989 0 0 Z " fill="#024F9A" transform="translate(101.4375,113.1875)"/>
<path d="M0 0 C6.45665387 -0.36698565 12.27024904 1.08251656 17.94921875 4.1875 C20.26333982 6.43164764 21.39728037 8.2976837 22.94921875 11.1875 C22.94921875 11.8475 22.94921875 12.5075 22.94921875 13.1875 C34.49921875 13.1875 46.04921875 13.1875 57.94921875 13.1875 C57.94921875 16.1575 57.94921875 19.1275 57.94921875 22.1875 C41.44921875 22.1875 24.94921875 22.1875 7.94921875 22.1875 C7.94921875 28.7875 7.94921875 35.3875 7.94921875 42.1875 C13.88921875 42.1875 19.82921875 42.1875 25.94921875 42.1875 C24.93548677 47.25615991 24.46987905 48.6668397 20.94921875 52.1875 C12.02870435 57.66436613 2.33531451 58.75243527 -7.9453125 56.57421875 C-15.0691549 54.09017539 -19.23584079 49.74167153 -23.14453125 43.41796875 C-26.68520782 35.89403104 -25.96032395 25.73911407 -24.42578125 17.75 C-21.4544706 10.05160422 -16.6260793 4.59046592 -9.05078125 1.1875 C-5.97628948 0.46080195 -3.12632303 0.28583525 0 0 Z " fill="#FDFDFE" transform="translate(291.05078125,121.8125)"/>
<path d="M0 0 C3.25827769 1.31717609 4.55414231 2.11443439 6.1328125 5.25 C7.88636518 10.81081571 7.23321539 17.11022663 4.953125 22.453125 C2.78180587 26.07199022 0.63551276 28.76429234 -3 31 C-6.40135602 31.66367922 -9.59005468 31.6069482 -13 31 C-15.82424288 28.80977082 -17.41508603 27.16982793 -19 24 C-19.67747464 16.54777901 -18.10504936 9.37915776 -13.71484375 3.1875 C-9.70342244 -0.74570418 -5.23782268 -0.87941303 0 0 Z " fill="#1A1A1A" transform="translate(234,360)"/>
<path d="M0 0 C3.81883489 1.77303048 5.49439614 3.29867851 7.9375 6.6875 C9.35330783 11.10148913 9.29639272 14.55408876 8 19 C6.13484541 22.49995145 3.78662733 24.58880844 0.25 26.4375 C-4.64172761 27.28414516 -9.37792902 27.44186069 -13.83984375 24.98828125 C-17.11951605 22.44633475 -19.17041036 20.05577158 -20 16 C-20.05857513 11.41440426 -19.61765628 8.00102915 -17.1875 4.0625 C-12.0793824 -0.75372516 -6.7574398 -0.78347128 0 0 Z " fill="#175EA4" transform="translate(82,216)"/>
<path d="M0 0 C6.33333333 0 12.66666667 0 19 0 C20.02480469 -0.05220703 20.02480469 -0.05220703 21.0703125 -0.10546875 C23.04561402 -0.1843306 25.02543505 -0.09554347 27 0 C29.52709825 3.79064738 29.47756345 6.61887445 29 11 C28.14405858 15.04222046 27.11390887 19.02175402 26 23 C24.02 23 22.04 23 20 23 C19.72439786 16.79895188 20.77100654 11.06815522 22 5 C20.68 5.33 19.36 5.66 18 6 C16.68 11.61 15.36 17.22 14 23 C11.69 23 9.38 23 7 23 C7.99 17.06 8.98 11.12 10 5 C8.35 5.66 6.7 6.32 5 7 C4.12182083 9.83534981 3.58086283 12.22363595 3.1875 15.125 C3.06697266 15.87910156 2.94644531 16.63320313 2.82226562 17.41015625 C2.52793167 19.27034685 2.26128668 21.13488048 2 23 C-0.31 23 -2.62 23 -5 23 C-4.35901851 19.54074898 -3.71139409 16.08277476 -3.0625 12.625 C-2.88009766 11.64015625 -2.69769531 10.6553125 -2.50976562 9.640625 C-2.33251953 8.69960938 -2.15527344 7.75859375 -1.97265625 6.7890625 C-1.72914429 5.48509521 -1.72914429 5.48509521 -1.48071289 4.15478516 C-1 2 -1 2 0 0 Z " fill="#1C1C1C" transform="translate(30,368)"/>
<path d="M0 0 C2.43868168 -0.1079859 4.87259133 -0.18726589 7.3125 -0.25 C8.00279297 -0.28351563 8.69308594 -0.31703125 9.40429688 -0.3515625 C12.61640976 -0.41363231 14.48557793 -0.44973427 16.95703125 1.7109375 C18.7982423 5.75194753 18.51478129 9.65524595 18 14 C16.6875 17.4375 16.6875 17.4375 15 20 C14.608125 20.61875 14.21625 21.2375 13.8125 21.875 C10.68415535 23.81673116 7.61630411 23.22960661 4 23 C3.34 22.67 2.68 22.34 2 22 C1.67 25.3 1.34 28.6 1 32 C-1.31 32 -3.62 32 -6 32 C-4.52821565 21.21336993 -2.31277928 10.63204844 0 0 Z " fill="#1A1A1A" transform="translate(66,368)"/>
<path d="M0 0 C2.31 0 4.62 0 7 0 C6.21547376 4.37631153 5.42112504 8.75078487 4.625 13.125 C4.29242188 14.98125 4.29242188 14.98125 3.953125 16.875 C3.73398437 18.07382812 3.51484375 19.27265625 3.2890625 20.5078125 C3.09006348 21.60754395 2.89106445 22.70727539 2.68603516 23.84033203 C2.00152662 26.99296887 1.07694528 29.96133284 0 33 C-2.33333333 33 -4.66666667 33 -7 33 C-8.134375 33.061875 -9.26875 33.12375 -10.4375 33.1875 C-14 33 -14 33 -15.6953125 31.8515625 C-18.46119068 27.92633418 -17.56112788 22.56746024 -17 18 C-15.65549428 14.68607746 -13.51925289 12.51925289 -11 10 C-8.31160615 9.73008094 -5.70858064 9.91262643 -3 10 C-1.87119943 6.68885166 -0.78697325 3.41021743 0 0 Z " fill="#171717" transform="translate(342,358)"/>
<path d="M0 0 C6.6 0 13.2 0 20 0 C20 1.65 20 3.3 20 5 C15.38 5 10.76 5 6 5 C5.67 7.31 5.34 9.62 5 12 C8.63 12 12.26 12 16 12 C15.67 13.98 15.34 15.96 15 18 C11.04 18 7.08 18 3 18 C2.67 20.64 2.34 23.28 2 26 C6.29 26 10.58 26 15 26 C14.67 27.65 14.34 29.3 14 31 C7.4 31 0.8 31 -6 31 C-5.3787249 27.33266735 -4.75310343 23.66616401 -4.125 20 C-3.95097656 18.97003906 -3.77695312 17.94007813 -3.59765625 16.87890625 C-3.42363281 15.86699219 -3.24960937 14.85507812 -3.0703125 13.8125 C-2.91320801 12.89082031 -2.75610352 11.96914063 -2.59423828 11.01953125 C-1.86557801 7.31695513 -0.91523111 3.66092443 0 0 Z " fill="#1F1F1F" transform="translate(6,360)"/>
<path d="M0 0 C1.98 0 3.96 0 6 0 C6.33 3.3 6.66 6.6 7 10 C8.65 6.7 10.3 3.4 12 0 C13.65 0 15.3 0 17 0 C17.33 3.63 17.66 7.26 18 11 C19.32 7.37 20.64 3.74 22 0 C23.98 0 25.96 0 28 0 C27.33673121 5.1692853 25.08075343 9.62251365 22.9375 14.3125 C22.56044922 15.14845703 22.18339844 15.98441406 21.79492188 16.84570312 C20.86788193 18.89927262 19.93613122 20.95056287 19 23 C17.02 23 15.04 23 13 23 C13 19.04 13 15.08 13 11 C12.34 11 11.68 11 11 11 C10.87625 12.0209375 10.87625 12.0209375 10.75 13.0625 C9.77667472 16.8746907 8.04192545 19.64070329 6 23 C4.35 23 2.7 23 1 23 C0.24833087 15.30881404 -0.13690844 7.72772107 0 0 Z " fill="#161616" transform="translate(246,368)"/>
<path d="M0 0 C2.5625 1.4375 2.5625 1.4375 4 4 C4.9908358 9.96805747 3.92326775 14.77987902 1 20 C-0.9153555 22.2836931 -2.18863096 22.88024073 -5.1171875 23.3125 C-11.14909733 23.62892806 -11.14909733 23.62892806 -14.24609375 21.33984375 C-17.02053848 17.63852438 -16.60168479 14.40869381 -16.46484375 9.92578125 C-15.77023109 5.55380745 -14.28609118 3.89488985 -11 1 C-7.53177074 -0.73411463 -3.7920205 -0.45800603 0 0 Z " fill="#161616" transform="translate(118,368)"/>
<path d="M0 0 C2.5625 1.4375 2.5625 1.4375 4 4 C4.36108698 7.03737868 4.37573855 9.96329335 4 13 C3 14 3 14 0.27734375 14.09765625 C-1.37587891 14.08025391 -1.37587891 14.08025391 -3.0625 14.0625 C-4.71958984 14.04896484 -4.71958984 14.04896484 -6.41015625 14.03515625 C-7.26480469 14.02355469 -8.11945313 14.01195312 -9 14 C-8.67 14.99 -8.34 15.98 -8 17 C-5.03 17 -2.06 17 1 17 C0.125 21.875 0.125 21.875 -1 23 C-10.51989271 24.10147519 -10.51989271 24.10147519 -14.6875 21 C-16.94422103 15.84178049 -16.71474406 11.85833456 -14.75 6.75 C-10.68809038 0.36699917 -7.55059335 -1.31615847 0 0 Z " fill="#1E1E1E" transform="translate(317,368)"/>
<path d="M0 0 C5 0 5 0 7.75390625 2.66796875 C8.70522285 3.82891997 9.641014 5.00273228 10.5625 6.1875 C11.03107422 6.76564453 11.49964844 7.34378906 11.98242188 7.93945312 C13.33631268 9.61524804 14.66846682 11.30641001 16 13 C17.32 14.65 18.64 16.3 20 18 C20.33 12.06 20.66 6.12 21 0 C22.32 0 23.64 0 25 0 C25 8.58 25 17.16 25 26 C20 26 20 26 17.2109375 23.296875 C16.25049885 22.12683786 15.30558908 20.94391511 14.375 19.75 C13.89804688 19.16347656 13.42109375 18.57695312 12.9296875 17.97265625 C10.54909247 15.02997628 8.27188956 12.02918608 6 9 C5.67 14.61 5.34 20.22 5 26 C3.35 26 1.7 26 0 26 C0 17.42 0 8.84 0 0 Z " fill="#145CA3" transform="translate(94,216)"/>
<path d="M0 0 C2.625 1.9375 2.625 1.9375 4 5 C4.01051214 8.14312909 3.55889877 10.87948186 3 14 C-0.96 14 -4.92 14 -9 14 C-8.67 14.99 -8.34 15.98 -8 17 C-5.03 17 -2.06 17 1 17 C0.67 18.65 0.34 20.3 0 22 C-2.76047543 22.92015848 -4.63362269 23.19267245 -7.5 23.25 C-8.2734375 23.27578125 -9.046875 23.3015625 -9.84375 23.328125 C-12.54631614 22.91686494 -13.35576978 22.14551992 -15 20 C-16.46156345 15.61530965 -16.91773053 11.33521532 -15.2109375 6.9921875 C-11.50469219 0.2304117 -7.31857612 -1.23954262 0 0 Z " fill="#1D1D1D" transform="translate(165,368)"/>
<path d="M0 0 C0.7734375 -0.01675781 1.546875 -0.03351563 2.34375 -0.05078125 C4.5 0.3125 4.5 0.3125 6.265625 1.51171875 C7.91991303 3.92509464 7.83457426 5.53660283 7.75 8.4375 C7.72679687 9.77167969 7.72679687 9.77167969 7.703125 11.1328125 C7.5 13.3125 7.5 13.3125 6.5 14.3125 C4.48035801 14.38494053 2.45832876 14.39627188 0.4375 14.375 C-1.21958984 14.36146484 -1.21958984 14.36146484 -2.91015625 14.34765625 C-3.76480469 14.33605469 -4.61945313 14.32445312 -5.5 14.3125 C-5.17 15.3025 -4.84 16.2925 -4.5 17.3125 C-1.53 17.3125 1.44 17.3125 4.5 17.3125 C4.83 18.6325 5.16 19.9525 5.5 21.3125 C1.17189857 23.77164854 -2.61651269 23.98453954 -7.5 23.3125 C-10.0625 22 -10.0625 22 -11.5 19.3125 C-12.30257918 13.89720261 -12.18798566 9.66474768 -9.6875 4.75 C-6.59333682 1.30221817 -4.56343006 0.02281715 0 0 Z " fill="#191919" transform="translate(184.5,367.6875)"/>
<path d="M0 0 C1.98 0 3.96 0 6 0 C6.66 3.3 7.32 6.6 8 10 C9.65 6.7 11.3 3.4 13 0 C15.31 0 17.62 0 20 0 C18.30553342 6.17120544 15.18091024 11.54814703 12.125 17.125 C11.59519531 18.11371094 11.06539062 19.10242188 10.51953125 20.12109375 C10.00003906 21.07371094 9.48054687 22.02632813 8.9453125 23.0078125 C8.47625488 23.87035645 8.00719727 24.73290039 7.52392578 25.62158203 C5.89593946 28.16240913 4.32230556 30.07036816 2 32 C-1.75 32.25 -1.75 32.25 -5 32 C-4.67 30.35 -4.34 28.7 -4 27 C-2.35 26.67 -0.7 26.34 1 26 C1.09311074 20.1857515 0.99795039 14.73821473 0 9 C-0.08449587 5.99791156 -0.06004802 3.00240116 0 0 Z " fill="#181818" transform="translate(128,368)"/>
<path d="M0 0 C2.66666667 0 5.33333333 0 8 0 C8.928125 -0.03480469 8.928125 -0.03480469 9.875 -0.0703125 C10.57625 -0.08835937 11.2775 -0.10640625 12 -0.125 C12.70125 -0.14820313 13.4025 -0.17140625 14.125 -0.1953125 C16 0 16 0 18 2 C18.68740765 9.28652107 16.79981126 15.97216554 15 23 C13.02 23 11.04 23 9 23 C8.76731085 16.71739294 9.59545452 11.11980533 11 5 C9.35 5.33 7.7 5.66 6 6 C4.68 11.61 3.36 17.22 2 23 C0.02 23 -1.96 23 -4 23 C-3.54593375 15.04601192 -2.12888539 7.67202093 0 0 Z " fill="#1B1B1B" transform="translate(279,368)"/>
<path d="M0 0 C5 0 5 0 6.52978516 1.22167969 C6.94534668 1.78274414 7.3609082 2.34380859 7.7890625 2.921875 C8.25570312 3.53546875 8.72234375 4.1490625 9.203125 4.78125 C9.90695313 5.75578125 9.90695313 5.75578125 10.625 6.75 C11.34042969 7.70132813 11.34042969 7.70132813 12.0703125 8.671875 C13.39472493 10.43775825 14.69764426 12.21782898 16 14 C16.99 15.32 17.98 16.64 19 18 C19.33 12.06 19.66 6.12 20 0 C21.32 0 22.64 0 24 0 C24 8.58 24 17.16 24 26 C19 26 19 26 17.47021484 24.77832031 C17.05465332 24.21725586 16.6390918 23.65619141 16.2109375 23.078125 C15.74429687 22.46453125 15.27765625 21.8509375 14.796875 21.21875 C14.32765625 20.5690625 13.8584375 19.919375 13.375 19.25 C12.89804688 18.61578125 12.42109375 17.9815625 11.9296875 17.328125 C10.60527507 15.56224175 9.30235574 13.78217102 8 12 C7.01 10.68 6.02 9.36 5 8 C4.67 13.94 4.34 19.88 4 26 C2.68 26 1.36 26 0 26 C0 17.42 0 8.84 0 0 Z " fill="#0E58A0" transform="translate(242,216)"/>
<path d="M0 0 C1.65 0 3.3 0 5 0 C6.27339482 2.51956743 7.54376642 5.04058649 8.8125 7.5625 C9.16892578 8.26697266 9.52535156 8.97144531 9.89257812 9.69726562 C16 21.85607798 16 21.85607798 16 26 C13.625 25.8125 13.625 25.8125 11 25 C10.34 23.35 9.68 21.7 9 20 C4.71 19.67 0.42 19.34 -4 19 C-4.33 20.65 -4.66 22.3 -5 24 C-5.33 24.66 -5.66 25.32 -6 26 C-7.65 26 -9.3 26 -11 26 C-7.40048559 17.30382802 -3.72126427 8.64458641 0 0 Z " fill="#145CA3" transform="translate(223,216)"/>
<path d="M0 0 C3.20879247 2.03005238 4.62927537 3.42299447 5.5078125 7.16015625 C5.85189424 11.64069887 5.3836246 13.5081736 2.5625 17.125 C-0.201927 19.02267079 -2.30459557 19.2765426 -5.625 19.0625 C-8.41023068 18.54114991 -10.08833707 17.94829049 -12.5625 16.5 C-14.75264921 12.69104485 -14.85243291 9.27738658 -14 5 C-10.50663347 -0.5217729 -6.10406345 -1.33560882 0 0 Z " fill="#FBFCFD" transform="translate(81,220)"/>
<path d="M0 0 C3.53786617 1.43020122 4.63735151 2.25743404 6.3125 5.6875 C6.6528125 6.8321875 6.6528125 6.8321875 7 8 C4.525 7.505 4.525 7.505 2 7 C2 6.34 2 5.68 2 5 C-1.3 5 -4.6 5 -8 5 C-8.33 6.32 -8.66 7.64 -9 9 C-8.19175781 9.17015625 -7.38351563 9.3403125 -6.55078125 9.515625 C4.06326889 11.92267135 4.06326889 11.92267135 8 16 C7.70583122 19.23585657 7.28903335 21.53503331 5.5625 24.3125 C1.61417924 26.91261367 -2.32946606 27.19890287 -7 27 C-11.14877262 25.51829549 -12.55257875 24.67113187 -15 21 C-15 19.68 -15 18.36 -15 17 C-13.68 17 -12.36 17 -11 17 C-10.71125 17.639375 -10.4225 18.27875 -10.125 18.9375 C-9.17176549 21.15206079 -9.17176549 21.15206079 -7 22 C-5.45386986 21.91348369 -3.91090613 21.75997364 -2.375 21.5625 C-1.14910156 21.40974609 -1.14910156 21.40974609 0.1015625 21.25390625 C1.04128906 21.12822266 1.04128906 21.12822266 2 21 C2 19.68 2 18.36 2 17 C1.18015625 16.81824219 0.3603125 16.63648438 -0.484375 16.44921875 C-1.56203125 16.19785156 -2.6396875 15.94648438 -3.75 15.6875 C-4.81734375 15.44386719 -5.8846875 15.20023438 -6.984375 14.94921875 C-9.97230049 14.00871889 -11.77031677 13.18201779 -14 11 C-14.5625 7.5625 -14.5625 7.5625 -14 4 C-10.21304055 -0.76423931 -5.65846244 -0.84209423 0 0 Z " fill="#135BA2" transform="translate(137,216)"/>
<path d="M0 0 C3.29833752 1.26269093 3.95374069 1.93061104 6 5 C6 5.99 6 6.98 6 8 C4.68 8 3.36 8 2 8 C1.5875 7.505 1.175 7.01 0.75 6.5 C-2.15782946 4.00757475 -5.27815331 4.81695836 -9 5 C-9.33 6.32 -9.66 7.64 -10 9 C-8.66195313 9.25523437 -8.66195313 9.25523437 -7.296875 9.515625 C-6.12640625 9.75796875 -4.9559375 10.0003125 -3.75 10.25 C-2.00976562 10.59804687 -2.00976562 10.59804687 -0.234375 10.953125 C3.26682887 12.0863649 4.81092788 13.06859401 7 16 C7 19.5625 7 19.5625 6 23 C1.91809192 26.85513541 -2.56706558 27.15424735 -8 27 C-12.14877262 25.51829549 -13.55257875 24.67113187 -16 21 C-16 19.68 -16 18.36 -16 17 C-14.68 17 -13.36 17 -12 17 C-11.71125 17.639375 -11.4225 18.27875 -11.125 18.9375 C-10.17176549 21.15206079 -10.17176549 21.15206079 -8 22 C-6.62657169 22.0689472 -5.24997898 22.08467708 -3.875 22.0625 C-2.59625 22.041875 -1.3175 22.02125 0 22 C0.66 20.68 1.32 19.36 2 18 C-1.00040163 16.68732429 -3.87045696 15.79324079 -7.0625 15.125 C-10.72083583 14.22597607 -12.83854911 13.24217634 -15 10 C-15.5625 7 -15.5625 7 -15 4 C-11.07980635 -0.96557862 -5.8617651 -0.81969398 0 0 Z " fill="#135BA3" transform="translate(308,216)"/>
<path d="M0 0 C1.65 0 3.3 0 5 0 C5.01981934 0.59538574 5.03963867 1.19077148 5.06005859 1.80419922 C5.15516126 4.49492153 5.26489842 7.18485148 5.375 9.875 C5.4059375 10.81214844 5.436875 11.74929687 5.46875 12.71484375 C5.50742188 13.61074219 5.54609375 14.50664062 5.5859375 15.4296875 C5.6173584 16.25710449 5.6487793 17.08452148 5.68115234 17.93701172 C5.82599137 20.21986085 5.82599137 20.21986085 8 22 C9.91006306 22.3176246 9.91006306 22.3176246 12 22.25 C12.70125 22.25515625 13.4025 22.2603125 14.125 22.265625 C16.2435669 22.15705515 16.2435669 22.15705515 18 20 C18.36952049 17.87139338 18.36952049 17.87139338 18.4140625 15.4296875 C18.45273438 14.53378906 18.49140625 13.63789063 18.53125 12.71484375 C18.5621875 11.77769531 18.593125 10.84054688 18.625 9.875 C18.66367188 8.93011719 18.70234375 7.98523438 18.7421875 7.01171875 C18.83661346 4.67467625 18.92218394 2.33764499 19 0 C20.65 0 22.3 0 24 0 C24.10845027 3.04263267 24.18752063 6.08136204 24.25 9.125 C24.30027344 10.40890625 24.30027344 10.40890625 24.3515625 11.71875 C24.4402681 17.48461373 23.80155181 20.59301586 20 25 C17.18792765 26.40603618 14.75990534 26.24557505 11.625 26.3125 C10.48289063 26.34988281 9.34078125 26.38726562 8.1640625 26.42578125 C5 26 5 26 2.6484375 24.16796875 C0.22002836 20.97420791 -0.12376239 18.44059594 -0.09765625 14.55078125 C-0.09443359 13.70322266 -0.09121094 12.85566406 -0.08789062 11.98242188 C-0.07951172 11.10134766 -0.07113281 10.22027344 -0.0625 9.3125 C-0.05798828 8.41982422 -0.05347656 7.52714844 -0.04882812 6.60742188 C-0.03704983 4.40488013 -0.02060164 2.20247401 0 0 Z " fill="#2065A9" transform="translate(147,216)"/>
<path d="M0 0 C3.85544798 1.99657127 5.59805092 3.39707638 8 7 C8 7.99 8 8.98 8 10 C5.6875 10.3125 5.6875 10.3125 3 10 C2.5875 9.175 2.175 8.35 1.75 7.5 C0.29509911 4.82832945 0.29509911 4.82832945 -2.04296875 4.52734375 C-5.80626798 4.38614329 -8.27994279 4.5785031 -11.5625 6.5 C-13.60605335 10.05400583 -13.64937348 12.9969002 -13 17 C-12.18547684 19.55851025 -12.18547684 19.55851025 -10 21 C-7.26902301 21.95761531 -4.88257418 22.35678227 -2 22 C0.72926391 19.68743506 0.72926391 19.68743506 3 17 C5.8125 16.1875 5.8125 16.1875 8 16 C7.42141121 19.9054743 5.73020952 22.19600103 3 25 C-1.71762875 27.35881438 -6.00114358 27.42235502 -11 26 C-14.94581394 23.59820021 -16.90062301 21.49745133 -18 17 C-18.43880364 12.69815721 -18.4772418 9.1554275 -16.8125 5.125 C-12.10883398 -0.38964292 -6.94519141 -1.02233218 0 0 Z " fill="#145CA3" transform="translate(52,216)"/>
<path d="M0 0 C2.57232706 2.57232706 2.29786466 3.67897692 2.3125 7.25 C2.21510067 12.96659125 1.12181575 16.87818425 -3 21 C-5.5 21.25 -5.5 21.25 -8 21 C-10 19 -10 19 -10.265625 17.08203125 C-10.22636704 11.37981299 -9.99364473 5.94299936 -6.6875 1.0625 C-4.33452156 -0.41900494 -2.72464997 -0.3493141 0 0 Z " fill="#FAFAFA" transform="translate(232,365)"/>
<path d="M0 0 C7.59 0 15.18 0 23 0 C23 1.32 23 2.64 23 4 C20.03 4 17.06 4 14 4 C14 11.26 14 18.52 14 26 C12.35 26 10.7 26 9 26 C9 18.74 9 11.48 9 4 C6.03 4 3.06 4 0 4 C0 2.68 0 1.36 0 0 Z " fill="#2065A9" transform="translate(269,216)"/>
<path d="M0 0 C7.59 0 15.18 0 23 0 C23 1.32 23 2.64 23 4 C20.03 4 17.06 4 14 4 C14 11.26 14 18.52 14 26 C12.35 26 10.7 26 9 26 C9 18.74 9 11.48 9 4 C6.03 4 3.06 4 0 4 C0 2.68 0 1.36 0 0 Z " fill="#1F65A9" transform="translate(191,216)"/>
<path d="M0 0 C1.98 0 3.96 0 6 0 C5.85377197 0.78648926 5.70754395 1.57297852 5.55688477 2.38330078 C4.89151977 5.96376152 4.22700176 9.54437896 3.5625 13.125 C3.33240234 14.3625 3.10230469 15.6 2.86523438 16.875 C2.64287109 18.07382812 2.42050781 19.27265625 2.19140625 20.5078125 C1.98717041 21.60754395 1.78293457 22.70727539 1.57250977 23.84033203 C1.02004744 26.88935866 0.50157102 29.94222968 0 33 C-1.98 33 -3.96 33 -6 33 C-5.44890325 25.45614428 -4.11104653 18.2442301 -2.4375 10.875 C-2.20353516 9.823125 -1.96957031 8.77125 -1.72851562 7.6875 C-1.15750875 5.12379565 -0.58126181 2.56139504 0 0 Z " fill="#0F0F0F" transform="translate(94,358)"/>
<path d="M0 0 C1.65 0 3.3 0 5 0 C5 7.26 5 14.52 5 22 C9.95 22 14.9 22 20 22 C20 23.32 20 24.64 20 26 C13.4 26 6.8 26 0 26 C0 17.42 0 8.84 0 0 Z " fill="#276AAD" transform="translate(175,216)"/>
<path d="M0 0 C2.875 -0.125 2.875 -0.125 6 0 C6.66 0.66 7.32 1.32 8 2 C7.53980469 2.65355469 7.07960938 3.30710937 6.60546875 3.98046875 C4.61899077 7.71659401 3.98981733 11.17087107 3.3125 15.3125 C3.18294922 16.05306641 3.05339844 16.79363281 2.91992188 17.55664062 C2.6041294 19.36952334 2.30079417 21.18456851 2 23 C-0.31 23 -2.62 23 -5 23 C-4.35901851 19.54074898 -3.71139409 16.08277476 -3.0625 12.625 C-2.88009766 11.64015625 -2.69769531 10.6553125 -2.50976562 9.640625 C-2.33251953 8.69960938 -2.15527344 7.75859375 -1.97265625 6.7890625 C-1.72914429 5.48509521 -1.72914429 5.48509521 -1.48071289 4.15478516 C-1 2 -1 2 0 0 Z " fill="#161616" transform="translate(30,368)"/>
<path d="M0 0 C1.65 0.33 3.3 0.66 5 1 C5.2954439 6.02254631 4.98514628 8.89542386 2 13 C0.35 12.67 -1.3 12.34 -3 12 C-3.2954439 6.97745369 -2.98514628 4.10457614 0 0 Z " fill="#F5F5F5" transform="translate(111,373)"/>
<path d="M0 0 C2.625 0.375 2.625 0.375 5 1 C5.28730852 5.88424492 5.32472595 9.21669117 2 13 C-0.61328125 13.12890625 -0.61328125 13.12890625 -3 13 C-2.88610125 11.20759337 -2.75852313 9.41605165 -2.625 7.625 C-2.55539063 6.62726563 -2.48578125 5.62953125 -2.4140625 4.6015625 C-2 2 -2 2 0 0 Z " fill="#F0F0F0" transform="translate(73,373)"/>
<path d="M0 0 C0.763125 0.103125 1.52625 0.20625 2.3125 0.3125 C2.19740339 1.73000563 2.06996342 3.14651169 1.9375 4.5625 C1.86789062 5.35140625 1.79828125 6.1403125 1.7265625 6.953125 C1.29742887 9.398377 0.52649362 11.16086903 -0.6875 13.3125 C-2.3375 12.9825 -3.9875 12.6525 -5.6875 12.3125 C-6.36820652 0.74048913 -6.36820652 0.74048913 0 0 Z " fill="#F6F6F6" transform="translate(336.6875,372.6875)"/>
<path d="M0 0 C3.96 0 7.92 0 12 0 C11.67 1.65 11.34 3.3 11 5 C7.37 5 3.74 5 0 5 C0 3.35 0 1.7 0 0 Z " fill="#1E1E1E" transform="translate(198,375)"/>
<path d="M0 0 C2 1 2 1 2.8515625 3.06640625 C3.10679687 3.89011719 3.36203125 4.71382812 3.625 5.5625 C3.88539063 6.38878906 4.14578125 7.21507812 4.4140625 8.06640625 C4.60742188 8.70449219 4.80078125 9.34257812 5 10 C2.36 10 -0.28 10 -3 10 C-2.39009109 6.44219804 -1.4216319 3.3171411 0 0 Z " fill="#EBF2F8" transform="translate(225,221)"/>
<path d="M0 0 C1.65 0.33 3.3 0.66 5 1 C5 1.99 5 2.98 5 4 C3.02 4 1.04 4 -1 4 C-0.67 2.68 -0.34 1.36 0 0 Z " fill="#E9E9E9" transform="translate(310,373)"/>
<path d="M0 0 C1.32 0 2.64 0 4 0 C4 1.32 4 2.64 4 4 C2.02 4 0.04 4 -2 4 C-1.34 2.68 -0.68 1.36 0 0 Z " fill="#F5F5F5" transform="translate(182,373)"/>
<path d="M0 0 C1.32 0 2.64 0 4 0 C4 1.32 4 2.64 4 4 C2.02 4 0.04 4 -2 4 C-1.34 2.68 -0.68 1.36 0 0 Z " fill="#F3F3F3" transform="translate(158,373)"/>
</svg>
