<svg version="1.1" id="Layer_1" xmlns="http://www.w3.org/2000/svg" xmlns:xlink="http://www.w3.org/1999/xlink" x="0px" y="0px"
	 width="100%" viewBox="0 0 400 63" enable-background="new 0 0 400 63" xml:space="preserve">
<path fill="#014266" opacity="1.000000" stroke="none" 
	d="
M80.000000,1.000000 
	C186.933578,1.000000 293.867157,1.000000 400.900360,1.000000 
	C400.900360,21.920111 400.900360,42.840855 400.900360,64.000000 
	C294.312561,64.000000 187.624939,64.000000 80.470459,63.531345 
	C80.002396,42.375126 80.001198,21.687563 80.000000,1.000000 
M278.006409,38.494183 
	C278.006409,29.398848 278.006409,20.303513 278.006409,11.322959 
	C272.644287,11.322959 267.909576,11.322959 262.792969,11.322959 
	C262.792969,16.078300 262.792969,20.507751 262.792969,24.860279 
	C259.647949,24.860279 256.900269,24.860279 253.713776,24.860279 
	C253.713776,20.156296 253.713776,15.734885 253.713776,11.303579 
	C248.518066,11.303579 243.779755,11.303579 239.013855,11.303579 
	C239.013855,25.405499 239.013855,39.196571 239.013855,53.213387 
	C243.953613,53.213387 248.700943,53.213387 253.921188,53.213387 
	C253.921188,48.341896 253.921188,43.756039 253.921188,39.089554 
	C257.138153,39.089554 259.876709,39.089554 263.037445,39.089554 
	C263.037445,43.910587 263.037445,48.500645 263.037445,53.234089 
	C268.224426,53.234089 272.981323,53.234089 278.006409,53.234089 
	C278.006409,48.465946 278.006409,43.978535 278.006409,38.494183 
M107.013916,52.075279 
	C107.013916,47.428764 107.013916,42.782253 107.013916,36.734547 
	C110.089119,42.048843 112.445648,46.353134 115.058945,50.495438 
	C115.839508,51.732681 117.288971,53.294163 118.517090,53.372498 
	C123.594360,53.696354 128.704285,53.508282 134.820496,53.508282 
	C129.611542,45.674786 124.965210,38.687378 120.332253,31.720093 
	C124.683266,24.831478 128.888550,18.173582 133.424316,10.992470 
	C128.255951,10.992470 123.920303,10.712607 119.652985,11.130445 
	C117.950050,11.297189 115.832237,12.633817 114.884224,14.080636 
	C112.137657,18.272335 109.888626,22.790041 106.787552,28.359339 
	C106.787552,21.665911 106.787552,16.504211 106.787552,11.223427 
	C101.862259,11.223427 97.121292,11.223427 92.253548,11.223427 
	C92.253548,25.338675 92.253548,39.221619 92.253548,53.727787 
	C97.284874,53.462975 102.034477,53.212990 107.013916,52.075279 
M287.986115,34.499374 
	C287.986115,40.740147 287.986115,46.980923 287.986115,53.155060 
	C298.050323,53.155060 307.427490,53.155060 316.698364,53.155060 
	C316.698364,49.186436 316.698364,45.599773 316.698364,41.812992 
	C313.734680,41.812992 311.085236,41.825077 308.435913,41.810299 
	C303.901062,41.785000 303.901093,41.777946 304.687805,37.723438 
	C308.070770,37.723438 311.520325,37.723438 315.149323,37.723438 
	C315.149323,33.868263 315.149323,30.331898 315.149323,26.463682 
	C312.127045,26.463682 309.471069,26.617207 306.848846,26.386658 
	C305.827728,26.296879 304.882690,25.341576 303.903015,24.780514 
	C304.949158,24.138321 305.955017,23.038469 307.049164,22.942240 
	C309.989563,22.683638 312.967712,22.853939 316.229065,22.853939 
	C316.229065,18.718039 316.229065,14.984301 316.229065,11.290859 
	C306.702393,11.290859 297.464050,11.290859 287.986115,11.290859 
	C287.986115,18.895523 287.986115,26.197624 287.986115,34.499374 
M198.793289,43.519291 
	C205.356216,53.615639 215.443695,56.720589 228.513062,52.373478 
	C228.513062,47.475311 228.513062,42.420425 228.513062,37.401306 
	C221.077042,41.117390 216.906570,41.205170 213.733978,37.473419 
	C211.170334,34.457951 210.822861,30.924129 213.161926,27.822264 
	C218.107437,21.263956 223.577026,24.810127 228.483948,27.718418 
	C228.483948,22.389921 228.483948,17.292923 228.483948,12.395800 
	C218.434692,8.493148 208.463943,10.186660 202.204117,17.002819 
	C195.155869,24.677425 194.155685,33.456230 198.793289,43.519291 
M160.986893,22.323254 
	C161.814270,28.290197 167.122116,22.657192 169.680206,26.503052 
	C169.680206,34.711063 169.680206,43.947849 169.680206,53.136734 
	C175.078400,53.136734 179.949417,53.136734 185.216156,53.136734 
	C185.216156,43.481270 185.216156,34.216099 185.216156,24.819622 
	C188.094223,24.819622 190.562164,24.819622 193.279816,24.819622 
	C193.279816,20.233725 193.279816,15.812418 193.279816,11.233097 
	C182.472275,11.233097 171.907959,11.233097 160.985962,11.233097 
	C160.985962,14.765567 160.985962,18.061386 160.986893,22.323254 
M378.017303,18.563147 
	C378.017303,16.129591 378.017303,13.696036 378.017303,11.305952 
	C372.564514,11.305952 367.681641,11.305952 362.859131,11.305952 
	C362.859131,25.501062 362.859131,39.369057 362.859131,53.309521 
	C372.358521,53.309521 381.458313,53.309521 390.680115,53.309521 
	C390.680115,48.701473 390.680115,44.326557 390.680115,39.658875 
	C386.395905,39.658875 382.448486,39.658875 378.017303,39.658875 
	C378.017303,32.760590 378.017303,26.153238 378.017303,18.563147 
M344.456055,53.515392 
	C347.895447,53.515392 351.334869,53.515392 354.716431,53.515392 
	C354.716431,48.599968 354.716431,44.334976 354.716431,39.665291 
	C350.503540,39.665291 346.571991,39.665291 342.050110,39.665291 
	C342.050110,29.899799 342.050110,20.526810 342.050110,11.262781 
	C336.669067,11.262781 331.904053,11.262781 327.180237,11.262781 
	C327.180237,25.414488 327.180237,39.294586 327.180237,53.515347 
	C332.843140,53.515347 338.156067,53.515347 344.456055,53.515392 
M139.142654,14.732514 
	C139.142654,27.487362 139.142654,40.242210 139.142654,53.085384 
	C144.648300,53.085384 149.653809,53.085384 154.600723,53.085384 
	C154.600723,38.889923 154.600723,25.149929 154.600723,10.989270 
	C150.069214,10.989270 145.774155,10.841559 141.506165,11.115476 
	C140.665314,11.169439 139.928818,12.849126 139.142654,14.732514 
z"/>
<path fill="#014266" opacity="1.000000" stroke="none" 
	d="
M66.000000,64.000000 
	C44.382549,64.000000 22.765100,64.000000 1.073825,64.000000 
	C1.073825,43.097126 1.073825,22.193947 1.073825,1.000000 
	C22.353348,1.000000 43.708015,1.000000 65.529770,1.468655 
	C65.997902,22.624874 65.998955,43.312435 66.000000,64.000000 
M53.172020,11.184036 
	C39.454067,11.184036 25.736113,11.184036 12.056200,11.184036 
	C12.056200,25.529137 12.056200,39.428513 12.056200,53.625221 
	C26.020435,53.625221 39.754051,53.625221 54.062782,53.304356 
	C54.240349,45.582527 54.555340,37.860645 54.552223,30.138891 
	C54.549706,23.902798 54.163609,17.666859 53.172020,11.184036 
z"/>
<path fill="#000000" opacity="1.000000" stroke="none" 
	d="
M66.464645,64.000000 
	C65.998955,43.312435 65.997902,22.624874 65.998428,1.468655 
	C70.356903,1.000000 74.713799,1.000000 79.535355,1.000000 
	C80.001198,21.687563 80.002396,42.375126 80.001801,63.531345 
	C75.643097,64.000000 71.286201,64.000000 66.464645,64.000000 
z"/>
<path fill="#FAFCFC" opacity="1.000000" stroke="none" 
	d="
M278.006409,38.992653 
	C278.006409,43.978535 278.006409,48.465946 278.006409,53.234089 
	C272.981323,53.234089 268.224426,53.234089 263.037445,53.234089 
	C263.037445,48.500645 263.037445,43.910587 263.037445,39.089554 
	C259.876709,39.089554 257.138153,39.089554 253.921188,39.089554 
	C253.921188,43.756039 253.921188,48.341896 253.921188,53.213387 
	C248.700943,53.213387 243.953613,53.213387 239.013855,53.213387 
	C239.013855,39.196571 239.013855,25.405499 239.013855,11.303579 
	C243.779755,11.303579 248.518066,11.303579 253.713776,11.303579 
	C253.713776,15.734885 253.713776,20.156296 253.713776,24.860279 
	C256.900269,24.860279 259.647949,24.860279 262.792969,24.860279 
	C262.792969,20.507751 262.792969,16.078300 262.792969,11.322959 
	C267.909576,11.322959 272.644287,11.322959 278.006409,11.322959 
	C278.006409,20.303513 278.006409,29.398848 278.006409,38.992653 
z"/>
<path fill="#FAFBFC" opacity="1.000000" stroke="none" 
	d="
M106.899002,52.519142 
	C102.034477,53.212990 97.284874,53.462975 92.253548,53.727787 
	C92.253548,39.221619 92.253548,25.338675 92.253548,11.223427 
	C97.121292,11.223427 101.862259,11.223427 106.787552,11.223427 
	C106.787552,16.504211 106.787552,21.665911 106.787552,28.359339 
	C109.888626,22.790041 112.137657,18.272335 114.884224,14.080636 
	C115.832237,12.633817 117.950050,11.297189 119.652985,11.130445 
	C123.920303,10.712607 128.255951,10.992470 133.424316,10.992470 
	C128.888550,18.173582 124.683266,24.831478 120.332253,31.720093 
	C124.965210,38.687378 129.611542,45.674786 134.820496,53.508282 
	C128.704285,53.508282 123.594360,53.696354 118.517090,53.372498 
	C117.288971,53.294163 115.839508,51.732681 115.058945,50.495438 
	C112.445648,46.353134 110.089119,42.048843 107.013916,36.734547 
	C107.013916,42.782253 107.013916,47.428764 106.899002,52.519142 
z"/>
<path fill="#F6F9FA" opacity="1.000000" stroke="none" 
	d="
M287.986115,33.999550 
	C287.986115,26.197624 287.986115,18.895523 287.986115,11.290859 
	C297.464050,11.290859 306.702393,11.290859 316.229065,11.290859 
	C316.229065,14.984301 316.229065,18.718039 316.229065,22.853939 
	C312.967712,22.853939 309.989563,22.683638 307.049164,22.942240 
	C305.955017,23.038469 304.949158,24.138321 303.903015,24.780518 
	C304.882690,25.341576 305.827728,26.296879 306.848846,26.386658 
	C309.471069,26.617207 312.127045,26.463682 315.149323,26.463682 
	C315.149323,30.331898 315.149323,33.868263 315.149323,37.723438 
	C311.520325,37.723438 308.070770,37.723438 304.687805,37.723438 
	C303.901093,41.777946 303.901062,41.785000 308.435913,41.810299 
	C311.085236,41.825077 313.734680,41.812992 316.698364,41.812992 
	C316.698364,45.599773 316.698364,49.186436 316.698364,53.155060 
	C307.427490,53.155060 298.050323,53.155060 287.986115,53.155060 
	C287.986115,46.980923 287.986115,40.740147 287.986115,33.999550 
z"/>
<path fill="#F9FAFB" opacity="1.000000" stroke="none" 
	d="
M198.561768,43.214546 
	C194.155685,33.456230 195.155869,24.677425 202.204117,17.002819 
	C208.463943,10.186660 218.434692,8.493148 228.483948,12.395800 
	C228.483948,17.292923 228.483948,22.389921 228.483948,27.718418 
	C223.577026,24.810127 218.107437,21.263956 213.161926,27.822264 
	C210.822861,30.924129 211.170334,34.457951 213.733978,37.473419 
	C216.906570,41.205170 221.077042,41.117390 228.513062,37.401306 
	C228.513062,42.420425 228.513062,47.475311 228.513062,52.373478 
	C215.443695,56.720589 205.356216,53.615639 198.561768,43.214546 
z"/>
<path fill="#F6F9FA" opacity="1.000000" stroke="none" 
	d="
M160.986420,21.840229 
	C160.985962,18.061386 160.985962,14.765567 160.985962,11.233097 
	C171.907959,11.233097 182.472275,11.233097 193.279816,11.233097 
	C193.279816,15.812418 193.279816,20.233725 193.279816,24.819622 
	C190.562164,24.819622 188.094223,24.819622 185.216156,24.819622 
	C185.216156,34.216099 185.216156,43.481270 185.216156,53.136734 
	C179.949417,53.136734 175.078400,53.136734 169.680206,53.136734 
	C169.680206,43.947849 169.680206,34.711063 169.680206,26.503052 
	C167.122116,22.657192 161.814270,28.290197 160.986420,21.840229 
z"/>
<path fill="#F5F7F9" opacity="1.000000" stroke="none" 
	d="
M378.017303,19.054516 
	C378.017303,26.153238 378.017303,32.760590 378.017303,39.658875 
	C382.448486,39.658875 386.395905,39.658875 390.680115,39.658875 
	C390.680115,44.326557 390.680115,48.701473 390.680115,53.309521 
	C381.458313,53.309521 372.358521,53.309521 362.859131,53.309521 
	C362.859131,39.369057 362.859131,25.501062 362.859131,11.305952 
	C367.681641,11.305952 372.564514,11.305952 378.017303,11.305952 
	C378.017303,13.696036 378.017303,16.129591 378.017303,19.054516 
z"/>
<path fill="#FBFCFC" opacity="1.000000" stroke="none" 
	d="
M343.962524,53.515369 
	C338.156067,53.515347 332.843140,53.515347 327.180237,53.515347 
	C327.180237,39.294586 327.180237,25.414488 327.180237,11.262781 
	C331.904053,11.262781 336.669067,11.262781 342.050110,11.262781 
	C342.050110,20.526810 342.050110,29.899799 342.050110,39.665291 
	C346.571991,39.665291 350.503540,39.665291 354.716431,39.665291 
	C354.716431,44.334976 354.716431,48.599968 354.716431,53.515392 
	C351.334869,53.515392 347.895447,53.515392 343.962524,53.515369 
z"/>
<path fill="#F5F7F9" opacity="1.000000" stroke="none" 
	d="
M139.143433,14.255784 
	C139.928818,12.849126 140.665314,11.169439 141.506165,11.115476 
	C145.774155,10.841559 150.069214,10.989270 154.600723,10.989270 
	C154.600723,25.149929 154.600723,38.889923 154.600723,53.085384 
	C149.653809,53.085384 144.648300,53.085384 139.142654,53.085384 
	C139.142654,40.242210 139.142654,27.487362 139.143433,14.255784 
z"/>
<path fill="#FCFAFB" opacity="1.000000" stroke="none" 
	d="
M53.487667,53.625221 
	C39.754051,53.625221 26.020435,53.625221 12.056200,53.625221 
	C12.056200,39.428513 12.056200,25.529137 12.056200,11.184036 
	C25.736113,11.184036 39.454067,11.184036 53.210632,11.442581 
	C40.468086,18.513138 27.686926,25.325148 14.449638,32.380260 
	C27.912893,39.707127 40.700279,46.666172 53.487667,53.625221 
z"/>
<path fill="#C21033" opacity="1.000000" stroke="none" 
	d="
M53.775223,53.464790 
	C40.700279,46.666172 27.912893,39.707127 14.449638,32.380260 
	C27.686926,25.325148 40.468086,18.513138 53.598461,11.565989 
	C54.163609,17.666859 54.549706,23.902798 54.552223,30.138891 
	C54.555340,37.860645 54.240349,45.582527 53.775223,53.464790 
z"/>
</svg>