<svg version="1.1" id="Layer_1" xmlns="http://www.w3.org/2000/svg" xmlns:xlink="http://www.w3.org/1999/xlink" x="0px" y="0px"
	 width="100%" viewBox="0 0 1123 602" enable-background="new 0 0 1123 602" xml:space="preserve">
<path fill="#FFFFFF" opacity="1.000000" stroke="none" 
	d="
M675.000000,603.000000 
	C450.000061,603.000000 225.500137,603.000000 1.000151,603.000000 
	C1.000100,402.333466 1.000100,201.666916 1.000050,1.000285 
	C375.333099,1.000190 749.666199,1.000190 1123.999512,1.000095 
	C1123.999634,201.666367 1123.999634,402.332733 1123.999756,602.999512 
	C974.500000,603.000000 825.000000,603.000000 675.000000,603.000000 
M399.950928,460.542236 
	C401.527039,459.377808 403.051239,458.134216 404.687439,457.061462 
	C418.325439,448.120209 431.109772,438.157806 441.192719,425.202667 
	C445.432312,419.755371 450.165466,417.782471 457.359802,417.792908 
	C638.849060,418.056152 820.338684,418.000000 1001.828308,418.000000 
	C1003.771484,418.000000 1005.714722,418.000000 1007.706177,418.000000 
	C1007.706177,340.410980 1007.706177,263.351746 1007.706177,186.000000 
	C1005.441467,186.000000 1003.467834,186.000000 1001.494202,186.000000 
	C822.837769,186.000000 644.181335,186.000000 465.524872,186.000000 
	C460.525146,186.000000 455.513367,186.195419 450.532684,185.887207 
	C448.925781,185.787766 447.091888,184.678299 445.888031,183.495346 
	C437.419434,175.173676 429.686340,165.987885 420.574524,158.463150 
	C406.530609,146.865509 390.967926,137.445786 374.005432,130.434128 
	C356.926147,123.374214 339.185791,118.910667 320.886017,117.168930 
	C310.954712,116.223694 300.823883,116.470680 290.847992,117.143097 
	C280.117920,117.866356 269.237885,118.769760 258.819305,121.254852 
	C228.433655,128.502563 201.424591,142.815750 178.103607,163.553986 
	C162.079498,177.803467 149.059448,194.641373 138.796310,213.565491 
	C126.462563,236.307602 119.097198,260.645203 117.210503,286.309235 
	C115.784317,305.709167 116.579369,325.259583 121.186195,344.336548 
	C128.558502,374.865448 142.423553,402.241821 163.351852,425.648254 
	C178.292160,442.357697 195.768066,456.037506 215.817291,466.542450 
	C236.681671,477.474518 258.740601,484.211029 281.948608,486.780243 
	C293.165649,488.022003 304.634583,487.098480 315.987518,486.975708 
	C330.619873,486.817505 344.645203,483.342560 358.584564,479.176666 
	C372.989716,474.871582 386.244629,468.142242 399.950928,460.542236 
M1043.146484,201.395218 
	C1045.151367,194.785812 1042.558594,188.578995 1036.885376,186.406708 
	C1031.300537,184.268280 1023.400696,187.239624 1021.305054,192.266922 
	C1018.513855,198.962463 1020.720825,205.365356 1027.164551,207.988968 
	C1033.188477,210.441635 1039.973145,209.570572 1043.146484,201.395218 
z"/>
<path fill="#DA291C" opacity="1.000000" stroke="none" 
	d="
M399.637085,460.745697 
	C386.244629,468.142242 372.989716,474.871582 358.584564,479.176666 
	C344.645203,483.342560 330.619873,486.817505 315.987518,486.975708 
	C304.634583,487.098480 293.165649,488.022003 281.948608,486.780243 
	C258.740601,484.211029 236.681671,477.474518 215.817291,466.542450 
	C195.768066,456.037506 178.292160,442.357697 163.351852,425.648254 
	C142.423553,402.241821 128.558502,374.865448 121.186195,344.336548 
	C116.579369,325.259583 115.784317,305.709167 117.210503,286.309235 
	C119.097198,260.645203 126.462563,236.307602 138.796310,213.565491 
	C149.059448,194.641373 162.079498,177.803467 178.103607,163.553986 
	C201.424591,142.815750 228.433655,128.502563 258.819305,121.254852 
	C269.237885,118.769760 280.117920,117.866356 290.847992,117.143097 
	C300.823883,116.470680 310.954712,116.223694 320.886017,117.168930 
	C339.185791,118.910667 356.926147,123.374214 374.005432,130.434128 
	C390.967926,137.445786 406.530609,146.865509 420.574524,158.463150 
	C429.686340,165.987885 437.419434,175.173676 445.888031,183.495346 
	C447.091888,184.678299 448.925781,185.787766 450.532684,185.887207 
	C455.513367,186.195419 460.525146,186.000000 465.524872,186.000000 
	C644.181335,186.000000 822.837769,186.000000 1001.494202,186.000000 
	C1003.467834,186.000000 1005.441467,186.000000 1007.706177,186.000000 
	C1007.706177,263.351746 1007.706177,340.410980 1007.706177,418.000000 
	C1005.714722,418.000000 1003.771484,418.000000 1001.828308,418.000000 
	C820.338684,418.000000 638.849060,418.056152 457.359802,417.792908 
	C450.165466,417.782471 445.432312,419.755371 441.192719,425.202667 
	C431.109772,438.157806 418.325439,448.120209 404.687439,457.061462 
	C403.051239,458.134216 401.527039,459.377808 399.637085,460.745697 
M701.500000,394.000000 
	C795.581970,394.000000 889.663940,394.000000 983.661621,394.000000 
	C983.661621,332.316833 983.661621,271.259674 983.661621,210.000000 
	C981.339111,210.000000 979.353882,210.000000 977.368652,210.000000 
	C798.391113,210.000000 619.413635,209.988739 440.436157,210.071564 
	C436.394196,210.073425 433.923523,208.968292 431.577881,205.434982 
	C428.243256,200.411865 424.083710,195.875381 419.905579,191.483994 
	C403.350586,174.083878 383.891663,160.976791 361.615967,151.871552 
	C342.484131,144.051361 322.461365,140.826614 302.064331,140.221771 
	C292.833282,139.948044 283.477936,141.648804 274.276733,143.081604 
	C258.818207,145.488831 244.006058,150.409256 230.142624,157.524857 
	C208.005142,168.887207 189.319031,184.507217 174.021225,204.336609 
	C154.578384,229.538910 144.061020,258.151611 141.226791,289.480133 
	C139.940720,303.695892 141.046722,318.031860 143.797058,332.300385 
	C149.288742,360.790741 161.479446,385.926880 180.349701,407.627625 
	C196.080200,425.717682 214.856583,440.090332 237.136581,449.664948 
	C260.704865,459.793182 285.015625,464.607300 310.785034,463.175629 
	C327.745087,462.233429 344.058960,459.003479 359.737762,452.895172 
	C387.619965,442.032562 411.295837,425.222504 429.332733,401.085449 
	C433.040649,396.123444 436.835022,393.775848 443.533020,393.799622 
	C529.187866,394.103302 614.844116,394.000000 701.500000,394.000000 
z"/>
<path fill="#EE3123" opacity="1.000000" stroke="none" 
	d="
M1043.081299,201.795990 
	C1039.973145,209.570572 1033.188477,210.441635 1027.164551,207.988968 
	C1020.720825,205.365356 1018.513855,198.962463 1021.305054,192.266922 
	C1023.400696,187.239624 1031.300537,184.268280 1036.885376,186.406708 
	C1042.558594,188.578995 1045.151367,194.785812 1043.081299,201.795990 
M1039.080200,192.480621 
	C1036.661377,188.312744 1032.836670,187.799576 1028.829590,189.144302 
	C1025.214111,190.357620 1022.606689,195.826035 1023.534668,199.064331 
	C1025.194336,204.856125 1030.153076,207.793076 1035.159912,205.949554 
	C1040.239624,204.079224 1042.066895,198.770081 1039.080200,192.480621 
z"/>
<path fill="#FFFFFF" opacity="1.000000" stroke="none" 
	d="
M701.000000,394.000000 
	C614.844116,394.000000 529.187866,394.103302 443.533020,393.799622 
	C436.835022,393.775848 433.040649,396.123444 429.332733,401.085449 
	C411.295837,425.222504 387.619965,442.032562 359.737762,452.895172 
	C344.058960,459.003479 327.745087,462.233429 310.785034,463.175629 
	C285.015625,464.607300 260.704865,459.793182 237.136581,449.664948 
	C214.856583,440.090332 196.080200,425.717682 180.349701,407.627625 
	C161.479446,385.926880 149.288742,360.790741 143.797058,332.300385 
	C141.046722,318.031860 139.940720,303.695892 141.226791,289.480133 
	C144.061020,258.151611 154.578384,229.538910 174.021225,204.336609 
	C189.319031,184.507217 208.005142,168.887207 230.142624,157.524857 
	C244.006058,150.409256 258.818207,145.488831 274.276733,143.081604 
	C283.477936,141.648804 292.833282,139.948044 302.064331,140.221771 
	C322.461365,140.826614 342.484131,144.051361 361.615967,151.871552 
	C383.891663,160.976791 403.350586,174.083878 419.905579,191.483994 
	C424.083710,195.875381 428.243256,200.411865 431.577881,205.434982 
	C433.923523,208.968292 436.394196,210.073425 440.436157,210.071564 
	C619.413635,209.988739 798.391113,210.000000 977.368652,210.000000 
	C979.353882,210.000000 981.339111,210.000000 983.661621,210.000000 
	C983.661621,271.259674 983.661621,332.316833 983.661621,394.000000 
	C889.663940,394.000000 795.581970,394.000000 701.000000,394.000000 
M259.941803,184.717941 
	C256.429901,176.775177 252.917984,168.832413 248.861404,159.657822 
	C238.242783,165.472443 228.203217,171.313889 217.842819,176.516464 
	C211.450500,179.726425 210.441696,185.020782 209.938828,191.181335 
	C209.152969,200.809082 208.040359,210.412796 206.925247,220.010315 
	C205.699966,230.556046 204.286514,241.079773 203.010635,251.619827 
	C202.263016,257.795929 201.698593,263.994568 200.918701,270.166229 
	C199.670624,280.042999 198.204315,289.893066 197.030548,299.778198 
	C195.871735,309.537109 195.078049,319.339478 193.909409,329.097076 
	C192.745270,338.816986 191.287521,348.501404 190.007782,358.207886 
	C188.663345,368.404816 187.004059,378.582336 186.260208,388.824829 
	C185.985046,392.613892 183.887070,396.931641 187.985306,400.658905 
	C194.676224,406.744171 200.566757,413.724213 207.376953,419.658905 
	C212.508987,424.131165 218.551636,427.558441 224.514114,431.675385 
	C232.045670,380.014130 239.418884,329.438904 246.792099,278.863678 
	C247.535355,278.814484 248.278595,278.765289 249.021835,278.716064 
	C251.696594,284.572876 254.208145,290.510864 257.073700,296.272736 
	C271.346069,324.970673 285.702484,353.626801 300.080566,382.271881 
	C300.602600,383.312012 301.659607,384.083618 302.467316,384.980347 
	C303.293488,384.105225 304.398895,383.366089 304.901886,382.333527 
	C309.168396,373.574799 313.206848,364.703857 317.537354,355.977600 
	C329.975800,330.913422 342.514923,305.899139 355.036224,280.876160 
	C355.557861,279.833710 356.297668,278.900360 357.635010,276.837921 
	C365.247070,329.062592 372.673401,380.012939 380.211853,431.732452 
	C392.985718,423.662506 404.136658,415.124451 413.637299,404.631897 
	C416.811493,401.126343 420.451630,397.555206 419.017578,391.702759 
	C417.898560,387.135956 417.562164,382.367310 417.016602,377.672241 
	C415.939667,368.403351 415.031830,359.114532 413.918640,349.850220 
	C412.691620,339.638184 411.237274,329.453369 410.021698,319.240051 
	C408.899323,309.809906 408.065002,300.345123 406.914673,290.918701 
	C405.728821,281.201111 404.205688,271.524475 403.031189,261.805664 
	C401.872040,252.213882 401.053040,242.581284 399.925140,232.985367 
	C398.361420,219.681595 396.933258,206.350677 394.856964,193.124008 
	C394.046051,187.958099 395.763428,181.499313 389.520691,178.179367 
	C379.083954,172.628998 368.617737,167.134201 358.166504,161.611084 
	C355.770172,160.344696 354.894775,161.317780 353.908325,163.687073 
	C347.065674,180.121658 339.989594,196.458893 333.031281,212.845551 
	C326.516571,228.187500 320.082886,243.563858 313.558228,258.901550 
	C310.015686,267.229034 306.357880,275.507507 302.289825,284.872192 
	C287.862244,250.970398 273.931122,218.235199 259.941803,184.717941 
M623.562561,356.036743 
	C624.884949,357.352814 626.149292,359.730194 627.539551,359.806305 
	C634.610413,360.193604 641.713928,359.984924 648.638916,359.984924 
	C648.638916,320.938385 648.638916,282.546967 648.638916,244.216461 
	C639.665466,244.216461 631.054749,244.216461 621.958984,244.216461 
	C621.958984,261.104523 621.958984,277.784729 621.958984,295.312469 
	C620.721985,294.145569 620.032776,293.684906 619.591614,293.051483 
	C609.378296,278.388184 599.224365,263.683380 588.960266,249.055847 
	C587.641968,247.177063 585.863892,244.349136 584.150085,244.237106 
	C576.242554,243.720200 568.282471,244.009079 560.292114,244.009079 
	C560.292114,282.922791 560.292114,321.313629 560.292114,359.675873 
	C569.983459,359.675873 579.379456,359.675873 589.201172,359.675873 
	C589.201172,342.644470 589.201172,325.933380 589.201172,309.222290 
	C589.678650,308.987701 590.156189,308.753113 590.633667,308.518524 
	C601.446838,324.159424 612.260010,339.800293 623.562561,356.036743 
M917.459534,328.953705 
	C924.252563,338.489258 931.027283,348.037933 937.866638,357.540039 
	C938.557007,358.499115 939.619385,359.852570 940.540649,359.877930 
	C947.627197,360.073120 954.721619,359.985321 961.632751,359.985321 
	C961.632751,320.929749 961.632751,282.536346 961.632751,244.223297 
	C952.652527,244.223297 944.041199,244.223297 934.797607,244.223297 
	C934.797607,260.913116 934.797607,277.390625 934.797607,294.611603 
	C933.515381,293.682953 932.871216,293.422028 932.536804,292.944275 
	C921.827332,277.645508 911.167664,262.311890 900.425842,247.035965 
	C899.578979,245.831650 898.218689,244.177719 897.051514,244.140015 
	C889.127075,243.884033 881.190369,244.006210 873.334106,244.006210 
	C873.334106,283.003601 873.334106,321.396637 873.334106,359.633118 
	C883.070190,359.633118 892.468262,359.633118 902.160889,359.633118 
	C902.160889,342.364136 902.160889,325.460327 902.160889,308.556519 
	C902.500244,308.388672 902.839600,308.220825 903.178955,308.053009 
	C907.803223,314.814545 912.427490,321.576080 917.459534,328.953705 
M762.000671,321.241241 
	C762.667725,327.080444 762.941162,332.998138 764.086121,338.742065 
	C766.267334,349.684418 769.857483,354.838348 781.721375,357.937042 
	C784.530334,358.670776 787.528015,358.955963 790.441284,358.970734 
	C807.596924,359.057770 824.781311,359.585022 841.897949,358.759613 
	C850.866455,358.327148 858.006287,353.123108 859.891968,343.535980 
	C861.396912,335.884644 862.877991,328.049286 862.824158,320.306366 
	C862.693298,301.476959 862.139526,282.618866 860.763916,263.845062 
	C860.203613,256.198669 856.601196,248.999481 848.005432,246.562592 
	C843.969421,245.418396 839.771973,244.119492 835.650269,244.128265 
	C818.415588,244.164871 801.116577,243.884338 783.973083,245.308685 
	C774.177612,246.122559 766.536316,248.251343 764.007568,262.840179 
	C763.090698,268.129730 762.193909,273.493744 762.090027,278.839355 
	C761.821533,292.649902 762.000000,306.469177 762.000671,321.241241 
M723.368225,244.000015 
	C710.283020,244.333176 697.116211,243.879654 684.135925,245.225021 
	C671.639160,246.520248 666.151978,250.802383 663.289001,263.472412 
	C661.500183,271.389099 661.373779,280.006104 662.254150,288.118622 
	C663.341064,298.133911 668.523682,306.296295 679.179260,308.872986 
	C685.632141,310.433411 692.307800,311.156158 698.920227,311.946472 
	C703.964417,312.549408 709.110352,312.363892 714.130432,313.087952 
	C718.971802,313.786255 722.954895,318.885315 722.981201,323.497620 
	C723.009521,328.458527 719.635925,332.938904 714.577759,333.909790 
	C710.904236,334.614929 707.109558,334.860168 703.359314,334.964508 
	C689.096802,335.361237 687.003479,333.709167 686.789185,318.903046 
	C678.316772,324.260803 670.127014,329.431274 661.957397,334.633362 
	C661.580078,334.873596 661.202820,335.367157 661.130554,335.794373 
	C660.247192,341.016632 661.788513,350.407654 666.967224,354.087311 
	C673.310425,358.594269 680.684143,359.566406 687.795959,359.779358 
	C701.691650,360.195435 715.653870,359.761261 729.533997,358.848755 
	C738.895081,358.233307 746.990051,352.237457 748.647339,343.260162 
	C750.366211,333.948761 750.677612,324.311005 750.818176,314.804352 
	C750.883179,310.405670 749.625427,305.769257 748.019653,301.606140 
	C743.672607,290.336212 733.495605,288.170288 723.139343,287.088745 
	C715.594727,286.300842 707.929138,286.673706 700.383362,285.892700 
	C694.034668,285.235596 692.704590,283.916077 692.979126,275.873169 
	C693.157959,270.634705 695.372620,268.222839 700.759216,268.024872 
	C704.253479,267.896454 707.763611,267.854126 711.253845,268.028931 
	C719.834473,268.458618 726.506348,269.951172 726.235229,282.104767 
	C734.965637,276.549500 743.414612,271.173370 751.767090,265.858582 
	C750.096680,249.577271 737.645386,244.527893 723.368225,244.000015 
M506.044739,248.281357 
	C505.484161,246.836746 504.923584,245.392151 504.383392,244.000137 
	C495.560638,244.000137 487.065674,243.871506 478.581665,244.118942 
	C477.057251,244.163391 474.766815,245.410980 474.215576,246.696976 
	C471.545685,252.925613 469.427582,259.387604 466.969604,265.710815 
	C457.251373,290.711212 447.466156,315.685577 437.736176,340.681427 
	C435.311371,346.910583 433.000305,353.183990 430.497620,359.805786 
	C441.184143,359.805786 450.954102,359.805786 460.885925,359.805786 
	C463.771759,353.162170 466.498413,346.568420 469.546844,340.126984 
	C470.177307,338.794739 471.987091,337.163910 473.283173,337.137543 
	C484.749146,336.904388 496.221802,337.002136 507.803741,337.002136 
	C510.732483,343.759705 513.482727,350.341766 516.476318,356.811249 
	C517.068909,358.091888 518.574890,359.821228 519.696594,359.848938 
	C529.410828,360.089020 539.133423,359.987244 548.764587,359.987244 
	C548.883423,358.970184 549.047546,358.593384 548.942139,358.320831 
	C542.298096,341.140839 535.637878,323.967072 528.966370,306.797699 
	C521.476196,287.521423 513.973938,268.249756 506.044739,248.281357 
z"/>
<path fill="#FFFFFF" opacity="1.000000" stroke="none" 
	d="
M1039.334106,192.782104 
	C1042.066895,198.770081 1040.239624,204.079224 1035.159912,205.949554 
	C1030.153076,207.793076 1025.194336,204.856125 1023.534668,199.064331 
	C1022.606689,195.826035 1025.214111,190.357620 1028.829590,189.144302 
	C1032.836670,187.799576 1036.661377,188.312744 1039.334106,192.782104 
M1031.040039,200.020874 
	C1031.107910,199.870071 1031.155762,199.704895 1031.250488,199.573502 
	C1031.312866,199.486969 1031.516113,199.381821 1031.531860,199.399033 
	C1032.688110,200.658539 1033.832031,201.929474 1034.976929,203.199478 
	C1035.763916,200.918564 1035.253540,199.505020 1035.428589,198.182159 
	C1036.276367,191.773300 1036.210449,191.652618 1029.026001,192.394974 
	C1029.026001,195.114548 1029.010742,197.886566 1029.107788,200.654648 
	C1029.110474,200.729538 1030.326660,200.761887 1031.040039,200.020874 
z"/>
<path fill="#DA291C" opacity="1.000000" stroke="none" 
	d="
M259.970886,185.108978 
	C273.931122,218.235199 287.862244,250.970398 302.289825,284.872192 
	C306.357880,275.507507 310.015686,267.229034 313.558228,258.901550 
	C320.082886,243.563858 326.516571,228.187500 333.031281,212.845551 
	C339.989594,196.458893 347.065674,180.121658 353.908325,163.687073 
	C354.894775,161.317780 355.770172,160.344696 358.166504,161.611084 
	C368.617737,167.134201 379.083954,172.628998 389.520691,178.179367 
	C395.763428,181.499313 394.046051,187.958099 394.856964,193.124008 
	C396.933258,206.350677 398.361420,219.681595 399.925140,232.985367 
	C401.053040,242.581284 401.872040,252.213882 403.031189,261.805664 
	C404.205688,271.524475 405.728821,281.201111 406.914673,290.918701 
	C408.065002,300.345123 408.899323,309.809906 410.021698,319.240051 
	C411.237274,329.453369 412.691620,339.638184 413.918640,349.850220 
	C415.031830,359.114532 415.939667,368.403351 417.016602,377.672241 
	C417.562164,382.367310 417.898560,387.135956 419.017578,391.702759 
	C420.451630,397.555206 416.811493,401.126343 413.637299,404.631897 
	C404.136658,415.124451 392.985718,423.662506 380.211853,431.732452 
	C372.673401,380.012939 365.247070,329.062592 357.635010,276.837921 
	C356.297668,278.900360 355.557861,279.833710 355.036224,280.876160 
	C342.514923,305.899139 329.975800,330.913422 317.537354,355.977600 
	C313.206848,364.703857 309.168396,373.574799 304.901886,382.333527 
	C304.398895,383.366089 303.293488,384.105225 302.467316,384.980347 
	C301.659607,384.083618 300.602600,383.312012 300.080566,382.271881 
	C285.702484,353.626801 271.346069,324.970673 257.073700,296.272736 
	C254.208145,290.510864 251.696594,284.572876 249.021835,278.716064 
	C248.278595,278.765289 247.535355,278.814484 246.792099,278.863678 
	C239.418884,329.438904 232.045670,380.014130 224.514114,431.675385 
	C218.551636,427.558441 212.508987,424.131165 207.376953,419.658905 
	C200.566757,413.724213 194.676224,406.744171 187.985306,400.658905 
	C183.887070,396.931641 185.985046,392.613892 186.260208,388.824829 
	C187.004059,378.582336 188.663345,368.404816 190.007782,358.207886 
	C191.287521,348.501404 192.745270,338.816986 193.909409,329.097076 
	C195.078049,319.339478 195.871735,309.537109 197.030548,299.778198 
	C198.204315,289.893066 199.670624,280.042999 200.918701,270.166229 
	C201.698593,263.994568 202.263016,257.795929 203.010635,251.619827 
	C204.286514,241.079773 205.699966,230.556046 206.925247,220.010315 
	C208.040359,210.412796 209.152969,200.809082 209.938828,191.181335 
	C210.441696,185.020782 211.450500,179.726425 217.842819,176.516464 
	C228.203217,171.313889 238.242783,165.472443 248.861404,159.657822 
	C252.917984,168.832413 256.429901,176.775177 259.970886,185.108978 
z"/>
<path fill="#DA291C" opacity="1.000000" stroke="none" 
	d="
M623.317871,355.738953 
	C612.260010,339.800293 601.446838,324.159424 590.633667,308.518524 
	C590.156189,308.753113 589.678650,308.987701 589.201172,309.222290 
	C589.201172,325.933380 589.201172,342.644470 589.201172,359.675873 
	C579.379456,359.675873 569.983459,359.675873 560.292114,359.675873 
	C560.292114,321.313629 560.292114,282.922791 560.292114,244.009079 
	C568.282471,244.009079 576.242554,243.720200 584.150085,244.237106 
	C585.863892,244.349136 587.641968,247.177063 588.960266,249.055847 
	C599.224365,263.683380 609.378296,278.388184 619.591614,293.051483 
	C620.032776,293.684906 620.721985,294.145569 621.958984,295.312469 
	C621.958984,277.784729 621.958984,261.104523 621.958984,244.216461 
	C631.054749,244.216461 639.665466,244.216461 648.638916,244.216461 
	C648.638916,282.546967 648.638916,320.938385 648.638916,359.984924 
	C641.713928,359.984924 634.610413,360.193604 627.539551,359.806305 
	C626.149292,359.730194 624.884949,357.352814 623.317871,355.738953 
z"/>
<path fill="#DA291C" opacity="1.000000" stroke="none" 
	d="
M917.255615,328.645691 
	C912.427490,321.576080 907.803223,314.814545 903.178955,308.053009 
	C902.839600,308.220825 902.500244,308.388672 902.160889,308.556519 
	C902.160889,325.460327 902.160889,342.364136 902.160889,359.633118 
	C892.468262,359.633118 883.070190,359.633118 873.334106,359.633118 
	C873.334106,321.396637 873.334106,283.003601 873.334106,244.006210 
	C881.190369,244.006210 889.127075,243.884033 897.051514,244.140015 
	C898.218689,244.177719 899.578979,245.831650 900.425842,247.035965 
	C911.167664,262.311890 921.827332,277.645508 932.536804,292.944275 
	C932.871216,293.422028 933.515381,293.682953 934.797607,294.611603 
	C934.797607,277.390625 934.797607,260.913116 934.797607,244.223297 
	C944.041199,244.223297 952.652527,244.223297 961.632751,244.223297 
	C961.632751,282.536346 961.632751,320.929749 961.632751,359.985321 
	C954.721619,359.985321 947.627197,360.073120 940.540649,359.877930 
	C939.619385,359.852570 938.557007,358.499115 937.866638,357.540039 
	C931.027283,348.037933 924.252563,338.489258 917.255615,328.645691 
z"/>
<path fill="#DA291C" opacity="1.000000" stroke="none" 
	d="
M762.000366,320.763092 
	C762.000000,306.469177 761.821533,292.649902 762.090027,278.839355 
	C762.193909,273.493744 763.090698,268.129730 764.007568,262.840179 
	C766.536316,248.251343 774.177612,246.122559 783.973083,245.308685 
	C801.116577,243.884338 818.415588,244.164871 835.650269,244.128265 
	C839.771973,244.119492 843.969421,245.418396 848.005432,246.562592 
	C856.601196,248.999481 860.203613,256.198669 860.763916,263.845062 
	C862.139526,282.618866 862.693298,301.476959 862.824158,320.306366 
	C862.877991,328.049286 861.396912,335.884644 859.891968,343.535980 
	C858.006287,353.123108 850.866455,358.327148 841.897949,358.759613 
	C824.781311,359.585022 807.596924,359.057770 790.441284,358.970734 
	C787.528015,358.955963 784.530334,358.670776 781.721375,357.937042 
	C769.857483,354.838348 766.267334,349.684418 764.086121,338.742065 
	C762.941162,332.998138 762.667725,327.080444 762.000366,320.763092 
M837.000061,297.521790 
	C836.666016,291.100372 836.408325,284.673737 835.970642,278.259399 
	C835.688110,274.118408 833.198364,271.342560 829.210571,271.100647 
	C818.992004,270.480774 808.736938,269.978088 798.510742,270.174927 
	C793.437134,270.272583 789.127869,272.782349 788.575928,278.883301 
	C788.119507,283.929230 787.089966,288.963531 787.094421,294.002289 
	C787.102783,303.588898 787.572144,313.179779 788.044189,322.759277 
	C788.273193,327.405151 789.895142,332.398102 794.922913,332.711090 
	C806.209717,333.413666 817.583496,333.288086 828.890747,332.791290 
	C832.983398,332.611420 835.707947,329.125153 835.951599,324.768890 
	C836.440735,316.025330 836.665894,307.266998 837.000061,297.521790 
z"/>
<path fill="#DA291C" opacity="1.000000" stroke="none" 
	d="
M723.847656,244.000000 
	C737.645386,244.527893 750.096680,249.577271 751.767090,265.858582 
	C743.414612,271.173370 734.965637,276.549500 726.235229,282.104767 
	C726.506348,269.951172 719.834473,268.458618 711.253845,268.028931 
	C707.763611,267.854126 704.253479,267.896454 700.759216,268.024872 
	C695.372620,268.222839 693.157959,270.634705 692.979126,275.873169 
	C692.704590,283.916077 694.034668,285.235596 700.383362,285.892700 
	C707.929138,286.673706 715.594727,286.300842 723.139343,287.088745 
	C733.495605,288.170288 743.672607,290.336212 748.019653,301.606140 
	C749.625427,305.769257 750.883179,310.405670 750.818176,314.804352 
	C750.677612,324.311005 750.366211,333.948761 748.647339,343.260162 
	C746.990051,352.237457 738.895081,358.233307 729.533997,358.848755 
	C715.653870,359.761261 701.691650,360.195435 687.795959,359.779358 
	C680.684143,359.566406 673.310425,358.594269 666.967224,354.087311 
	C661.788513,350.407654 660.247192,341.016632 661.130554,335.794373 
	C661.202820,335.367157 661.580078,334.873596 661.957397,334.633362 
	C670.127014,329.431274 678.316772,324.260803 686.789185,318.903046 
	C687.003479,333.709167 689.096802,335.361237 703.359314,334.964508 
	C707.109558,334.860168 710.904236,334.614929 714.577759,333.909790 
	C719.635925,332.938904 723.009521,328.458527 722.981201,323.497620 
	C722.954895,318.885315 718.971802,313.786255 714.130432,313.087952 
	C709.110352,312.363892 703.964417,312.549408 698.920227,311.946472 
	C692.307800,311.156158 685.632141,310.433411 679.179260,308.872986 
	C668.523682,306.296295 663.341064,298.133911 662.254150,288.118622 
	C661.373779,280.006104 661.500183,271.389099 663.289001,263.472412 
	C666.151978,250.802383 671.639160,246.520248 684.135925,245.225021 
	C697.116211,243.879654 710.283020,244.333176 723.847656,244.000000 
z"/>
<path fill="#DA291C" opacity="1.000000" stroke="none" 
	d="
M506.260864,248.628738 
	C513.973938,268.249756 521.476196,287.521423 528.966370,306.797699 
	C535.637878,323.967072 542.298096,341.140839 548.942139,358.320831 
	C549.047546,358.593384 548.883423,358.970184 548.764587,359.987244 
	C539.133423,359.987244 529.410828,360.089020 519.696594,359.848938 
	C518.574890,359.821228 517.068909,358.091888 516.476318,356.811249 
	C513.482727,350.341766 510.732483,343.759705 507.803741,337.002136 
	C496.221802,337.002136 484.749146,336.904388 473.283173,337.137543 
	C471.987091,337.163910 470.177307,338.794739 469.546844,340.126984 
	C466.498413,346.568420 463.771759,353.162170 460.885925,359.805786 
	C450.954102,359.805786 441.184143,359.805786 430.497620,359.805786 
	C433.000305,353.183990 435.311371,346.910583 437.736176,340.681427 
	C447.466156,315.685577 457.251373,290.711212 466.969604,265.710815 
	C469.427582,259.387604 471.545685,252.925613 474.215576,246.696976 
	C474.766815,245.410980 477.057251,244.163391 478.581665,244.118942 
	C487.065674,243.871506 495.560638,244.000137 504.383392,244.000137 
	C504.923584,245.392151 505.484161,246.836746 506.260864,248.628738 
M494.529266,295.025696 
	C492.053741,292.396973 493.777740,287.044800 488.640625,285.716339 
	C485.670197,293.532562 482.812408,301.052490 479.881836,308.763855 
	C486.649231,308.763855 492.735352,308.763855 499.543732,308.763855 
	C497.907776,304.125580 496.423645,299.917816 494.529266,295.025696 
z"/>
<path fill="#EE3123" opacity="1.000000" stroke="none" 
	d="
M1031.008545,200.417465 
	C1030.326660,200.761887 1029.110474,200.729538 1029.107788,200.654648 
	C1029.010742,197.886566 1029.026001,195.114548 1029.026001,192.394974 
	C1036.210449,191.652618 1036.276367,191.773300 1035.428589,198.182159 
	C1035.253540,199.505020 1035.763916,200.918564 1034.976929,203.199478 
	C1033.832031,201.929474 1032.688110,200.658539 1031.531860,199.399033 
	C1031.516113,199.381821 1031.312866,199.486969 1031.250488,199.573502 
	C1031.155762,199.704895 1031.107910,199.870071 1031.008545,200.417465 
z"/>
<path fill="#FFFFFF" opacity="1.000000" stroke="none" 
	d="
M837.000000,298.018280 
	C836.665894,307.266998 836.440735,316.025330 835.951599,324.768890 
	C835.707947,329.125153 832.983398,332.611420 828.890747,332.791290 
	C817.583496,333.288086 806.209717,333.413666 794.922913,332.711090 
	C789.895142,332.398102 788.273193,327.405151 788.044189,322.759277 
	C787.572144,313.179779 787.102783,303.588898 787.094421,294.002289 
	C787.089966,288.963531 788.119507,283.929230 788.575928,278.883301 
	C789.127869,272.782349 793.437134,270.272583 798.510742,270.174927 
	C808.736938,269.978088 818.992004,270.480774 829.210571,271.100647 
	C833.198364,271.342560 835.688110,274.118408 835.970642,278.259399 
	C836.408325,284.673737 836.666016,291.100372 837.000000,298.018280 
z"/>
<path fill="#FFFFFF" opacity="1.000000" stroke="none" 
	d="
M494.734375,295.367889 
	C496.423645,299.917816 497.907776,304.125580 499.543732,308.763855 
	C492.735352,308.763855 486.649231,308.763855 479.881836,308.763855 
	C482.812408,301.052490 485.670197,293.532562 488.640625,285.716339 
	C493.777740,287.044800 492.053741,292.396973 494.734375,295.367889 
z"/>
</svg>