<svg version="1.1" id="Layer_1" xmlns="http://www.w3.org/2000/svg" xmlns:xlink="http://www.w3.org/1999/xlink" x="0px" y="0px"
	 width="100%" viewBox="0 0 2505 1136" enable-background="new 0 0 2505 1136" xml:space="preserve">
<path fill="#FFFFFF" opacity="1.000000" stroke="none" 
	d="
M1877.000000,1137.000000 
	C1251.333374,1137.000000 626.166687,1137.000000 1.000000,1137.000000 
	C1.000000,758.333313 1.000000,379.666656 1.000000,1.000000 
	C836.000000,1.000000 1671.000000,1.000000 2506.000000,1.000000 
	C2506.000000,379.666656 2506.000000,758.333313 2506.000000,1137.000000 
	C2296.500000,1137.000000 2087.000000,1137.000000 1877.000000,1137.000000 
M1828.610352,92.892014 
	C1828.920654,92.397324 1829.230957,91.902634 1829.541260,91.407944 
	C1828.972778,91.393204 1828.404297,91.378456 1826.923096,91.295013 
	C1663.476685,91.288101 1500.030151,91.281181 1336.583740,91.274300 
	C1336.250488,91.274284 1335.840820,91.148010 1335.596313,91.295494 
	C1333.819946,92.366974 1331.202637,93.078094 1330.449097,94.662842 
	C1301.468506,155.613861 1272.657593,216.645554 1243.845947,277.676849 
	C1243.401367,278.618744 1243.230103,279.689758 1242.901245,280.802460 
	C1243.832275,280.927795 1244.323730,281.051819 1244.815063,281.051880 
	C1380.437256,281.064636 1516.059448,281.081665 1651.681519,280.932953 
	C1653.453979,280.931000 1655.846191,279.226501 1656.891602,277.625854 
	C1662.618042,268.859222 1667.748047,259.698914 1673.565918,250.996735 
	C1715.198242,188.723343 1766.419678,135.791473 1828.610352,92.892014 
M1827.446899,1043.655029 
	C1757.193237,994.261047 1700.284790,932.548218 1656.766235,858.521790 
	C1654.853149,855.267578 1652.921631,853.936279 1649.003296,853.962524 
	C1616.340332,854.181030 1583.675781,854.149597 1551.011597,854.157532 
	C1361.857178,854.203430 1172.702759,854.239380 983.548340,854.278748 
	C982.381714,854.278992 981.187500,854.441711 980.053528,854.249329 
	C976.090576,853.577026 974.328674,855.405579 972.659912,858.983704 
	C948.975342,909.766968 925.089478,960.456421 901.263916,1011.174072 
	C896.055847,1022.260559 890.893494,1033.368530 885.328735,1045.283203 
	C888.294617,1045.283203 890.392212,1045.283203 892.489868,1045.283203 
	C1202.138306,1045.281982 1511.786621,1045.281006 1821.435059,1045.274170 
	C1823.765991,1045.274048 1826.096924,1045.192627 1828.806030,1044.863892 
	C1828.553467,1044.565552 1828.300903,1044.267212 1827.446899,1043.655029 
M1703.636963,708.853088 
	C1731.973145,798.770935 1782.685913,873.698975 1855.103638,933.872009 
	C1903.140259,973.786560 1957.226685,1002.747742 2016.807129,1021.550537 
	C2053.914062,1033.260986 2091.988281,1040.269653 2130.657715,1042.637817 
	C2155.579102,1044.163818 2180.771484,1044.373901 2205.731934,1041.015137 
	C2218.905762,1039.242432 2232.159424,1037.915405 2245.234619,1035.586914 
	C2296.418213,1026.471436 2344.845459,1009.372925 2390.367676,984.233093 
	C2401.674561,977.988831 2412.643311,971.131470 2424.063477,964.380798 
	C2391.342285,898.632141 2359.018311,833.681824 2326.627441,768.597168 
	C2209.197510,862.328430 2061.430908,835.221130 1976.175659,749.130920 
	C1888.488892,660.585388 1880.221436,516.965820 1953.281738,417.361969 
	C1990.357788,366.815704 2039.769897,333.964355 2100.643555,319.437866 
	C2183.560547,299.651093 2258.586670,317.726807 2326.179688,370.031036 
	C2358.927002,303.890472 2391.358154,238.387817 2423.699707,173.066162 
	C2423.170654,172.417191 2423.004639,172.106079 2422.748047,171.918655 
	C2421.807861,171.231186 2420.855713,170.556213 2419.875732,169.927246 
	C2347.609375,123.542397 2268.587891,98.186226 2182.823975,93.992256 
	C2156.622559,92.710968 2130.437988,92.957535 2104.432617,97.000221 
	C2087.150879,99.686752 2069.671875,101.590591 2052.674805,105.538963 
	C1953.024536,128.687164 1869.023926,178.561234 1801.054688,255.047226 
	C1742.031616,321.466217 1705.392212,398.953247 1689.221558,486.085541 
	C1684.928101,509.219849 1682.145630,532.735352 1682.531372,556.367065 
	C1682.870239,577.123962 1683.825562,597.884277 1685.096558,618.606995 
	C1685.762817,629.469299 1686.915649,640.422607 1689.220093,651.037109 
	C1693.376343,670.181946 1698.563110,689.103149 1703.636963,708.853088 
M643.229919,782.780334 
	C635.242249,799.965881 627.261902,817.154907 619.265442,834.336426 
	C592.466736,891.917358 565.662476,949.495789 538.859680,1007.074768 
	C532.993164,1019.677429 527.123840,1032.278809 520.936157,1045.567261 
	C523.441284,1045.567261 525.212646,1045.567261 526.984009,1045.567261 
	C581.310669,1045.567139 635.637268,1045.573486 689.963928,1045.564209 
	C718.293457,1045.559448 746.623169,1045.478760 774.952332,1045.569824 
	C778.378784,1045.580811 780.218262,1044.557983 781.724487,1041.304688 
	C806.939880,986.839355 832.289429,932.436157 857.633423,878.030457 
	C887.750183,813.379272 917.905762,748.746216 948.015686,684.091858 
	C981.354736,612.503540 1014.646545,540.893188 1047.986816,469.305450 
	C1073.884399,413.698486 1099.833496,358.115479 1125.743896,302.514496 
	C1155.801025,238.014832 1185.844727,173.508850 1215.882446,109.000092 
	C1218.450317,103.485458 1220.928955,97.929306 1223.603271,92.053879 
	C1221.950439,91.899971 1220.977905,91.730263 1220.005493,91.730110 
	C1136.349121,91.717117 1052.692749,91.740273 969.036499,91.632202 
	C965.687134,91.627876 964.463379,93.126747 963.249329,95.769859 
	C953.811157,116.317299 944.286560,136.825165 934.740112,157.322693 
	C909.120483,212.331451 883.479126,267.330139 857.841736,322.330658 
	C833.258118,375.070587 808.667358,427.807098 784.082275,480.546326 
	C759.847168,532.534973 735.607239,584.521301 711.384338,636.515686 
	C688.775940,685.044617 666.187073,733.582642 643.229919,782.780334 
M82.925934,91.273880 
	C81.689339,91.370171 80.452744,91.466461 78.544998,91.615013 
	C208.847015,368.502014 338.871826,644.799988 469.256927,921.863586 
	C477.609467,904.575928 485.493561,888.258667 493.376923,871.941101 
	C526.652405,803.065430 559.863464,734.158386 593.328918,665.375183 
	C595.920837,660.047852 596.516785,655.989563 593.877563,650.304688 
	C568.746094,596.170288 543.991333,541.860962 519.150635,487.591736 
	C490.712189,425.462433 462.312622,363.315338 433.866486,301.189545 
	C402.582977,232.867004 371.232758,164.574966 340.052948,96.205177 
	C338.354309,92.480461 336.449707,91.166283 332.306976,91.173027 
	C249.482513,91.307991 166.657761,91.273933 82.925934,91.273880 
M1371.500000,663.071045 
	C1442.960449,663.071045 1514.420898,663.071045 1586.280151,663.071045 
	C1581.127808,631.525208 1578.860840,600.318298 1578.823242,568.881592 
	C1578.785278,537.160522 1581.204224,505.676056 1586.317627,473.926453 
	C1583.642334,473.926453 1581.668701,473.926453 1579.695190,473.926453 
	C1439.885376,473.926453 1300.075317,473.986298 1160.265991,473.730835 
	C1153.984741,473.719360 1151.407471,475.880676 1148.957153,481.100616 
	C1125.292480,531.516357 1101.388062,581.819580 1077.559082,632.158203 
	C1072.747192,642.323059 1067.964233,652.501587 1062.980591,663.071045 
	C1165.903564,663.071045 1268.201782,663.071045 1371.500000,663.071045 
z"/>
<path fill="#1662F4" opacity="1.000000" stroke="none" 
	d="
M1703.478149,708.485413 
	C1698.563110,689.103149 1693.376343,670.181946 1689.220093,651.037109 
	C1686.915649,640.422607 1685.762817,629.469299 1685.096558,618.606995 
	C1683.825562,597.884277 1682.870239,577.123962 1682.531372,556.367065 
	C1682.145630,532.735352 1684.928101,509.219849 1689.221558,486.085541 
	C1705.392212,398.953247 1742.031616,321.466217 1801.054688,255.047226 
	C1869.023926,178.561234 1953.024536,128.687164 2052.674805,105.538963 
	C2069.671875,101.590591 2087.150879,99.686752 2104.432617,97.000221 
	C2130.437988,92.957535 2156.622559,92.710968 2182.823975,93.992256 
	C2268.587891,98.186226 2347.609375,123.542397 2419.875732,169.927246 
	C2420.855713,170.556213 2421.807861,171.231186 2422.748047,171.918655 
	C2423.004639,172.106079 2423.170654,172.417191 2423.699707,173.066162 
	C2391.358154,238.387817 2358.927002,303.890472 2326.179688,370.031036 
	C2258.586670,317.726807 2183.560547,299.651093 2100.643555,319.437866 
	C2039.769897,333.964355 1990.357788,366.815704 1953.281738,417.361969 
	C1880.221436,516.965820 1888.488892,660.585388 1976.175659,749.130920 
	C2061.430908,835.221130 2209.197510,862.328430 2326.627441,768.597168 
	C2359.018311,833.681824 2391.342285,898.632141 2424.063477,964.380798 
	C2412.643311,971.131470 2401.674561,977.988831 2390.367676,984.233093 
	C2344.845459,1009.372925 2296.418213,1026.471436 2245.234619,1035.586914 
	C2232.159424,1037.915405 2218.905762,1039.242432 2205.731934,1041.015137 
	C2180.771484,1044.373901 2155.579102,1044.163818 2130.657715,1042.637817 
	C2091.988281,1040.269653 2053.914062,1033.260986 2016.807129,1021.550537 
	C1957.226685,1002.747742 1903.140259,973.786560 1855.103638,933.872009 
	C1782.685913,873.698975 1731.973145,798.770935 1703.478149,708.485413 
z"/>
<path fill="#1662F4" opacity="1.000000" stroke="none" 
	d="
M643.409790,782.448486 
	C666.187073,733.582642 688.775940,685.044617 711.384338,636.515686 
	C735.607239,584.521301 759.847168,532.534973 784.082275,480.546326 
	C808.667358,427.807098 833.258118,375.070587 857.841736,322.330658 
	C883.479126,267.330139 909.120483,212.331451 934.740112,157.322693 
	C944.286560,136.825165 953.811157,116.317299 963.249329,95.769859 
	C964.463379,93.126747 965.687134,91.627876 969.036499,91.632202 
	C1052.692749,91.740273 1136.349121,91.717117 1220.005493,91.730110 
	C1220.977905,91.730263 1221.950439,91.899971 1223.603271,92.053879 
	C1220.928955,97.929306 1218.450317,103.485458 1215.882446,109.000092 
	C1185.844727,173.508850 1155.801025,238.014832 1125.743896,302.514496 
	C1099.833496,358.115479 1073.884399,413.698486 1047.986816,469.305450 
	C1014.646545,540.893188 981.354736,612.503540 948.015686,684.091858 
	C917.905762,748.746216 887.750183,813.379272 857.633423,878.030457 
	C832.289429,932.436157 806.939880,986.839355 781.724487,1041.304688 
	C780.218262,1044.557983 778.378784,1045.580811 774.952332,1045.569824 
	C746.623169,1045.478760 718.293457,1045.559448 689.963928,1045.564209 
	C635.637268,1045.573486 581.310669,1045.567139 526.984009,1045.567261 
	C525.212646,1045.567261 523.441284,1045.567261 520.936157,1045.567261 
	C527.123840,1032.278809 532.993164,1019.677429 538.859680,1007.074768 
	C565.662476,949.495789 592.466736,891.917358 619.265442,834.336426 
	C627.261902,817.154907 635.242249,799.965881 643.409790,782.448486 
z"/>
<path fill="#1662F4" opacity="1.000000" stroke="none" 
	d="
M83.379509,91.273941 
	C166.657761,91.273933 249.482513,91.307991 332.306976,91.173027 
	C336.449707,91.166283 338.354309,92.480461 340.052948,96.205177 
	C371.232758,164.574966 402.582977,232.867004 433.866486,301.189545 
	C462.312622,363.315338 490.712189,425.462433 519.150635,487.591736 
	C543.991333,541.860962 568.746094,596.170288 593.877563,650.304688 
	C596.516785,655.989563 595.920837,660.047852 593.328918,665.375183 
	C559.863464,734.158386 526.652405,803.065430 493.376923,871.941101 
	C485.493561,888.258667 477.609467,904.575928 469.256927,921.863586 
	C338.871826,644.799988 208.847015,368.502014 78.544998,91.615013 
	C80.452744,91.466461 81.689339,91.370171 83.379509,91.273941 
z"/>
<path fill="#1662F4" opacity="1.000000" stroke="none" 
	d="
M1828.427856,1045.149170 
	C1826.096924,1045.192627 1823.765991,1045.274048 1821.435059,1045.274170 
	C1511.786621,1045.281006 1202.138306,1045.281982 892.489868,1045.283203 
	C890.392212,1045.283203 888.294617,1045.283203 885.328735,1045.283203 
	C890.893494,1033.368530 896.055847,1022.260559 901.263916,1011.174072 
	C925.089478,960.456421 948.975342,909.766968 972.659912,858.983704 
	C974.328674,855.405579 976.090576,853.577026 980.053528,854.249329 
	C981.187500,854.441711 982.381714,854.278992 983.548340,854.278748 
	C1172.702759,854.239380 1361.857178,854.203430 1551.011597,854.157532 
	C1583.675781,854.149597 1616.340332,854.181030 1649.003296,853.962524 
	C1652.921631,853.936279 1654.853149,855.267578 1656.766235,858.521790 
	C1700.284790,932.548218 1757.193237,994.261047 1827.832520,1044.110352 
	C1828.287842,1044.760010 1828.357788,1044.954590 1828.427856,1045.149170 
z"/>
<path fill="#1662F4" opacity="1.000000" stroke="none" 
	d="
M1371.000000,663.071045 
	C1268.201782,663.071045 1165.903564,663.071045 1062.980591,663.071045 
	C1067.964233,652.501587 1072.747192,642.323059 1077.559082,632.158203 
	C1101.388062,581.819580 1125.292480,531.516357 1148.957153,481.100616 
	C1151.407471,475.880676 1153.984741,473.719360 1160.265991,473.730835 
	C1300.075317,473.986298 1439.885376,473.926453 1579.695190,473.926453 
	C1581.668701,473.926453 1583.642334,473.926453 1586.317627,473.926453 
	C1581.204224,505.676056 1578.785278,537.160522 1578.823242,568.881592 
	C1578.860840,600.318298 1581.127808,631.525208 1586.280151,663.071045 
	C1514.420898,663.071045 1442.960449,663.071045 1371.000000,663.071045 
z"/>
<path fill="#1662F4" opacity="1.000000" stroke="none" 
	d="
M1828.003662,93.005386 
	C1766.419678,135.791473 1715.198242,188.723343 1673.565918,250.996735 
	C1667.748047,259.698914 1662.618042,268.859222 1656.891602,277.625854 
	C1655.846191,279.226501 1653.453979,280.931000 1651.681519,280.932953 
	C1516.059448,281.081665 1380.437256,281.064636 1244.815063,281.051880 
	C1244.323730,281.051819 1243.832275,280.927795 1242.901245,280.802460 
	C1243.230103,279.689758 1243.401367,278.618744 1243.845947,277.676849 
	C1272.657593,216.645554 1301.468506,155.613861 1330.449097,94.662842 
	C1331.202637,93.078094 1333.819946,92.366974 1335.596313,91.295494 
	C1335.840820,91.148010 1336.250488,91.274284 1336.583740,91.274300 
	C1500.030151,91.281181 1663.476685,91.288101 1827.404541,91.604248 
	C1827.925171,92.277451 1827.964478,92.641418 1828.003662,93.005386 
z"/>
<path fill="#6C9DF9" opacity="1.000000" stroke="none" 
	d="
M1828.307007,92.948700 
	C1827.964478,92.641418 1827.925171,92.277451 1827.860840,91.638596 
	C1828.404297,91.378456 1828.972778,91.393204 1829.541260,91.407944 
	C1829.230957,91.902634 1828.920654,92.397324 1828.307007,92.948700 
z"/>
<path fill="#A6C4FA" opacity="1.000000" stroke="none" 
	d="
M1828.616943,1045.006592 
	C1828.357788,1044.954590 1828.287842,1044.760010 1828.133179,1044.267212 
	C1828.300903,1044.267212 1828.553467,1044.565552 1828.616943,1045.006592 
z"/>
</svg>