<svg version="1.1" id="Layer_1" xmlns="http://www.w3.org/2000/svg" xmlns:xlink="http://www.w3.org/1999/xlink" x="0px" y="0px"
	 width="100%" viewBox="0 0 1920 383" enable-background="new 0 0 1920 383" xml:space="preserve">
<path fill="#000000" opacity="1.000000" stroke="none" 
	d="
M1415.000000,384.000000 
	C943.333313,384.000000 472.166656,384.000000 1.000000,384.000000 
	C1.000000,256.333344 1.000000,128.666672 1.000000,1.000000 
	C641.000000,1.000000 1281.000000,1.000000 1921.000000,1.000000 
	C1921.000000,128.666672 1921.000000,256.333344 1921.000000,384.000000 
	C1752.500000,384.000000 1584.000000,384.000000 1415.000000,384.000000 
M471.785645,98.980370 
	C477.137512,96.366974 482.489349,93.753578 487.841217,91.140182 
	C487.600586,90.670174 487.359985,90.200172 487.119354,89.730164 
	C481.609650,92.646454 476.099945,95.562737 469.975891,98.742989 
	C468.450104,99.516357 466.924347,100.289719 465.398590,101.063087 
	C465.588287,101.408195 465.778015,101.753296 465.967712,102.098404 
	C467.666656,101.091904 469.365631,100.085403 471.785645,98.980370 
M108.341331,340.098145 
	C110.773003,341.489136 113.182785,342.920166 115.639908,344.264648 
	C130.685883,352.497345 145.663727,360.860779 160.850433,368.825684 
	C164.704330,370.846924 168.150787,373.868073 173.682022,372.354218 
	C195.054443,366.504944 216.624710,361.382446 238.088791,355.862793 
	C252.037354,352.275848 265.929626,348.470093 280.300110,344.641724 
	C280.300110,325.588470 280.300110,306.920563 280.300110,288.372284 
	C281.904419,289.824371 283.043854,291.353058 284.566101,292.155548 
	C297.888397,299.179169 310.185547,307.867401 324.994476,312.450012 
	C335.492920,315.698761 344.759064,322.863525 354.675110,328.090851 
	C359.083862,330.414917 363.062225,334.151978 368.838531,332.617310 
	C396.123535,325.368195 423.413849,318.136780 450.756012,311.108276 
	C453.931427,310.291992 455.139435,309.162872 455.068054,305.855194 
	C454.873993,296.860535 455.001770,287.858948 455.001862,278.860107 
	C455.001923,271.808929 455.001862,264.757782 455.001862,256.878937 
	C467.703400,263.693237 479.579437,270.064697 491.489136,276.454193 
	C490.842865,276.844208 490.196716,277.234131 489.701416,277.533051 
	C492.494507,279.203217 495.164703,281.184479 498.139893,282.446960 
	C500.205078,283.323242 502.969452,282.652954 504.937134,283.639587 
	C512.008362,287.185364 518.835876,291.214020 525.850098,294.879181 
	C527.195496,295.582214 529.134766,296.040070 530.520386,295.640747 
	C550.085815,290.002716 569.578613,284.112579 589.150391,278.497498 
	C593.447510,277.264679 595.131897,275.324158 595.117188,270.558655 
	C594.935486,211.566788 594.998596,152.574158 594.998596,93.581718 
	C594.998596,91.939873 594.998596,90.298035 594.998596,88.510994 
	C576.359436,83.978485 557.966064,79.835419 539.777039,74.934158 
	C531.525452,72.710640 524.683716,74.248917 517.334106,78.124680 
	C498.762299,87.918396 479.847168,97.061249 461.063843,106.453369 
	C459.537476,107.216591 457.967255,107.892059 455.999817,108.801277 
	C455.999817,93.704445 455.946838,79.377701 456.042084,65.051933 
	C456.062500,61.982880 455.475525,60.504269 451.903320,59.752785 
	C429.594574,55.059692 407.126099,50.841145 385.200928,44.711250 
	C370.980316,40.735409 359.475098,44.289375 347.280975,50.728645 
	C330.798828,59.432285 313.722168,67.012566 296.874573,75.020119 
	C291.859650,77.403664 286.757416,79.603531 280.996887,82.202629 
	C280.996887,79.825287 280.996796,78.060051 280.996918,76.294815 
	C280.997864,63.463131 280.939209,50.630924 281.051025,37.800205 
	C281.072937,35.284489 280.465698,33.617386 277.871643,33.094364 
	C266.127563,30.726501 254.386353,28.344425 242.635345,26.011580 
	C223.000519,22.113613 203.341873,18.333181 183.729080,14.327933 
	C176.278488,12.806405 169.605072,12.345882 162.107040,16.160131 
	C117.049721,39.080807 71.689034,61.406467 26.349707,83.768707 
	C23.013126,85.414375 21.907936,87.215775 21.914469,90.886505 
	C22.030401,156.044601 22.078264,221.203262 21.854433,286.360809 
	C21.835543,291.860260 23.756121,294.738159 28.329412,297.177246 
	C54.819908,311.305725 81.205925,325.630066 108.341331,340.098145 
M1154.912354,264.499969 
	C1154.912354,272.308289 1154.912354,280.116577 1154.912354,287.942688 
	C1159.286987,287.942688 1163.337646,287.942688 1167.854492,287.942688 
	C1167.854492,271.761261 1167.854492,255.959991 1167.854492,240.158737 
	C1168.137085,240.126251 1168.419678,240.093781 1168.702148,240.061295 
	C1173.200806,256.159668 1177.699463,272.258026 1182.118286,288.071228 
	C1187.031494,288.071228 1191.324829,288.071228 1195.524414,288.071228 
	C1195.524414,257.598083 1195.524414,227.380753 1195.524414,197.214111 
	C1191.233887,197.214111 1187.292480,197.214111 1183.019775,197.214111 
	C1183.019775,214.460129 1183.019775,231.493073 1183.019775,248.526016 
	C1182.792358,248.556625 1182.564941,248.587234 1182.337524,248.617828 
	C1177.722168,231.510300 1173.106689,214.402771 1168.492188,197.298141 
	C1163.888062,197.298141 1159.487061,197.298141 1154.912354,197.298141 
	C1154.912354,219.566055 1154.912354,241.532990 1154.912354,264.499969 
M1685.364746,269.047119 
	C1685.246582,249.723404 1685.199097,230.398849 1684.975342,211.076355 
	C1684.886597,203.424362 1680.945312,197.952759 1673.827393,197.419281 
	C1664.133789,196.692749 1654.344971,197.238129 1644.576294,197.238129 
	C1644.576294,227.745682 1644.576294,257.823425 1644.576294,288.122833 
	C1653.804565,288.122833 1662.773804,287.962097 1671.734863,288.167664 
	C1680.841675,288.376526 1684.218750,281.153809 1684.971069,274.929993 
	C1685.170288,273.282349 1685.202148,271.614441 1685.364746,269.047119 
M1535.343018,252.499817 
	C1535.343018,264.277435 1535.343018,276.055084 1535.343018,288.010681 
	C1540.338379,288.010681 1544.903564,288.010681 1549.686279,288.010681 
	C1549.686279,281.372559 1549.686401,275.053864 1549.686401,268.735168 
	C1549.686401,262.487305 1549.686279,256.239441 1549.686279,250.051895 
	C1561.862305,249.388977 1562.998413,250.457703 1562.999634,261.904694 
	C1563.000122,266.732574 1562.999756,271.560425 1562.999756,276.388306 
	C1562.999756,289.463440 1562.999878,289.464081 1576.136719,288.106873 
	C1576.291504,288.090851 1576.435059,287.964783 1576.420532,287.972076 
	C1576.420532,279.765350 1576.148315,271.631287 1576.491333,263.523224 
	C1576.894653,253.988953 1576.062256,245.362946 1564.548950,241.898575 
	C1567.643677,240.207214 1570.226440,239.306427 1572.102173,237.619385 
	C1573.804443,236.088455 1575.723999,233.754059 1575.834351,231.682602 
	C1576.266846,223.567657 1576.246948,215.408340 1575.951538,207.281631 
	C1575.738892,201.428055 1572.565308,197.590149 1566.869019,197.314560 
	C1556.484863,196.812195 1546.058960,197.171799 1535.343018,197.171799 
	C1535.343018,215.590683 1535.343018,233.545227 1535.343018,252.499817 
M1589.129883,269.333801 
	C1589.298584,283.381561 1596.497681,290.989380 1609.547729,290.910614 
	C1622.931152,290.829834 1629.923096,283.527283 1629.953613,269.465057 
	C1629.993408,251.134338 1630.135620,232.800522 1629.824341,214.474976 
	C1629.756714,210.491776 1628.733887,206.097122 1626.790405,202.661591 
	C1622.605957,195.264160 1612.269165,192.540131 1602.357666,195.349792 
	C1594.375000,197.612701 1589.211060,204.863754 1589.160889,214.380692 
	C1589.066284,232.377716 1589.130859,250.375595 1589.129883,269.333801 
M1299.936279,245.587082 
	C1298.008667,244.233292 1296.081177,242.879517 1293.971924,241.398132 
	C1295.367432,240.738312 1296.384155,240.205048 1297.440308,239.766907 
	C1302.965088,237.475174 1305.599854,233.576889 1305.240967,227.387268 
	C1304.865723,220.914154 1305.199585,214.403198 1304.990112,207.916290 
	C1304.793335,201.817032 1301.344238,197.531372 1295.358643,197.265091 
	C1285.112183,196.809250 1274.830811,197.139236 1264.375488,197.139236 
	C1264.375488,227.612030 1264.375488,257.699097 1264.375488,288.007629 
	C1268.988770,288.007629 1273.541260,288.007629 1278.315430,288.007629 
	C1278.315430,275.245667 1278.315430,262.794434 1278.315430,250.383530 
	C1289.537476,248.463943 1291.993286,250.516510 1291.993652,261.591492 
	C1291.994019,270.221466 1291.993774,278.851440 1291.993774,287.896790 
	C1296.819580,287.896790 1301.180054,287.896790 1305.122314,287.896790 
	C1305.122314,276.928345 1305.023560,266.125305 1305.173340,255.325684 
	C1305.229370,251.279572 1303.822388,248.254333 1299.936279,245.587082 
M702.935791,254.579453 
	C702.935791,253.017990 702.935791,251.456512 702.935791,249.823563 
	C704.532349,249.823563 705.363770,249.826035 706.195251,249.823196 
	C714.833618,249.793671 716.123962,251.106125 716.134460,259.960602 
	C716.140747,265.289124 716.059937,270.618927 716.149963,275.945923 
	C716.387329,289.990784 713.858032,288.315948 729.128479,288.229736 
	C729.265259,288.228943 729.401367,288.108795 729.868896,287.888031 
	C729.868896,280.429901 729.568604,272.794678 729.943420,265.192719 
	C730.433167,255.258911 730.344238,245.862061 717.964661,241.874619 
	C720.643555,240.439499 722.363037,239.512314 724.088074,238.595383 
	C727.970581,236.531693 729.867981,233.340576 729.831299,228.908707 
	C729.776245,222.249023 729.989197,215.583939 729.799072,208.929413 
	C729.603638,202.090775 726.221375,197.600220 719.922546,197.280121 
	C709.698425,196.760529 699.428589,197.140091 689.323242,197.140091 
	C689.323242,227.812195 689.323242,258.023651 689.323242,287.926819 
	C694.064819,287.926819 698.469604,287.926819 702.935852,287.926819 
	C702.935852,276.878815 702.935852,266.223083 702.935791,254.579453 
M1101.198975,206.069885 
	C1100.797119,208.667816 1100.060059,211.264038 1100.046753,213.863968 
	C1099.948364,233.159912 1099.974976,252.456635 1100.001709,271.753052 
	C1100.015747,281.948395 1106.158081,289.211365 1115.964844,290.747650 
	C1127.781006,292.598755 1136.565430,287.771088 1139.454468,277.469513 
	C1140.336304,274.324951 1140.555786,270.914154 1140.576660,267.622101 
	C1140.683350,250.821548 1140.702393,234.019318 1140.564941,217.219208 
	C1140.535400,213.610001 1140.214844,209.862900 1139.189575,206.429749 
	C1136.627686,197.850494 1129.706055,194.776520 1121.585083,194.448181 
	C1112.951416,194.099106 1105.521851,196.758987 1101.198975,206.069885 
M1727.698486,197.003983 
	C1727.129639,198.439331 1726.072266,199.872284 1726.065308,201.310349 
	C1725.959595,222.965256 1726.020630,244.620926 1725.949463,266.276093 
	C1725.942017,268.555817 1726.035278,271.332794 1724.841187,272.979584 
	C1723.500610,274.828308 1720.690674,276.732361 1718.630981,276.617798 
	C1716.646240,276.507355 1714.216064,274.192932 1713.068848,272.215912 
	C1712.004150,270.381287 1712.155273,267.713928 1712.149048,265.412201 
	C1712.091187,244.090088 1712.119873,222.767776 1712.104370,201.445526 
	C1712.103394,200.020020 1711.947998,198.594635 1711.875488,197.357544 
	C1707.086670,197.357544 1702.692993,197.357544 1698.151489,197.357544 
	C1698.151489,222.855560 1697.994141,247.995682 1698.247803,273.131653 
	C1698.323364,280.620117 1701.831909,286.451141 1709.361694,289.240479 
	C1726.074707,295.431885 1739.800781,286.099304 1739.835815,268.381409 
	C1739.880005,246.059753 1739.851318,223.737961 1739.836914,201.416214 
	C1739.835938,199.988571 1739.687012,198.561020 1739.599365,196.999603 
	C1735.645142,196.999603 1732.151001,196.999603 1727.698486,197.003983 
M1073.992920,222.452835 
	C1073.992920,224.203140 1073.992920,225.953445 1073.992920,227.649841 
	C1078.802734,227.649841 1082.906128,227.649841 1087.007568,227.649841 
	C1087.007568,222.157486 1087.363159,216.851959 1086.933960,211.610687 
	C1086.025513,200.517380 1078.028564,193.878937 1066.624390,194.285431 
	C1055.523804,194.681091 1047.286621,201.738693 1047.107178,212.189743 
	C1046.758545,232.491760 1046.752808,252.809433 1047.143066,273.110291 
	C1047.343384,283.532074 1054.441040,289.975189 1065.083008,290.833557 
	C1076.261841,291.735168 1084.601196,286.665100 1086.445068,276.656799 
	C1087.721680,269.727173 1087.425537,262.507751 1087.842407,255.238068 
	C1082.805298,255.238068 1078.565552,255.238068 1074.456909,255.238068 
	C1073.981689,261.213348 1074.000977,267.056732 1072.810059,272.642120 
	C1072.393799,274.594818 1068.960571,277.212860 1066.971313,277.157227 
	C1064.942993,277.100433 1062.483887,274.446259 1061.178467,272.333130 
	C1060.163696,270.690552 1060.472534,268.132294 1060.466187,265.980225 
	C1060.419434,250.162323 1060.425293,234.344193 1060.463989,218.526276 
	C1060.468384,216.708786 1060.165771,214.451981 1061.084473,213.175278 
	C1062.566895,211.115112 1064.891357,208.461151 1066.963379,208.368668 
	C1068.961548,208.279480 1071.946289,210.704224 1072.941772,212.773132 
	C1074.146240,215.276810 1073.715820,218.566986 1073.992920,222.452835 
M825.329163,257.497803 
	C825.329102,244.665741 825.287476,231.833405 825.367249,219.001846 
	C825.381592,216.701874 825.210693,213.941910 826.364990,212.230347 
	C827.650208,210.324646 830.318481,208.382751 832.447693,208.310394 
	C834.273254,208.248367 836.785339,210.444778 837.893250,212.299713 
	C838.981812,214.122070 838.833740,216.764297 838.957275,219.061325 
	C839.113342,221.963654 838.994995,224.880722 838.994995,227.568390 
	C843.870605,227.568390 847.958801,227.568390 851.986328,227.568390 
	C851.986328,221.972839 852.330750,216.645233 851.913818,211.377884 
	C851.075562,200.787613 843.790466,194.623306 832.318542,194.291992 
	C821.820679,193.988800 812.501831,200.939514 812.224060,210.992477 
	C811.644714,231.962433 811.653503,252.971100 812.236023,273.941193 
	C812.523682,284.297272 820.143433,290.381073 830.899475,290.860443 
	C842.131958,291.361053 850.278992,285.906647 851.623108,275.809143 
	C852.512085,269.130707 851.791504,262.238037 851.791504,255.238785 
	C847.789062,255.238785 843.558533,255.238785 839.431702,255.238785 
	C838.980347,261.053314 838.671509,266.652374 838.067566,272.219391 
	C837.689453,275.705566 835.303650,277.503876 831.907593,277.470764 
	C828.430603,277.436890 826.283813,275.349579 825.971069,271.941284 
	C825.561401,267.477417 825.525696,262.979218 825.329163,257.497803 
M950.309326,243.213013 
	C944.848206,239.439835 939.138123,235.968185 934.037659,231.758057 
	C931.714050,229.840134 929.950989,226.646317 929.111267,223.696030 
	C928.277771,220.767761 928.753479,217.407181 928.962830,214.256622 
	C929.234985,210.159256 931.568481,207.938828 935.751526,207.998917 
	C939.807556,208.057175 941.740601,210.440369 941.974915,214.267548 
	C942.132812,216.847168 942.005066,219.444305 942.005066,221.787216 
	C946.928406,221.787216 951.181396,221.787216 955.941833,221.787216 
	C955.629639,218.140900 955.472961,214.852188 955.046570,211.598831 
	C953.610779,200.642715 946.682251,194.179977 935.662415,194.379105 
	C927.222229,194.531616 918.047119,197.052490 915.823547,209.972580 
	C915.264832,213.219131 915.544434,216.604813 915.057861,219.869797 
	C913.062012,233.261612 918.493042,242.514572 930.760681,247.635330 
	C941.640930,252.176987 943.145325,260.908478 941.946960,270.999023 
	C941.523621,274.563934 940.045532,277.272644 935.640686,277.158813 
	C931.306152,277.046844 929.219360,274.849518 928.955383,270.770691 
	C928.778564,268.037811 928.921814,265.284210 928.921814,262.634918 
	C923.856995,262.634918 919.606567,262.634918 915.153320,262.634918 
	C915.153320,266.285492 914.964722,269.613983 915.187927,272.914612 
	C915.917114,283.695496 922.197632,289.998871 932.837463,290.841187 
	C944.070129,291.730438 953.069214,286.245514 954.564636,276.306732 
	C955.689697,268.829590 955.540222,261.061493 955.036987,253.484070 
	C954.815247,250.146088 952.307312,246.959961 950.309326,243.213013 
M1872.748901,194.387985 
	C1858.158936,197.074829 1853.992554,202.068085 1853.991089,216.868637 
	C1853.990845,220.531006 1854.243042,224.214554 1853.937134,227.851196 
	C1853.348633,234.849579 1856.665527,239.595322 1862.180176,243.195984 
	C1865.647339,245.459763 1869.149048,247.678879 1872.720337,249.772873 
	C1878.044312,252.894608 1881.123047,257.132385 1880.412231,263.618683 
	C1880.177856,265.757385 1880.431274,267.945038 1880.355103,270.106567 
	C1880.221924,273.891144 1879.394897,277.078308 1874.573853,277.136322 
	C1870.144531,277.189606 1867.758423,275.098480 1867.349731,270.165222 
	C1867.138062,267.610901 1867.312378,265.024628 1867.312378,262.607239 
	C1862.398926,262.607239 1858.306641,262.607239 1853.991333,262.607239 
	C1853.991333,265.894318 1853.979858,268.880951 1853.993408,271.867432 
	C1854.042969,282.796112 1859.659912,289.269257 1870.390381,290.776886 
	C1881.487183,292.335938 1890.754395,287.038818 1892.826172,276.770416 
	C1894.153931,270.189484 1893.679077,263.244354 1894.006714,256.462250 
	C1894.333740,249.693542 1891.455688,244.663300 1885.812012,241.020874 
	C1882.190186,238.683456 1878.710571,236.127197 1875.136475,233.714478 
	C1867.707031,228.699142 1864.721191,220.837036 1868.060303,212.624863 
	C1868.912354,210.529175 1872.253418,208.581421 1874.700684,208.209518 
	C1878.022217,207.704773 1880.129395,210.290222 1880.323975,213.783188 
	C1880.469727,216.399521 1880.352661,219.030487 1880.352661,221.885254 
	C1885.063965,221.885254 1889.305908,221.885254 1893.535034,221.885254 
	C1895.978516,206.758713 1890.414917,194.957535 1872.748901,194.387985 
M1244.926514,199.576935 
	C1237.684326,193.447357 1229.432251,193.078461 1221.080688,196.229752 
	C1214.059570,198.879105 1210.331787,204.970688 1210.186890,212.126114 
	C1209.778931,232.265259 1209.768555,252.423645 1210.165283,272.563354 
	C1210.376953,283.313263 1217.452759,289.926208 1228.122070,290.836884 
	C1239.144287,291.777649 1247.935425,286.428375 1249.621338,276.748383 
	C1250.830688,269.804443 1250.667725,262.621490 1251.131348,255.319580 
	C1245.944824,255.319580 1241.577637,255.319580 1237.455933,255.319580 
	C1236.985596,261.411224 1236.730103,267.199738 1236.023071,272.932556 
	C1235.614014,276.248810 1232.844360,278.066284 1229.898560,277.295135 
	C1227.720337,276.724976 1225.755127,274.515167 1224.233643,272.606476 
	C1223.456665,271.631683 1223.754517,269.712921 1223.752319,268.220581 
	C1223.726196,250.903244 1223.689697,233.585632 1223.763184,216.268570 
	C1223.785400,211.040207 1226.361938,208.035950 1230.396851,208.013382 
	C1234.241943,207.991867 1236.861572,211.251251 1236.984253,216.402954 
	C1237.073730,220.156616 1237.001709,223.914093 1237.001709,227.535858 
	C1241.931030,227.535858 1246.167969,227.535858 1250.737793,227.535858 
	C1250.533569,217.841553 1252.110962,208.220474 1244.926514,199.576935 
M1793.656250,214.961960 
	C1793.441895,213.652634 1793.174927,212.349442 1793.021362,211.033020 
	C1791.777588,200.361847 1783.811035,193.809769 1772.620117,194.276978 
	C1761.554321,194.738968 1753.291382,201.879440 1753.120728,212.242371 
	C1752.788940,232.399612 1752.763428,252.571564 1753.149902,272.727081 
	C1753.352173,283.273682 1760.218750,289.744110 1770.770264,290.822815 
	C1781.820435,291.952454 1790.562500,286.857086 1792.455811,277.009644 
	C1793.812744,269.953064 1793.585938,262.592072 1794.074341,255.235413 
	C1788.860107,255.235413 1784.603149,255.235413 1780.447754,255.235413 
	C1779.988647,261.220551 1779.710205,266.992371 1779.043335,272.718903 
	C1778.659424,276.014801 1776.006592,278.060669 1773.066528,277.283356 
	C1770.790039,276.681427 1768.835327,274.263611 1767.153198,272.297333 
	C1766.445435,271.469910 1766.702393,269.726898 1766.700195,268.399780 
	C1766.671631,251.069595 1766.622681,233.739120 1766.701904,216.409271 
	C1766.726318,211.055862 1769.177124,208.135651 1773.224243,208.016098 
	C1777.197144,207.898758 1779.876343,211.317596 1779.976440,216.765884 
	C1780.042725,220.372360 1779.989136,223.981064 1779.989136,227.568939 
	C1784.813599,227.568939 1789.048462,227.568939 1793.679810,227.568939 
	C1793.679810,223.475662 1793.679810,219.674683 1793.656250,214.961960 
M898.023560,225.225479 
	C896.711792,215.815201 895.400024,206.404922 894.117371,197.203461 
	C887.142395,197.203461 881.028870,197.203461 874.639893,197.203461 
	C870.414551,227.534119 866.212036,257.700409 861.974548,288.117859 
	C866.431152,288.117859 870.533508,288.117859 875.063538,288.117859 
	C875.809631,282.453766 876.558167,276.770966 877.306091,271.093018 
	C882.298218,271.093018 887.052063,271.093018 891.922485,271.093018 
	C892.700256,276.873657 893.448547,282.435516 894.217102,288.147949 
	C898.509521,288.147949 902.628967,288.147949 907.461792,288.147949 
	C904.354431,267.311066 901.280762,246.699570 898.023560,225.225479 
M637.108154,268.499359 
	C637.108154,274.961731 637.108154,281.424072 637.108154,288.003479 
	C641.877991,288.003479 646.280029,288.003479 650.980225,288.003479 
	C650.980225,275.574615 650.980225,263.466919 650.980225,250.926361 
	C654.892639,250.926361 658.521729,251.051804 662.139038,250.899002 
	C668.698486,250.621933 674.488525,246.191208 674.848572,239.815338 
	C675.446838,229.218353 675.412354,218.549240 674.932312,207.942719 
	C674.681152,202.393341 670.038940,197.647659 664.642273,197.327820 
	C655.583191,196.790924 646.469116,197.180923 637.108154,197.180923 
	C637.108154,220.907791 637.108154,244.203720 637.108154,268.499359 
M1516.470947,248.120895 
	C1518.300171,244.899582 1521.455811,241.778015 1521.707153,238.438019 
	C1522.428833,228.839203 1522.154297,219.147751 1521.922363,209.501114 
	C1521.767212,203.049896 1517.253174,197.665039 1510.962280,197.274323 
	C1502.076416,196.722458 1493.130615,197.134521 1484.334961,197.134521 
	C1484.334961,227.798264 1484.334961,258.000122 1484.334961,288.068237 
	C1488.793213,288.068237 1492.913086,288.068237 1497.505371,288.068237 
	C1497.505371,275.622467 1497.505371,263.412811 1497.505371,252.068909 
	C1504.052979,250.850098 1509.982788,249.746292 1516.470947,248.120895 
M1410.232788,198.846634 
	C1410.232788,228.486801 1410.232788,258.126984 1410.232788,288.046844 
	C1420.209106,288.046844 1429.953125,288.046844 1439.695801,288.046844 
	C1439.695801,283.361420 1439.695801,278.923737 1439.695801,274.015869 
	C1434.409546,274.015869 1429.340210,274.015869 1424.236816,274.015869 
	C1424.236816,265.458557 1424.236816,257.380768 1424.236816,248.928772 
	C1429.049683,248.928772 1433.643188,248.928772 1438.473389,248.928772 
	C1438.473389,244.153259 1438.473389,239.754150 1438.473389,234.825012 
	C1433.526001,234.825012 1428.809082,234.825012 1424.292236,234.825012 
	C1424.292236,226.700943 1424.292236,219.109283 1424.292236,211.018753 
	C1429.622925,211.018753 1434.680054,211.018753 1439.645874,211.018753 
	C1439.645874,206.094391 1439.645874,201.682617 1439.645874,196.996689 
	C1432.890137,196.996689 1426.416138,196.900162 1419.947144,197.037537 
	C1416.729492,197.105881 1413.521118,197.603165 1410.232788,198.846634 
M745.190369,288.215027 
	C754.646118,288.215027 764.101868,288.215027 773.485962,288.215027 
	C773.485962,283.299591 773.485962,278.752869 773.485962,273.903748 
	C768.169434,273.903748 763.234619,273.903748 758.179688,273.903748 
	C758.179688,265.514282 758.179688,257.443329 758.179688,248.957062 
	C762.936096,248.957062 767.513000,248.957062 772.274658,248.957062 
	C772.274658,244.119614 772.274658,239.699249 772.274658,234.892685 
	C767.455933,234.892685 762.868774,234.892685 758.293701,234.892685 
	C758.293701,226.793671 758.293701,219.085052 758.293701,211.081604 
	C763.535950,211.081604 768.470459,211.081604 773.528442,211.081604 
	C773.528442,206.243011 773.528442,201.713440 773.528442,197.289322 
	C763.607056,197.289322 754.029907,197.289322 744.136597,197.289322 
	C744.136597,199.543030 744.131836,201.509109 744.137390,203.475159 
	C744.216370,231.587357 744.296692,259.699554 745.190369,288.215027 
M1324.617676,197.001083 
	C1323.176514,197.001083 1321.735474,197.001083 1320.264404,197.001083 
	C1320.264404,227.670181 1320.264404,257.854584 1320.264404,288.061707 
	C1329.952759,288.061707 1339.368652,288.061707 1348.622681,288.061707 
	C1348.622681,283.236450 1348.622681,278.675842 1348.622681,273.859314 
	C1343.456421,273.859314 1338.673096,273.859314 1333.827148,273.859314 
	C1333.827148,265.507050 1333.827148,257.434845 1333.827148,248.878860 
	C1338.564941,248.878860 1343.139404,248.878860 1347.686768,248.878860 
	C1347.686768,243.987778 1347.686768,239.587143 1347.686768,234.742844 
	C1342.855713,234.742844 1338.299316,234.742844 1333.948486,234.742844 
	C1333.948486,226.702179 1333.948486,219.115204 1333.948486,211.222412 
	C1339.007324,211.222412 1343.774780,211.222412 1348.742676,211.222412 
	C1348.742676,206.358276 1348.742676,201.811325 1348.742676,197.001114 
	C1340.854492,197.001114 1333.226440,197.001114 1324.617676,197.001083 
M992.992065,279.433289 
	C992.992065,256.894745 992.992065,234.356186 992.992065,211.533234 
	C997.846558,211.533234 1001.961609,211.533234 1006.252563,211.533234 
	C1006.252563,206.549896 1006.252563,201.862793 1006.252563,197.294296 
	C992.642212,197.294296 979.407043,197.294296 966.248047,197.294296 
	C966.248047,202.183777 966.248047,206.770111 966.248047,211.737671 
	C970.578125,211.737671 974.667175,211.737671 979.114441,211.737671 
	C979.114441,237.353821 979.114441,262.583801 979.114441,288.070160 
	C983.915161,288.070160 988.338806,288.070160 992.992065,288.070160 
	C992.992065,285.385284 992.992065,282.896851 992.992065,279.433289 
M1808.596924,196.995224 
	C1806.823364,196.995224 1805.049805,196.995224 1803.189453,196.995224 
	C1803.189453,202.078995 1803.189453,206.666885 1803.189453,211.821777 
	C1807.578003,211.821777 1811.788452,211.821777 1816.380981,211.821777 
	C1816.380981,237.586945 1816.380981,262.785370 1816.380981,288.138519 
	C1821.078369,288.138519 1825.359619,288.138519 1830.118408,288.138519 
	C1830.118408,262.577423 1830.118408,237.202988 1830.118408,211.399429 
	C1834.838745,211.399429 1839.079102,211.399429 1843.311523,211.399429 
	C1843.311523,206.374054 1843.311523,201.789307 1843.311523,196.995224 
	C1831.861206,196.995224 1820.717773,196.995224 1808.596924,196.995224 
M1358.350464,209.952286 
	C1359.504028,210.543915 1360.626831,211.559784 1361.816895,211.645828 
	C1365.081909,211.881851 1368.375244,211.727219 1371.989990,211.727219 
	C1371.989990,237.380020 1371.989990,262.638855 1371.989990,288.071045 
	C1376.773071,288.071045 1381.208740,288.071045 1386.008057,288.071045 
	C1386.008057,262.558563 1386.008057,237.300690 1386.008057,211.650711 
	C1390.447510,211.650711 1394.538086,211.650711 1398.681885,211.650711 
	C1398.681885,206.541824 1398.681885,201.834030 1398.681885,197.315430 
	C1385.115601,197.315430 1371.880249,197.315430 1358.332886,197.315430 
	C1358.332886,201.435165 1358.332886,205.241867 1358.350464,209.952286 
M796.393738,247.017532 
	C798.659119,247.017532 800.924438,247.017532 803.247314,247.017532 
	C803.247314,242.736023 803.247314,238.996552 803.247314,235.422684 
	C795.719238,235.422684 788.504333,235.422684 781.365051,235.422684 
	C781.365051,239.410995 781.365051,243.007584 781.365051,247.017532 
	C786.198181,247.017532 790.811523,247.017532 796.393738,247.017532 
z"/>
<path fill="#0D5890" opacity="1.000000" stroke="none" 
	d="
M107.984314,339.993134 
	C81.205925,325.630066 54.819908,311.305725 28.329412,297.177246 
	C23.756121,294.738159 21.835543,291.860260 21.854433,286.360809 
	C22.078264,221.203262 22.030401,156.044601 21.914469,90.886505 
	C21.907936,87.215775 23.013126,85.414375 26.349707,83.768707 
	C71.689034,61.406467 117.049721,39.080807 162.107040,16.160131 
	C169.605072,12.345882 176.278488,12.806405 183.729080,14.327933 
	C203.341873,18.333181 223.000519,22.113613 242.635345,26.011580 
	C254.386353,28.344425 266.127563,30.726501 277.871643,33.094364 
	C280.465698,33.617386 281.072937,35.284489 281.051025,37.800205 
	C280.939209,50.630924 280.997864,63.463131 280.996918,76.294815 
	C280.996796,78.060051 280.996887,79.825287 280.996887,82.202629 
	C286.757416,79.603531 291.859650,77.403664 296.874573,75.020119 
	C313.722168,67.012566 330.798828,59.432285 347.280975,50.728645 
	C359.475098,44.289375 370.980316,40.735409 385.200928,44.711250 
	C407.126099,50.841145 429.594574,55.059692 451.903320,59.752785 
	C455.475525,60.504269 456.062500,61.982880 456.042084,65.051933 
	C455.946838,79.377701 455.999817,93.704445 455.999817,108.801277 
	C457.967255,107.892059 459.537476,107.216591 461.063843,106.453369 
	C479.847168,97.061249 498.762299,87.918396 517.334106,78.124680 
	C524.683716,74.248917 531.525452,72.710640 539.777039,74.934158 
	C557.966064,79.835419 576.359436,83.978485 594.998596,88.510994 
	C594.998596,90.298035 594.998596,91.939873 594.998596,93.581718 
	C594.998596,152.574158 594.935486,211.566788 595.117188,270.558655 
	C595.131897,275.324158 593.447510,277.264679 589.150391,278.497498 
	C569.578613,284.112579 550.085815,290.002716 530.520386,295.640747 
	C529.134766,296.040070 527.195496,295.582214 525.850098,294.879181 
	C518.835876,291.214020 512.008362,287.185364 504.937134,283.639587 
	C502.969452,282.652954 500.205078,283.323242 498.139893,282.446960 
	C495.164703,281.184479 492.494507,279.203217 489.701416,277.533051 
	C490.196716,277.234131 490.842865,276.844208 491.489136,276.454193 
	C479.579437,270.064697 467.703400,263.693237 455.001862,256.878937 
	C455.001862,264.757782 455.001923,271.808929 455.001862,278.860107 
	C455.001770,287.858948 454.873993,296.860535 455.068054,305.855194 
	C455.139435,309.162872 453.931427,310.291992 450.756012,311.108276 
	C423.413849,318.136780 396.123535,325.368195 368.838531,332.617310 
	C363.062225,334.151978 359.083862,330.414917 354.675110,328.090851 
	C344.759064,322.863525 335.492920,315.698761 324.994476,312.450012 
	C310.185547,307.867401 297.888397,299.179169 284.566101,292.155548 
	C283.043854,291.353058 281.904419,289.824371 280.300110,288.372284 
	C280.300110,306.920563 280.300110,325.588470 280.300110,344.641724 
	C265.929626,348.470093 252.037354,352.275848 238.088791,355.862793 
	C216.624710,361.382446 195.054443,366.504944 173.682022,372.354218 
	C168.150787,373.868073 164.704330,370.846924 160.850433,368.825684 
	C145.663727,360.860779 130.685883,352.497345 115.639908,344.264648 
	C113.182785,342.920166 110.773003,341.489136 107.984314,339.993134 
M529.424377,85.568405 
	C529.283020,86.877274 529.018494,88.186111 529.018066,89.495026 
	C528.997925,153.118454 528.992615,216.741898 529.047302,280.365295 
	C529.048645,281.899994 529.746643,283.434143 530.921631,285.254395 
	C532.219299,285.059082 533.555542,285.000763 534.808838,284.647705 
	C551.727783,279.881470 568.593567,274.918182 585.576233,270.392731 
	C589.555115,269.332428 590.672180,267.773315 590.660400,263.693268 
	C590.504211,209.740555 590.556152,155.787231 590.556091,101.834053 
	C590.556091,100.076477 590.556091,98.318909 590.556091,96.578979 
	C576.204712,93.639603 562.570190,90.765953 548.898193,88.083168 
	C542.646057,86.856346 536.320251,86.005432 529.424377,85.568405 
M187.489899,359.921082 
	C214.911545,353.208160 242.322433,346.450562 269.768036,339.836975 
	C273.327454,338.979248 274.777740,337.625366 274.772034,333.597229 
	C274.635590,237.465530 274.647949,141.333572 274.741516,45.201756 
	C274.744873,41.751297 273.967224,40.429123 270.328308,39.734917 
	C245.687164,35.034042 221.108994,30.003418 196.506592,25.098900 
	C189.098038,23.621994 181.677155,22.206926 174.164856,20.744638 
	C174.164856,135.192596 174.164856,249.002365 174.164856,363.196960 
	C178.640854,362.078888 182.655045,361.076141 187.489899,359.921082 
M424.804871,62.832573 
	C406.323639,59.101856 387.842407,55.371140 369.224243,51.612782 
	C369.224243,142.545273 369.224243,232.744202 369.224243,323.077942 
	C370.409210,322.945190 371.256195,322.946472 372.052948,322.747070 
	C396.378967,316.658966 420.673553,310.441162 445.048645,304.556824 
	C449.015594,303.599182 449.796783,301.915344 449.785980,298.146637 
	C449.650665,250.982376 449.697113,203.817581 449.700195,156.652939 
	C449.702026,128.987717 449.609009,101.321747 449.818085,73.658081 
	C449.851074,69.286240 449.120667,67.035645 444.254181,66.493019 
	C437.997437,65.795387 431.839447,64.212036 424.804871,62.832573 
z"/>
<path fill="#FAFAFA" opacity="1.000000" stroke="none" 
	d="
M1154.912354,263.999939 
	C1154.912354,241.532990 1154.912354,219.566055 1154.912354,197.298141 
	C1159.487061,197.298141 1163.888062,197.298141 1168.492188,197.298141 
	C1173.106689,214.402771 1177.722168,231.510300 1182.337524,248.617828 
	C1182.564941,248.587234 1182.792358,248.556625 1183.019775,248.526016 
	C1183.019775,231.493073 1183.019775,214.460129 1183.019775,197.214111 
	C1187.292480,197.214111 1191.233887,197.214111 1195.524414,197.214111 
	C1195.524414,227.380753 1195.524414,257.598083 1195.524414,288.071228 
	C1191.324829,288.071228 1187.031494,288.071228 1182.118286,288.071228 
	C1177.699463,272.258026 1173.200806,256.159668 1168.702148,240.061295 
	C1168.419678,240.093781 1168.137085,240.126251 1167.854492,240.158737 
	C1167.854492,255.959991 1167.854492,271.761261 1167.854492,287.942688 
	C1163.337646,287.942688 1159.286987,287.942688 1154.912354,287.942688 
	C1154.912354,280.116577 1154.912354,272.308289 1154.912354,263.999939 
z"/>
<path fill="#F9F9F9" opacity="1.000000" stroke="none" 
	d="
M1685.337646,269.501465 
	C1685.202148,271.614441 1685.170288,273.282349 1684.971069,274.929993 
	C1684.218750,281.153809 1680.841675,288.376526 1671.734863,288.167664 
	C1662.773804,287.962097 1653.804565,288.122833 1644.576294,288.122833 
	C1644.576294,257.823425 1644.576294,227.745682 1644.576294,197.238129 
	C1654.344971,197.238129 1664.133789,196.692749 1673.827393,197.419281 
	C1680.945312,197.952759 1684.886597,203.424362 1684.975342,211.076355 
	C1685.199097,230.398849 1685.246582,249.723404 1685.337646,269.501465 
M1671.350220,232.502899 
	C1671.350464,229.346008 1671.364014,226.189056 1671.348511,223.032242 
	C1671.299194,212.958755 1669.246582,211.146271 1659.299072,212.400986 
	C1659.299072,233.236771 1659.299072,254.075195 1659.299072,274.903931 
	C1670.037720,275.155060 1671.335327,273.893524 1671.347900,263.409332 
	C1671.359863,253.440201 1671.350220,243.471039 1671.350220,232.502899 
z"/>
<path fill="#F8F8F8" opacity="1.000000" stroke="none" 
	d="
M1535.343018,251.999802 
	C1535.343018,233.545227 1535.343018,215.590683 1535.343018,197.171799 
	C1546.058960,197.171799 1556.484863,196.812195 1566.869019,197.314560 
	C1572.565308,197.590149 1575.738892,201.428055 1575.951538,207.281631 
	C1576.246948,215.408340 1576.266846,223.567657 1575.834351,231.682602 
	C1575.723999,233.754059 1573.804443,236.088455 1572.102173,237.619385 
	C1570.226440,239.306427 1567.643677,240.207214 1564.548950,241.898575 
	C1576.062256,245.362946 1576.894653,253.988953 1576.491333,263.523224 
	C1576.148315,271.631287 1576.420532,279.765350 1576.420532,287.972076 
	C1576.435059,287.964783 1576.291504,288.090851 1576.136719,288.106873 
	C1562.999878,289.464081 1562.999756,289.463440 1562.999756,276.388306 
	C1562.999756,271.560425 1563.000122,266.732574 1562.999634,261.904694 
	C1562.998413,250.457703 1561.862305,249.388977 1549.686279,250.051895 
	C1549.686279,256.239441 1549.686401,262.487305 1549.686401,268.735168 
	C1549.686401,275.053864 1549.686279,281.372559 1549.686279,288.010681 
	C1544.903564,288.010681 1540.338379,288.010681 1535.343018,288.010681 
	C1535.343018,276.055084 1535.343018,264.277435 1535.343018,251.999802 
M1549.682007,213.597321 
	C1549.682007,220.997101 1549.682007,228.396896 1549.682007,235.743942 
	C1558.396729,235.938507 1561.585205,234.505234 1561.971436,229.959412 
	C1562.350464,225.498413 1562.439819,220.927383 1561.856567,216.510178 
	C1561.606934,214.619110 1559.571167,211.860016 1557.922363,211.513077 
	C1555.368652,210.975708 1552.451172,212.167267 1549.682007,213.597321 
z"/>
<path fill="#F9F9F9" opacity="1.000000" stroke="none" 
	d="
M1589.129639,268.853455 
	C1589.130859,250.375595 1589.066284,232.377716 1589.160889,214.380692 
	C1589.211060,204.863754 1594.375000,197.612701 1602.357666,195.349792 
	C1612.269165,192.540131 1622.605957,195.264160 1626.790405,202.661591 
	C1628.733887,206.097122 1629.756714,210.491776 1629.824341,214.474976 
	C1630.135620,232.800522 1629.993408,251.134338 1629.953613,269.465057 
	C1629.923096,283.527283 1622.931152,290.829834 1609.547729,290.910614 
	C1596.497681,290.989380 1589.298584,283.381561 1589.129639,268.853455 
M1616.022217,249.499969 
	C1616.022339,238.338593 1616.054932,227.177063 1616.007202,216.015884 
	C1615.986938,211.300369 1613.718872,208.613159 1609.890381,208.494415 
	C1605.826660,208.368393 1603.696045,210.571335 1603.666504,215.722778 
	C1603.562500,233.880173 1603.603149,252.038559 1603.638306,270.196472 
	C1603.645874,274.094482 1604.842407,277.098236 1609.567261,277.036346 
	C1613.732544,276.981781 1615.939941,274.715637 1616.000977,269.990417 
	C1616.084839,263.494598 1616.022095,256.996857 1616.022217,249.499969 
z"/>
<path fill="#FBFBFB" opacity="1.000000" stroke="none" 
	d="
M1300.225586,245.812286 
	C1303.822388,248.254333 1305.229370,251.279572 1305.173340,255.325684 
	C1305.023560,266.125305 1305.122314,276.928345 1305.122314,287.896790 
	C1301.180054,287.896790 1296.819580,287.896790 1291.993774,287.896790 
	C1291.993774,278.851440 1291.994019,270.221466 1291.993652,261.591492 
	C1291.993286,250.516510 1289.537476,248.463943 1278.315430,250.383530 
	C1278.315430,262.794434 1278.315430,275.245667 1278.315430,288.007629 
	C1273.541260,288.007629 1268.988770,288.007629 1264.375488,288.007629 
	C1264.375488,257.699097 1264.375488,227.612030 1264.375488,197.139236 
	C1274.830811,197.139236 1285.112183,196.809250 1295.358643,197.265091 
	C1301.344238,197.531372 1304.793335,201.817032 1304.990112,207.916290 
	C1305.199585,214.403198 1304.865723,220.914154 1305.240967,227.387268 
	C1305.599854,233.576889 1302.965088,237.475174 1297.440308,239.766907 
	C1296.384155,240.205048 1295.367432,240.738312 1293.971924,241.398132 
	C1296.081177,242.879517 1298.008667,244.233292 1300.225586,245.812286 
M1291.095703,228.082397 
	C1291.096436,225.763641 1291.100586,223.444901 1291.097290,221.126144 
	C1291.083862,211.731995 1287.878052,209.329498 1278.683105,211.603119 
	C1278.683105,219.667145 1278.683105,227.672989 1278.683105,235.633698 
	C1287.625000,236.204590 1289.545898,235.134567 1291.095703,228.082397 
z"/>
<path fill="#FBFBFB" opacity="1.000000" stroke="none" 
	d="
M702.935791,255.073395 
	C702.935852,266.223083 702.935852,276.878815 702.935852,287.926819 
	C698.469604,287.926819 694.064819,287.926819 689.323242,287.926819 
	C689.323242,258.023651 689.323242,227.812195 689.323242,197.140091 
	C699.428589,197.140091 709.698425,196.760529 719.922546,197.280121 
	C726.221375,197.600220 729.603638,202.090775 729.799072,208.929413 
	C729.989197,215.583939 729.776245,222.249023 729.831299,228.908707 
	C729.867981,233.340576 727.970581,236.531693 724.088074,238.595383 
	C722.363037,239.512314 720.643555,240.439499 717.964661,241.874619 
	C730.344238,245.862061 730.433167,255.258911 729.943420,265.192719 
	C729.568604,272.794678 729.868896,280.429901 729.868896,287.888031 
	C729.401367,288.108795 729.265259,288.228943 729.128479,288.229736 
	C713.858032,288.315948 716.387329,289.990784 716.149963,275.945923 
	C716.059937,270.618927 716.140747,265.289124 716.134460,259.960602 
	C716.123962,251.106125 714.833618,249.793671 706.195251,249.823196 
	C705.363770,249.826035 704.532349,249.823563 702.935791,249.823563 
	C702.935791,251.456512 702.935791,253.017990 702.935791,255.073395 
M715.641541,222.596741 
	C715.624756,211.741394 713.349792,209.714172 703.210571,211.484314 
	C703.210571,219.567245 703.210571,227.641571 703.210571,235.696304 
	C713.547119,236.124802 715.579895,234.414261 715.640930,225.491928 
	C715.645447,224.826126 715.641541,224.160278 715.641541,222.596741 
z"/>
<path fill="#FBFBFB" opacity="1.000000" stroke="none" 
	d="
M1101.381348,205.719818 
	C1105.521851,196.758987 1112.951416,194.099106 1121.585083,194.448181 
	C1129.706055,194.776520 1136.627686,197.850494 1139.189575,206.429749 
	C1140.214844,209.862900 1140.535400,213.610001 1140.564941,217.219208 
	C1140.702393,234.019318 1140.683350,250.821548 1140.576660,267.622101 
	C1140.555786,270.914154 1140.336304,274.324951 1139.454468,277.469513 
	C1136.565430,287.771088 1127.781006,292.598755 1115.964844,290.747650 
	C1106.158081,289.211365 1100.015747,281.948395 1100.001709,271.753052 
	C1099.974976,252.456635 1099.948364,233.159912 1100.046753,213.863968 
	C1100.060059,211.264038 1100.797119,208.667816 1101.381348,205.719818 
M1126.654419,233.500793 
	C1126.632690,227.185150 1126.783569,220.862427 1126.525024,214.556503 
	C1126.368408,210.736481 1124.099976,208.347412 1120.086914,208.494659 
	C1116.085571,208.641434 1114.069336,211.285751 1114.046265,214.996033 
	C1113.930298,233.612442 1113.947998,252.230164 1114.032104,270.846924 
	C1114.048096,274.397278 1115.806274,276.814362 1119.698730,277.040466 
	C1123.719849,277.274048 1125.937012,275.307861 1126.426392,271.381958 
	C1126.610229,269.906128 1126.643188,268.404358 1126.645508,266.914276 
	C1126.662842,256.109680 1126.654541,245.305099 1126.654419,233.500793 
z"/>
<path fill="#FBFAFA" opacity="1.000000" stroke="none" 
	d="
M1728.177734,197.001801 
	C1732.151001,196.999603 1735.645142,196.999603 1739.599365,196.999603 
	C1739.687012,198.561020 1739.835938,199.988571 1739.836914,201.416214 
	C1739.851318,223.737961 1739.880005,246.059753 1739.835815,268.381409 
	C1739.800781,286.099304 1726.074707,295.431885 1709.361694,289.240479 
	C1701.831909,286.451141 1698.323364,280.620117 1698.247803,273.131653 
	C1697.994141,247.995682 1698.151489,222.855560 1698.151489,197.357544 
	C1702.692993,197.357544 1707.086670,197.357544 1711.875488,197.357544 
	C1711.947998,198.594635 1712.103394,200.020020 1712.104370,201.445526 
	C1712.119873,222.767776 1712.091187,244.090088 1712.149048,265.412201 
	C1712.155273,267.713928 1712.004150,270.381287 1713.068848,272.215912 
	C1714.216064,274.192932 1716.646240,276.507355 1718.630981,276.617798 
	C1720.690674,276.732361 1723.500610,274.828308 1724.841187,272.979584 
	C1726.035278,271.332794 1725.942017,268.555817 1725.949463,266.276093 
	C1726.020630,244.620926 1725.959595,222.965256 1726.065308,201.310349 
	C1726.072266,199.872284 1727.129639,198.439331 1728.177734,197.001801 
z"/>
<path fill="#FBFBFB" opacity="1.000000" stroke="none" 
	d="
M1073.992920,221.984833 
	C1073.715820,218.566986 1074.146240,215.276810 1072.941772,212.773132 
	C1071.946289,210.704224 1068.961548,208.279480 1066.963379,208.368668 
	C1064.891357,208.461151 1062.566895,211.115112 1061.084473,213.175278 
	C1060.165771,214.451981 1060.468384,216.708786 1060.463989,218.526276 
	C1060.425293,234.344193 1060.419434,250.162323 1060.466187,265.980225 
	C1060.472534,268.132294 1060.163696,270.690552 1061.178467,272.333130 
	C1062.483887,274.446259 1064.942993,277.100433 1066.971313,277.157227 
	C1068.960571,277.212860 1072.393799,274.594818 1072.810059,272.642120 
	C1074.000977,267.056732 1073.981689,261.213348 1074.456909,255.238068 
	C1078.565552,255.238068 1082.805298,255.238068 1087.842407,255.238068 
	C1087.425537,262.507751 1087.721680,269.727173 1086.445068,276.656799 
	C1084.601196,286.665100 1076.261841,291.735168 1065.083008,290.833557 
	C1054.441040,289.975189 1047.343384,283.532074 1047.143066,273.110291 
	C1046.752808,252.809433 1046.758545,232.491760 1047.107178,212.189743 
	C1047.286621,201.738693 1055.523804,194.681091 1066.624390,194.285431 
	C1078.028564,193.878937 1086.025513,200.517380 1086.933960,211.610687 
	C1087.363159,216.851959 1087.007568,222.157486 1087.007568,227.649841 
	C1082.906128,227.649841 1078.802734,227.649841 1073.992920,227.649841 
	C1073.992920,225.953445 1073.992920,224.203140 1073.992920,221.984833 
z"/>
<path fill="#FCFCFC" opacity="1.000000" stroke="none" 
	d="
M825.329163,257.996796 
	C825.525696,262.979218 825.561401,267.477417 825.971069,271.941284 
	C826.283813,275.349579 828.430603,277.436890 831.907593,277.470764 
	C835.303650,277.503876 837.689453,275.705566 838.067566,272.219391 
	C838.671509,266.652374 838.980347,261.053314 839.431702,255.238785 
	C843.558533,255.238785 847.789062,255.238785 851.791504,255.238785 
	C851.791504,262.238037 852.512085,269.130707 851.623108,275.809143 
	C850.278992,285.906647 842.131958,291.361053 830.899475,290.860443 
	C820.143433,290.381073 812.523682,284.297272 812.236023,273.941193 
	C811.653503,252.971100 811.644714,231.962433 812.224060,210.992477 
	C812.501831,200.939514 821.820679,193.988800 832.318542,194.291992 
	C843.790466,194.623306 851.075562,200.787613 851.913818,211.377884 
	C852.330750,216.645233 851.986328,221.972839 851.986328,227.568390 
	C847.958801,227.568390 843.870605,227.568390 838.994995,227.568390 
	C838.994995,224.880722 839.113342,221.963654 838.957275,219.061325 
	C838.833740,216.764297 838.981812,214.122070 837.893250,212.299713 
	C836.785339,210.444778 834.273254,208.248367 832.447693,208.310394 
	C830.318481,208.382751 827.650208,210.324646 826.364990,212.230347 
	C825.210693,213.941910 825.381592,216.701874 825.367249,219.001846 
	C825.287476,231.833405 825.329102,244.665741 825.329163,257.996796 
z"/>
<path fill="#F9F9F9" opacity="1.000000" stroke="none" 
	d="
M950.573364,243.458954 
	C952.307312,246.959961 954.815247,250.146088 955.036987,253.484070 
	C955.540222,261.061493 955.689697,268.829590 954.564636,276.306732 
	C953.069214,286.245514 944.070129,291.730438 932.837463,290.841187 
	C922.197632,289.998871 915.917114,283.695496 915.187927,272.914612 
	C914.964722,269.613983 915.153320,266.285492 915.153320,262.634918 
	C919.606567,262.634918 923.856995,262.634918 928.921814,262.634918 
	C928.921814,265.284210 928.778564,268.037811 928.955383,270.770691 
	C929.219360,274.849518 931.306152,277.046844 935.640686,277.158813 
	C940.045532,277.272644 941.523621,274.563934 941.946960,270.999023 
	C943.145325,260.908478 941.640930,252.176987 930.760681,247.635330 
	C918.493042,242.514572 913.062012,233.261612 915.057861,219.869797 
	C915.544434,216.604813 915.264832,213.219131 915.823547,209.972580 
	C918.047119,197.052490 927.222229,194.531616 935.662415,194.379105 
	C946.682251,194.179977 953.610779,200.642715 955.046570,211.598831 
	C955.472961,214.852188 955.629639,218.140900 955.941833,221.787216 
	C951.181396,221.787216 946.928406,221.787216 942.005066,221.787216 
	C942.005066,219.444305 942.132812,216.847168 941.974915,214.267548 
	C941.740601,210.440369 939.807556,208.057175 935.751526,207.998917 
	C931.568481,207.938828 929.234985,210.159256 928.962830,214.256622 
	C928.753479,217.407181 928.277771,220.767761 929.111267,223.696030 
	C929.950989,226.646317 931.714050,229.840134 934.037659,231.758057 
	C939.138123,235.968185 944.848206,239.439835 950.573364,243.458954 
z"/>
<path fill="#FAFAFA" opacity="1.000000" stroke="none" 
	d="
M1873.165283,194.338043 
	C1890.414917,194.957535 1895.978516,206.758713 1893.535034,221.885254 
	C1889.305908,221.885254 1885.063965,221.885254 1880.352661,221.885254 
	C1880.352661,219.030487 1880.469727,216.399521 1880.323975,213.783188 
	C1880.129395,210.290222 1878.022217,207.704773 1874.700684,208.209518 
	C1872.253418,208.581421 1868.912354,210.529175 1868.060303,212.624863 
	C1864.721191,220.837036 1867.707031,228.699142 1875.136475,233.714478 
	C1878.710571,236.127197 1882.190186,238.683456 1885.812012,241.020874 
	C1891.455688,244.663300 1894.333740,249.693542 1894.006714,256.462250 
	C1893.679077,263.244354 1894.153931,270.189484 1892.826172,276.770416 
	C1890.754395,287.038818 1881.487183,292.335938 1870.390381,290.776886 
	C1859.659912,289.269257 1854.042969,282.796112 1853.993408,271.867432 
	C1853.979858,268.880951 1853.991333,265.894318 1853.991333,262.607239 
	C1858.306641,262.607239 1862.398926,262.607239 1867.312378,262.607239 
	C1867.312378,265.024628 1867.138062,267.610901 1867.349731,270.165222 
	C1867.758423,275.098480 1870.144531,277.189606 1874.573853,277.136322 
	C1879.394897,277.078308 1880.221924,273.891144 1880.355103,270.106567 
	C1880.431274,267.945038 1880.177856,265.757385 1880.412231,263.618683 
	C1881.123047,257.132385 1878.044312,252.894608 1872.720337,249.772873 
	C1869.149048,247.678879 1865.647339,245.459763 1862.180176,243.195984 
	C1856.665527,239.595322 1853.348633,234.849579 1853.937134,227.851196 
	C1854.243042,224.214554 1853.990845,220.531006 1853.991089,216.868637 
	C1853.992554,202.068085 1858.158936,197.074829 1873.165283,194.338043 
z"/>
<path fill="#F9F9F9" opacity="1.000000" stroke="none" 
	d="
M1245.183838,199.841568 
	C1252.110962,208.220474 1250.533569,217.841553 1250.737793,227.535858 
	C1246.167969,227.535858 1241.931030,227.535858 1237.001709,227.535858 
	C1237.001709,223.914093 1237.073730,220.156616 1236.984253,216.402954 
	C1236.861572,211.251251 1234.241943,207.991867 1230.396851,208.013382 
	C1226.361938,208.035950 1223.785400,211.040207 1223.763184,216.268570 
	C1223.689697,233.585632 1223.726196,250.903244 1223.752319,268.220581 
	C1223.754517,269.712921 1223.456665,271.631683 1224.233643,272.606476 
	C1225.755127,274.515167 1227.720337,276.724976 1229.898560,277.295135 
	C1232.844360,278.066284 1235.614014,276.248810 1236.023071,272.932556 
	C1236.730103,267.199738 1236.985596,261.411224 1237.455933,255.319580 
	C1241.577637,255.319580 1245.944824,255.319580 1251.131348,255.319580 
	C1250.667725,262.621490 1250.830688,269.804443 1249.621338,276.748383 
	C1247.935425,286.428375 1239.144287,291.777649 1228.122070,290.836884 
	C1217.452759,289.926208 1210.376953,283.313263 1210.165283,272.563354 
	C1209.768555,252.423645 1209.778931,232.265259 1210.186890,212.126114 
	C1210.331787,204.970688 1214.059570,198.879105 1221.080688,196.229752 
	C1229.432251,193.078461 1237.684326,193.447357 1245.183838,199.841568 
z"/>
<path fill="#F9F9F9" opacity="1.000000" stroke="none" 
	d="
M1793.667969,215.417831 
	C1793.679810,219.674683 1793.679810,223.475662 1793.679810,227.568939 
	C1789.048462,227.568939 1784.813599,227.568939 1779.989136,227.568939 
	C1779.989136,223.981064 1780.042725,220.372360 1779.976440,216.765884 
	C1779.876343,211.317596 1777.197144,207.898758 1773.224243,208.016098 
	C1769.177124,208.135651 1766.726318,211.055862 1766.701904,216.409271 
	C1766.622681,233.739120 1766.671631,251.069595 1766.700195,268.399780 
	C1766.702393,269.726898 1766.445435,271.469910 1767.153198,272.297333 
	C1768.835327,274.263611 1770.790039,276.681427 1773.066528,277.283356 
	C1776.006592,278.060669 1778.659424,276.014801 1779.043335,272.718903 
	C1779.710205,266.992371 1779.988647,261.220551 1780.447754,255.235413 
	C1784.603149,255.235413 1788.860107,255.235413 1794.074341,255.235413 
	C1793.585938,262.592072 1793.812744,269.953064 1792.455811,277.009644 
	C1790.562500,286.857086 1781.820435,291.952454 1770.770264,290.822815 
	C1760.218750,289.744110 1753.352173,283.273682 1753.149902,272.727081 
	C1752.763428,252.571564 1752.788940,232.399612 1753.120728,212.242371 
	C1753.291382,201.879440 1761.554321,194.738968 1772.620117,194.276978 
	C1783.811035,193.809769 1791.777588,200.361847 1793.021362,211.033020 
	C1793.174927,212.349442 1793.441895,213.652634 1793.667969,215.417831 
z"/>
<path fill="#FAFAFA" opacity="1.000000" stroke="none" 
	d="
M898.115295,225.656784 
	C901.280762,246.699570 904.354431,267.311066 907.461792,288.147949 
	C902.628967,288.147949 898.509521,288.147949 894.217102,288.147949 
	C893.448547,282.435516 892.700256,276.873657 891.922485,271.093018 
	C887.052063,271.093018 882.298218,271.093018 877.306091,271.093018 
	C876.558167,276.770966 875.809631,282.453766 875.063538,288.117859 
	C870.533508,288.117859 866.431152,288.117859 861.974548,288.117859 
	C866.212036,257.700409 870.414551,227.534119 874.639893,197.203461 
	C881.028870,197.203461 887.142395,197.203461 894.117371,197.203461 
	C895.400024,206.404922 896.711792,215.815201 898.115295,225.656784 
M889.400940,243.074310 
	C887.830261,232.975037 886.259583,222.875748 884.688965,212.776474 
	C884.421753,212.743225 884.154541,212.709991 883.887329,212.676758 
	C881.836548,227.303116 879.785828,241.929474 877.697571,256.823151 
	C882.544739,256.823151 886.979065,256.823151 891.560120,256.823151 
	C890.925720,252.424835 890.311523,248.166870 889.400940,243.074310 
z"/>
<path fill="#F9F9F9" opacity="1.000000" stroke="none" 
	d="
M637.108154,267.999512 
	C637.108154,244.203720 637.108154,220.907791 637.108154,197.180923 
	C646.469116,197.180923 655.583191,196.790924 664.642273,197.327820 
	C670.038940,197.647659 674.681152,202.393341 674.932312,207.942719 
	C675.412354,218.549240 675.446838,229.218353 674.848572,239.815338 
	C674.488525,246.191208 668.698486,250.621933 662.139038,250.899002 
	C658.521729,251.051804 654.892639,250.926361 650.980225,250.926361 
	C650.980225,263.466919 650.980225,275.574615 650.980225,288.003479 
	C646.280029,288.003479 641.877991,288.003479 637.108154,288.003479 
	C637.108154,281.424072 637.108154,274.961731 637.108154,267.999512 
M658.743469,212.093170 
	C656.193542,211.970108 653.643616,211.847061 651.147583,211.726608 
	C651.147583,220.429260 651.147583,228.479156 651.147583,236.503006 
	C661.088013,237.176483 662.992615,235.466690 662.994202,226.134598 
	C662.994568,223.815277 663.445374,221.376205 662.871155,219.208923 
	C662.244507,216.843979 660.667786,214.730759 658.743469,212.093170 
z"/>
<path fill="#FDFDFD" opacity="1.000000" stroke="none" 
	d="
M1516.191772,248.381683 
	C1509.982788,249.746292 1504.052979,250.850098 1497.505371,252.068909 
	C1497.505371,263.412811 1497.505371,275.622467 1497.505371,288.068237 
	C1492.913086,288.068237 1488.793213,288.068237 1484.334961,288.068237 
	C1484.334961,258.000122 1484.334961,227.798264 1484.334961,197.134521 
	C1493.130615,197.134521 1502.076416,196.722458 1510.962280,197.274323 
	C1517.253174,197.665039 1521.767212,203.049896 1521.922363,209.501114 
	C1522.154297,219.147751 1522.428833,228.839203 1521.707153,238.438019 
	C1521.455811,241.778015 1518.300171,244.899582 1516.191772,248.381683 
M1507.255981,213.223587 
	C1504.062012,212.574570 1500.868042,211.925552 1497.619385,211.265411 
	C1497.619385,220.475830 1497.619385,228.434738 1497.619385,236.603317 
	C1501.956055,236.798233 1507.716431,237.874680 1508.576172,233.258698 
	C1509.736450,227.029343 1508.193970,220.296661 1507.255981,213.223587 
z"/>
<path fill="#F9F9F9" opacity="1.000000" stroke="none" 
	d="
M1410.270630,198.376526 
	C1413.521118,197.603165 1416.729492,197.105881 1419.947144,197.037537 
	C1426.416138,196.900162 1432.890137,196.996689 1439.645874,196.996689 
	C1439.645874,201.682617 1439.645874,206.094391 1439.645874,211.018753 
	C1434.680054,211.018753 1429.622925,211.018753 1424.292236,211.018753 
	C1424.292236,219.109283 1424.292236,226.700943 1424.292236,234.825012 
	C1428.809082,234.825012 1433.526001,234.825012 1438.473389,234.825012 
	C1438.473389,239.754150 1438.473389,244.153259 1438.473389,248.928772 
	C1433.643188,248.928772 1429.049683,248.928772 1424.236816,248.928772 
	C1424.236816,257.380768 1424.236816,265.458557 1424.236816,274.015869 
	C1429.340210,274.015869 1434.409546,274.015869 1439.695801,274.015869 
	C1439.695801,278.923737 1439.695801,283.361420 1439.695801,288.046844 
	C1429.953125,288.046844 1420.209106,288.046844 1410.232788,288.046844 
	C1410.232788,258.126984 1410.232788,228.486801 1410.270630,198.376526 
z"/>
<path fill="#FBFBFB" opacity="1.000000" stroke="none" 
	d="
M744.783569,288.013367 
	C744.296692,259.699554 744.216370,231.587357 744.137390,203.475159 
	C744.131836,201.509109 744.136597,199.543030 744.136597,197.289322 
	C754.029907,197.289322 763.607056,197.289322 773.528442,197.289322 
	C773.528442,201.713440 773.528442,206.243011 773.528442,211.081604 
	C768.470459,211.081604 763.535950,211.081604 758.293701,211.081604 
	C758.293701,219.085052 758.293701,226.793671 758.293701,234.892685 
	C762.868774,234.892685 767.455933,234.892685 772.274658,234.892685 
	C772.274658,239.699249 772.274658,244.119614 772.274658,248.957062 
	C767.513000,248.957062 762.936096,248.957062 758.179688,248.957062 
	C758.179688,257.443329 758.179688,265.514282 758.179688,273.903748 
	C763.234619,273.903748 768.169434,273.903748 773.485962,273.903748 
	C773.485962,278.752869 773.485962,283.299591 773.485962,288.215027 
	C764.101868,288.215027 754.646118,288.215027 744.783569,288.013367 
z"/>
<path fill="#FCFCFC" opacity="1.000000" stroke="none" 
	d="
M1325.108032,197.001099 
	C1333.226440,197.001114 1340.854492,197.001114 1348.742676,197.001114 
	C1348.742676,201.811325 1348.742676,206.358276 1348.742676,211.222412 
	C1343.774780,211.222412 1339.007324,211.222412 1333.948486,211.222412 
	C1333.948486,219.115204 1333.948486,226.702179 1333.948486,234.742844 
	C1338.299316,234.742844 1342.855713,234.742844 1347.686768,234.742844 
	C1347.686768,239.587143 1347.686768,243.987778 1347.686768,248.878860 
	C1343.139404,248.878860 1338.564941,248.878860 1333.827148,248.878860 
	C1333.827148,257.434845 1333.827148,265.507050 1333.827148,273.859314 
	C1338.673096,273.859314 1343.456421,273.859314 1348.622681,273.859314 
	C1348.622681,278.675842 1348.622681,283.236450 1348.622681,288.061707 
	C1339.368652,288.061707 1329.952759,288.061707 1320.264404,288.061707 
	C1320.264404,257.854584 1320.264404,227.670181 1320.264404,197.001083 
	C1321.735474,197.001083 1323.176514,197.001083 1325.108032,197.001099 
z"/>
<path fill="#F9F9F9" opacity="1.000000" stroke="none" 
	d="
M992.992065,279.920837 
	C992.992065,282.896851 992.992065,285.385284 992.992065,288.070160 
	C988.338806,288.070160 983.915161,288.070160 979.114441,288.070160 
	C979.114441,262.583801 979.114441,237.353821 979.114441,211.737671 
	C974.667175,211.737671 970.578125,211.737671 966.248047,211.737671 
	C966.248047,206.770111 966.248047,202.183777 966.248047,197.294296 
	C979.407043,197.294296 992.642212,197.294296 1006.252563,197.294296 
	C1006.252563,201.862793 1006.252563,206.549896 1006.252563,211.533234 
	C1001.961609,211.533234 997.846558,211.533234 992.992065,211.533234 
	C992.992065,234.356186 992.992065,256.894745 992.992065,279.920837 
z"/>
<path fill="#F9F9F9" opacity="1.000000" stroke="none" 
	d="
M1809.085693,196.995224 
	C1820.717773,196.995224 1831.861206,196.995224 1843.311523,196.995224 
	C1843.311523,201.789307 1843.311523,206.374054 1843.311523,211.399429 
	C1839.079102,211.399429 1834.838745,211.399429 1830.118408,211.399429 
	C1830.118408,237.202988 1830.118408,262.577423 1830.118408,288.138519 
	C1825.359619,288.138519 1821.078369,288.138519 1816.380981,288.138519 
	C1816.380981,262.785370 1816.380981,237.586945 1816.380981,211.821777 
	C1811.788452,211.821777 1807.578003,211.821777 1803.189453,211.821777 
	C1803.189453,206.666885 1803.189453,202.078995 1803.189453,196.995224 
	C1805.049805,196.995224 1806.823364,196.995224 1809.085693,196.995224 
z"/>
<path fill="#F9F9F9" opacity="1.000000" stroke="none" 
	d="
M1358.341675,209.500427 
	C1358.332886,205.241867 1358.332886,201.435165 1358.332886,197.315430 
	C1371.880249,197.315430 1385.115601,197.315430 1398.681885,197.315430 
	C1398.681885,201.834030 1398.681885,206.541824 1398.681885,211.650711 
	C1394.538086,211.650711 1390.447510,211.650711 1386.008057,211.650711 
	C1386.008057,237.300690 1386.008057,262.558563 1386.008057,288.071045 
	C1381.208740,288.071045 1376.773071,288.071045 1371.989990,288.071045 
	C1371.989990,262.638855 1371.989990,237.380020 1371.989990,211.727219 
	C1368.375244,211.727219 1365.081909,211.881851 1361.816895,211.645828 
	C1360.626831,211.559784 1359.504028,210.543915 1358.341675,209.500427 
z"/>
<path fill="#F5F5F5" opacity="1.000000" stroke="none" 
	d="
M795.909302,247.017532 
	C790.811523,247.017532 786.198181,247.017532 781.365051,247.017532 
	C781.365051,243.007584 781.365051,239.410995 781.365051,235.422684 
	C788.504333,235.422684 795.719238,235.422684 803.247314,235.422684 
	C803.247314,238.996552 803.247314,242.736023 803.247314,247.017532 
	C800.924438,247.017532 798.659119,247.017532 795.909302,247.017532 
z"/>
<path fill="#0D5890" opacity="1.000000" stroke="none" 
	d="
M470.590271,98.479034 
	C476.099945,95.562737 481.609650,92.646454 487.119354,89.730164 
	C487.359985,90.200172 487.600586,90.670174 487.841217,91.140182 
	C482.489349,93.753578 477.137512,96.366974 471.307129,98.879189 
	C470.828644,98.778008 470.590271,98.479050 470.590271,98.479034 
z"/>
<path fill="#0D5890" opacity="1.000000" stroke="none" 
	d="
M470.946594,98.928452 
	C469.365631,100.085403 467.666656,101.091904 465.967712,102.098404 
	C465.778015,101.753296 465.588287,101.408195 465.398590,101.063087 
	C466.924347,100.289719 468.450104,99.516357 470.283081,98.611023 
	C470.590271,98.479050 470.828644,98.778008 470.946594,98.928452 
z"/>
<path fill="#FEFEFE" opacity="1.000000" stroke="none" 
	d="
M187.079559,359.997253 
	C182.655045,361.076141 178.640854,362.078888 174.164856,363.196960 
	C174.164856,249.002365 174.164856,135.192596 174.164856,20.744638 
	C181.677155,22.206926 189.098038,23.621994 196.506592,25.098900 
	C221.108994,30.003418 245.687164,35.034042 270.328308,39.734917 
	C273.967224,40.429123 274.744873,41.751297 274.741516,45.201756 
	C274.647949,141.333572 274.635590,237.465530 274.772034,333.597229 
	C274.777740,337.625366 273.327454,338.979248 269.768036,339.836975 
	C242.322433,346.450562 214.911545,353.208160 187.079559,359.997253 
z"/>
<path fill="#FEFEFE" opacity="1.000000" stroke="none" 
	d="
M425.221893,62.921394 
	C431.839447,64.212036 437.997437,65.795387 444.254181,66.493019 
	C449.120667,67.035645 449.851074,69.286240 449.818085,73.658081 
	C449.609009,101.321747 449.702026,128.987717 449.700195,156.652939 
	C449.697113,203.817581 449.650665,250.982376 449.785980,298.146637 
	C449.796783,301.915344 449.015594,303.599182 445.048645,304.556824 
	C420.673553,310.441162 396.378967,316.658966 372.052948,322.747070 
	C371.256195,322.946472 370.409210,322.945190 369.224243,323.077942 
	C369.224243,232.744202 369.224243,142.545273 369.224243,51.612782 
	C387.842407,55.371140 406.323639,59.101856 425.221893,62.921394 
z"/>
<path fill="#FCFDFD" opacity="1.000000" stroke="none" 
	d="
M530.027832,84.984024 
	C536.320251,86.005432 542.646057,86.856346 548.898193,88.083168 
	C562.570190,90.765953 576.204712,93.639603 590.556091,96.578979 
	C590.556091,98.318909 590.556091,100.076477 590.556091,101.834053 
	C590.556152,155.787231 590.504211,209.740555 590.660400,263.693268 
	C590.672180,267.773315 589.555115,269.332428 585.576233,270.392731 
	C568.593567,274.918182 551.727783,279.881470 534.808838,284.647705 
	C533.555542,285.000763 532.219299,285.059082 530.526978,284.645142 
	C530.133484,265.244415 530.145325,246.452957 530.133606,227.661499 
	C530.104004,180.102341 530.063782,132.543182 530.027832,84.984024 
z"/>
<path fill="#004589" opacity="1.000000" stroke="none" 
	d="
M529.726074,85.276215 
	C530.063782,132.543182 530.104004,180.102341 530.133606,227.661499 
	C530.145325,246.452957 530.133484,265.244415 530.125977,284.502197 
	C529.746643,283.434143 529.048645,281.899994 529.047302,280.365295 
	C528.992615,216.741898 528.997925,153.118454 529.018066,89.495026 
	C529.018494,88.186111 529.283020,86.877274 529.726074,85.276215 
z"/>
<path fill="#000000" opacity="1.000000" stroke="none" 
	d="
M1671.350220,233.002396 
	C1671.350220,243.471039 1671.359863,253.440201 1671.347900,263.409332 
	C1671.335327,273.893524 1670.037720,275.155060 1659.299072,274.903931 
	C1659.299072,254.075195 1659.299072,233.236771 1659.299072,212.400986 
	C1669.246582,211.146271 1671.299194,212.958755 1671.348511,223.032242 
	C1671.364014,226.189056 1671.350464,229.346008 1671.350220,233.002396 
z"/>
<path fill="#020202" opacity="1.000000" stroke="none" 
	d="
M1549.684937,213.111542 
	C1552.451172,212.167267 1555.368652,210.975708 1557.922363,211.513077 
	C1559.571167,211.860016 1561.606934,214.619110 1561.856567,216.510178 
	C1562.439819,220.927383 1562.350464,225.498413 1561.971436,229.959412 
	C1561.585205,234.505234 1558.396729,235.938507 1549.682007,235.743942 
	C1549.682007,228.396896 1549.682007,220.997101 1549.684937,213.111542 
z"/>
<path fill="#010101" opacity="1.000000" stroke="none" 
	d="
M1616.022217,249.999954 
	C1616.022095,256.996857 1616.084839,263.494598 1616.000977,269.990417 
	C1615.939941,274.715637 1613.732544,276.981781 1609.567261,277.036346 
	C1604.842407,277.098236 1603.645874,274.094482 1603.638306,270.196472 
	C1603.603149,252.038559 1603.562500,233.880173 1603.666504,215.722778 
	C1603.696045,210.571335 1605.826660,208.368393 1609.890381,208.494415 
	C1613.718872,208.613159 1615.986938,211.300369 1616.007202,216.015884 
	C1616.054932,227.177063 1616.022339,238.338593 1616.022217,249.999954 
z"/>
<path fill="#0B0B0B" opacity="1.000000" stroke="none" 
	d="
M1291.086792,228.527985 
	C1289.545898,235.134567 1287.625000,236.204590 1278.683105,235.633698 
	C1278.683105,227.672989 1278.683105,219.667145 1278.683105,211.603119 
	C1287.878052,209.329498 1291.083862,211.731995 1291.097290,221.126144 
	C1291.100586,223.444901 1291.096436,225.763641 1291.086792,228.527985 
z"/>
<path fill="#080808" opacity="1.000000" stroke="none" 
	d="
M715.641541,223.045593 
	C715.641541,224.160278 715.645447,224.826126 715.640930,225.491928 
	C715.579895,234.414261 713.547119,236.124802 703.210571,235.696304 
	C703.210571,227.641571 703.210571,219.567245 703.210571,211.484314 
	C713.349792,209.714172 715.624756,211.741394 715.641541,223.045593 
z"/>
<path fill="#080808" opacity="1.000000" stroke="none" 
	d="
M1126.654419,234.000641 
	C1126.654541,245.305099 1126.662842,256.109680 1126.645508,266.914276 
	C1126.643188,268.404358 1126.610229,269.906128 1126.426392,271.381958 
	C1125.937012,275.307861 1123.719849,277.274048 1119.698730,277.040466 
	C1115.806274,276.814362 1114.048096,274.397278 1114.032104,270.846924 
	C1113.947998,252.230164 1113.930298,233.612442 1114.046265,214.996033 
	C1114.069336,211.285751 1116.085571,208.641434 1120.086914,208.494659 
	C1124.099976,208.347412 1126.368408,210.736481 1126.525024,214.556503 
	C1126.783569,220.862427 1126.632690,227.185150 1126.654419,234.000641 
z"/>
<path fill="#050505" opacity="1.000000" stroke="none" 
	d="
M889.549133,243.491608 
	C890.311523,248.166870 890.925720,252.424835 891.560120,256.823151 
	C886.979065,256.823151 882.544739,256.823151 877.697571,256.823151 
	C879.785828,241.929474 881.836548,227.303116 883.887329,212.676758 
	C884.154541,212.709991 884.421753,212.743225 884.688965,212.776474 
	C886.259583,222.875748 887.830261,232.975037 889.549133,243.491608 
z"/>
<path fill="#030303" opacity="1.000000" stroke="none" 
	d="
M659.124390,212.300507 
	C660.667786,214.730759 662.244507,216.843979 662.871155,219.208923 
	C663.445374,221.376205 662.994568,223.815277 662.994202,226.134598 
	C662.992615,235.466690 661.088013,237.176483 651.147583,236.503006 
	C651.147583,228.479156 651.147583,220.429260 651.147583,211.726608 
	C653.643616,211.847061 656.193542,211.970108 659.124390,212.300507 
z"/>
<path fill="#0C0C0C" opacity="1.000000" stroke="none" 
	d="
M1507.533691,213.501770 
	C1508.193970,220.296661 1509.736450,227.029343 1508.576172,233.258698 
	C1507.716431,237.874680 1501.956055,236.798233 1497.619385,236.603317 
	C1497.619385,228.434738 1497.619385,220.475830 1497.619385,211.265411 
	C1500.868042,211.925552 1504.062012,212.574570 1507.533691,213.501770 
z"/>
</svg>